<?xml version="1.0" encoding="UTF-8" standalone="no"?><svg xmlns="http://www.w3.org/2000/svg" xmlns:xlink="http://www.w3.org/1999/xlink" contentScriptType="application/ecmascript" contentStyleType="text/css" height="659px" preserveAspectRatio="none" style="width:1160px;height:659px;background:#FFFFFF;" version="1.1" viewBox="0 0 1160 659" width="1160px" zoomAndPan="magnify"><defs><filter height="300%" id="f1mz9v6vo131r2" width="300%" x="-1" y="-1"><feGaussianBlur result="blurOut" stdDeviation="2.0"/><feColorMatrix in="blurOut" result="blurOut2" type="matrix" values="0 0 0 0 0 0 0 0 0 0 0 0 0 0 0 0 0 0 .4 0"/><feOffset dx="4.0" dy="4.0" in="blurOut2" result="blurOut3"/><feBlend in="SourceGraphic" in2="blurOut3" mode="normal"/></filter></defs><g><text fill="#000000" font-family="sans-serif" font-size="18" lengthAdjust="spacing" textLength="139" x="503.25" y="16.708">netconf-generic</text><!--MD5=[a83f81c7cb5037e1bf3d27abf3c90581]
cluster nc_netconf_generic--><polygon fill="#FFFFFF" filter="url(#f1mz9v6vo131r2)" points="16,181.9531,174,181.9531,181,204.25,592,204.25,592,622.9531,16,622.9531,16,181.9531" style="stroke:#000000;stroke-width:1.5;"/><line style="stroke:#000000;stroke-width:1.5;" x1="16" x2="181" y1="204.25" y2="204.25"/><text fill="#000000" font-family="sans-serif" font-size="14" font-weight="bold" lengthAdjust="spacing" textLength="152" x="20" y="196.9482">nc:netconf-generic</text><polygon fill="#FFFFFF" filter="url(#f1mz9v6vo131r2)" points="169.5,65.9531,228.5,65.9531,235.5,88.25,242.5,88.25,242.5,118.5469,169.5,118.5469,169.5,65.9531" style="stroke:#000000;stroke-width:1.5;"/><line style="stroke:#000000;stroke-width:1.5;" x1="169.5" x2="235.5" y1="88.25" y2="88.25"/><text fill="#000000" font-family="sans-serif" font-size="14" font-weight="bold" lengthAdjust="spacing" textLength="53" x="173.5" y="80.9482">c:sdnc</text><polygon fill="#FFFFFF" filter="url(#f1mz9v6vo131r2)" points="278,65.9531,384,65.9531,391,88.25,398,88.25,398,118.5469,278,118.5469,278,65.9531" style="stroke:#000000;stroke-width:1.5;"/><line style="stroke:#000000;stroke-width:1.5;" x1="278" x2="391" y1="88.25" y2="88.25"/><text fill="#000000" font-family="sans-serif" font-size="14" font-weight="bold" lengthAdjust="spacing" textLength="100" x="282" y="80.9482">cnf:sdnc-xnf</text><polygon fill="#FFFFFF" filter="url(#f1mz9v6vo131r2)" points="433,65.9531,535,65.9531,542,88.25,549,88.25,549,118.5469,433,118.5469,433,65.9531" style="stroke:#000000;stroke-width:1.5;"/><line style="stroke:#000000;stroke-width:1.5;" x1="433" x2="542" y1="88.25" y2="88.25"/><text fill="#000000" font-family="sans-serif" font-size="14" font-weight="bold" lengthAdjust="spacing" textLength="96" x="437" y="80.9482">cs:sdnc-sku</text><polygon fill="#FFFFFF" filter="url(#f1mz9v6vo131r2)" points="584,65.9531,738,65.9531,745,88.25,752,88.25,752,118.5469,584,118.5469,584,65.9531" style="stroke:#000000;stroke-width:1.5;"/><line style="stroke:#000000;stroke-width:1.5;" x1="584" x2="745" y1="88.25" y2="88.25"/><text fill="#000000" font-family="sans-serif" font-size="14" font-weight="bold" lengthAdjust="spacing" textLength="148" x="588" y="80.9482">inet:ietf-inet-types</text><!--MD5=[fb93c3d08a7869643b1fef47e6ef305e]
class nc_netconf_generic--><rect fill="#FEFECE" filter="url(#f1mz9v6vo131r2)" height="32" id="nc_netconf_generic" style="stroke:#A80036;stroke-width:1.5;" width="154" x="414" y="238.4531"/><ellipse cx="429" cy="254.4531" fill="#ADD1B2" rx="11" ry="11" style="stroke:#A80036;stroke-width:1.0;"/><path d="M431.9688,260.0938 Q431.3906,260.3906 430.75,260.5313 Q430.1094,260.6875 429.4063,260.6875 Q426.9063,260.6875 425.5781,259.0469 Q424.2656,257.3906 424.2656,254.2656 Q424.2656,251.1406 425.5781,249.4844 Q426.9063,247.8281 429.4063,247.8281 Q430.1094,247.8281 430.75,247.9844 Q431.4063,248.1406 431.9688,248.4375 L431.9688,251.1563 Q431.3438,250.5781 430.75,250.3125 Q430.1563,250.0313 429.5313,250.0313 Q428.1875,250.0313 427.5,251.1094 Q426.8125,252.1719 426.8125,254.2656 Q426.8125,256.3594 427.5,257.4375 Q428.1875,258.5 429.5313,258.5 Q430.1563,258.5 430.75,258.2344 Q431.3438,257.9531 431.9688,257.375 L431.9688,260.0938 Z " fill="#000000"/><text fill="#000000" font-family="sans-serif" font-size="12" lengthAdjust="spacing" textLength="122" x="443" y="258.6074">nc_netconf_generic</text><!--MD5=[819cbb97763c2dfeacb352856fb57c0c]
class netconf_generic--><rect codeLine="29" fill="#FEFECE" filter="url(#f1mz9v6vo131r2)" height="58.7422" id="netconf_generic" style="stroke:#A80036;stroke-width:1.5;" width="155" x="223.5" y="224.9531"/><ellipse cx="249.3" cy="243.9219" fill="#33CCFF" rx="11" ry="11" style="stroke:#A80036;stroke-width:1.0;"/><path d="M245.0188,237.5313 L247.9406,237.5313 L249.4094,242.9688 L250.8781,237.5313 L253.8156,237.5313 L253.8156,249.9219 L251.7063,249.9219 L251.7063,240 L250.3938,245.4219 L248.4563,245.4219 L247.1281,240 L247.1281,249.9219 L245.0188,249.9219 L245.0188,237.5313 Z " fill="#000000"/><text fill="#000000" font-family="sans-serif" font-size="12" font-style="italic" lengthAdjust="spacing" textLength="60" x="285.2" y="241.0918">«module»</text><text fill="#000000" font-family="sans-serif" font-size="12" lengthAdjust="spacing" textLength="99" x="265.7" y="255.0605">netconf-generic</text><line style="stroke:#A80036;stroke-width:1.5;" x1="224.5" x2="377.5" y1="262.8906" y2="262.8906"/><text fill="#000000" font-family="sans-serif" font-size="11" lengthAdjust="spacing" textLength="143" x="229.5" y="277.1011">feature : netconf_generic</text><!--MD5=[fc9bad718b33997a29cd9f9fb34dfe08]
class c_sdnc_cnf_xnf_cnf_nf_cnf_configs--><rect codeLine="31" fill="#FEFECE" filter="url(#f1mz9v6vo131r2)" height="37.9375" id="c_sdnc_cnf_xnf_cnf_nf_cnf_configs" style="stroke:#A80036;stroke-width:1.5;" width="233" x="190.5" y="343.9531"/><ellipse cx="205.5" cy="362.9219" fill="#5F9EA0" rx="11" ry="11" style="stroke:#A80036;stroke-width:1.0;"/><path d="M205.6094,358.2656 L204.4531,363.3438 L206.7813,363.3438 L205.6094,358.2656 Z M204.125,356.0313 L207.1094,356.0313 L210.4688,368.4219 L208.0156,368.4219 L207.25,365.3594 L203.9688,365.3594 L203.2188,368.4219 L200.7813,368.4219 L204.125,356.0313 Z " fill="#000000"/><text fill="#000000" font-family="sans-serif" font-size="12" font-style="italic" lengthAdjust="spacing" textLength="70" x="285" y="360.0918">«augment»</text><text fill="#000000" font-family="sans-serif" font-size="12" lengthAdjust="spacing" textLength="201" x="219.5" y="374.0605">/c:sdnc/cnf:xnf/cnf:nf/cnf:configs</text><path d="M48.5,465.4531 L48.5,490.5859 A0,0 0 0 0 48.5,490.5859 L189.5,490.5859 A0,0 0 0 0 189.5,490.5859 L189.5,475.4531 L179.5,465.4531 L142.22,465.4531 L276.79,382.1131 L134.22,465.4531 L48.5,465.4531 A0,0 0 0 0 48.5,465.4531 " fill="#FBFB77" filter="url(#f1mz9v6vo131r2)" style="stroke:#A80036;stroke-width:1.0;"/><path d="M179.5,465.4531 L179.5,475.4531 L189.5,475.4531 L179.5,465.4531 " fill="#FBFB77" style="stroke:#A80036;stroke-width:1.0;"/><text fill="#000000" font-family="sans-serif" font-size="13" font-weight="bold" lengthAdjust="spacing" textLength="74" x="54.5" y="482.52">if-feature:</text><text fill="#000000" font-family="sans-serif" font-size="13" lengthAdjust="spacing" textLength="41" x="133.5" y="482.52">c:sdnc</text><path d="M224.5,465.4531 L224.5,490.5859 A0,0 0 0 0 224.5,490.5859 L401.5,490.5859 A0,0 0 0 0 401.5,490.5859 L401.5,475.4531 L391.5,465.4531 L316.39,465.4531 L307.96,382.1131 L308.39,465.4531 L224.5,465.4531 A0,0 0 0 0 224.5,465.4531 " fill="#FBFB77" filter="url(#f1mz9v6vo131r2)" style="stroke:#A80036;stroke-width:1.0;"/><path d="M391.5,465.4531 L391.5,475.4531 L401.5,475.4531 L391.5,465.4531 " fill="#FBFB77" style="stroke:#A80036;stroke-width:1.0;"/><text fill="#000000" font-family="sans-serif" font-size="13" font-weight="bold" lengthAdjust="spacing" textLength="74" x="230.5" y="482.52">if-feature:</text><text fill="#000000" font-family="sans-serif" font-size="13" lengthAdjust="spacing" textLength="77" x="309.5" y="482.52">cnf:sdnc-xnf</text><!--MD5=[5c05241e270cf07082bdbe45d2a834d5]
class sdnc_I_sdnc_I_xnf_I_nf_I_configs_I_config--><rect codeLine="39" fill="#FEFECE" filter="url(#f1mz9v6vo131r2)" height="71.5469" id="sdnc_I_sdnc_I_xnf_I_nf_I_configs_I_config" style="stroke:#A80036;stroke-width:1.5;" width="131" x="436.5" y="441.9531"/><ellipse cx="464.55" cy="460.9219" fill="#ADD1B2" rx="11" ry="11" style="stroke:#A80036;stroke-width:1.0;"/><path d="M467.5188,466.5625 Q466.9406,466.8594 466.3,467 Q465.6594,467.1563 464.9563,467.1563 Q462.4563,467.1563 461.1281,465.5156 Q459.8156,463.8594 459.8156,460.7344 Q459.8156,457.6094 461.1281,455.9531 Q462.4563,454.2969 464.9563,454.2969 Q465.6594,454.2969 466.3,454.4531 Q466.9563,454.6094 467.5188,454.9063 L467.5188,457.625 Q466.8938,457.0469 466.3,456.7813 Q465.7063,456.5 465.0813,456.5 Q463.7375,456.5 463.05,457.5781 Q462.3625,458.6406 462.3625,460.7344 Q462.3625,462.8281 463.05,463.9063 Q463.7375,464.9688 465.0813,464.9688 Q465.7063,464.9688 466.3,464.7031 Q466.8938,464.4219 467.5188,463.8438 L467.5188,466.5625 Z " fill="#000000"/><text fill="#000000" font-family="sans-serif" font-size="12" font-style="italic" lengthAdjust="spacing" textLength="74" x="479.45" y="458.0918">«container»</text><text fill="#000000" font-family="sans-serif" font-size="12" lengthAdjust="spacing" textLength="38" x="497.45" y="472.0605">config</text><line style="stroke:#A80036;stroke-width:1.5;" x1="437.5" x2="566.5" y1="479.8906" y2="479.8906"/><text fill="#000000" font-family="sans-serif" font-size="11" lengthAdjust="spacing" textLength="66" x="442.5" y="494.1011">raw : string</text><text fill="#000000" font-family="sans-serif" font-size="11" lengthAdjust="spacing" textLength="119" x="442.5" y="506.9058">hostname : inet:host</text><path d="M444,573.9531 L444,599.0859 A0,0 0 0 0 444,599.0859 L560,599.0859 A0,0 0 0 0 560,599.0859 L560,583.9531 L550,573.9531 L506,573.9531 L502,514.1231 L498,573.9531 L444,573.9531 A0,0 0 0 0 444,573.9531 " fill="#FBFB77" filter="url(#f1mz9v6vo131r2)" style="stroke:#A80036;stroke-width:1.0;"/><path d="M550,573.9531 L550,583.9531 L560,583.9531 L550,573.9531 " fill="#FBFB77" style="stroke:#A80036;stroke-width:1.0;"/><text fill="#000000" font-family="sans-serif" font-size="13" font-weight="bold" lengthAdjust="spacing" textLength="64" x="450" y="591.02">Config =</text><text fill="#000000" font-family="sans-serif" font-size="13" lengthAdjust="spacing" textLength="26" x="519" y="591.02">true</text><path d="M786.5,26.9531 L786.5,158.0156 L1151.5,158.0156 L1151.5,36.9531 L1141.5,26.9531 L786.5,26.9531 " fill="#FBFB77" filter="url(#f1mz9v6vo131r2)" style="stroke:#A80036;stroke-width:1.0;"/><path d="M1141.5,26.9531 L1141.5,36.9531 L1151.5,36.9531 L1141.5,26.9531 " fill="#FBFB77" style="stroke:#A80036;stroke-width:1.0;"/><text fill="#000000" font-family="sans-serif" font-size="13" font-weight="bold" lengthAdjust="spacing" textLength="92" x="792.5" y="44.02">Namespace:</text><text fill="#000000" font-family="sans-serif" font-size="13" lengthAdjust="spacing" textLength="239" x="893.5" y="44.02">urn:com:vendor:yang:netconf:generic</text><text fill="#000000" font-family="sans-serif" font-size="13" font-weight="bold" lengthAdjust="spacing" textLength="48" x="792.5" y="59.1528">Prefix:</text><text fill="#000000" font-family="sans-serif" font-size="13" lengthAdjust="spacing" textLength="15" x="849.5" y="59.1528">nc</text><text fill="#000000" font-family="sans-serif" font-size="13" font-weight="bold" lengthAdjust="spacing" textLength="104" x="792.5" y="74.2856">Organization :</text><text fill="#000000" font-family="sans-serif" font-size="13" lengthAdjust="spacing" textLength="147" x="792.5" y="89.4185">Cowdrey Consulting UK</text><text fill="#000000" font-family="sans-serif" font-size="13" font-weight="bold" lengthAdjust="spacing" textLength="67" x="792.5" y="104.5513">Contact :</text><text fill="#000000" font-family="sans-serif" font-size="13" lengthAdjust="spacing" textLength="109" x="792.5" y="119.6841">lee@cowdrey.net</text><text fill="#000000" font-family="sans-serif" font-size="13" font-weight="bold" lengthAdjust="spacing" textLength="71" x="792.5" y="134.8169">Revision :</text><text fill="#000000" font-family="sans-serif" font-size="13" lengthAdjust="spacing" textLength="74" x="872.5" y="134.8169">2021-10-18</text><text fill="#000000" font-family="sans-serif" font-size="13" lengthAdjust="spacing" textLength="0" x="796.5" y="149.9497"/><!--MD5=[152de3068ed971b2d8a4a6dfbf6c9776]
link GMN7 to nc_netconf_generic--><path d="M786.24,154.6231 C695.58,184.9731 593.47,219.1531 536.22,238.3131 " fill="none" id="GMN7-nc_netconf_generic" style="stroke:#A80036;stroke-width:1.0;stroke-dasharray:7.0,7.0;"/><!--MD5=[81db9653cb87ed02fd42d696449aba64]
reverse link c_sdnc to nc_netconf_generic--><path codeLine="25" d="M229.12,131.2731 C237.49,141.7231 247.9,151.8631 260,157.9531 C287.04,171.5631 368.13,154.1231 396,165.9531 C432.74,181.5531 464.32,217.7631 480.15,238.3831 " fill="none" id="c_sdnc-backto-nc_netconf_generic" style="stroke:#A80036;stroke-width:1.0;"/><ellipse cx="224.9631" cy="125.5447" fill="#FFFFFF" rx="8" ry="8" style="stroke:#A80036;stroke-width:1.0;"/><line style="stroke:#A80036;stroke-width:1.0;" x1="229.6662" x2="220.26" y1="132.0162" y2="119.0731"/><line style="stroke:#A80036;stroke-width:1.0;" x1="218.4916" x2="231.4346" y1="130.2478" y2="120.8416"/><!--MD5=[a4ed4c2098b6b341cdd69b876159c22e]
reverse link cnf_sdnc_xnf to nc_netconf_generic--><path codeLine="26" d="M373.08,130.1431 C405.84,164.3931 453.11,213.8331 476.61,238.4031 " fill="none" id="cnf_sdnc_xnf-backto-nc_netconf_generic" style="stroke:#A80036;stroke-width:1.0;"/><ellipse cx="368.1098" cy="124.9443" fill="#FFFFFF" rx="8" ry="8" style="stroke:#A80036;stroke-width:1.0;"/><line style="stroke:#A80036;stroke-width:1.0;" x1="373.6396" x2="362.58" y1="130.7254" y2="119.1631"/><line style="stroke:#A80036;stroke-width:1.0;" x1="362.3286" x2="373.8909" y1="130.474" y2="119.4145"/><!--MD5=[d2fee0710b6ebd7a160f79e9d9fada72]
reverse link cs_sdnc_sku to nc_netconf_generic--><path codeLine="27" d="M491,134.2231 C491,168.2331 491,214.7931 491,238.4031 " fill="none" id="cs_sdnc_sku-backto-nc_netconf_generic" style="stroke:#A80036;stroke-width:1.0;"/><ellipse cx="491" cy="127.1631" fill="#FFFFFF" rx="8" ry="8" style="stroke:#A80036;stroke-width:1.0;"/><line style="stroke:#A80036;stroke-width:1.0;" x1="491" x2="491" y1="135.1631" y2="119.1631"/><line style="stroke:#A80036;stroke-width:1.0;" x1="483" x2="499" y1="127.1631" y2="127.1631"/><!--MD5=[0feaa851af011ce982a04b2f7a2c1f39]
reverse link inet_ietf_inet_types to nc_netconf_generic--><path codeLine="28" d="M628.4,129.2531 C590.47,163.5331 535.07,213.6131 507.65,238.4031 " fill="none" id="inet_ietf_inet_types-backto-nc_netconf_generic" style="stroke:#A80036;stroke-width:1.0;"/><ellipse cx="633.6246" cy="124.527" fill="#FFFFFF" rx="8" ry="8" style="stroke:#A80036;stroke-width:1.0;"/><line style="stroke:#A80036;stroke-width:1.0;" x1="627.6893" x2="639.56" y1="129.891" y2="119.1631"/><line style="stroke:#A80036;stroke-width:1.0;" x1="628.2607" x2="638.9886" y1="118.5917" y2="130.4624"/><!--MD5=[3af06d01f02d6b85c0b5a242cdf921bf]
reverse link netconf_generic to c_sdnc_cnf_xnf_cnf_nf_cnf_configs--><path codeLine="32" d="M303.35,297.0831 C304.26,313.2431 305.25,330.9131 305.97,343.7231 " fill="none" id="netconf_generic-backto-c_sdnc_cnf_xnf_cnf_nf_cnf_configs" style="stroke:#A80036;stroke-width:1.0;"/><polygon fill="#A80036" points="302.61,283.9931,298.9596,290.212,303.2961,295.9735,306.9465,289.7546,302.61,283.9931" style="stroke:#A80036;stroke-width:1.0;"/><!--MD5=[69abc761f7f556b43ac5ec10af28a102]
reverse link c_sdnc_cnf_xnf_cnf_nf_cnf_configs to sdnc_I_sdnc_I_xnf_I_nf_I_configs_I_config--><path codeLine="40" d="M349.66,388.6731 C376.49,404.2231 411.52,424.5231 441.23,441.7431 " fill="none" id="c_sdnc_cnf_xnf_cnf_nf_cnf_configs-backto-sdnc_I_sdnc_I_xnf_I_nf_I_configs_I_config" style="stroke:#A80036;stroke-width:1.0;"/><polygon fill="#A80036" points="338.33,382.1131,341.5161,388.5822,348.713,388.1292,345.5269,381.6602,338.33,382.1131" style="stroke:#A80036;stroke-width:1.0;"/><text fill="#000000" font-family="sans-serif" font-size="13" lengthAdjust="spacing" textLength="8" x="421.288" y="430.805">1</text><text fill="#888888" font-family="sans-serif" font-size="24" lengthAdjust="spacing" textLength="557" x="294.25" y="651.2305">CommScope © 2020-2022 All Rights Reserved</text><!--MD5=[84fd5ffd59cb4213105ead56766141d5]
@startuml img/netconf-generic.png 
hide empty fields 
hide empty methods 
hide <<case>> circle
hide <<augment>> circle
hide <<choice>> circle
hide <<leafref>> stereotype
hide <<leafref>> circle
page 1x1 
Title netconf-generic 
package "c:sdnc" as c_sdnc { 
} 
package "cnf:sdnc-xnf" as cnf_sdnc_xnf { 
} 
package "cs:sdnc-sku" as cs_sdnc_sku { 
} 
package "inet:ietf-inet-types" as inet_ietf_inet_types { 
} 
note top of nc_netconf_generic : <b>Namespace: </b> urn:com:vendor:yang:netconf:generic \n<b>Prefix: </b> nc \n<b>Organization : </b>\nCowdrey Consulting UK \n<b>Contact : </b>\nlee@cowdrey.net \n<b>Revision : </b> 2021-10-18 \n
package "nc:netconf-generic" as nc_netconf_generic { 
c_sdnc +- - nc_netconf_generic
cnf_sdnc_xnf +- - nc_netconf_generic
cs_sdnc_sku +- - nc_netconf_generic
inet_ietf_inet_types +- - nc_netconf_generic
class "netconf-generic" as netconf_generic << (M, #33CCFF) module>> 
netconf_generic : feature : netconf_generic 
class "/c:sdnc/cnf:xnf/cnf:nf/cnf:configs" as c_sdnc_cnf_xnf_cnf_nf_cnf_configs << (A,CadetBlue) augment>>
netconf_generic *- -  c_sdnc_cnf_xnf_cnf_nf_cnf_configs 
note bottom of c_sdnc_cnf_xnf_cnf_nf_cnf_configs
<b>if-feature: </b>c:sdnc
end note 
note bottom of c_sdnc_cnf_xnf_cnf_nf_cnf_configs
<b>if-feature: </b>cnf:sdnc-xnf
end note 
class "config" as  sdnc_I_sdnc_I_xnf_I_nf_I_configs_I_config <<container>> 
c_sdnc_cnf_xnf_cnf_nf_cnf_configs *- - "1" sdnc_I_sdnc_I_xnf_I_nf_I_configs_I_config 
note bottom of sdnc_I_sdnc_I_xnf_I_nf_I_configs_I_config
<b>Config = </b>true
end note 
sdnc_I_sdnc_I_xnf_I_nf_I_configs_I_config : raw : string  
sdnc_I_sdnc_I_xnf_I_nf_I_configs_I_config : hostname : inet:host  
} 

center footer
 <size:24> CommScope © 2020-2022 All Rights Reserved </size>
 endfooter 
@enduml

PlantUML version 1.2021.8(Sat Jun 26 09:20:59 BST 2021)
(APACHE source distribution)
Java Runtime: OpenJDK Runtime Environment
JVM: OpenJDK 64-Bit Server VM
Default Encoding: UTF-8
Language: en
Country: GB
--></g></svg>