<?xml version="1.0" encoding="UTF-8" standalone="no"?><svg xmlns="http://www.w3.org/2000/svg" xmlns:xlink="http://www.w3.org/1999/xlink" contentScriptType="application/ecmascript" contentStyleType="text/css" height="714px" preserveAspectRatio="none" style="width:1330px;height:714px;background:#FFFFFF;" version="1.1" viewBox="0 0 1330 714" width="1330px" zoomAndPan="magnify"><defs><filter height="300%" id="f1ooh28k0g0dwq" width="300%" x="-1" y="-1"><feGaussianBlur result="blurOut" stdDeviation="2.0"/><feColorMatrix in="blurOut" result="blurOut2" type="matrix" values="0 0 0 0 0 0 0 0 0 0 0 0 0 0 0 0 0 0 .4 0"/><feOffset dx="4.0" dy="4.0" in="blurOut2" result="blurOut3"/><feBlend in="SourceGraphic" in2="blurOut3" mode="normal"/></filter></defs><g><text fill="#000000" font-family="sans-serif" font-size="18" lengthAdjust="spacing" textLength="177" x="569" y="16.708">pon-volt-mf-generic</text><!--MD5=[3d23b340bb2889e51cb8544b9d1d5bb6]
cluster volt_pon_volt_mf_generic--><polygon fill="#FFFFFF" filter="url(#f1ooh28k0g0dwq)" points="16,181.9531,214,181.9531,221,204.25,693,204.25,693,677.9531,16,677.9531,16,181.9531" style="stroke:#000000;stroke-width:1.5;"/><line style="stroke:#000000;stroke-width:1.5;" x1="16" x2="221" y1="204.25" y2="204.25"/><text fill="#000000" font-family="sans-serif" font-size="14" font-weight="bold" lengthAdjust="spacing" textLength="192" x="20" y="196.9482">volt:pon-volt-mf-generic</text><polygon fill="#FFFFFF" filter="url(#f1ooh28k0g0dwq)" points="109.5,65.9531,168.5,65.9531,175.5,88.25,182.5,88.25,182.5,118.5469,109.5,118.5469,109.5,65.9531" style="stroke:#000000;stroke-width:1.5;"/><line style="stroke:#000000;stroke-width:1.5;" x1="109.5" x2="175.5" y1="88.25" y2="88.25"/><text fill="#000000" font-family="sans-serif" font-size="14" font-weight="bold" lengthAdjust="spacing" textLength="53" x="113.5" y="80.9482">c:sdnc</text><polygon fill="#FFFFFF" filter="url(#f1ooh28k0g0dwq)" points="218,65.9531,324,65.9531,331,88.25,338,88.25,338,118.5469,218,118.5469,218,65.9531" style="stroke:#000000;stroke-width:1.5;"/><line style="stroke:#000000;stroke-width:1.5;" x1="218" x2="331" y1="88.25" y2="88.25"/><text fill="#000000" font-family="sans-serif" font-size="14" font-weight="bold" lengthAdjust="spacing" textLength="100" x="222" y="80.9482">cnf:sdnc-xnf</text><polygon fill="#FFFFFF" filter="url(#f1ooh28k0g0dwq)" points="373.5,65.9531,528.5,65.9531,535.5,88.25,542.5,88.25,542.5,118.5469,373.5,118.5469,373.5,65.9531" style="stroke:#000000;stroke-width:1.5;"/><line style="stroke:#000000;stroke-width:1.5;" x1="373.5" x2="535.5" y1="88.25" y2="88.25"/><text fill="#000000" font-family="sans-serif" font-size="14" font-weight="bold" lengthAdjust="spacing" textLength="149" x="377.5" y="80.9482">cg:sdnc-groupings</text><polygon fill="#FFFFFF" filter="url(#f1ooh28k0g0dwq)" points="577,65.9531,679,65.9531,686,88.25,693,88.25,693,118.5469,577,118.5469,577,65.9531" style="stroke:#000000;stroke-width:1.5;"/><line style="stroke:#000000;stroke-width:1.5;" x1="577" x2="686" y1="88.25" y2="88.25"/><text fill="#000000" font-family="sans-serif" font-size="14" font-weight="bold" lengthAdjust="spacing" textLength="96" x="581" y="80.9482">cs:sdnc-sku</text><polygon fill="#FFFFFF" filter="url(#f1ooh28k0g0dwq)" points="728,65.9531,882,65.9531,889,88.25,896,88.25,896,118.5469,728,118.5469,728,65.9531" style="stroke:#000000;stroke-width:1.5;"/><line style="stroke:#000000;stroke-width:1.5;" x1="728" x2="889" y1="88.25" y2="88.25"/><text fill="#000000" font-family="sans-serif" font-size="14" font-weight="bold" lengthAdjust="spacing" textLength="148" x="732" y="80.9482">inet:ietf-inet-types</text><!--MD5=[bde6ebd0af5be0e285948dc9078dd080]
class volt_pon_volt_mf_generic--><rect fill="#FEFECE" filter="url(#f1ooh28k0g0dwq)" height="32" id="volt_pon_volt_mf_generic" style="stroke:#A80036;stroke-width:1.5;" width="186" x="453" y="238.4531"/><ellipse cx="468" cy="254.4531" fill="#ADD1B2" rx="11" ry="11" style="stroke:#A80036;stroke-width:1.0;"/><path d="M470.9688,260.0938 Q470.3906,260.3906 469.75,260.5313 Q469.1094,260.6875 468.4063,260.6875 Q465.9063,260.6875 464.5781,259.0469 Q463.2656,257.3906 463.2656,254.2656 Q463.2656,251.1406 464.5781,249.4844 Q465.9063,247.8281 468.4063,247.8281 Q469.1094,247.8281 469.75,247.9844 Q470.4063,248.1406 470.9688,248.4375 L470.9688,251.1563 Q470.3438,250.5781 469.75,250.3125 Q469.1563,250.0313 468.5313,250.0313 Q467.1875,250.0313 466.5,251.1094 Q465.8125,252.1719 465.8125,254.2656 Q465.8125,256.3594 466.5,257.4375 Q467.1875,258.5 468.5313,258.5 Q469.1563,258.5 469.75,258.2344 Q470.3438,257.9531 470.9688,257.375 L470.9688,260.0938 Z " fill="#000000"/><text fill="#000000" font-family="sans-serif" font-size="12" lengthAdjust="spacing" textLength="154" x="482" y="258.6074">volt_pon_volt_mf_generic</text><!--MD5=[f16f4b84cb54d449f0ea089876cb6b19]
class pon_volt_mf_generic--><rect codeLine="32" fill="#FEFECE" filter="url(#f1ooh28k0g0dwq)" height="58.7422" id="pon_volt_mf_generic" style="stroke:#A80036;stroke-width:1.5;" width="152" x="237" y="224.9531"/><ellipse cx="252" cy="243.9219" fill="#33CCFF" rx="11" ry="11" style="stroke:#A80036;stroke-width:1.0;"/><path d="M247.7188,237.5313 L250.6406,237.5313 L252.1094,242.9688 L253.5781,237.5313 L256.5156,237.5313 L256.5156,249.9219 L254.4063,249.9219 L254.4063,240 L253.0938,245.4219 L251.1563,245.4219 L249.8281,240 L249.8281,249.9219 L247.7188,249.9219 L247.7188,237.5313 Z " fill="#000000"/><text fill="#000000" font-family="sans-serif" font-size="12" font-style="italic" lengthAdjust="spacing" textLength="60" x="296" y="241.0918">«module»</text><text fill="#000000" font-family="sans-serif" font-size="12" lengthAdjust="spacing" textLength="120" x="266" y="255.0605">pon-volt-mf-generic</text><line style="stroke:#A80036;stroke-width:1.5;" x1="238" x2="388" y1="262.8906" y2="262.8906"/><text fill="#000000" font-family="sans-serif" font-size="11" lengthAdjust="spacing" textLength="100" x="243" y="277.1011">feature : pon_volt</text><!--MD5=[fc9bad718b33997a29cd9f9fb34dfe08]
class c_sdnc_cnf_xnf_cnf_nf_cnf_configs--><rect codeLine="34" fill="#FEFECE" filter="url(#f1ooh28k0g0dwq)" height="37.9375" id="c_sdnc_cnf_xnf_cnf_nf_cnf_configs" style="stroke:#A80036;stroke-width:1.5;" width="233" x="196.5" y="343.9531"/><ellipse cx="211.5" cy="362.9219" fill="#5F9EA0" rx="11" ry="11" style="stroke:#A80036;stroke-width:1.0;"/><path d="M211.6094,358.2656 L210.4531,363.3438 L212.7813,363.3438 L211.6094,358.2656 Z M210.125,356.0313 L213.1094,356.0313 L216.4688,368.4219 L214.0156,368.4219 L213.25,365.3594 L209.9688,365.3594 L209.2188,368.4219 L206.7813,368.4219 L210.125,356.0313 Z " fill="#000000"/><text fill="#000000" font-family="sans-serif" font-size="12" font-style="italic" lengthAdjust="spacing" textLength="70" x="291" y="360.0918">«augment»</text><text fill="#000000" font-family="sans-serif" font-size="12" lengthAdjust="spacing" textLength="201" x="225.5" y="374.0605">/c:sdnc/cnf:xnf/cnf:nf/cnf:configs</text><path d="M48.5,465.4531 L48.5,490.5859 A0,0 0 0 0 48.5,490.5859 L189.5,490.5859 A0,0 0 0 0 189.5,490.5859 L189.5,475.4531 L179.5,465.4531 L142.84,465.4531 L281.83,382.1131 L134.84,465.4531 L48.5,465.4531 A0,0 0 0 0 48.5,465.4531 " fill="#FBFB77" filter="url(#f1ooh28k0g0dwq)" style="stroke:#A80036;stroke-width:1.0;"/><path d="M179.5,465.4531 L179.5,475.4531 L189.5,475.4531 L179.5,465.4531 " fill="#FBFB77" style="stroke:#A80036;stroke-width:1.0;"/><text fill="#000000" font-family="sans-serif" font-size="13" font-weight="bold" lengthAdjust="spacing" textLength="74" x="54.5" y="482.52">if-feature:</text><text fill="#000000" font-family="sans-serif" font-size="13" lengthAdjust="spacing" textLength="41" x="133.5" y="482.52">c:sdnc</text><path d="M224.5,465.4531 L224.5,490.5859 A0,0 0 0 0 224.5,490.5859 L401.5,490.5859 A0,0 0 0 0 401.5,490.5859 L401.5,475.4531 L391.5,465.4531 L317,465.4531 L313,382.1131 L309,465.4531 L224.5,465.4531 A0,0 0 0 0 224.5,465.4531 " fill="#FBFB77" filter="url(#f1ooh28k0g0dwq)" style="stroke:#A80036;stroke-width:1.0;"/><path d="M391.5,465.4531 L391.5,475.4531 L401.5,475.4531 L391.5,465.4531 " fill="#FBFB77" style="stroke:#A80036;stroke-width:1.0;"/><text fill="#000000" font-family="sans-serif" font-size="13" font-weight="bold" lengthAdjust="spacing" textLength="74" x="230.5" y="482.52">if-feature:</text><text fill="#000000" font-family="sans-serif" font-size="13" lengthAdjust="spacing" textLength="77" x="309.5" y="482.52">cnf:sdnc-xnf</text><!--MD5=[5c05241e270cf07082bdbe45d2a834d5]
class sdnc_I_sdnc_I_xnf_I_nf_I_configs_I_config--><rect codeLine="42" fill="#FEFECE" filter="url(#f1ooh28k0g0dwq)" height="71.5469" id="sdnc_I_sdnc_I_xnf_I_nf_I_configs_I_config" style="stroke:#A80036;stroke-width:1.5;" width="131" x="436.5" y="441.9531"/><ellipse cx="464.55" cy="460.9219" fill="#ADD1B2" rx="11" ry="11" style="stroke:#A80036;stroke-width:1.0;"/><path d="M467.5188,466.5625 Q466.9406,466.8594 466.3,467 Q465.6594,467.1563 464.9563,467.1563 Q462.4563,467.1563 461.1281,465.5156 Q459.8156,463.8594 459.8156,460.7344 Q459.8156,457.6094 461.1281,455.9531 Q462.4563,454.2969 464.9563,454.2969 Q465.6594,454.2969 466.3,454.4531 Q466.9563,454.6094 467.5188,454.9063 L467.5188,457.625 Q466.8938,457.0469 466.3,456.7813 Q465.7063,456.5 465.0813,456.5 Q463.7375,456.5 463.05,457.5781 Q462.3625,458.6406 462.3625,460.7344 Q462.3625,462.8281 463.05,463.9063 Q463.7375,464.9688 465.0813,464.9688 Q465.7063,464.9688 466.3,464.7031 Q466.8938,464.4219 467.5188,463.8438 L467.5188,466.5625 Z " fill="#000000"/><text fill="#000000" font-family="sans-serif" font-size="12" font-style="italic" lengthAdjust="spacing" textLength="74" x="479.45" y="458.0918">«container»</text><text fill="#000000" font-family="sans-serif" font-size="12" lengthAdjust="spacing" textLength="38" x="497.45" y="472.0605">config</text><line style="stroke:#A80036;stroke-width:1.5;" x1="437.5" x2="566.5" y1="479.8906" y2="479.8906"/><text fill="#000000" font-family="sans-serif" font-size="11" lengthAdjust="spacing" textLength="66" x="442.5" y="494.1011">raw : string</text><text fill="#000000" font-family="sans-serif" font-size="11" lengthAdjust="spacing" textLength="119" x="442.5" y="506.9058">hostname : inet:host</text><path d="M48,601.4531 L48,626.5859 L164,626.5859 L164,611.4531 L154,601.4531 L48,601.4531 " fill="#FBFB77" filter="url(#f1ooh28k0g0dwq)" style="stroke:#A80036;stroke-width:1.0;"/><path d="M154,601.4531 L154,611.4531 L164,611.4531 L154,601.4531 " fill="#FBFB77" style="stroke:#A80036;stroke-width:1.0;"/><text fill="#000000" font-family="sans-serif" font-size="13" font-weight="bold" lengthAdjust="spacing" textLength="64" x="54" y="618.52">Config =</text><text fill="#000000" font-family="sans-serif" font-size="13" lengthAdjust="spacing" textLength="26" x="123" y="618.52">true</text><!--MD5=[860e6f99802e80530add135a67af4462]
class sdnc_I_sdnc_I_xnf_I_nf_I_configs_I_config_I_hardware--><rect codeLine="49" fill="#FEFECE" filter="url(#f1ooh28k0g0dwq)" height="79.5469" id="sdnc_I_sdnc_I_xnf_I_nf_I_configs_I_config_I_hardware" style="stroke:#A80036;stroke-width:1.5;" width="470" x="199" y="573.9531"/><ellipse cx="394.75" cy="592.9219" fill="#ADD1B2" rx="11" ry="11" style="stroke:#A80036;stroke-width:1.0;"/><path d="M397.7188,598.5625 Q397.1406,598.8594 396.5,599 Q395.8594,599.1563 395.1563,599.1563 Q392.6563,599.1563 391.3281,597.5156 Q390.0156,595.8594 390.0156,592.7344 Q390.0156,589.6094 391.3281,587.9531 Q392.6563,586.2969 395.1563,586.2969 Q395.8594,586.2969 396.5,586.4531 Q397.1563,586.6094 397.7188,586.9063 L397.7188,589.625 Q397.0938,589.0469 396.5,588.7813 Q395.9063,588.5 395.2813,588.5 Q393.9375,588.5 393.25,589.5781 Q392.5625,590.6406 392.5625,592.7344 Q392.5625,594.8281 393.25,595.9063 Q393.9375,596.9688 395.2813,596.9688 Q395.9063,596.9688 396.5,596.7031 Q397.0938,596.4219 397.7188,595.8438 L397.7188,598.5625 Z " fill="#000000"/><text fill="#000000" font-family="sans-serif" font-size="12" font-style="italic" lengthAdjust="spacing" textLength="74" x="413.25" y="590.0918">«container»</text><text fill="#000000" font-family="sans-serif" font-size="12" lengthAdjust="spacing" textLength="59" x="420.75" y="604.0605">hardware</text><line style="stroke:#A80036;stroke-width:1.5;" x1="200" x2="668" y1="611.8906" y2="611.8906"/><text fill="#000000" font-family="sans-serif" font-size="11" lengthAdjust="spacing" textLength="170" x="205" y="626.1011">cg:common-hardware {uses}</text><line style="stroke:#A80036;stroke-width:1.5;" x1="200" x2="668" y1="632.6953" y2="632.6953"/><text fill="#000000" font-family="sans-serif" font-size="11" lengthAdjust="spacing" textLength="458" x="205" y="646.9058">vendor : string {length = 3..max} {pattern = ([A-Za-z0-9.-]+)((\s...}   = VENDOR</text><path d="M931,26.9531 L931,158.0156 L1321,158.0156 L1321,36.9531 L1311,26.9531 L931,26.9531 " fill="#FBFB77" filter="url(#f1ooh28k0g0dwq)" style="stroke:#A80036;stroke-width:1.0;"/><path d="M1311,26.9531 L1311,36.9531 L1321,36.9531 L1311,26.9531 " fill="#FBFB77" style="stroke:#A80036;stroke-width:1.0;"/><text fill="#000000" font-family="sans-serif" font-size="13" font-weight="bold" lengthAdjust="spacing" textLength="92" x="937" y="44.02">Namespace:</text><text fill="#000000" font-family="sans-serif" font-size="13" lengthAdjust="spacing" textLength="264" x="1038" y="44.02">urn:com:vendor:yang:pon:volt-mf:generic</text><text fill="#000000" font-family="sans-serif" font-size="13" font-weight="bold" lengthAdjust="spacing" textLength="48" x="937" y="59.1528">Prefix:</text><text fill="#000000" font-family="sans-serif" font-size="13" lengthAdjust="spacing" textLength="23" x="994" y="59.1528">volt</text><text fill="#000000" font-family="sans-serif" font-size="13" font-weight="bold" lengthAdjust="spacing" textLength="104" x="937" y="74.2856">Organization :</text><text fill="#000000" font-family="sans-serif" font-size="13" lengthAdjust="spacing" textLength="147" x="937" y="89.4185">Cowdrey Consulting UK</text><text fill="#000000" font-family="sans-serif" font-size="13" font-weight="bold" lengthAdjust="spacing" textLength="67" x="937" y="104.5513">Contact :</text><text fill="#000000" font-family="sans-serif" font-size="13" lengthAdjust="spacing" textLength="109" x="937" y="119.6841">lee@cowdrey.net</text><text fill="#000000" font-family="sans-serif" font-size="13" font-weight="bold" lengthAdjust="spacing" textLength="71" x="937" y="134.8169">Revision :</text><text fill="#000000" font-family="sans-serif" font-size="13" lengthAdjust="spacing" textLength="74" x="1017" y="134.8169">2022-05-01</text><text fill="#000000" font-family="sans-serif" font-size="13" lengthAdjust="spacing" textLength="0" x="941" y="149.9497"/><!--MD5=[7a0783abaded794cc41bd60793635b61]
link GMN8 to volt_pon_volt_mf_generic--><path d="M930.87,153.1531 C925.19,154.7831 919.55,156.3931 914,157.9531 C806.47,188.2531 680.27,220.2331 607.09,238.4231 " fill="none" id="GMN8-volt_pon_volt_mf_generic" style="stroke:#A80036;stroke-width:1.0;stroke-dasharray:7.0,7.0;"/><!--MD5=[4eebc2f358aba8475d9f36e5c3c544c7]
reverse link c_sdnc to volt_pon_volt_mf_generic--><path codeLine="27" d="M169.04,131.4231 C177.41,141.8831 187.84,151.9831 200,157.9531 C220.66,168.0931 385.01,159.1431 407,165.9531 C455.49,180.9631 503.75,217.4031 528.66,238.2131 " fill="none" id="c_sdnc-backto-volt_pon_volt_mf_generic" style="stroke:#A80036;stroke-width:1.0;"/><ellipse cx="164.8859" cy="125.6772" fill="#FFFFFF" rx="8" ry="8" style="stroke:#A80036;stroke-width:1.0;"/><line style="stroke:#A80036;stroke-width:1.0;" x1="169.5717" x2="160.2" y1="132.1612" y2="119.1931"/><line style="stroke:#A80036;stroke-width:1.0;" x1="158.4018" x2="171.3699" y1="130.363" y2="120.9913"/><!--MD5=[ee84fc0eb51003fcc9812c0b0ccfa5ea]
reverse link cnf_sdnc_xnf to volt_pon_volt_mf_generic--><path codeLine="28" d="M313.2,129.3431 C325.73,140.1631 340.58,151.0031 356,157.9531 C376.92,167.3731 385.52,157.9031 407,165.9531 C453.99,183.5731 502.07,218.3231 527.53,238.3231 " fill="none" id="cnf_sdnc_xnf-backto-volt_pon_volt_mf_generic" style="stroke:#A80036;stroke-width:1.0;"/><ellipse cx="307.8737" cy="124.491" fill="#FFFFFF" rx="8" ry="8" style="stroke:#A80036;stroke-width:1.0;"/><line style="stroke:#A80036;stroke-width:1.0;" x1="313.7873" x2="301.96" y1="129.8788" y2="119.1031"/><line style="stroke:#A80036;stroke-width:1.0;" x1="302.4858" x2="313.2615" y1="130.4046" y2="118.5773"/><!--MD5=[fb8825233eb82655b0ba0c71c678890b]
reverse link cg_sdnc_groupings to volt_pon_volt_mf_generic--><path codeLine="29" d="M479.42,132.3931 C498.2,166.5331 524.5,214.3631 537.72,238.4031 " fill="none" id="cg_sdnc_groupings-backto-volt_pon_volt_mf_generic" style="stroke:#A80036;stroke-width:1.0;"/><ellipse cx="475.9953" cy="126.1729" fill="#FFFFFF" rx="8" ry="8" style="stroke:#A80036;stroke-width:1.0;"/><line style="stroke:#A80036;stroke-width:1.0;" x1="479.8507" x2="472.14" y1="133.1826" y2="119.1631"/><line style="stroke:#A80036;stroke-width:1.0;" x1="468.9856" x2="483.0051" y1="130.0282" y2="122.3175"/><!--MD5=[ca48cf355093438ba46fc249550e2517]
reverse link cs_sdnc_sku to volt_pon_volt_mf_generic--><path codeLine="30" d="M613.34,132.3931 C594.35,166.5331 567.74,214.3631 554.37,238.4031 " fill="none" id="cs_sdnc_sku-backto-volt_pon_volt_mf_generic" style="stroke:#A80036;stroke-width:1.0;"/><ellipse cx="616.809" cy="126.1531" fill="#FFFFFF" rx="8" ry="8" style="stroke:#A80036;stroke-width:1.0;"/><line style="stroke:#A80036;stroke-width:1.0;" x1="612.9181" x2="620.7" y1="133.1432" y2="119.1631"/><line style="stroke:#A80036;stroke-width:1.0;" x1="609.819" x2="623.7991" y1="122.2622" y2="130.0441"/><!--MD5=[a2e37d157f06408adb16b729307ddb74]
reverse link inet_ietf_inet_types to volt_pon_volt_mf_generic--><path codeLine="31" d="M760.18,127.1631 C744.47,137.2131 727.11,148.1531 711,157.9531 C662.79,187.2831 605.61,219.9031 572.79,238.4231 " fill="none" id="inet_ietf_inet_types-backto-volt_pon_volt_mf_generic" style="stroke:#A80036;stroke-width:1.0;"/><ellipse cx="766.1918" cy="123.3011" fill="#FFFFFF" rx="8" ry="8" style="stroke:#A80036;stroke-width:1.0;"/><line style="stroke:#A80036;stroke-width:1.0;" x1="759.4636" x2="772.92" y1="127.6291" y2="118.9731"/><line style="stroke:#A80036;stroke-width:1.0;" x1="761.8638" x2="770.5198" y1="116.5729" y2="130.0293"/><!--MD5=[e20e62f8b1448d5525ca9c5374e538d7]
reverse link pon_volt_mf_generic to c_sdnc_cnf_xnf_cnf_nf_cnf_configs--><path codeLine="35" d="M313,297.0831 C313,313.2431 313,330.9131 313,343.7231 " fill="none" id="pon_volt_mf_generic-backto-c_sdnc_cnf_xnf_cnf_nf_cnf_configs" style="stroke:#A80036;stroke-width:1.0;"/><polygon fill="#A80036" points="313,283.9931,309,289.9931,313,295.9931,317,289.9931,313,283.9931" style="stroke:#A80036;stroke-width:1.0;"/><!--MD5=[69abc761f7f556b43ac5ec10af28a102]
reverse link c_sdnc_cnf_xnf_cnf_nf_cnf_configs to sdnc_I_sdnc_I_xnf_I_nf_I_configs_I_config--><path codeLine="43" d="M354.7,388.8831 C380.65,404.4031 414.44,424.6031 443.1,441.7431 " fill="none" id="c_sdnc_cnf_xnf_cnf_nf_cnf_configs-backto-sdnc_I_sdnc_I_xnf_I_nf_I_configs_I_config" style="stroke:#A80036;stroke-width:1.0;"/><polygon fill="#A80036" points="343.37,382.1131,346.4668,388.6254,353.6692,388.2716,350.5724,381.7593,343.37,382.1131" style="stroke:#A80036;stroke-width:1.0;"/><text fill="#000000" font-family="sans-serif" font-size="13" lengthAdjust="spacing" textLength="8" x="423.5028" y="430.805">1</text><!--MD5=[62a28ac8664087a23c1a15af78a13711]
link sdnc_I_sdnc_I_xnf_I_nf_I_configs_I_config to GMN28--><path d="M436.2,507.7631 C430.43,509.9731 424.64,512.0631 419,513.9531 C315.55,548.5831 282.97,535.1931 181,573.9531 C161.25,581.4631 139.98,592.8631 125.16,601.4031 " fill="none" id="sdnc_I_sdnc_I_xnf_I_nf_I_configs_I_config-GMN28" style="stroke:#A80036;stroke-width:1.0;stroke-dasharray:7.0,7.0;"/><!--MD5=[b8837e8abc24c0879640b4093285f2ce]
reverse link sdnc_I_sdnc_I_xnf_I_nf_I_configs_I_config to sdnc_I_sdnc_I_xnf_I_nf_I_configs_I_config_I_hardware--><path codeLine="50" d="M478.25,525.7531 C470.3,541.4231 461.53,558.7131 453.9,573.7331 " fill="none" id="sdnc_I_sdnc_I_xnf_I_nf_I_configs_I_config-backto-sdnc_I_sdnc_I_xnf_I_nf_I_configs_I_config_I_hardware" style="stroke:#A80036;stroke-width:1.0;"/><polygon fill="#A80036" points="484.13,514.1631,477.848,517.7039,478.7003,524.8644,484.9822,521.3237,484.13,514.1631" style="stroke:#A80036;stroke-width:1.0;"/><text fill="#000000" font-family="sans-serif" font-size="13" lengthAdjust="spacing" textLength="8" x="448.5334" y="562.9449">1</text><text fill="#888888" font-family="sans-serif" font-size="24" lengthAdjust="spacing" textLength="280" x="517.5" y="706.2305">Cowdrey Consulting UK</text><!--MD5=[bc62f2f04d34180811ff5c29f0d93b2e]
@startuml img/pon-volt-mf-generic.png 
hide empty fields 
hide empty methods 
hide <<case>> circle
hide <<augment>> circle
hide <<choice>> circle
hide <<leafref>> stereotype
hide <<leafref>> circle
page 1x1 
Title pon-volt-mf-generic 
package "c:sdnc" as c_sdnc { 
} 
package "cnf:sdnc-xnf" as cnf_sdnc_xnf { 
} 
package "cg:sdnc-groupings" as cg_sdnc_groupings { 
} 
package "cs:sdnc-sku" as cs_sdnc_sku { 
} 
package "inet:ietf-inet-types" as inet_ietf_inet_types { 
} 
note top of volt_pon_volt_mf_generic : <b>Namespace: </b> urn:com:vendor:yang:pon:volt-mf:generic \n<b>Prefix: </b> volt \n<b>Organization : </b>\nCowdrey Consulting UK \n<b>Contact : </b>\nlee@cowdrey.net \n<b>Revision : </b> 2022-05-01 \n
package "volt:pon-volt-mf-generic" as volt_pon_volt_mf_generic { 
c_sdnc +- - volt_pon_volt_mf_generic
cnf_sdnc_xnf +- - volt_pon_volt_mf_generic
cg_sdnc_groupings +- - volt_pon_volt_mf_generic
cs_sdnc_sku +- - volt_pon_volt_mf_generic
inet_ietf_inet_types +- - volt_pon_volt_mf_generic
class "pon-volt-mf-generic" as pon_volt_mf_generic << (M, #33CCFF) module>> 
pon_volt_mf_generic : feature : pon_volt 
class "/c:sdnc/cnf:xnf/cnf:nf/cnf:configs" as c_sdnc_cnf_xnf_cnf_nf_cnf_configs << (A,CadetBlue) augment>>
pon_volt_mf_generic *- -  c_sdnc_cnf_xnf_cnf_nf_cnf_configs 
note bottom of c_sdnc_cnf_xnf_cnf_nf_cnf_configs
<b>if-feature: </b>c:sdnc
end note 
note bottom of c_sdnc_cnf_xnf_cnf_nf_cnf_configs
<b>if-feature: </b>cnf:sdnc-xnf
end note 
class "config" as  sdnc_I_sdnc_I_xnf_I_nf_I_configs_I_config <<container>> 
c_sdnc_cnf_xnf_cnf_nf_cnf_configs *- - "1" sdnc_I_sdnc_I_xnf_I_nf_I_configs_I_config 
note bottom of sdnc_I_sdnc_I_xnf_I_nf_I_configs_I_config
<b>Config = </b>true
end note 
sdnc_I_sdnc_I_xnf_I_nf_I_configs_I_config : raw : string  
sdnc_I_sdnc_I_xnf_I_nf_I_configs_I_config : hostname : inet:host  
class "hardware" as  sdnc_I_sdnc_I_xnf_I_nf_I_configs_I_config_I_hardware <<container>> 
sdnc_I_sdnc_I_xnf_I_nf_I_configs_I_config *- - "1" sdnc_I_sdnc_I_xnf_I_nf_I_configs_I_config_I_hardware 
sdnc_I_sdnc_I_xnf_I_nf_I_configs_I_config_I_hardware : cg:common-hardware {uses} 
sdnc_I_sdnc_I_xnf_I_nf_I_configs_I_config_I_hardware : vendor : string {length = 3..max} {pattern = ([A-Za-z0-9.-]+)((\s...}   = VENDOR 
} 

center footer
 <size:24> Cowdrey Consulting UK </size>
 endfooter 
@enduml

PlantUML version 1.2021.8(Sat Jun 26 09:20:59 BST 2021)
(APACHE source distribution)
Java Runtime: OpenJDK Runtime Environment
JVM: OpenJDK 64-Bit Server VM
Default Encoding: UTF-8
Language: en
Country: GB
--></g></svg>