<?xml version="1.0" encoding="UTF-8" standalone="no"?><svg xmlns="http://www.w3.org/2000/svg" xmlns:xlink="http://www.w3.org/1999/xlink" contentScriptType="application/ecmascript" contentStyleType="text/css" height="714px" preserveAspectRatio="none" style="width:1348px;height:714px;background:#FFFFFF;" version="1.1" viewBox="0 0 1348 714" width="1348px" zoomAndPan="magnify"><defs><filter height="300%" id="f8grk52zrwts9" width="300%" x="-1" y="-1"><feGaussianBlur result="blurOut" stdDeviation="2.0"/><feColorMatrix in="blurOut" result="blurOut2" type="matrix" values="0 0 0 0 0 0 0 0 0 0 0 0 0 0 0 0 0 0 .4 0"/><feOffset dx="4.0" dy="4.0" in="blurOut2" result="blurOut3"/><feBlend in="SourceGraphic" in2="blurOut3" mode="normal"/></filter></defs><g><text fill="#000000" font-family="sans-serif" font-size="18" lengthAdjust="spacing" textLength="199" x="567.25" y="16.708">pon-hisense-hbg8271a</text><!--MD5=[06c94182713ad80d92e24d05010cdec9]
cluster hbg8271a_pon_hisense_hbg8271a--><polygon fill="#FFFFFF" filter="url(#f8grk52zrwts9)" points="16,181.9531,290,181.9531,297,204.25,693,204.25,693,677.9531,16,677.9531,16,181.9531" style="stroke:#000000;stroke-width:1.5;"/><line style="stroke:#000000;stroke-width:1.5;" x1="16" x2="297" y1="204.25" y2="204.25"/><text fill="#000000" font-family="sans-serif" font-size="14" font-weight="bold" lengthAdjust="spacing" textLength="268" x="20" y="196.9482">hbg8271a:pon-hisense-hbg8271a</text><polygon fill="#FFFFFF" filter="url(#f8grk52zrwts9)" points="106.5,65.9531,165.5,65.9531,172.5,88.25,179.5,88.25,179.5,118.5469,106.5,118.5469,106.5,65.9531" style="stroke:#000000;stroke-width:1.5;"/><line style="stroke:#000000;stroke-width:1.5;" x1="106.5" x2="172.5" y1="88.25" y2="88.25"/><text fill="#000000" font-family="sans-serif" font-size="14" font-weight="bold" lengthAdjust="spacing" textLength="53" x="110.5" y="80.9482">c:sdnc</text><polygon fill="#FFFFFF" filter="url(#f8grk52zrwts9)" points="215,65.9531,321,65.9531,328,88.25,335,88.25,335,118.5469,215,118.5469,215,65.9531" style="stroke:#000000;stroke-width:1.5;"/><line style="stroke:#000000;stroke-width:1.5;" x1="215" x2="328" y1="88.25" y2="88.25"/><text fill="#000000" font-family="sans-serif" font-size="14" font-weight="bold" lengthAdjust="spacing" textLength="100" x="219" y="80.9482">cnf:sdnc-xnf</text><polygon fill="#FFFFFF" filter="url(#f8grk52zrwts9)" points="370.5,65.9531,525.5,65.9531,532.5,88.25,539.5,88.25,539.5,118.5469,370.5,118.5469,370.5,65.9531" style="stroke:#000000;stroke-width:1.5;"/><line style="stroke:#000000;stroke-width:1.5;" x1="370.5" x2="532.5" y1="88.25" y2="88.25"/><text fill="#000000" font-family="sans-serif" font-size="14" font-weight="bold" lengthAdjust="spacing" textLength="149" x="374.5" y="80.9482">cg:sdnc-groupings</text><polygon fill="#FFFFFF" filter="url(#f8grk52zrwts9)" points="574,65.9531,676,65.9531,683,88.25,690,88.25,690,118.5469,574,118.5469,574,65.9531" style="stroke:#000000;stroke-width:1.5;"/><line style="stroke:#000000;stroke-width:1.5;" x1="574" x2="683" y1="88.25" y2="88.25"/><text fill="#000000" font-family="sans-serif" font-size="14" font-weight="bold" lengthAdjust="spacing" textLength="96" x="578" y="80.9482">cs:sdnc-sku</text><polygon fill="#FFFFFF" filter="url(#f8grk52zrwts9)" points="725,65.9531,879,65.9531,886,88.25,893,88.25,893,118.5469,725,118.5469,725,65.9531" style="stroke:#000000;stroke-width:1.5;"/><line style="stroke:#000000;stroke-width:1.5;" x1="725" x2="886" y1="88.25" y2="88.25"/><text fill="#000000" font-family="sans-serif" font-size="14" font-weight="bold" lengthAdjust="spacing" textLength="148" x="729" y="80.9482">inet:ietf-inet-types</text><!--MD5=[2f6c21e230f49438e464849cd21d79b7]
class hbg8271a_pon_hisense_hbg8271a--><rect fill="#FEFECE" filter="url(#f8grk52zrwts9)" height="32" id="hbg8271a_pon_hisense_hbg8271a" style="stroke:#A80036;stroke-width:1.5;" width="251" x="417.5" y="238.4531"/><ellipse cx="432.5" cy="254.4531" fill="#ADD1B2" rx="11" ry="11" style="stroke:#A80036;stroke-width:1.0;"/><path d="M435.4688,260.0938 Q434.8906,260.3906 434.25,260.5313 Q433.6094,260.6875 432.9063,260.6875 Q430.4063,260.6875 429.0781,259.0469 Q427.7656,257.3906 427.7656,254.2656 Q427.7656,251.1406 429.0781,249.4844 Q430.4063,247.8281 432.9063,247.8281 Q433.6094,247.8281 434.25,247.9844 Q434.9063,248.1406 435.4688,248.4375 L435.4688,251.1563 Q434.8438,250.5781 434.25,250.3125 Q433.6563,250.0313 433.0313,250.0313 Q431.6875,250.0313 431,251.1094 Q430.3125,252.1719 430.3125,254.2656 Q430.3125,256.3594 431,257.4375 Q431.6875,258.5 433.0313,258.5 Q433.6563,258.5 434.25,258.2344 Q434.8438,257.9531 435.4688,257.375 L435.4688,260.0938 Z " fill="#000000"/><text fill="#000000" font-family="sans-serif" font-size="12" lengthAdjust="spacing" textLength="219" x="446.5" y="258.6074">hbg8271a_pon_hisense_hbg8271a</text><!--MD5=[9b41dc9491026c8cda13ad668b18b90f]
class pon_hisense_hbg8271a--><rect codeLine="32" fill="#FEFECE" filter="url(#f8grk52zrwts9)" height="58.7422" id="pon_hisense_hbg8271a" style="stroke:#A80036;stroke-width:1.5;" width="177" x="205.5" y="224.9531"/><ellipse cx="220.5" cy="243.9219" fill="#33CCFF" rx="11" ry="11" style="stroke:#A80036;stroke-width:1.0;"/><path d="M216.2188,237.5313 L219.1406,237.5313 L220.6094,242.9688 L222.0781,237.5313 L225.0156,237.5313 L225.0156,249.9219 L222.9063,249.9219 L222.9063,240 L221.5938,245.4219 L219.6563,245.4219 L218.3281,240 L218.3281,249.9219 L216.2188,249.9219 L216.2188,237.5313 Z " fill="#000000"/><text fill="#000000" font-family="sans-serif" font-size="12" font-style="italic" lengthAdjust="spacing" textLength="60" x="277" y="241.0918">«module»</text><text fill="#000000" font-family="sans-serif" font-size="12" lengthAdjust="spacing" textLength="145" x="234.5" y="255.0605">pon-hisense-hbg8271a</text><line style="stroke:#A80036;stroke-width:1.5;" x1="206.5" x2="381.5" y1="262.8906" y2="262.8906"/><text fill="#000000" font-family="sans-serif" font-size="11" lengthAdjust="spacing" textLength="101" x="211.5" y="277.1011">feature : pon_onu</text><!--MD5=[fc9bad718b33997a29cd9f9fb34dfe08]
class c_sdnc_cnf_xnf_cnf_nf_cnf_configs--><rect codeLine="34" fill="#FEFECE" filter="url(#f8grk52zrwts9)" height="37.9375" id="c_sdnc_cnf_xnf_cnf_nf_cnf_configs" style="stroke:#A80036;stroke-width:1.5;" width="233" x="186.5" y="343.9531"/><ellipse cx="201.5" cy="362.9219" fill="#5F9EA0" rx="11" ry="11" style="stroke:#A80036;stroke-width:1.0;"/><path d="M201.6094,358.2656 L200.4531,363.3438 L202.7813,363.3438 L201.6094,358.2656 Z M200.125,356.0313 L203.1094,356.0313 L206.4688,368.4219 L204.0156,368.4219 L203.25,365.3594 L199.9688,365.3594 L199.2188,368.4219 L196.7813,368.4219 L200.125,356.0313 Z " fill="#000000"/><text fill="#000000" font-family="sans-serif" font-size="12" font-style="italic" lengthAdjust="spacing" textLength="70" x="281" y="360.0918">«augment»</text><text fill="#000000" font-family="sans-serif" font-size="12" lengthAdjust="spacing" textLength="201" x="215.5" y="374.0605">/c:sdnc/cnf:xnf/cnf:nf/cnf:configs</text><path d="M48.5,465.4531 L48.5,490.5859 A0,0 0 0 0 48.5,490.5859 L189.5,490.5859 A0,0 0 0 0 189.5,490.5859 L189.5,475.4531 L179.5,465.4531 L141.82,465.4531 L273.44,382.1131 L133.82,465.4531 L48.5,465.4531 A0,0 0 0 0 48.5,465.4531 " fill="#FBFB77" filter="url(#f8grk52zrwts9)" style="stroke:#A80036;stroke-width:1.0;"/><path d="M179.5,465.4531 L179.5,475.4531 L189.5,475.4531 L179.5,465.4531 " fill="#FBFB77" style="stroke:#A80036;stroke-width:1.0;"/><text fill="#000000" font-family="sans-serif" font-size="13" font-weight="bold" lengthAdjust="spacing" textLength="74" x="54.5" y="482.52">if-feature:</text><text fill="#000000" font-family="sans-serif" font-size="13" lengthAdjust="spacing" textLength="41" x="133.5" y="482.52">c:sdnc</text><path d="M224.5,465.4531 L224.5,490.5859 A0,0 0 0 0 224.5,490.5859 L401.5,490.5859 A0,0 0 0 0 401.5,490.5859 L401.5,475.4531 L391.5,465.4531 L315.98,465.4531 L304.61,382.1131 L307.98,465.4531 L224.5,465.4531 A0,0 0 0 0 224.5,465.4531 " fill="#FBFB77" filter="url(#f8grk52zrwts9)" style="stroke:#A80036;stroke-width:1.0;"/><path d="M391.5,465.4531 L391.5,475.4531 L401.5,475.4531 L391.5,465.4531 " fill="#FBFB77" style="stroke:#A80036;stroke-width:1.0;"/><text fill="#000000" font-family="sans-serif" font-size="13" font-weight="bold" lengthAdjust="spacing" textLength="74" x="230.5" y="482.52">if-feature:</text><text fill="#000000" font-family="sans-serif" font-size="13" lengthAdjust="spacing" textLength="77" x="309.5" y="482.52">cnf:sdnc-xnf</text><!--MD5=[5c05241e270cf07082bdbe45d2a834d5]
class sdnc_I_sdnc_I_xnf_I_nf_I_configs_I_config--><rect codeLine="42" fill="#FEFECE" filter="url(#f8grk52zrwts9)" height="71.5469" id="sdnc_I_sdnc_I_xnf_I_nf_I_configs_I_config" style="stroke:#A80036;stroke-width:1.5;" width="131" x="436.5" y="441.9531"/><ellipse cx="464.55" cy="460.9219" fill="#ADD1B2" rx="11" ry="11" style="stroke:#A80036;stroke-width:1.0;"/><path d="M467.5188,466.5625 Q466.9406,466.8594 466.3,467 Q465.6594,467.1563 464.9563,467.1563 Q462.4563,467.1563 461.1281,465.5156 Q459.8156,463.8594 459.8156,460.7344 Q459.8156,457.6094 461.1281,455.9531 Q462.4563,454.2969 464.9563,454.2969 Q465.6594,454.2969 466.3,454.4531 Q466.9563,454.6094 467.5188,454.9063 L467.5188,457.625 Q466.8938,457.0469 466.3,456.7813 Q465.7063,456.5 465.0813,456.5 Q463.7375,456.5 463.05,457.5781 Q462.3625,458.6406 462.3625,460.7344 Q462.3625,462.8281 463.05,463.9063 Q463.7375,464.9688 465.0813,464.9688 Q465.7063,464.9688 466.3,464.7031 Q466.8938,464.4219 467.5188,463.8438 L467.5188,466.5625 Z " fill="#000000"/><text fill="#000000" font-family="sans-serif" font-size="12" font-style="italic" lengthAdjust="spacing" textLength="74" x="479.45" y="458.0918">«container»</text><text fill="#000000" font-family="sans-serif" font-size="12" lengthAdjust="spacing" textLength="38" x="497.45" y="472.0605">config</text><line style="stroke:#A80036;stroke-width:1.5;" x1="437.5" x2="566.5" y1="479.8906" y2="479.8906"/><text fill="#000000" font-family="sans-serif" font-size="11" lengthAdjust="spacing" textLength="66" x="442.5" y="494.1011">raw : string</text><text fill="#000000" font-family="sans-serif" font-size="11" lengthAdjust="spacing" textLength="119" x="442.5" y="506.9058">hostname : inet:host</text><path d="M48,601.4531 L48,626.5859 L164,626.5859 L164,611.4531 L154,601.4531 L48,601.4531 " fill="#FBFB77" filter="url(#f8grk52zrwts9)" style="stroke:#A80036;stroke-width:1.0;"/><path d="M154,601.4531 L154,611.4531 L164,611.4531 L154,601.4531 " fill="#FBFB77" style="stroke:#A80036;stroke-width:1.0;"/><text fill="#000000" font-family="sans-serif" font-size="13" font-weight="bold" lengthAdjust="spacing" textLength="64" x="54" y="618.52">Config =</text><text fill="#000000" font-family="sans-serif" font-size="13" lengthAdjust="spacing" textLength="26" x="123" y="618.52">true</text><!--MD5=[860e6f99802e80530add135a67af4462]
class sdnc_I_sdnc_I_xnf_I_nf_I_configs_I_config_I_hardware--><rect codeLine="49" fill="#FEFECE" filter="url(#f8grk52zrwts9)" height="79.5469" id="sdnc_I_sdnc_I_xnf_I_nf_I_configs_I_config_I_hardware" style="stroke:#A80036;stroke-width:1.5;" width="470" x="199" y="573.9531"/><ellipse cx="394.75" cy="592.9219" fill="#ADD1B2" rx="11" ry="11" style="stroke:#A80036;stroke-width:1.0;"/><path d="M397.7188,598.5625 Q397.1406,598.8594 396.5,599 Q395.8594,599.1563 395.1563,599.1563 Q392.6563,599.1563 391.3281,597.5156 Q390.0156,595.8594 390.0156,592.7344 Q390.0156,589.6094 391.3281,587.9531 Q392.6563,586.2969 395.1563,586.2969 Q395.8594,586.2969 396.5,586.4531 Q397.1563,586.6094 397.7188,586.9063 L397.7188,589.625 Q397.0938,589.0469 396.5,588.7813 Q395.9063,588.5 395.2813,588.5 Q393.9375,588.5 393.25,589.5781 Q392.5625,590.6406 392.5625,592.7344 Q392.5625,594.8281 393.25,595.9063 Q393.9375,596.9688 395.2813,596.9688 Q395.9063,596.9688 396.5,596.7031 Q397.0938,596.4219 397.7188,595.8438 L397.7188,598.5625 Z " fill="#000000"/><text fill="#000000" font-family="sans-serif" font-size="12" font-style="italic" lengthAdjust="spacing" textLength="74" x="413.25" y="590.0918">«container»</text><text fill="#000000" font-family="sans-serif" font-size="12" lengthAdjust="spacing" textLength="59" x="420.75" y="604.0605">hardware</text><line style="stroke:#A80036;stroke-width:1.5;" x1="200" x2="668" y1="611.8906" y2="611.8906"/><text fill="#000000" font-family="sans-serif" font-size="11" lengthAdjust="spacing" textLength="170" x="205" y="626.1011">cg:common-hardware {uses}</text><line style="stroke:#A80036;stroke-width:1.5;" x1="200" x2="668" y1="632.6953" y2="632.6953"/><text fill="#000000" font-family="sans-serif" font-size="11" lengthAdjust="spacing" textLength="458" x="205" y="646.9058">vendor : string {length = 3..max} {pattern = ([A-Za-z0-9.-]+)((\s...}   = VENDOR</text><path d="M928.5,26.9531 L928.5,158.0156 L1339.5,158.0156 L1339.5,36.9531 L1329.5,26.9531 L928.5,26.9531 " fill="#FBFB77" filter="url(#f8grk52zrwts9)" style="stroke:#A80036;stroke-width:1.0;"/><path d="M1329.5,26.9531 L1329.5,36.9531 L1339.5,36.9531 L1329.5,26.9531 " fill="#FBFB77" style="stroke:#A80036;stroke-width:1.0;"/><text fill="#000000" font-family="sans-serif" font-size="13" font-weight="bold" lengthAdjust="spacing" textLength="92" x="934.5" y="44.02">Namespace:</text><text fill="#000000" font-family="sans-serif" font-size="13" lengthAdjust="spacing" textLength="285" x="1035.5" y="44.02">urn:com:vendor:yang:pon:hisense:hbg8271a</text><text fill="#000000" font-family="sans-serif" font-size="13" font-weight="bold" lengthAdjust="spacing" textLength="48" x="934.5" y="59.1528">Prefix:</text><text fill="#000000" font-family="sans-serif" font-size="13" lengthAdjust="spacing" textLength="64" x="991.5" y="59.1528">hbg8271a</text><text fill="#000000" font-family="sans-serif" font-size="13" font-weight="bold" lengthAdjust="spacing" textLength="104" x="934.5" y="74.2856">Organization :</text><text fill="#000000" font-family="sans-serif" font-size="13" lengthAdjust="spacing" textLength="147" x="934.5" y="89.4185">Cowdrey Consulting UK</text><text fill="#000000" font-family="sans-serif" font-size="13" font-weight="bold" lengthAdjust="spacing" textLength="67" x="934.5" y="104.5513">Contact :</text><text fill="#000000" font-family="sans-serif" font-size="13" lengthAdjust="spacing" textLength="109" x="934.5" y="119.6841">lee@cowdrey.net</text><text fill="#000000" font-family="sans-serif" font-size="13" font-weight="bold" lengthAdjust="spacing" textLength="71" x="934.5" y="134.8169">Revision :</text><text fill="#000000" font-family="sans-serif" font-size="13" lengthAdjust="spacing" textLength="74" x="1014.5" y="134.8169">2021-09-01</text><text fill="#000000" font-family="sans-serif" font-size="13" lengthAdjust="spacing" textLength="0" x="938.5" y="149.9497"/><!--MD5=[2631192f6369c91a87575f59007fbdca]
link GMN8 to hbg8271a_pon_hisense_hbg8271a--><path d="M928.41,153.1431 C922.55,154.7731 916.73,156.3831 911,157.9531 C802.79,187.6331 676.02,220.0131 603.05,238.4131 " fill="none" id="GMN8-hbg8271a_pon_hisense_hbg8271a" style="stroke:#A80036;stroke-width:1.0;stroke-dasharray:7.0,7.0;"/><!--MD5=[47ee98b1f9da1c41d6153401b3aef6ce]
reverse link c_sdnc to hbg8271a_pon_hisense_hbg8271a--><path codeLine="27" d="M166.05,131.4131 C174.41,141.8731 184.85,151.9831 197,157.9531 C217.26,167.9031 378.4,159.4031 400,165.9531 C449.58,180.9831 499.35,217.4131 525.07,238.2231 " fill="none" id="c_sdnc-backto-hbg8271a_pon_hisense_hbg8271a" style="stroke:#A80036;stroke-width:1.0;"/><ellipse cx="161.8909" cy="125.6735" fill="#FFFFFF" rx="8" ry="8" style="stroke:#A80036;stroke-width:1.0;"/><line style="stroke:#A80036;stroke-width:1.0;" x1="166.5817" x2="157.2" y1="132.1539" y2="119.1931"/><line style="stroke:#A80036;stroke-width:1.0;" x1="155.4105" x2="168.3713" y1="130.3644" y2="120.9827"/><!--MD5=[721efe4c20265239627a69d469b1628c]
reverse link cnf_sdnc_xnf to hbg8271a_pon_hisense_hbg8271a--><path codeLine="28" d="M310.26,129.2231 C322.79,140.0431 337.63,150.9031 353,157.9531 C372.26,166.7831 380.16,158.5131 400,165.9531 C447.96,183.9431 497.57,218.5531 523.88,238.4331 " fill="none" id="cnf_sdnc_xnf-backto-hbg8271a_pon_hisense_hbg8271a" style="stroke:#A80036;stroke-width:1.0;"/><ellipse cx="304.9209" cy="124.373" fill="#FFFFFF" rx="8" ry="8" style="stroke:#A80036;stroke-width:1.0;"/><line style="stroke:#A80036;stroke-width:1.0;" x1="310.8418" x2="299" y1="129.7529" y2="118.9931"/><line style="stroke:#A80036;stroke-width:1.0;" x1="299.541" x2="310.3008" y1="130.2939" y2="118.4521"/><!--MD5=[d622b2d96440c8782b4d2f677a74809e]
reverse link cg_sdnc_groupings to hbg8271a_pon_hisense_hbg8271a--><path codeLine="29" d="M476.42,132.3931 C495.2,166.5331 521.5,214.3631 534.72,238.4031 " fill="none" id="cg_sdnc_groupings-backto-hbg8271a_pon_hisense_hbg8271a" style="stroke:#A80036;stroke-width:1.0;"/><ellipse cx="472.9953" cy="126.1729" fill="#FFFFFF" rx="8" ry="8" style="stroke:#A80036;stroke-width:1.0;"/><line style="stroke:#A80036;stroke-width:1.0;" x1="476.8507" x2="469.14" y1="133.1826" y2="119.1631"/><line style="stroke:#A80036;stroke-width:1.0;" x1="465.9856" x2="480.0051" y1="130.0282" y2="122.3175"/><!--MD5=[84ac345b877fb9f4bfbd57a75cf65b79]
reverse link cs_sdnc_sku to hbg8271a_pon_hisense_hbg8271a--><path codeLine="30" d="M610.34,132.3931 C591.35,166.5331 564.74,214.3631 551.37,238.4031 " fill="none" id="cs_sdnc_sku-backto-hbg8271a_pon_hisense_hbg8271a" style="stroke:#A80036;stroke-width:1.0;"/><ellipse cx="613.809" cy="126.1531" fill="#FFFFFF" rx="8" ry="8" style="stroke:#A80036;stroke-width:1.0;"/><line style="stroke:#A80036;stroke-width:1.0;" x1="609.9181" x2="617.7" y1="133.1432" y2="119.1631"/><line style="stroke:#A80036;stroke-width:1.0;" x1="606.819" x2="620.7991" y1="122.2622" y2="130.0441"/><!--MD5=[c905560dad4b1686c87ab385a6b940ac]
reverse link inet_ietf_inet_types to hbg8271a_pon_hisense_hbg8271a--><path codeLine="31" d="M757.18,127.1631 C741.47,137.2131 724.11,148.1531 708,157.9531 C659.79,187.2831 602.61,219.9031 569.79,238.4231 " fill="none" id="inet_ietf_inet_types-backto-hbg8271a_pon_hisense_hbg8271a" style="stroke:#A80036;stroke-width:1.0;"/><ellipse cx="763.1918" cy="123.3011" fill="#FFFFFF" rx="8" ry="8" style="stroke:#A80036;stroke-width:1.0;"/><line style="stroke:#A80036;stroke-width:1.0;" x1="756.4636" x2="769.92" y1="127.6291" y2="118.9731"/><line style="stroke:#A80036;stroke-width:1.0;" x1="758.8638" x2="767.5198" y1="116.5729" y2="130.0293"/><!--MD5=[6fa6d156a49adb73cba339df6b73aefa]
reverse link pon_hisense_hbg8271a to c_sdnc_cnf_xnf_cnf_nf_cnf_configs--><path codeLine="35" d="M297.52,297.0831 C298.88,313.2431 300.38,330.9131 301.46,343.7231 " fill="none" id="pon_hisense_hbg8271a-backto-c_sdnc_cnf_xnf_cnf_nf_cnf_configs" style="stroke:#A80036;stroke-width:1.0;"/><polygon fill="#A80036" points="296.41,283.9931,292.9319,290.31,297.4251,295.9501,300.9032,289.6333,296.41,283.9931" style="stroke:#A80036;stroke-width:1.0;"/><!--MD5=[69abc761f7f556b43ac5ec10af28a102]
reverse link c_sdnc_cnf_xnf_cnf_nf_cnf_configs to sdnc_I_sdnc_I_xnf_I_nf_I_configs_I_config--><path codeLine="43" d="M346.53,388.6731 C373.91,404.2231 409.67,424.5231 439.99,441.7431 " fill="none" id="c_sdnc_cnf_xnf_cnf_nf_cnf_configs-backto-sdnc_I_sdnc_I_xnf_I_nf_I_configs_I_config" style="stroke:#A80036;stroke-width:1.0;"/><polygon fill="#A80036" points="334.97,382.1131,338.2134,388.5537,345.4059,388.0369,342.1626,381.5964,334.97,382.1131" style="stroke:#A80036;stroke-width:1.0;"/><text fill="#000000" font-family="sans-serif" font-size="13" lengthAdjust="spacing" textLength="8" x="420.6445" y="431.3477">1</text><!--MD5=[62a28ac8664087a23c1a15af78a13711]
link sdnc_I_sdnc_I_xnf_I_nf_I_configs_I_config to GMN28--><path d="M436.2,507.7631 C430.43,509.9731 424.64,512.0631 419,513.9531 C315.55,548.5831 282.97,535.1931 181,573.9531 C161.25,581.4631 139.98,592.8631 125.16,601.4031 " fill="none" id="sdnc_I_sdnc_I_xnf_I_nf_I_configs_I_config-GMN28" style="stroke:#A80036;stroke-width:1.0;stroke-dasharray:7.0,7.0;"/><!--MD5=[b8837e8abc24c0879640b4093285f2ce]
reverse link sdnc_I_sdnc_I_xnf_I_nf_I_configs_I_config to sdnc_I_sdnc_I_xnf_I_nf_I_configs_I_config_I_hardware--><path codeLine="50" d="M478.25,525.7531 C470.3,541.4231 461.53,558.7131 453.9,573.7331 " fill="none" id="sdnc_I_sdnc_I_xnf_I_nf_I_configs_I_config-backto-sdnc_I_sdnc_I_xnf_I_nf_I_configs_I_config_I_hardware" style="stroke:#A80036;stroke-width:1.0;"/><polygon fill="#A80036" points="484.13,514.1631,477.848,517.7039,478.7003,524.8644,484.9822,521.3237,484.13,514.1631" style="stroke:#A80036;stroke-width:1.0;"/><text fill="#000000" font-family="sans-serif" font-size="13" lengthAdjust="spacing" textLength="8" x="448.5334" y="562.9449">1</text><text fill="#888888" font-family="sans-serif" font-size="24" lengthAdjust="spacing" textLength="557" x="388.25" y="706.2305">CommScope © 2020-2022 All Rights Reserved</text><!--MD5=[5e9d4b45ecfcd04411a938cd3244e7c5]
@startuml img/pon-hisense-hbg8271a.png 
hide empty fields 
hide empty methods 
hide <<case>> circle
hide <<augment>> circle
hide <<choice>> circle
hide <<leafref>> stereotype
hide <<leafref>> circle
page 1x1 
Title pon-hisense-hbg8271a 
package "c:sdnc" as c_sdnc { 
} 
package "cnf:sdnc-xnf" as cnf_sdnc_xnf { 
} 
package "cg:sdnc-groupings" as cg_sdnc_groupings { 
} 
package "cs:sdnc-sku" as cs_sdnc_sku { 
} 
package "inet:ietf-inet-types" as inet_ietf_inet_types { 
} 
note top of hbg8271a_pon_hisense_hbg8271a : <b>Namespace: </b> urn:com:vendor:yang:pon:hisense:hbg8271a \n<b>Prefix: </b> hbg8271a \n<b>Organization : </b>\nCowdrey Consulting UK \n<b>Contact : </b>\nlee@cowdrey.net \n<b>Revision : </b> 2021-09-01 \n
package "hbg8271a:pon-hisense-hbg8271a" as hbg8271a_pon_hisense_hbg8271a { 
c_sdnc +- - hbg8271a_pon_hisense_hbg8271a
cnf_sdnc_xnf +- - hbg8271a_pon_hisense_hbg8271a
cg_sdnc_groupings +- - hbg8271a_pon_hisense_hbg8271a
cs_sdnc_sku +- - hbg8271a_pon_hisense_hbg8271a
inet_ietf_inet_types +- - hbg8271a_pon_hisense_hbg8271a
class "pon-hisense-hbg8271a" as pon_hisense_hbg8271a << (M, #33CCFF) module>> 
pon_hisense_hbg8271a : feature : pon_onu 
class "/c:sdnc/cnf:xnf/cnf:nf/cnf:configs" as c_sdnc_cnf_xnf_cnf_nf_cnf_configs << (A,CadetBlue) augment>>
pon_hisense_hbg8271a *- -  c_sdnc_cnf_xnf_cnf_nf_cnf_configs 
note bottom of c_sdnc_cnf_xnf_cnf_nf_cnf_configs
<b>if-feature: </b>c:sdnc
end note 
note bottom of c_sdnc_cnf_xnf_cnf_nf_cnf_configs
<b>if-feature: </b>cnf:sdnc-xnf
end note 
class "config" as  sdnc_I_sdnc_I_xnf_I_nf_I_configs_I_config <<container>> 
c_sdnc_cnf_xnf_cnf_nf_cnf_configs *- - "1" sdnc_I_sdnc_I_xnf_I_nf_I_configs_I_config 
note bottom of sdnc_I_sdnc_I_xnf_I_nf_I_configs_I_config
<b>Config = </b>true
end note 
sdnc_I_sdnc_I_xnf_I_nf_I_configs_I_config : raw : string  
sdnc_I_sdnc_I_xnf_I_nf_I_configs_I_config : hostname : inet:host  
class "hardware" as  sdnc_I_sdnc_I_xnf_I_nf_I_configs_I_config_I_hardware <<container>> 
sdnc_I_sdnc_I_xnf_I_nf_I_configs_I_config *- - "1" sdnc_I_sdnc_I_xnf_I_nf_I_configs_I_config_I_hardware 
sdnc_I_sdnc_I_xnf_I_nf_I_configs_I_config_I_hardware : cg:common-hardware {uses} 
sdnc_I_sdnc_I_xnf_I_nf_I_configs_I_config_I_hardware : vendor : string {length = 3..max} {pattern = ([A-Za-z0-9.-]+)((\s...}   = VENDOR 
} 

center footer
 <size:24> CommScope © 2020-2022 All Rights Reserved </size>
 endfooter 
@enduml

PlantUML version 1.2021.8(Sat Jun 26 09:20:59 BST 2021)
(APACHE source distribution)
Java Runtime: OpenJDK Runtime Environment
JVM: OpenJDK 64-Bit Server VM
Default Encoding: UTF-8
Language: en
Country: GB
--></g></svg>