<?xml version="1.0" encoding="UTF-8" standalone="no"?><svg xmlns="http://www.w3.org/2000/svg" xmlns:xlink="http://www.w3.org/1999/xlink" contentScriptType="application/ecmascript" contentStyleType="text/css" height="714px" preserveAspectRatio="none" style="width:1286px;height:714px;background:#FFFFFF;" version="1.1" viewBox="0 0 1286 714" width="1286px" zoomAndPan="magnify"><defs><filter height="300%" id="f1pybss15d4pys" width="300%" x="-1" y="-1"><feGaussianBlur result="blurOut" stdDeviation="2.0"/><feColorMatrix in="blurOut" result="blurOut2" type="matrix" values="0 0 0 0 0 0 0 0 0 0 0 0 0 0 0 0 0 0 .4 0"/><feOffset dx="4.0" dy="4.0" in="blurOut2" result="blurOut3"/><feBlend in="SourceGraphic" in2="blurOut3" mode="normal"/></filter></defs><g><text fill="#000000" font-family="sans-serif" font-size="18" lengthAdjust="spacing" textLength="124" x="573.5" y="16.708">pon-cig-xg99s</text><!--MD5=[c8b5fefde1a75959efb4a8d4f24689e4]
cluster cxg99s_pon_cig_xg99s--><polygon fill="#FFFFFF" filter="url(#f1pybss15d4pys)" points="16,181.9531,198,181.9531,205,204.25,693,204.25,693,677.9531,16,677.9531,16,181.9531" style="stroke:#000000;stroke-width:1.5;"/><line style="stroke:#000000;stroke-width:1.5;" x1="16" x2="205" y1="204.25" y2="204.25"/><text fill="#000000" font-family="sans-serif" font-size="14" font-weight="bold" lengthAdjust="spacing" textLength="176" x="20" y="196.9482">cxg99s:pon-cig-xg99s</text><polygon fill="#FFFFFF" filter="url(#f1pybss15d4pys)" points="101.5,65.9531,160.5,65.9531,167.5,88.25,174.5,88.25,174.5,118.5469,101.5,118.5469,101.5,65.9531" style="stroke:#000000;stroke-width:1.5;"/><line style="stroke:#000000;stroke-width:1.5;" x1="101.5" x2="167.5" y1="88.25" y2="88.25"/><text fill="#000000" font-family="sans-serif" font-size="14" font-weight="bold" lengthAdjust="spacing" textLength="53" x="105.5" y="80.9482">c:sdnc</text><polygon fill="#FFFFFF" filter="url(#f1pybss15d4pys)" points="210,65.9531,316,65.9531,323,88.25,330,88.25,330,118.5469,210,118.5469,210,65.9531" style="stroke:#000000;stroke-width:1.5;"/><line style="stroke:#000000;stroke-width:1.5;" x1="210" x2="323" y1="88.25" y2="88.25"/><text fill="#000000" font-family="sans-serif" font-size="14" font-weight="bold" lengthAdjust="spacing" textLength="100" x="214" y="80.9482">cnf:sdnc-xnf</text><polygon fill="#FFFFFF" filter="url(#f1pybss15d4pys)" points="365.5,65.9531,520.5,65.9531,527.5,88.25,534.5,88.25,534.5,118.5469,365.5,118.5469,365.5,65.9531" style="stroke:#000000;stroke-width:1.5;"/><line style="stroke:#000000;stroke-width:1.5;" x1="365.5" x2="527.5" y1="88.25" y2="88.25"/><text fill="#000000" font-family="sans-serif" font-size="14" font-weight="bold" lengthAdjust="spacing" textLength="149" x="369.5" y="80.9482">cg:sdnc-groupings</text><polygon fill="#FFFFFF" filter="url(#f1pybss15d4pys)" points="569,65.9531,671,65.9531,678,88.25,685,88.25,685,118.5469,569,118.5469,569,65.9531" style="stroke:#000000;stroke-width:1.5;"/><line style="stroke:#000000;stroke-width:1.5;" x1="569" x2="678" y1="88.25" y2="88.25"/><text fill="#000000" font-family="sans-serif" font-size="14" font-weight="bold" lengthAdjust="spacing" textLength="96" x="573" y="80.9482">cs:sdnc-sku</text><polygon fill="#FFFFFF" filter="url(#f1pybss15d4pys)" points="720,65.9531,874,65.9531,881,88.25,888,88.25,888,118.5469,720,118.5469,720,65.9531" style="stroke:#000000;stroke-width:1.5;"/><line style="stroke:#000000;stroke-width:1.5;" x1="720" x2="881" y1="88.25" y2="88.25"/><text fill="#000000" font-family="sans-serif" font-size="14" font-weight="bold" lengthAdjust="spacing" textLength="148" x="724" y="80.9482">inet:ietf-inet-types</text><!--MD5=[3d8a6c2654b5932d23c62cd766f82c46]
class cxg99s_pon_cig_xg99s--><rect fill="#FEFECE" filter="url(#f1pybss15d4pys)" height="32" id="cxg99s_pon_cig_xg99s" style="stroke:#A80036;stroke-width:1.5;" width="173" x="451.5" y="238.4531"/><ellipse cx="466.5" cy="254.4531" fill="#ADD1B2" rx="11" ry="11" style="stroke:#A80036;stroke-width:1.0;"/><path d="M469.4688,260.0938 Q468.8906,260.3906 468.25,260.5313 Q467.6094,260.6875 466.9063,260.6875 Q464.4063,260.6875 463.0781,259.0469 Q461.7656,257.3906 461.7656,254.2656 Q461.7656,251.1406 463.0781,249.4844 Q464.4063,247.8281 466.9063,247.8281 Q467.6094,247.8281 468.25,247.9844 Q468.9063,248.1406 469.4688,248.4375 L469.4688,251.1563 Q468.8438,250.5781 468.25,250.3125 Q467.6563,250.0313 467.0313,250.0313 Q465.6875,250.0313 465,251.1094 Q464.3125,252.1719 464.3125,254.2656 Q464.3125,256.3594 465,257.4375 Q465.6875,258.5 467.0313,258.5 Q467.6563,258.5 468.25,258.2344 Q468.8438,257.9531 469.4688,257.375 L469.4688,260.0938 Z " fill="#000000"/><text fill="#000000" font-family="sans-serif" font-size="12" lengthAdjust="spacing" textLength="141" x="480.5" y="258.6074">cxg99s_pon_cig_xg99s</text><!--MD5=[f8007aff3602562e842bdcf2d7cde5b1]
class pon_cig_xg99s--><rect codeLine="32" fill="#FEFECE" filter="url(#f1pybss15d4pys)" height="58.7422" id="pon_cig_xg99s" style="stroke:#A80036;stroke-width:1.5;" width="119" x="253.5" y="224.9531"/><ellipse cx="268.5" cy="243.9219" fill="#33CCFF" rx="11" ry="11" style="stroke:#A80036;stroke-width:1.0;"/><path d="M264.2188,237.5313 L267.1406,237.5313 L268.6094,242.9688 L270.0781,237.5313 L273.0156,237.5313 L273.0156,249.9219 L270.9063,249.9219 L270.9063,240 L269.5938,245.4219 L267.6563,245.4219 L266.3281,240 L266.3281,249.9219 L264.2188,249.9219 L264.2188,237.5313 Z " fill="#000000"/><text fill="#000000" font-family="sans-serif" font-size="12" font-style="italic" lengthAdjust="spacing" textLength="60" x="296" y="241.0918">«module»</text><text fill="#000000" font-family="sans-serif" font-size="12" lengthAdjust="spacing" textLength="87" x="282.5" y="255.0605">pon-cig-xg99s</text><line style="stroke:#A80036;stroke-width:1.5;" x1="254.5" x2="371.5" y1="262.8906" y2="262.8906"/><text fill="#000000" font-family="sans-serif" font-size="11" lengthAdjust="spacing" textLength="101" x="259.5" y="277.1011">feature : pon_onu</text><!--MD5=[fc9bad718b33997a29cd9f9fb34dfe08]
class c_sdnc_cnf_xnf_cnf_nf_cnf_configs--><rect codeLine="34" fill="#FEFECE" filter="url(#f1pybss15d4pys)" height="37.9375" id="c_sdnc_cnf_xnf_cnf_nf_cnf_configs" style="stroke:#A80036;stroke-width:1.5;" width="233" x="196.5" y="343.9531"/><ellipse cx="211.5" cy="362.9219" fill="#5F9EA0" rx="11" ry="11" style="stroke:#A80036;stroke-width:1.0;"/><path d="M211.6094,358.2656 L210.4531,363.3438 L212.7813,363.3438 L211.6094,358.2656 Z M210.125,356.0313 L213.1094,356.0313 L216.4688,368.4219 L214.0156,368.4219 L213.25,365.3594 L209.9688,365.3594 L209.2188,368.4219 L206.7813,368.4219 L210.125,356.0313 Z " fill="#000000"/><text fill="#000000" font-family="sans-serif" font-size="12" font-style="italic" lengthAdjust="spacing" textLength="70" x="291" y="360.0918">«augment»</text><text fill="#000000" font-family="sans-serif" font-size="12" lengthAdjust="spacing" textLength="201" x="225.5" y="374.0605">/c:sdnc/cnf:xnf/cnf:nf/cnf:configs</text><path d="M48.5,465.4531 L48.5,490.5859 A0,0 0 0 0 48.5,490.5859 L189.5,490.5859 A0,0 0 0 0 189.5,490.5859 L189.5,475.4531 L179.5,465.4531 L142.84,465.4531 L281.83,382.1131 L134.84,465.4531 L48.5,465.4531 A0,0 0 0 0 48.5,465.4531 " fill="#FBFB77" filter="url(#f1pybss15d4pys)" style="stroke:#A80036;stroke-width:1.0;"/><path d="M179.5,465.4531 L179.5,475.4531 L189.5,475.4531 L179.5,465.4531 " fill="#FBFB77" style="stroke:#A80036;stroke-width:1.0;"/><text fill="#000000" font-family="sans-serif" font-size="13" font-weight="bold" lengthAdjust="spacing" textLength="74" x="54.5" y="482.52">if-feature:</text><text fill="#000000" font-family="sans-serif" font-size="13" lengthAdjust="spacing" textLength="41" x="133.5" y="482.52">c:sdnc</text><path d="M224.5,465.4531 L224.5,490.5859 A0,0 0 0 0 224.5,490.5859 L401.5,490.5859 A0,0 0 0 0 401.5,490.5859 L401.5,475.4531 L391.5,465.4531 L317,465.4531 L313,382.1131 L309,465.4531 L224.5,465.4531 A0,0 0 0 0 224.5,465.4531 " fill="#FBFB77" filter="url(#f1pybss15d4pys)" style="stroke:#A80036;stroke-width:1.0;"/><path d="M391.5,465.4531 L391.5,475.4531 L401.5,475.4531 L391.5,465.4531 " fill="#FBFB77" style="stroke:#A80036;stroke-width:1.0;"/><text fill="#000000" font-family="sans-serif" font-size="13" font-weight="bold" lengthAdjust="spacing" textLength="74" x="230.5" y="482.52">if-feature:</text><text fill="#000000" font-family="sans-serif" font-size="13" lengthAdjust="spacing" textLength="77" x="309.5" y="482.52">cnf:sdnc-xnf</text><!--MD5=[5c05241e270cf07082bdbe45d2a834d5]
class sdnc_I_sdnc_I_xnf_I_nf_I_configs_I_config--><rect codeLine="42" fill="#FEFECE" filter="url(#f1pybss15d4pys)" height="71.5469" id="sdnc_I_sdnc_I_xnf_I_nf_I_configs_I_config" style="stroke:#A80036;stroke-width:1.5;" width="131" x="436.5" y="441.9531"/><ellipse cx="464.55" cy="460.9219" fill="#ADD1B2" rx="11" ry="11" style="stroke:#A80036;stroke-width:1.0;"/><path d="M467.5188,466.5625 Q466.9406,466.8594 466.3,467 Q465.6594,467.1563 464.9563,467.1563 Q462.4563,467.1563 461.1281,465.5156 Q459.8156,463.8594 459.8156,460.7344 Q459.8156,457.6094 461.1281,455.9531 Q462.4563,454.2969 464.9563,454.2969 Q465.6594,454.2969 466.3,454.4531 Q466.9563,454.6094 467.5188,454.9063 L467.5188,457.625 Q466.8938,457.0469 466.3,456.7813 Q465.7063,456.5 465.0813,456.5 Q463.7375,456.5 463.05,457.5781 Q462.3625,458.6406 462.3625,460.7344 Q462.3625,462.8281 463.05,463.9063 Q463.7375,464.9688 465.0813,464.9688 Q465.7063,464.9688 466.3,464.7031 Q466.8938,464.4219 467.5188,463.8438 L467.5188,466.5625 Z " fill="#000000"/><text fill="#000000" font-family="sans-serif" font-size="12" font-style="italic" lengthAdjust="spacing" textLength="74" x="479.45" y="458.0918">«container»</text><text fill="#000000" font-family="sans-serif" font-size="12" lengthAdjust="spacing" textLength="38" x="497.45" y="472.0605">config</text><line style="stroke:#A80036;stroke-width:1.5;" x1="437.5" x2="566.5" y1="479.8906" y2="479.8906"/><text fill="#000000" font-family="sans-serif" font-size="11" lengthAdjust="spacing" textLength="66" x="442.5" y="494.1011">raw : string</text><text fill="#000000" font-family="sans-serif" font-size="11" lengthAdjust="spacing" textLength="119" x="442.5" y="506.9058">hostname : inet:host</text><path d="M48,601.4531 L48,626.5859 L164,626.5859 L164,611.4531 L154,601.4531 L48,601.4531 " fill="#FBFB77" filter="url(#f1pybss15d4pys)" style="stroke:#A80036;stroke-width:1.0;"/><path d="M154,601.4531 L154,611.4531 L164,611.4531 L154,601.4531 " fill="#FBFB77" style="stroke:#A80036;stroke-width:1.0;"/><text fill="#000000" font-family="sans-serif" font-size="13" font-weight="bold" lengthAdjust="spacing" textLength="64" x="54" y="618.52">Config =</text><text fill="#000000" font-family="sans-serif" font-size="13" lengthAdjust="spacing" textLength="26" x="123" y="618.52">true</text><!--MD5=[860e6f99802e80530add135a67af4462]
class sdnc_I_sdnc_I_xnf_I_nf_I_configs_I_config_I_hardware--><rect codeLine="49" fill="#FEFECE" filter="url(#f1pybss15d4pys)" height="79.5469" id="sdnc_I_sdnc_I_xnf_I_nf_I_configs_I_config_I_hardware" style="stroke:#A80036;stroke-width:1.5;" width="470" x="199" y="573.9531"/><ellipse cx="394.75" cy="592.9219" fill="#ADD1B2" rx="11" ry="11" style="stroke:#A80036;stroke-width:1.0;"/><path d="M397.7188,598.5625 Q397.1406,598.8594 396.5,599 Q395.8594,599.1563 395.1563,599.1563 Q392.6563,599.1563 391.3281,597.5156 Q390.0156,595.8594 390.0156,592.7344 Q390.0156,589.6094 391.3281,587.9531 Q392.6563,586.2969 395.1563,586.2969 Q395.8594,586.2969 396.5,586.4531 Q397.1563,586.6094 397.7188,586.9063 L397.7188,589.625 Q397.0938,589.0469 396.5,588.7813 Q395.9063,588.5 395.2813,588.5 Q393.9375,588.5 393.25,589.5781 Q392.5625,590.6406 392.5625,592.7344 Q392.5625,594.8281 393.25,595.9063 Q393.9375,596.9688 395.2813,596.9688 Q395.9063,596.9688 396.5,596.7031 Q397.0938,596.4219 397.7188,595.8438 L397.7188,598.5625 Z " fill="#000000"/><text fill="#000000" font-family="sans-serif" font-size="12" font-style="italic" lengthAdjust="spacing" textLength="74" x="413.25" y="590.0918">«container»</text><text fill="#000000" font-family="sans-serif" font-size="12" lengthAdjust="spacing" textLength="59" x="420.75" y="604.0605">hardware</text><line style="stroke:#A80036;stroke-width:1.5;" x1="200" x2="668" y1="611.8906" y2="611.8906"/><text fill="#000000" font-family="sans-serif" font-size="11" lengthAdjust="spacing" textLength="170" x="205" y="626.1011">cg:common-hardware {uses}</text><line style="stroke:#A80036;stroke-width:1.5;" x1="200" x2="668" y1="632.6953" y2="632.6953"/><text fill="#000000" font-family="sans-serif" font-size="11" lengthAdjust="spacing" textLength="458" x="205" y="646.9058">vendor : string {length = 3..max} {pattern = ([A-Za-z0-9.-]+)((\s...}   = VENDOR</text><path d="M923,26.9531 L923,158.0156 L1277,158.0156 L1277,36.9531 L1267,26.9531 L923,26.9531 " fill="#FBFB77" filter="url(#f1pybss15d4pys)" style="stroke:#A80036;stroke-width:1.0;"/><path d="M1267,26.9531 L1267,36.9531 L1277,36.9531 L1267,26.9531 " fill="#FBFB77" style="stroke:#A80036;stroke-width:1.0;"/><text fill="#000000" font-family="sans-serif" font-size="13" font-weight="bold" lengthAdjust="spacing" textLength="92" x="929" y="44.02">Namespace:</text><text fill="#000000" font-family="sans-serif" font-size="13" lengthAdjust="spacing" textLength="228" x="1030" y="44.02">urn:com:vendor:yang:pon:cig:xg99s</text><text fill="#000000" font-family="sans-serif" font-size="13" font-weight="bold" lengthAdjust="spacing" textLength="48" x="929" y="59.1528">Prefix:</text><text fill="#000000" font-family="sans-serif" font-size="13" lengthAdjust="spacing" textLength="45" x="986" y="59.1528">cxg99s</text><text fill="#000000" font-family="sans-serif" font-size="13" font-weight="bold" lengthAdjust="spacing" textLength="104" x="929" y="74.2856">Organization :</text><text fill="#000000" font-family="sans-serif" font-size="13" lengthAdjust="spacing" textLength="147" x="929" y="89.4185">Cowdrey Consulting UK</text><text fill="#000000" font-family="sans-serif" font-size="13" font-weight="bold" lengthAdjust="spacing" textLength="67" x="929" y="104.5513">Contact :</text><text fill="#000000" font-family="sans-serif" font-size="13" lengthAdjust="spacing" textLength="109" x="929" y="119.6841">lee@cowdrey.net</text><text fill="#000000" font-family="sans-serif" font-size="13" font-weight="bold" lengthAdjust="spacing" textLength="71" x="929" y="134.8169">Revision :</text><text fill="#000000" font-family="sans-serif" font-size="13" lengthAdjust="spacing" textLength="74" x="1009" y="134.8169">2021-09-01</text><text fill="#000000" font-family="sans-serif" font-size="13" lengthAdjust="spacing" textLength="0" x="933" y="149.9497"/><!--MD5=[ccbb88de49459f8d084df981ca70d263]
link GMN8 to cxg99s_pon_cig_xg99s--><path d="M922.8,152.9031 C917.14,154.6331 911.53,156.3131 906,157.9531 C799.82,189.3431 674.78,220.6031 601.19,238.4231 " fill="none" id="GMN8-cxg99s_pon_cig_xg99s" style="stroke:#A80036;stroke-width:1.0;stroke-dasharray:7.0,7.0;"/><!--MD5=[ae2bc2bab6fabbf3568c4ac3fcdb19ab]
reverse link c_sdnc to cxg99s_pon_cig_xg99s--><path codeLine="27" d="M161.05,131.4031 C169.42,141.8731 179.85,151.9731 192,157.9531 C231.52,177.3831 347.77,153.4831 390,165.9531 C440.96,181.0031 492.6,217.4231 519.35,238.2231 " fill="none" id="c_sdnc-backto-cxg99s_pon_cig_xg99s" style="stroke:#A80036;stroke-width:1.0;"/><ellipse cx="156.8945" cy="125.6609" fill="#FFFFFF" rx="8" ry="8" style="stroke:#A80036;stroke-width:1.0;"/><line style="stroke:#A80036;stroke-width:1.0;" x1="161.589" x2="152.2" y1="132.1387" y2="119.1831"/><line style="stroke:#A80036;stroke-width:1.0;" x1="150.4167" x2="163.3723" y1="130.3554" y2="120.9664"/><!--MD5=[6f20c2aa0c0588e5e3b102ee182d40d0]
reverse link cnf_sdnc_xnf to cxg99s_pon_cig_xg99s--><path codeLine="28" d="M305.63,129.3031 C318.11,140.0231 332.82,150.8131 348,157.9531 C365.2,166.0431 372.22,159.2431 390,165.9531 C438.87,184.4031 490.08,218.5231 517.6,238.2631 " fill="none" id="cnf_sdnc_xnf-backto-cxg99s_pon_cig_xg99s" style="stroke:#A80036;stroke-width:1.0;"/><ellipse cx="300.3454" cy="124.537" fill="#FFFFFF" rx="8" ry="8" style="stroke:#A80036;stroke-width:1.0;"/><line style="stroke:#A80036;stroke-width:1.0;" x1="306.2807" x2="294.41" y1="129.901" y2="119.1731"/><line style="stroke:#A80036;stroke-width:1.0;" x1="294.9814" x2="305.7093" y1="130.4724" y2="118.6017"/><!--MD5=[097d7370a2bb0316f1d625bf25fca778]
reverse link cg_sdnc_groupings to cxg99s_pon_cig_xg99s--><path codeLine="29" d="M471.42,132.3931 C490.2,166.5331 516.5,214.3631 529.72,238.4031 " fill="none" id="cg_sdnc_groupings-backto-cxg99s_pon_cig_xg99s" style="stroke:#A80036;stroke-width:1.0;"/><ellipse cx="467.9953" cy="126.1729" fill="#FFFFFF" rx="8" ry="8" style="stroke:#A80036;stroke-width:1.0;"/><line style="stroke:#A80036;stroke-width:1.0;" x1="471.8507" x2="464.14" y1="133.1826" y2="119.1631"/><line style="stroke:#A80036;stroke-width:1.0;" x1="460.9856" x2="475.0051" y1="130.0282" y2="122.3175"/><!--MD5=[94f606db39d5c0a2fa146ffa86d58b91]
reverse link cs_sdnc_sku to cxg99s_pon_cig_xg99s--><path codeLine="30" d="M605.34,132.3931 C586.35,166.5331 559.74,214.3631 546.37,238.4031 " fill="none" id="cs_sdnc_sku-backto-cxg99s_pon_cig_xg99s" style="stroke:#A80036;stroke-width:1.0;"/><ellipse cx="608.809" cy="126.1531" fill="#FFFFFF" rx="8" ry="8" style="stroke:#A80036;stroke-width:1.0;"/><line style="stroke:#A80036;stroke-width:1.0;" x1="604.9181" x2="612.7" y1="133.1432" y2="119.1631"/><line style="stroke:#A80036;stroke-width:1.0;" x1="601.819" x2="615.7991" y1="122.2622" y2="130.0441"/><!--MD5=[dcba8e6b9e4963e085855126cebd6dfe]
reverse link inet_ietf_inet_types to cxg99s_pon_cig_xg99s--><path codeLine="31" d="M752.18,127.1631 C736.47,137.2131 719.11,148.1531 703,157.9531 C654.79,187.2831 597.61,219.9031 564.79,238.4231 " fill="none" id="inet_ietf_inet_types-backto-cxg99s_pon_cig_xg99s" style="stroke:#A80036;stroke-width:1.0;"/><ellipse cx="758.1918" cy="123.3011" fill="#FFFFFF" rx="8" ry="8" style="stroke:#A80036;stroke-width:1.0;"/><line style="stroke:#A80036;stroke-width:1.0;" x1="751.4636" x2="764.92" y1="127.6291" y2="118.9731"/><line style="stroke:#A80036;stroke-width:1.0;" x1="753.8638" x2="762.5198" y1="116.5729" y2="130.0293"/><!--MD5=[a81ce95595fdd6c66d5838378e23a9d2]
reverse link pon_cig_xg99s to c_sdnc_cnf_xnf_cnf_nf_cnf_configs--><path codeLine="35" d="M313,297.0831 C313,313.2431 313,330.9131 313,343.7231 " fill="none" id="pon_cig_xg99s-backto-c_sdnc_cnf_xnf_cnf_nf_cnf_configs" style="stroke:#A80036;stroke-width:1.0;"/><polygon fill="#A80036" points="313,283.9931,309,289.9931,313,295.9931,317,289.9931,313,283.9931" style="stroke:#A80036;stroke-width:1.0;"/><!--MD5=[69abc761f7f556b43ac5ec10af28a102]
reverse link c_sdnc_cnf_xnf_cnf_nf_cnf_configs to sdnc_I_sdnc_I_xnf_I_nf_I_configs_I_config--><path codeLine="43" d="M354.7,388.8831 C380.65,404.4031 414.44,424.6031 443.1,441.7431 " fill="none" id="c_sdnc_cnf_xnf_cnf_nf_cnf_configs-backto-sdnc_I_sdnc_I_xnf_I_nf_I_configs_I_config" style="stroke:#A80036;stroke-width:1.0;"/><polygon fill="#A80036" points="343.37,382.1131,346.4668,388.6254,353.6692,388.2716,350.5724,381.7593,343.37,382.1131" style="stroke:#A80036;stroke-width:1.0;"/><text fill="#000000" font-family="sans-serif" font-size="13" lengthAdjust="spacing" textLength="8" x="423.5028" y="430.805">1</text><!--MD5=[62a28ac8664087a23c1a15af78a13711]
link sdnc_I_sdnc_I_xnf_I_nf_I_configs_I_config to GMN28--><path d="M436.2,507.7631 C430.43,509.9731 424.64,512.0631 419,513.9531 C315.55,548.5831 282.97,535.1931 181,573.9531 C161.25,581.4631 139.98,592.8631 125.16,601.4031 " fill="none" id="sdnc_I_sdnc_I_xnf_I_nf_I_configs_I_config-GMN28" style="stroke:#A80036;stroke-width:1.0;stroke-dasharray:7.0,7.0;"/><!--MD5=[b8837e8abc24c0879640b4093285f2ce]
reverse link sdnc_I_sdnc_I_xnf_I_nf_I_configs_I_config to sdnc_I_sdnc_I_xnf_I_nf_I_configs_I_config_I_hardware--><path codeLine="50" d="M478.25,525.7531 C470.3,541.4231 461.53,558.7131 453.9,573.7331 " fill="none" id="sdnc_I_sdnc_I_xnf_I_nf_I_configs_I_config-backto-sdnc_I_sdnc_I_xnf_I_nf_I_configs_I_config_I_hardware" style="stroke:#A80036;stroke-width:1.0;"/><polygon fill="#A80036" points="484.13,514.1631,477.848,517.7039,478.7003,524.8644,484.9822,521.3237,484.13,514.1631" style="stroke:#A80036;stroke-width:1.0;"/><text fill="#000000" font-family="sans-serif" font-size="13" lengthAdjust="spacing" textLength="8" x="448.5334" y="562.9449">1</text><text fill="#888888" font-family="sans-serif" font-size="24" lengthAdjust="spacing" textLength="218" x="526.5" y="706.2305">subject to revision</text><!--MD5=[6f7387384f93b7c9434b5a84f6be6acb]
@startuml img/pon-cig-xg99s.png 
hide empty fields 
hide empty methods 
hide <<case>> circle
hide <<augment>> circle
hide <<choice>> circle
hide <<leafref>> stereotype
hide <<leafref>> circle
page 1x1 
Title pon-cig-xg99s 
package "c:sdnc" as c_sdnc { 
} 
package "cnf:sdnc-xnf" as cnf_sdnc_xnf { 
} 
package "cg:sdnc-groupings" as cg_sdnc_groupings { 
} 
package "cs:sdnc-sku" as cs_sdnc_sku { 
} 
package "inet:ietf-inet-types" as inet_ietf_inet_types { 
} 
note top of cxg99s_pon_cig_xg99s : <b>Namespace: </b> urn:com:vendor:yang:pon:cig:xg99s \n<b>Prefix: </b> cxg99s \n<b>Organization : </b>\nCowdrey Consulting UK \n<b>Contact : </b>\nlee@cowdrey.net \n<b>Revision : </b> 2021-09-01 \n
package "cxg99s:pon-cig-xg99s" as cxg99s_pon_cig_xg99s { 
c_sdnc +- - cxg99s_pon_cig_xg99s
cnf_sdnc_xnf +- - cxg99s_pon_cig_xg99s
cg_sdnc_groupings +- - cxg99s_pon_cig_xg99s
cs_sdnc_sku +- - cxg99s_pon_cig_xg99s
inet_ietf_inet_types +- - cxg99s_pon_cig_xg99s
class "pon-cig-xg99s" as pon_cig_xg99s << (M, #33CCFF) module>> 
pon_cig_xg99s : feature : pon_onu 
class "/c:sdnc/cnf:xnf/cnf:nf/cnf:configs" as c_sdnc_cnf_xnf_cnf_nf_cnf_configs << (A,CadetBlue) augment>>
pon_cig_xg99s *- -  c_sdnc_cnf_xnf_cnf_nf_cnf_configs 
note bottom of c_sdnc_cnf_xnf_cnf_nf_cnf_configs
<b>if-feature: </b>c:sdnc
end note 
note bottom of c_sdnc_cnf_xnf_cnf_nf_cnf_configs
<b>if-feature: </b>cnf:sdnc-xnf
end note 
class "config" as  sdnc_I_sdnc_I_xnf_I_nf_I_configs_I_config <<container>> 
c_sdnc_cnf_xnf_cnf_nf_cnf_configs *- - "1" sdnc_I_sdnc_I_xnf_I_nf_I_configs_I_config 
note bottom of sdnc_I_sdnc_I_xnf_I_nf_I_configs_I_config
<b>Config = </b>true
end note 
sdnc_I_sdnc_I_xnf_I_nf_I_configs_I_config : raw : string  
sdnc_I_sdnc_I_xnf_I_nf_I_configs_I_config : hostname : inet:host  
class "hardware" as  sdnc_I_sdnc_I_xnf_I_nf_I_configs_I_config_I_hardware <<container>> 
sdnc_I_sdnc_I_xnf_I_nf_I_configs_I_config *- - "1" sdnc_I_sdnc_I_xnf_I_nf_I_configs_I_config_I_hardware 
sdnc_I_sdnc_I_xnf_I_nf_I_configs_I_config_I_hardware : cg:common-hardware {uses} 
sdnc_I_sdnc_I_xnf_I_nf_I_configs_I_config_I_hardware : vendor : string {length = 3..max} {pattern = ([A-Za-z0-9.-]+)((\s...}   = VENDOR 
} 

center footer
 <size:24> subject to revision </size>
 endfooter 
@enduml

PlantUML version 1.2021.8(Sat Jun 26 09:20:59 BST 2021)
(APACHE source distribution)
Java Runtime: OpenJDK Runtime Environment
JVM: OpenJDK 64-Bit Server VM
Default Encoding: UTF-8
Language: en
Country: GB
--></g></svg>