<?xml version="1.0" encoding="UTF-8" standalone="no"?><svg xmlns="http://www.w3.org/2000/svg" xmlns:xlink="http://www.w3.org/1999/xlink" contentScriptType="application/ecmascript" contentStyleType="text/css" height="727px" preserveAspectRatio="none" style="width:1342px;height:727px;background:#FFFFFF;" version="1.1" viewBox="0 0 1342 727" width="1342px" zoomAndPan="magnify"><defs><filter height="300%" id="f1j4t3utatwdoe" width="300%" x="-1" y="-1"><feGaussianBlur result="blurOut" stdDeviation="2.0"/><feColorMatrix in="blurOut" result="blurOut2" type="matrix" values="0 0 0 0 0 0 0 0 0 0 0 0 0 0 0 0 0 0 .4 0"/><feOffset dx="4.0" dy="4.0" in="blurOut2" result="blurOut3"/><feBlend in="SourceGraphic" in2="blurOut3" mode="normal"/></filter></defs><g><text fill="#000000" font-family="sans-serif" font-size="18" lengthAdjust="spacing" textLength="208" x="559.75" y="16.708">pon-xp6168s-separated</text><!--MD5=[58739676202d520f78abc35fd4c73f7f]
cluster xp6168s_sne_pon_xp6168s_separated--><polygon fill="#FFFFFF" filter="url(#f1j4t3utatwdoe)" points="16,181.9531,321,181.9531,328,204.25,693,204.25,693,690.9531,16,690.9531,16,181.9531" style="stroke:#000000;stroke-width:1.5;"/><line style="stroke:#000000;stroke-width:1.5;" x1="16" x2="328" y1="204.25" y2="204.25"/><text fill="#000000" font-family="sans-serif" font-size="14" font-weight="bold" lengthAdjust="spacing" textLength="299" x="20" y="196.9482">xp6168s-sne:pon-xp6168s-separated</text><polygon fill="#FFFFFF" filter="url(#f1j4t3utatwdoe)" points="95.5,65.9531,154.5,65.9531,161.5,88.25,168.5,88.25,168.5,118.5469,95.5,118.5469,95.5,65.9531" style="stroke:#000000;stroke-width:1.5;"/><line style="stroke:#000000;stroke-width:1.5;" x1="95.5" x2="161.5" y1="88.25" y2="88.25"/><text fill="#000000" font-family="sans-serif" font-size="14" font-weight="bold" lengthAdjust="spacing" textLength="53" x="99.5" y="80.9482">c:sdnc</text><polygon fill="#FFFFFF" filter="url(#f1j4t3utatwdoe)" points="204,65.9531,310,65.9531,317,88.25,324,88.25,324,118.5469,204,118.5469,204,65.9531" style="stroke:#000000;stroke-width:1.5;"/><line style="stroke:#000000;stroke-width:1.5;" x1="204" x2="317" y1="88.25" y2="88.25"/><text fill="#000000" font-family="sans-serif" font-size="14" font-weight="bold" lengthAdjust="spacing" textLength="100" x="208" y="80.9482">cnf:sdnc-xnf</text><polygon fill="#FFFFFF" filter="url(#f1j4t3utatwdoe)" points="359.5,65.9531,514.5,65.9531,521.5,88.25,528.5,88.25,528.5,118.5469,359.5,118.5469,359.5,65.9531" style="stroke:#000000;stroke-width:1.5;"/><line style="stroke:#000000;stroke-width:1.5;" x1="359.5" x2="521.5" y1="88.25" y2="88.25"/><text fill="#000000" font-family="sans-serif" font-size="14" font-weight="bold" lengthAdjust="spacing" textLength="149" x="363.5" y="80.9482">cg:sdnc-groupings</text><polygon fill="#FFFFFF" filter="url(#f1j4t3utatwdoe)" points="563,65.9531,665,65.9531,672,88.25,679,88.25,679,118.5469,563,118.5469,563,65.9531" style="stroke:#000000;stroke-width:1.5;"/><line style="stroke:#000000;stroke-width:1.5;" x1="563" x2="672" y1="88.25" y2="88.25"/><text fill="#000000" font-family="sans-serif" font-size="14" font-weight="bold" lengthAdjust="spacing" textLength="96" x="567" y="80.9482">cs:sdnc-sku</text><polygon fill="#FFFFFF" filter="url(#f1j4t3utatwdoe)" points="714,65.9531,868,65.9531,875,88.25,882,88.25,882,118.5469,714,118.5469,714,65.9531" style="stroke:#000000;stroke-width:1.5;"/><line style="stroke:#000000;stroke-width:1.5;" x1="714" x2="875" y1="88.25" y2="88.25"/><text fill="#000000" font-family="sans-serif" font-size="14" font-weight="bold" lengthAdjust="spacing" textLength="148" x="718" y="80.9482">inet:ietf-inet-types</text><!--MD5=[d105566f989e93e39b8caecee2b8c5c6]
class xp6168s_sne_pon_xp6168s_separated--><rect fill="#FEFECE" filter="url(#f1j4t3utatwdoe)" height="32" id="xp6168s_sne_pon_xp6168s_separated" style="stroke:#A80036;stroke-width:1.5;" width="274" x="395" y="244.9531"/><ellipse cx="410" cy="260.9531" fill="#ADD1B2" rx="11" ry="11" style="stroke:#A80036;stroke-width:1.0;"/><path d="M412.9688,266.5938 Q412.3906,266.8906 411.75,267.0313 Q411.1094,267.1875 410.4063,267.1875 Q407.9063,267.1875 406.5781,265.5469 Q405.2656,263.8906 405.2656,260.7656 Q405.2656,257.6406 406.5781,255.9844 Q407.9063,254.3281 410.4063,254.3281 Q411.1094,254.3281 411.75,254.4844 Q412.4063,254.6406 412.9688,254.9375 L412.9688,257.6563 Q412.3438,257.0781 411.75,256.8125 Q411.1563,256.5313 410.5313,256.5313 Q409.1875,256.5313 408.5,257.6094 Q407.8125,258.6719 407.8125,260.7656 Q407.8125,262.8594 408.5,263.9375 Q409.1875,265 410.5313,265 Q411.1563,265 411.75,264.7344 Q412.3438,264.4531 412.9688,263.875 L412.9688,266.5938 Z " fill="#000000"/><text fill="#000000" font-family="sans-serif" font-size="12" lengthAdjust="spacing" textLength="242" x="424" y="265.1074">xp6168s_sne_pon_xp6168s_separated</text><!--MD5=[b63f28642c2ae3fb50784fe9f7f0cd92]
class pon_xp6168s_separated--><rect codeLine="32" fill="#FEFECE" filter="url(#f1j4t3utatwdoe)" height="71.5469" id="pon_xp6168s_separated" style="stroke:#A80036;stroke-width:1.5;" width="182" x="178" y="224.9531"/><ellipse cx="193" cy="243.9219" fill="#33CCFF" rx="11" ry="11" style="stroke:#A80036;stroke-width:1.0;"/><path d="M188.7188,237.5313 L191.6406,237.5313 L193.1094,242.9688 L194.5781,237.5313 L197.5156,237.5313 L197.5156,249.9219 L195.4063,249.9219 L195.4063,240 L194.0938,245.4219 L192.1563,245.4219 L190.8281,240 L190.8281,249.9219 L188.7188,249.9219 L188.7188,237.5313 Z " fill="#000000"/><text fill="#000000" font-family="sans-serif" font-size="12" font-style="italic" lengthAdjust="spacing" textLength="60" x="252" y="241.0918">«module»</text><text fill="#000000" font-family="sans-serif" font-size="12" lengthAdjust="spacing" textLength="150" x="207" y="255.0605">pon-xp6168s-separated</text><line style="stroke:#A80036;stroke-width:1.5;" x1="179" x2="359" y1="262.8906" y2="262.8906"/><text fill="#000000" font-family="sans-serif" font-size="11" lengthAdjust="spacing" textLength="100" x="184" y="277.1011">feature : pon_volt</text><text fill="#000000" font-family="sans-serif" font-size="11" lengthAdjust="spacing" textLength="94" x="184" y="289.9058">feature : pon_olt</text><!--MD5=[fc9bad718b33997a29cd9f9fb34dfe08]
class c_sdnc_cnf_xnf_cnf_nf_cnf_configs--><rect codeLine="35" fill="#FEFECE" filter="url(#f1j4t3utatwdoe)" height="37.9375" id="c_sdnc_cnf_xnf_cnf_nf_cnf_configs" style="stroke:#A80036;stroke-width:1.5;" width="233" x="174.5" y="356.9531"/><ellipse cx="189.5" cy="375.9219" fill="#5F9EA0" rx="11" ry="11" style="stroke:#A80036;stroke-width:1.0;"/><path d="M189.6094,371.2656 L188.4531,376.3438 L190.7813,376.3438 L189.6094,371.2656 Z M188.125,369.0313 L191.1094,369.0313 L194.4688,381.4219 L192.0156,381.4219 L191.25,378.3594 L187.9688,378.3594 L187.2188,381.4219 L184.7813,381.4219 L188.125,369.0313 Z " fill="#000000"/><text fill="#000000" font-family="sans-serif" font-size="12" font-style="italic" lengthAdjust="spacing" textLength="70" x="269" y="373.0918">«augment»</text><text fill="#000000" font-family="sans-serif" font-size="12" lengthAdjust="spacing" textLength="201" x="203.5" y="387.0605">/c:sdnc/cnf:xnf/cnf:nf/cnf:configs</text><path d="M48.5,478.4531 L48.5,503.5859 A0,0 0 0 0 48.5,503.5859 L189.5,503.5859 A0,0 0 0 0 189.5,503.5859 L189.5,488.4531 L179.5,478.4531 L140.59,478.4531 L263.37,395.1131 L132.59,478.4531 L48.5,478.4531 A0,0 0 0 0 48.5,478.4531 " fill="#FBFB77" filter="url(#f1j4t3utatwdoe)" style="stroke:#A80036;stroke-width:1.0;"/><path d="M179.5,478.4531 L179.5,488.4531 L189.5,488.4531 L179.5,478.4531 " fill="#FBFB77" style="stroke:#A80036;stroke-width:1.0;"/><text fill="#000000" font-family="sans-serif" font-size="13" font-weight="bold" lengthAdjust="spacing" textLength="74" x="54.5" y="495.52">if-feature:</text><text fill="#000000" font-family="sans-serif" font-size="13" lengthAdjust="spacing" textLength="41" x="133.5" y="495.52">c:sdnc</text><path d="M224.5,478.4531 L224.5,503.5859 A0,0 0 0 0 224.5,503.5859 L401.5,503.5859 A0,0 0 0 0 401.5,503.5859 L401.5,488.4531 L391.5,478.4531 L314.75,478.4531 L294.53,395.1131 L306.75,478.4531 L224.5,478.4531 A0,0 0 0 0 224.5,478.4531 " fill="#FBFB77" filter="url(#f1j4t3utatwdoe)" style="stroke:#A80036;stroke-width:1.0;"/><path d="M391.5,478.4531 L391.5,488.4531 L401.5,488.4531 L391.5,478.4531 " fill="#FBFB77" style="stroke:#A80036;stroke-width:1.0;"/><text fill="#000000" font-family="sans-serif" font-size="13" font-weight="bold" lengthAdjust="spacing" textLength="74" x="230.5" y="495.52">if-feature:</text><text fill="#000000" font-family="sans-serif" font-size="13" lengthAdjust="spacing" textLength="77" x="309.5" y="495.52">cnf:sdnc-xnf</text><!--MD5=[5c05241e270cf07082bdbe45d2a834d5]
class sdnc_I_sdnc_I_xnf_I_nf_I_configs_I_config--><rect codeLine="43" fill="#FEFECE" filter="url(#f1j4t3utatwdoe)" height="71.5469" id="sdnc_I_sdnc_I_xnf_I_nf_I_configs_I_config" style="stroke:#A80036;stroke-width:1.5;" width="131" x="436.5" y="454.9531"/><ellipse cx="464.55" cy="473.9219" fill="#ADD1B2" rx="11" ry="11" style="stroke:#A80036;stroke-width:1.0;"/><path d="M467.5188,479.5625 Q466.9406,479.8594 466.3,480 Q465.6594,480.1563 464.9563,480.1563 Q462.4563,480.1563 461.1281,478.5156 Q459.8156,476.8594 459.8156,473.7344 Q459.8156,470.6094 461.1281,468.9531 Q462.4563,467.2969 464.9563,467.2969 Q465.6594,467.2969 466.3,467.4531 Q466.9563,467.6094 467.5188,467.9063 L467.5188,470.625 Q466.8938,470.0469 466.3,469.7813 Q465.7063,469.5 465.0813,469.5 Q463.7375,469.5 463.05,470.5781 Q462.3625,471.6406 462.3625,473.7344 Q462.3625,475.8281 463.05,476.9063 Q463.7375,477.9688 465.0813,477.9688 Q465.7063,477.9688 466.3,477.7031 Q466.8938,477.4219 467.5188,476.8438 L467.5188,479.5625 Z " fill="#000000"/><text fill="#000000" font-family="sans-serif" font-size="12" font-style="italic" lengthAdjust="spacing" textLength="74" x="479.45" y="471.0918">«container»</text><text fill="#000000" font-family="sans-serif" font-size="12" lengthAdjust="spacing" textLength="38" x="497.45" y="485.0605">config</text><line style="stroke:#A80036;stroke-width:1.5;" x1="437.5" x2="566.5" y1="492.8906" y2="492.8906"/><text fill="#000000" font-family="sans-serif" font-size="11" lengthAdjust="spacing" textLength="66" x="442.5" y="507.1011">raw : string</text><text fill="#000000" font-family="sans-serif" font-size="11" lengthAdjust="spacing" textLength="119" x="442.5" y="519.9058">hostname : inet:host</text><path d="M48,614.4531 L48,639.5859 L164,639.5859 L164,624.4531 L154,614.4531 L48,614.4531 " fill="#FBFB77" filter="url(#f1j4t3utatwdoe)" style="stroke:#A80036;stroke-width:1.0;"/><path d="M154,614.4531 L154,624.4531 L164,624.4531 L154,614.4531 " fill="#FBFB77" style="stroke:#A80036;stroke-width:1.0;"/><text fill="#000000" font-family="sans-serif" font-size="13" font-weight="bold" lengthAdjust="spacing" textLength="64" x="54" y="631.52">Config =</text><text fill="#000000" font-family="sans-serif" font-size="13" lengthAdjust="spacing" textLength="26" x="123" y="631.52">true</text><!--MD5=[860e6f99802e80530add135a67af4462]
class sdnc_I_sdnc_I_xnf_I_nf_I_configs_I_config_I_hardware--><rect codeLine="50" fill="#FEFECE" filter="url(#f1j4t3utatwdoe)" height="79.5469" id="sdnc_I_sdnc_I_xnf_I_nf_I_configs_I_config_I_hardware" style="stroke:#A80036;stroke-width:1.5;" width="470" x="199" y="586.9531"/><ellipse cx="394.75" cy="605.9219" fill="#ADD1B2" rx="11" ry="11" style="stroke:#A80036;stroke-width:1.0;"/><path d="M397.7188,611.5625 Q397.1406,611.8594 396.5,612 Q395.8594,612.1563 395.1563,612.1563 Q392.6563,612.1563 391.3281,610.5156 Q390.0156,608.8594 390.0156,605.7344 Q390.0156,602.6094 391.3281,600.9531 Q392.6563,599.2969 395.1563,599.2969 Q395.8594,599.2969 396.5,599.4531 Q397.1563,599.6094 397.7188,599.9063 L397.7188,602.625 Q397.0938,602.0469 396.5,601.7813 Q395.9063,601.5 395.2813,601.5 Q393.9375,601.5 393.25,602.5781 Q392.5625,603.6406 392.5625,605.7344 Q392.5625,607.8281 393.25,608.9063 Q393.9375,609.9688 395.2813,609.9688 Q395.9063,609.9688 396.5,609.7031 Q397.0938,609.4219 397.7188,608.8438 L397.7188,611.5625 Z " fill="#000000"/><text fill="#000000" font-family="sans-serif" font-size="12" font-style="italic" lengthAdjust="spacing" textLength="74" x="413.25" y="603.0918">«container»</text><text fill="#000000" font-family="sans-serif" font-size="12" lengthAdjust="spacing" textLength="59" x="420.75" y="617.0605">hardware</text><line style="stroke:#A80036;stroke-width:1.5;" x1="200" x2="668" y1="624.8906" y2="624.8906"/><text fill="#000000" font-family="sans-serif" font-size="11" lengthAdjust="spacing" textLength="170" x="205" y="639.1011">cg:common-hardware {uses}</text><line style="stroke:#A80036;stroke-width:1.5;" x1="200" x2="668" y1="645.6953" y2="645.6953"/><text fill="#000000" font-family="sans-serif" font-size="11" lengthAdjust="spacing" textLength="458" x="205" y="659.9058">vendor : string {length = 3..max} {pattern = ([A-Za-z0-9.-]+)((\s...}   = VENDOR</text><path d="M916.5,26.9531 L916.5,158.0156 L1333.5,158.0156 L1333.5,36.9531 L1323.5,26.9531 L916.5,26.9531 " fill="#FBFB77" filter="url(#f1j4t3utatwdoe)" style="stroke:#A80036;stroke-width:1.0;"/><path d="M1323.5,26.9531 L1323.5,36.9531 L1333.5,36.9531 L1323.5,26.9531 " fill="#FBFB77" style="stroke:#A80036;stroke-width:1.0;"/><text fill="#000000" font-family="sans-serif" font-size="13" font-weight="bold" lengthAdjust="spacing" textLength="92" x="922.5" y="44.02">Namespace:</text><text fill="#000000" font-family="sans-serif" font-size="13" lengthAdjust="spacing" textLength="291" x="1023.5" y="44.02">urn:com:vendor:yang:pon:xp6168s:separated</text><text fill="#000000" font-family="sans-serif" font-size="13" font-weight="bold" lengthAdjust="spacing" textLength="48" x="922.5" y="59.1528">Prefix:</text><text fill="#000000" font-family="sans-serif" font-size="13" lengthAdjust="spacing" textLength="82" x="979.5" y="59.1528">xp6168s-sne</text><text fill="#000000" font-family="sans-serif" font-size="13" font-weight="bold" lengthAdjust="spacing" textLength="104" x="922.5" y="74.2856">Organization :</text><text fill="#000000" font-family="sans-serif" font-size="13" lengthAdjust="spacing" textLength="147" x="922.5" y="89.4185">Cowdrey Consulting UK</text><text fill="#000000" font-family="sans-serif" font-size="13" font-weight="bold" lengthAdjust="spacing" textLength="67" x="922.5" y="104.5513">Contact :</text><text fill="#000000" font-family="sans-serif" font-size="13" lengthAdjust="spacing" textLength="109" x="922.5" y="119.6841">lee@cowdrey.net</text><text fill="#000000" font-family="sans-serif" font-size="13" font-weight="bold" lengthAdjust="spacing" textLength="71" x="922.5" y="134.8169">Revision :</text><text fill="#000000" font-family="sans-serif" font-size="13" lengthAdjust="spacing" textLength="74" x="1002.5" y="134.8169">2022-05-01</text><text fill="#000000" font-family="sans-serif" font-size="13" lengthAdjust="spacing" textLength="0" x="926.5" y="149.9497"/><!--MD5=[84c1dfd051c37d1144a49ab15321fabd]
link GMN8 to xp6168s_sne_pon_xp6168s_separated--><path d="M916.32,153.3431 C910.83,154.8931 905.38,156.4331 900,157.9531 C788.97,189.2531 658.86,225.1231 586.91,244.8931 " fill="none" id="GMN8-xp6168s_sne_pon_xp6168s_separated" style="stroke:#A80036;stroke-width:1.0;stroke-dasharray:7.0,7.0;"/><!--MD5=[f94e42509feb9a08455e3c51f61a68f8]
reverse link c_sdnc to xp6168s_sne_pon_xp6168s_separated--><path codeLine="27" d="M155.06,131.3931 C163.42,141.8531 173.85,151.9731 186,157.9531 C224.11,176.7331 336.34,153.6631 377,165.9531 C431.53,182.4331 486.43,222.6031 513.92,244.7231 " fill="none" id="c_sdnc-backto-xp6168s_sne_pon_xp6168s_separated" style="stroke:#A80036;stroke-width:1.0;"/><ellipse cx="150.9009" cy="125.6535" fill="#FFFFFF" rx="8" ry="8" style="stroke:#A80036;stroke-width:1.0;"/><line style="stroke:#A80036;stroke-width:1.0;" x1="155.5917" x2="146.21" y1="132.1339" y2="119.1731"/><line style="stroke:#A80036;stroke-width:1.0;" x1="144.4205" x2="157.3813" y1="130.3444" y2="120.9627"/><!--MD5=[adef2d0b78932ebb58511f85372a0e83]
reverse link cnf_sdnc_xnf to xp6168s_sne_pon_xp6168s_separated--><path codeLine="28" d="M300.09,129.2331 C312.51,139.8531 327.07,150.5931 342,157.9531 C356.31,165.0031 362.21,159.9631 377,165.9531 C428.92,186.9831 483.58,224.2131 512.06,244.9531 " fill="none" id="cnf_sdnc_xnf-backto-xp6168s_sne_pon_xp6168s_separated" style="stroke:#A80036;stroke-width:1.0;"/><ellipse cx="294.8469" cy="124.553" fill="#FFFFFF" rx="8" ry="8" style="stroke:#A80036;stroke-width:1.0;"/><line style="stroke:#A80036;stroke-width:1.0;" x1="300.8039" x2="288.89" y1="129.893" y2="119.2131"/><line style="stroke:#A80036;stroke-width:1.0;" x1="289.507" x2="300.1869" y1="130.51" y2="118.5961"/><!--MD5=[34e86e8f09121a75f807476cc8fed10d]
reverse link cg_sdnc_groupings to xp6168s_sne_pon_xp6168s_separated--><path codeLine="29" d="M464.6,132.4231 C483.48,168.1431 510.46,219.2031 523.84,244.5131 " fill="none" id="cg_sdnc_groupings-backto-xp6168s_sne_pon_xp6168s_separated" style="stroke:#A80036;stroke-width:1.0;"/><ellipse cx="461.2982" cy="126.176" fill="#FFFFFF" rx="8" ry="8" style="stroke:#A80036;stroke-width:1.0;"/><line style="stroke:#A80036;stroke-width:1.0;" x1="465.0364" x2="457.56" y1="133.2489" y2="119.1031"/><line style="stroke:#A80036;stroke-width:1.0;" x1="454.2253" x2="468.3711" y1="129.9142" y2="122.4378"/><!--MD5=[1dbfe8ccf5ff63d4b57173d0464c36c2]
reverse link cs_sdnc_sku to xp6168s_sne_pon_xp6168s_separated--><path codeLine="30" d="M600.17,132.4231 C581.08,168.1431 553.78,219.2031 540.25,244.5131 " fill="none" id="cs_sdnc_sku-backto-xp6168s_sne_pon_xp6168s_separated" style="stroke:#A80036;stroke-width:1.0;"/><ellipse cx="603.5186" cy="126.1584" fill="#FFFFFF" rx="8" ry="8" style="stroke:#A80036;stroke-width:1.0;"/><line style="stroke:#A80036;stroke-width:1.0;" x1="599.7471" x2="607.29" y1="133.2136" y2="119.1031"/><line style="stroke:#A80036;stroke-width:1.0;" x1="596.4633" x2="610.5738" y1="122.3869" y2="129.9298"/><!--MD5=[5ad069ea92dcc0c0b347669aa8882f49]
reverse link inet_ietf_inet_types to xp6168s_sne_pon_xp6168s_separated--><path codeLine="31" d="M745.59,127.1231 C729.99,137.1031 712.83,148.0131 697,157.9531 C647.38,189.1331 588.99,225.0431 556.67,244.8531 " fill="none" id="inet_ietf_inet_types-backto-xp6168s_sne_pon_xp6168s_separated" style="stroke:#A80036;stroke-width:1.0;"/><ellipse cx="751.5304" cy="123.3234" fill="#FFFFFF" rx="8" ry="8" style="stroke:#A80036;stroke-width:1.0;"/><line style="stroke:#A80036;stroke-width:1.0;" x1="744.7909" x2="758.27" y1="127.6337" y2="119.0131"/><line style="stroke:#A80036;stroke-width:1.0;" x1="747.2202" x2="755.8407" y1="116.5838" y2="130.0629"/><!--MD5=[8964894a8bd151657455535a3da493e4]
reverse link pon_xp6168s_separated to c_sdnc_cnf_xnf_cnf_nf_cnf_configs--><path codeLine="36" d="M278.37,310.0731 C281.6,326.6631 285.02,344.2431 287.49,356.9131 " fill="none" id="pon_xp6168s_separated-backto-c_sdnc_cnf_xnf_cnf_nf_cnf_configs" style="stroke:#A80036;stroke-width:1.0;"/><polygon fill="#A80036" points="275.84,297.0831,273.0542,303.7344,278.1223,308.8641,280.9081,302.2128,275.84,297.0831" style="stroke:#A80036;stroke-width:1.0;"/><!--MD5=[69abc761f7f556b43ac5ec10af28a102]
reverse link c_sdnc_cnf_xnf_cnf_nf_cnf_configs to sdnc_I_sdnc_I_xnf_I_nf_I_configs_I_config--><path codeLine="44" d="M336.38,401.2531 C365.51,416.8531 403.81,437.3731 436.25,454.7431 " fill="none" id="c_sdnc_cnf_xnf_cnf_nf_cnf_configs-backto-sdnc_I_sdnc_I_xnf_I_nf_I_configs_I_config" style="stroke:#A80036;stroke-width:1.0;"/><polygon fill="#A80036" points="324.9,395.1131,328.2978,401.4735,335.4758,400.7834,332.078,394.423,324.9,395.1131" style="stroke:#A80036;stroke-width:1.0;"/><text fill="#000000" font-family="sans-serif" font-size="13" lengthAdjust="spacing" textLength="8" x="420.6211" y="447.0613">1</text><!--MD5=[62a28ac8664087a23c1a15af78a13711]
link sdnc_I_sdnc_I_xnf_I_nf_I_configs_I_config to GMN28--><path d="M436.2,520.7631 C430.43,522.9731 424.64,525.0631 419,526.9531 C315.55,561.5831 282.97,548.1931 181,586.9531 C161.25,594.4631 139.98,605.8631 125.16,614.4031 " fill="none" id="sdnc_I_sdnc_I_xnf_I_nf_I_configs_I_config-GMN28" style="stroke:#A80036;stroke-width:1.0;stroke-dasharray:7.0,7.0;"/><!--MD5=[b8837e8abc24c0879640b4093285f2ce]
reverse link sdnc_I_sdnc_I_xnf_I_nf_I_configs_I_config to sdnc_I_sdnc_I_xnf_I_nf_I_configs_I_config_I_hardware--><path codeLine="51" d="M478.25,538.7531 C470.3,554.4231 461.53,571.7131 453.9,586.7331 " fill="none" id="sdnc_I_sdnc_I_xnf_I_nf_I_configs_I_config-backto-sdnc_I_sdnc_I_xnf_I_nf_I_configs_I_config_I_hardware" style="stroke:#A80036;stroke-width:1.0;"/><polygon fill="#A80036" points="484.13,527.1631,477.848,530.7039,478.7003,537.8644,484.9822,534.3237,484.13,527.1631" style="stroke:#A80036;stroke-width:1.0;"/><text fill="#000000" font-family="sans-serif" font-size="13" lengthAdjust="spacing" textLength="8" x="448.5334" y="575.9449">1</text><text fill="#888888" font-family="sans-serif" font-size="24" lengthAdjust="spacing" textLength="218" x="554.75" y="719.2305">subject to revision</text><!--MD5=[bb6cd0e7fa1fffda3e43822a74c1f494]
@startuml img/pon-xp6168s-separated.png 
hide empty fields 
hide empty methods 
hide <<case>> circle
hide <<augment>> circle
hide <<choice>> circle
hide <<leafref>> stereotype
hide <<leafref>> circle
page 1x1 
Title pon-xp6168s-separated 
package "c:sdnc" as c_sdnc { 
} 
package "cnf:sdnc-xnf" as cnf_sdnc_xnf { 
} 
package "cg:sdnc-groupings" as cg_sdnc_groupings { 
} 
package "cs:sdnc-sku" as cs_sdnc_sku { 
} 
package "inet:ietf-inet-types" as inet_ietf_inet_types { 
} 
note top of xp6168s_sne_pon_xp6168s_separated : <b>Namespace: </b> urn:com:vendor:yang:pon:xp6168s:separated \n<b>Prefix: </b> xp6168s-sne \n<b>Organization : </b>\nCowdrey Consulting UK \n<b>Contact : </b>\nlee@cowdrey.net \n<b>Revision : </b> 2022-05-01 \n
package "xp6168s-sne:pon-xp6168s-separated" as xp6168s_sne_pon_xp6168s_separated { 
c_sdnc +- - xp6168s_sne_pon_xp6168s_separated
cnf_sdnc_xnf +- - xp6168s_sne_pon_xp6168s_separated
cg_sdnc_groupings +- - xp6168s_sne_pon_xp6168s_separated
cs_sdnc_sku +- - xp6168s_sne_pon_xp6168s_separated
inet_ietf_inet_types +- - xp6168s_sne_pon_xp6168s_separated
class "pon-xp6168s-separated" as pon_xp6168s_separated << (M, #33CCFF) module>> 
pon_xp6168s_separated : feature : pon_volt 
pon_xp6168s_separated : feature : pon_olt 
class "/c:sdnc/cnf:xnf/cnf:nf/cnf:configs" as c_sdnc_cnf_xnf_cnf_nf_cnf_configs << (A,CadetBlue) augment>>
pon_xp6168s_separated *- -  c_sdnc_cnf_xnf_cnf_nf_cnf_configs 
note bottom of c_sdnc_cnf_xnf_cnf_nf_cnf_configs
<b>if-feature: </b>c:sdnc
end note 
note bottom of c_sdnc_cnf_xnf_cnf_nf_cnf_configs
<b>if-feature: </b>cnf:sdnc-xnf
end note 
class "config" as  sdnc_I_sdnc_I_xnf_I_nf_I_configs_I_config <<container>> 
c_sdnc_cnf_xnf_cnf_nf_cnf_configs *- - "1" sdnc_I_sdnc_I_xnf_I_nf_I_configs_I_config 
note bottom of sdnc_I_sdnc_I_xnf_I_nf_I_configs_I_config
<b>Config = </b>true
end note 
sdnc_I_sdnc_I_xnf_I_nf_I_configs_I_config : raw : string  
sdnc_I_sdnc_I_xnf_I_nf_I_configs_I_config : hostname : inet:host  
class "hardware" as  sdnc_I_sdnc_I_xnf_I_nf_I_configs_I_config_I_hardware <<container>> 
sdnc_I_sdnc_I_xnf_I_nf_I_configs_I_config *- - "1" sdnc_I_sdnc_I_xnf_I_nf_I_configs_I_config_I_hardware 
sdnc_I_sdnc_I_xnf_I_nf_I_configs_I_config_I_hardware : cg:common-hardware {uses} 
sdnc_I_sdnc_I_xnf_I_nf_I_configs_I_config_I_hardware : vendor : string {length = 3..max} {pattern = ([A-Za-z0-9.-]+)((\s...}   = VENDOR 
} 

center footer
 <size:24> subject to revision </size>
 endfooter 
@enduml

PlantUML version 1.2021.8(Sat Jun 26 09:20:59 BST 2021)
(APACHE source distribution)
Java Runtime: OpenJDK Runtime Environment
JVM: OpenJDK 64-Bit Server VM
Default Encoding: UTF-8
Language: en
Country: GB
--></g></svg>