<?xml version="1.0" encoding="UTF-8" standalone="no"?><svg xmlns="http://www.w3.org/2000/svg" xmlns:xlink="http://www.w3.org/1999/xlink" contentScriptType="application/ecmascript" contentStyleType="text/css" height="803px" preserveAspectRatio="none" style="width:1494px;height:803px;background:#FFFFFF;" version="1.1" viewBox="0 0 1494 803" width="1494px" zoomAndPan="magnify"><defs><filter height="300%" id="f1uuvf3jxctb5" width="300%" x="-1" y="-1"><feGaussianBlur result="blurOut" stdDeviation="2.0"/><feColorMatrix in="blurOut" result="blurOut2" type="matrix" values="0 0 0 0 0 0 0 0 0 0 0 0 0 0 0 0 0 0 .4 0"/><feOffset dx="4.0" dy="4.0" in="blurOut2" result="blurOut3"/><feBlend in="SourceGraphic" in2="blurOut3" mode="normal"/></filter></defs><g><text fill="#000000" font-family="sans-serif" font-size="18" lengthAdjust="spacing" textLength="100" x="689.75" y="16.708">rxd-rd1322</text><!--MD5=[c1278908041c63b3e45c78d7feb9b158]
cluster rd1322_rxd_rd1322--><polygon fill="#FFFFFF" filter="url(#f1uuvf3jxctb5)" points="16,181.9531,174,181.9531,181,204.25,803,204.25,803,766.9531,16,766.9531,16,181.9531" style="stroke:#000000;stroke-width:1.5;"/><line style="stroke:#000000;stroke-width:1.5;" x1="16" x2="181" y1="204.25" y2="204.25"/><text fill="#000000" font-family="sans-serif" font-size="14" font-weight="bold" lengthAdjust="spacing" textLength="152" x="20" y="196.9482">rd1322:rxd-rd1322</text><polygon fill="#FFFFFF" filter="url(#f1uuvf3jxctb5)" points="164.5,65.9531,223.5,65.9531,230.5,88.25,237.5,88.25,237.5,118.5469,164.5,118.5469,164.5,65.9531" style="stroke:#000000;stroke-width:1.5;"/><line style="stroke:#000000;stroke-width:1.5;" x1="164.5" x2="230.5" y1="88.25" y2="88.25"/><text fill="#000000" font-family="sans-serif" font-size="14" font-weight="bold" lengthAdjust="spacing" textLength="53" x="168.5" y="80.9482">c:sdnc</text><polygon fill="#FFFFFF" filter="url(#f1uuvf3jxctb5)" points="272.5,65.9531,387.5,65.9531,394.5,88.25,401.5,88.25,401.5,118.5469,272.5,118.5469,272.5,65.9531" style="stroke:#000000;stroke-width:1.5;"/><line style="stroke:#000000;stroke-width:1.5;" x1="272.5" x2="394.5" y1="88.25" y2="88.25"/><text fill="#000000" font-family="sans-serif" font-size="14" font-weight="bold" lengthAdjust="spacing" textLength="109" x="276.5" y="80.9482">ct:sdnc-types</text><polygon fill="#FFFFFF" filter="url(#f1uuvf3jxctb5)" points="437,65.9531,539,65.9531,546,88.25,553,88.25,553,118.5469,437,118.5469,437,65.9531" style="stroke:#000000;stroke-width:1.5;"/><line style="stroke:#000000;stroke-width:1.5;" x1="437" x2="546" y1="88.25" y2="88.25"/><text fill="#000000" font-family="sans-serif" font-size="14" font-weight="bold" lengthAdjust="spacing" textLength="96" x="441" y="80.9482">cs:sdnc-sku</text><polygon fill="#FFFFFF" filter="url(#f1uuvf3jxctb5)" points="588,65.9531,694,65.9531,701,88.25,708,88.25,708,118.5469,588,118.5469,588,65.9531" style="stroke:#000000;stroke-width:1.5;"/><line style="stroke:#000000;stroke-width:1.5;" x1="588" x2="701" y1="88.25" y2="88.25"/><text fill="#000000" font-family="sans-serif" font-size="14" font-weight="bold" lengthAdjust="spacing" textLength="100" x="592" y="80.9482">cnf:sdnc-xnf</text><polygon fill="#FFFFFF" filter="url(#f1uuvf3jxctb5)" points="743.5,65.9531,898.5,65.9531,905.5,88.25,912.5,88.25,912.5,118.5469,743.5,118.5469,743.5,65.9531" style="stroke:#000000;stroke-width:1.5;"/><line style="stroke:#000000;stroke-width:1.5;" x1="743.5" x2="905.5" y1="88.25" y2="88.25"/><text fill="#000000" font-family="sans-serif" font-size="14" font-weight="bold" lengthAdjust="spacing" textLength="149" x="747.5" y="80.9482">cg:sdnc-groupings</text><polygon fill="#FFFFFF" filter="url(#f1uuvf3jxctb5)" points="947,65.9531,1101,65.9531,1108,88.25,1115,88.25,1115,118.5469,947,118.5469,947,65.9531" style="stroke:#000000;stroke-width:1.5;"/><line style="stroke:#000000;stroke-width:1.5;" x1="947" x2="1108" y1="88.25" y2="88.25"/><text fill="#000000" font-family="sans-serif" font-size="14" font-weight="bold" lengthAdjust="spacing" textLength="148" x="951" y="80.9482">inet:ietf-inet-types</text><!--MD5=[1599a356fe5c5dceac3371b9e0eb8e66]
class rd1322_rxd_rd1322--><rect fill="#FEFECE" filter="url(#f1uuvf3jxctb5)" height="32" id="rd1322_rxd_rd1322" style="stroke:#A80036;stroke-width:1.5;" width="153" x="571.5" y="238.4531"/><ellipse cx="586.5" cy="254.4531" fill="#ADD1B2" rx="11" ry="11" style="stroke:#A80036;stroke-width:1.0;"/><path d="M589.4688,260.0938 Q588.8906,260.3906 588.25,260.5313 Q587.6094,260.6875 586.9063,260.6875 Q584.4063,260.6875 583.0781,259.0469 Q581.7656,257.3906 581.7656,254.2656 Q581.7656,251.1406 583.0781,249.4844 Q584.4063,247.8281 586.9063,247.8281 Q587.6094,247.8281 588.25,247.9844 Q588.9063,248.1406 589.4688,248.4375 L589.4688,251.1563 Q588.8438,250.5781 588.25,250.3125 Q587.6563,250.0313 587.0313,250.0313 Q585.6875,250.0313 585,251.1094 Q584.3125,252.1719 584.3125,254.2656 Q584.3125,256.3594 585,257.4375 Q585.6875,258.5 587.0313,258.5 Q587.6563,258.5 588.25,258.2344 Q588.8438,257.9531 589.4688,257.375 L589.4688,260.0938 Z " fill="#000000"/><text fill="#000000" font-family="sans-serif" font-size="12" lengthAdjust="spacing" textLength="121" x="600.5" y="258.6074">rd1322_rxd_rd1322</text><!--MD5=[c9355e63d4414afd54dc9749ff6b1276]
class rxd_rd1322--><rect codeLine="35" fill="#FEFECE" filter="url(#f1uuvf3jxctb5)" height="58.7422" id="rxd_rd1322" style="stroke:#A80036;stroke-width:1.5;" width="129" x="301.5" y="224.9531"/><ellipse cx="329.55" cy="243.9219" fill="#33CCFF" rx="11" ry="11" style="stroke:#A80036;stroke-width:1.0;"/><path d="M325.2688,237.5313 L328.1906,237.5313 L329.6594,242.9688 L331.1281,237.5313 L334.0656,237.5313 L334.0656,249.9219 L331.9563,249.9219 L331.9563,240 L330.6438,245.4219 L328.7063,245.4219 L327.3781,240 L327.3781,249.9219 L325.2688,249.9219 L325.2688,237.5313 Z " fill="#000000"/><text fill="#000000" font-family="sans-serif" font-size="12" font-style="italic" lengthAdjust="spacing" textLength="60" x="350.45" y="241.0918">«module»</text><text fill="#000000" font-family="sans-serif" font-size="12" lengthAdjust="spacing" textLength="68" x="346.45" y="255.0605">rxd-rd1322</text><line style="stroke:#A80036;stroke-width:1.5;" x1="302.5" x2="429.5" y1="262.8906" y2="262.8906"/><text fill="#000000" font-family="sans-serif" font-size="11" lengthAdjust="spacing" textLength="117" x="307.5" y="277.1011">feature : rxd_rd1322</text><!--MD5=[fc9bad718b33997a29cd9f9fb34dfe08]
class c_sdnc_cnf_xnf_cnf_nf_cnf_configs--><rect codeLine="37" fill="#FEFECE" filter="url(#f1uuvf3jxctb5)" height="37.9375" id="c_sdnc_cnf_xnf_cnf_nf_cnf_configs" style="stroke:#A80036;stroke-width:1.5;" width="233" x="249.5" y="343.9531"/><ellipse cx="264.5" cy="362.9219" fill="#5F9EA0" rx="11" ry="11" style="stroke:#A80036;stroke-width:1.0;"/><path d="M264.6094,358.2656 L263.4531,363.3438 L265.7813,363.3438 L264.6094,358.2656 Z M263.125,356.0313 L266.1094,356.0313 L269.4688,368.4219 L267.0156,368.4219 L266.25,365.3594 L262.9688,365.3594 L262.2188,368.4219 L259.7813,368.4219 L263.125,356.0313 Z " fill="#000000"/><text fill="#000000" font-family="sans-serif" font-size="12" font-style="italic" lengthAdjust="spacing" textLength="70" x="344" y="360.0918">«augment»</text><text fill="#000000" font-family="sans-serif" font-size="12" lengthAdjust="spacing" textLength="201" x="278.5" y="374.0605">/c:sdnc/cnf:xnf/cnf:nf/cnf:configs</text><path d="M48.5,471.4531 L48.5,496.5859 A0,0 0 0 0 48.5,496.5859 L189.5,496.5859 A0,0 0 0 0 189.5,496.5859 L189.5,481.4531 L179.5,471.4531 L147.03,471.4531 L328.49,382.0231 L139.03,471.4531 L48.5,471.4531 A0,0 0 0 0 48.5,471.4531 " fill="#FBFB77" filter="url(#f1uuvf3jxctb5)" style="stroke:#A80036;stroke-width:1.0;"/><path d="M179.5,471.4531 L179.5,481.4531 L189.5,481.4531 L179.5,471.4531 " fill="#FBFB77" style="stroke:#A80036;stroke-width:1.0;"/><text fill="#000000" font-family="sans-serif" font-size="13" font-weight="bold" lengthAdjust="spacing" textLength="74" x="54.5" y="488.52">if-feature:</text><text fill="#000000" font-family="sans-serif" font-size="13" lengthAdjust="spacing" textLength="41" x="133.5" y="488.52">c:sdnc</text><path d="M224.5,471.4531 L224.5,496.5859 A0,0 0 0 0 224.5,496.5859 L401.5,496.5859 A0,0 0 0 0 401.5,496.5859 L401.5,481.4531 L391.5,471.4531 L322.23,471.4531 L357.95,382.0231 L314.23,471.4531 L224.5,471.4531 A0,0 0 0 0 224.5,471.4531 " fill="#FBFB77" filter="url(#f1uuvf3jxctb5)" style="stroke:#A80036;stroke-width:1.0;"/><path d="M391.5,471.4531 L391.5,481.4531 L401.5,481.4531 L391.5,471.4531 " fill="#FBFB77" style="stroke:#A80036;stroke-width:1.0;"/><text fill="#000000" font-family="sans-serif" font-size="13" font-weight="bold" lengthAdjust="spacing" textLength="74" x="230.5" y="488.52">if-feature:</text><text fill="#000000" font-family="sans-serif" font-size="13" lengthAdjust="spacing" textLength="77" x="309.5" y="488.52">cnf:sdnc-xnf</text><path d="M436.5,471.4531 L436.5,496.5859 A0,0 0 0 0 436.5,496.5859 L611.5,496.5859 A0,0 0 0 0 611.5,496.5859 L611.5,481.4531 L601.5,471.4531 L512.41,471.4531 L390,382.0231 L504.41,471.4531 L436.5,471.4531 A0,0 0 0 0 436.5,471.4531 " fill="#FBFB77" filter="url(#f1uuvf3jxctb5)" style="stroke:#A80036;stroke-width:1.0;"/><path d="M601.5,471.4531 L601.5,481.4531 L611.5,481.4531 L601.5,471.4531 " fill="#FBFB77" style="stroke:#A80036;stroke-width:1.0;"/><text fill="#000000" font-family="sans-serif" font-size="13" font-weight="bold" lengthAdjust="spacing" textLength="74" x="442.5" y="488.52">if-feature:</text><text fill="#000000" font-family="sans-serif" font-size="13" lengthAdjust="spacing" textLength="75" x="521.5" y="488.52">cs:sdnc-sku</text><!--MD5=[5c05241e270cf07082bdbe45d2a834d5]
class sdnc_I_sdnc_I_xnf_I_nf_I_configs_I_config--><rect codeLine="48" fill="#FEFECE" filter="url(#f1uuvf3jxctb5)" height="84.3516" id="sdnc_I_sdnc_I_xnf_I_nf_I_configs_I_config" style="stroke:#A80036;stroke-width:1.5;" width="131" x="646.5" y="441.9531"/><ellipse cx="674.55" cy="460.9219" fill="#ADD1B2" rx="11" ry="11" style="stroke:#A80036;stroke-width:1.0;"/><path d="M677.5188,466.5625 Q676.9406,466.8594 676.3,467 Q675.6594,467.1563 674.9563,467.1563 Q672.4563,467.1563 671.1281,465.5156 Q669.8156,463.8594 669.8156,460.7344 Q669.8156,457.6094 671.1281,455.9531 Q672.4563,454.2969 674.9563,454.2969 Q675.6594,454.2969 676.3,454.4531 Q676.9563,454.6094 677.5188,454.9063 L677.5188,457.625 Q676.8938,457.0469 676.3,456.7813 Q675.7063,456.5 675.0813,456.5 Q673.7375,456.5 673.05,457.5781 Q672.3625,458.6406 672.3625,460.7344 Q672.3625,462.8281 673.05,463.9063 Q673.7375,464.9688 675.0813,464.9688 Q675.7063,464.9688 676.3,464.7031 Q676.8938,464.4219 677.5188,463.8438 L677.5188,466.5625 Z " fill="#000000"/><text fill="#000000" font-family="sans-serif" font-size="12" font-style="italic" lengthAdjust="spacing" textLength="74" x="689.45" y="458.0918">«container»</text><text fill="#000000" font-family="sans-serif" font-size="12" lengthAdjust="spacing" textLength="38" x="707.45" y="472.0605">config</text><line style="stroke:#A80036;stroke-width:1.5;" x1="647.5" x2="776.5" y1="479.8906" y2="479.8906"/><text fill="#000000" font-family="sans-serif" font-size="11" lengthAdjust="spacing" textLength="66" x="652.5" y="494.1011">raw : string</text><text fill="#000000" font-family="sans-serif" font-size="11" lengthAdjust="spacing" textLength="119" x="652.5" y="506.9058">hostname : inet:host</text><text fill="#000000" font-family="sans-serif" font-size="11" lengthAdjust="spacing" textLength="105" x="652.5" y="519.7104">shelfname : string</text><path d="M48,609.4531 L48,634.5859 L164,634.5859 L164,619.4531 L154,609.4531 L48,609.4531 " fill="#FBFB77" filter="url(#f1uuvf3jxctb5)" style="stroke:#A80036;stroke-width:1.0;"/><path d="M154,609.4531 L154,619.4531 L164,619.4531 L154,609.4531 " fill="#FBFB77" style="stroke:#A80036;stroke-width:1.0;"/><text fill="#000000" font-family="sans-serif" font-size="13" font-weight="bold" lengthAdjust="spacing" textLength="64" x="54" y="626.52">Config =</text><text fill="#000000" font-family="sans-serif" font-size="13" lengthAdjust="spacing" textLength="26" x="123" y="626.52">true</text><!--MD5=[6e0acd99d1dda4e4de9abbea6adeea81]
class sdnc_I_sdnc_I_xnf_I_nf_I_configs_I_config_I_cli_header--><rect codeLine="54" fill="#FEFECE" filter="url(#f1uuvf3jxctb5)" height="37.9375" id="sdnc_I_sdnc_I_xnf_I_nf_I_configs_I_config_I_cli_header" style="stroke:#A80036;stroke-width:1.5;" width="102" x="199" y="602.9531"/><ellipse cx="214" cy="621.9219" fill="#ADD1B2" rx="11" ry="11" style="stroke:#A80036;stroke-width:1.0;"/><path d="M216.9688,627.5625 Q216.3906,627.8594 215.75,628 Q215.1094,628.1563 214.4063,628.1563 Q211.9063,628.1563 210.5781,626.5156 Q209.2656,624.8594 209.2656,621.7344 Q209.2656,618.6094 210.5781,616.9531 Q211.9063,615.2969 214.4063,615.2969 Q215.1094,615.2969 215.75,615.4531 Q216.4063,615.6094 216.9688,615.9063 L216.9688,618.625 Q216.3438,618.0469 215.75,617.7813 Q215.1563,617.5 214.5313,617.5 Q213.1875,617.5 212.5,618.5781 Q211.8125,619.6406 211.8125,621.7344 Q211.8125,623.8281 212.5,624.9063 Q213.1875,625.9688 214.5313,625.9688 Q215.1563,625.9688 215.75,625.7031 Q216.3438,625.4219 216.9688,624.8438 L216.9688,627.5625 Z " fill="#000000"/><text fill="#000000" font-family="sans-serif" font-size="12" font-style="italic" lengthAdjust="spacing" textLength="74" x="226" y="619.0918">«container»</text><text fill="#000000" font-family="sans-serif" font-size="12" lengthAdjust="spacing" textLength="62" x="232" y="633.0605">cli-header</text><path d="M190,717.9531 L190,743.0859 A0,0 0 0 0 190,743.0859 L310,743.0859 A0,0 0 0 0 310,743.0859 L310,727.9531 L300,717.9531 L254,717.9531 L250,641.0231 L246,717.9531 L190,717.9531 A0,0 0 0 0 190,717.9531 " fill="#FBFB77" filter="url(#f1uuvf3jxctb5)" style="stroke:#A80036;stroke-width:1.0;"/><path d="M300,717.9531 L300,727.9531 L310,727.9531 L300,717.9531 " fill="#FBFB77" style="stroke:#A80036;stroke-width:1.0;"/><text fill="#000000" font-family="sans-serif" font-size="13" font-weight="bold" lengthAdjust="spacing" textLength="64" x="196" y="735.02">Config =</text><text fill="#000000" font-family="sans-serif" font-size="13" lengthAdjust="spacing" textLength="30" x="265" y="735.02">false</text><!--MD5=[860e6f99802e80530add135a67af4462]
class sdnc_I_sdnc_I_xnf_I_nf_I_configs_I_config_I_hardware--><rect codeLine="59" fill="#FEFECE" filter="url(#f1uuvf3jxctb5)" height="71.5469" id="sdnc_I_sdnc_I_xnf_I_nf_I_configs_I_config_I_hardware" style="stroke:#A80036;stroke-width:1.5;" width="305" x="336.5" y="585.9531"/><ellipse cx="449.75" cy="604.9219" fill="#ADD1B2" rx="11" ry="11" style="stroke:#A80036;stroke-width:1.0;"/><path d="M452.7188,610.5625 Q452.1406,610.8594 451.5,611 Q450.8594,611.1563 450.1563,611.1563 Q447.6563,611.1563 446.3281,609.5156 Q445.0156,607.8594 445.0156,604.7344 Q445.0156,601.6094 446.3281,599.9531 Q447.6563,598.2969 450.1563,598.2969 Q450.8594,598.2969 451.5,598.4531 Q452.1563,598.6094 452.7188,598.9063 L452.7188,601.625 Q452.0938,601.0469 451.5,600.7813 Q450.9063,600.5 450.2813,600.5 Q448.9375,600.5 448.25,601.5781 Q447.5625,602.6406 447.5625,604.7344 Q447.5625,606.8281 448.25,607.9063 Q448.9375,608.9688 450.2813,608.9688 Q450.9063,608.9688 451.5,608.7031 Q452.0938,608.4219 452.7188,607.8438 L452.7188,610.5625 Z " fill="#000000"/><text fill="#000000" font-family="sans-serif" font-size="12" font-style="italic" lengthAdjust="spacing" textLength="74" x="468.25" y="602.0918">«container»</text><text fill="#000000" font-family="sans-serif" font-size="12" lengthAdjust="spacing" textLength="59" x="475.75" y="616.0605">hardware</text><line style="stroke:#A80036;stroke-width:1.5;" x1="337.5" x2="640.5" y1="623.8906" y2="623.8906"/><text fill="#000000" font-family="sans-serif" font-size="11" lengthAdjust="spacing" textLength="170" x="342.5" y="638.1011">cg:common-hardware {uses}</text><text fill="#000000" font-family="sans-serif" font-size="11" lengthAdjust="spacing" textLength="293" x="342.5" y="650.9058">operational-mode : ct:rxd-operational-mode   = 1x1</text><!--MD5=[e4bf3c269c5070197f6daf7bf804f626]
class sdnc_I_sdnc_I_xnf_I_nf_I_configs_I_config_I_cli_footer--><rect codeLine="65" fill="#FEFECE" filter="url(#f1uuvf3jxctb5)" height="37.9375" id="sdnc_I_sdnc_I_xnf_I_nf_I_configs_I_config_I_cli_footer" style="stroke:#A80036;stroke-width:1.5;" width="102" x="677" y="602.9531"/><ellipse cx="692" cy="621.9219" fill="#ADD1B2" rx="11" ry="11" style="stroke:#A80036;stroke-width:1.0;"/><path d="M694.9688,627.5625 Q694.3906,627.8594 693.75,628 Q693.1094,628.1563 692.4063,628.1563 Q689.9063,628.1563 688.5781,626.5156 Q687.2656,624.8594 687.2656,621.7344 Q687.2656,618.6094 688.5781,616.9531 Q689.9063,615.2969 692.4063,615.2969 Q693.1094,615.2969 693.75,615.4531 Q694.4063,615.6094 694.9688,615.9063 L694.9688,618.625 Q694.3438,618.0469 693.75,617.7813 Q693.1563,617.5 692.5313,617.5 Q691.1875,617.5 690.5,618.5781 Q689.8125,619.6406 689.8125,621.7344 Q689.8125,623.8281 690.5,624.9063 Q691.1875,625.9688 692.5313,625.9688 Q693.1563,625.9688 693.75,625.7031 Q694.3438,625.4219 694.9688,624.8438 L694.9688,627.5625 Z " fill="#000000"/><text fill="#000000" font-family="sans-serif" font-size="12" font-style="italic" lengthAdjust="spacing" textLength="74" x="704" y="619.0918">«container»</text><text fill="#000000" font-family="sans-serif" font-size="12" lengthAdjust="spacing" textLength="55" x="713.5" y="633.0605">cli-footer</text><path d="M659,717.9531 L659,743.0859 A0,0 0 0 0 659,743.0859 L779,743.0859 A0,0 0 0 0 779,743.0859 L779,727.9531 L769,717.9531 L723.98,717.9531 L726.47,641.0231 L715.98,717.9531 L659,717.9531 A0,0 0 0 0 659,717.9531 " fill="#FBFB77" filter="url(#f1uuvf3jxctb5)" style="stroke:#A80036;stroke-width:1.0;"/><path d="M769,717.9531 L769,727.9531 L779,727.9531 L769,717.9531 " fill="#FBFB77" style="stroke:#A80036;stroke-width:1.0;"/><text fill="#000000" font-family="sans-serif" font-size="13" font-weight="bold" lengthAdjust="spacing" textLength="64" x="665" y="735.02">Config =</text><text fill="#000000" font-family="sans-serif" font-size="13" lengthAdjust="spacing" textLength="30" x="734" y="735.02">false</text><path d="M1150.5,26.9531 L1150.5,158.0156 L1485.5,158.0156 L1485.5,36.9531 L1475.5,26.9531 L1150.5,26.9531 " fill="#FBFB77" filter="url(#f1uuvf3jxctb5)" style="stroke:#A80036;stroke-width:1.0;"/><path d="M1475.5,26.9531 L1475.5,36.9531 L1485.5,36.9531 L1475.5,26.9531 " fill="#FBFB77" style="stroke:#A80036;stroke-width:1.0;"/><text fill="#000000" font-family="sans-serif" font-size="13" font-weight="bold" lengthAdjust="spacing" textLength="92" x="1156.5" y="44.02">Namespace:</text><text fill="#000000" font-family="sans-serif" font-size="13" lengthAdjust="spacing" textLength="209" x="1257.5" y="44.02">urn:com:vendor:yang:rxd:rd1322</text><text fill="#000000" font-family="sans-serif" font-size="13" font-weight="bold" lengthAdjust="spacing" textLength="48" x="1156.5" y="59.1528">Prefix:</text><text fill="#000000" font-family="sans-serif" font-size="13" lengthAdjust="spacing" textLength="45" x="1213.5" y="59.1528">rd1322</text><text fill="#000000" font-family="sans-serif" font-size="13" font-weight="bold" lengthAdjust="spacing" textLength="104" x="1156.5" y="74.2856">Organization :</text><text fill="#000000" font-family="sans-serif" font-size="13" lengthAdjust="spacing" textLength="147" x="1156.5" y="89.4185">Cowdrey Consulting UK</text><text fill="#000000" font-family="sans-serif" font-size="13" font-weight="bold" lengthAdjust="spacing" textLength="67" x="1156.5" y="104.5513">Contact :</text><text fill="#000000" font-family="sans-serif" font-size="13" lengthAdjust="spacing" textLength="109" x="1156.5" y="119.6841">lee@cowdrey.net</text><text fill="#000000" font-family="sans-serif" font-size="13" font-weight="bold" lengthAdjust="spacing" textLength="71" x="1156.5" y="134.8169">Revision :</text><text fill="#000000" font-family="sans-serif" font-size="13" lengthAdjust="spacing" textLength="74" x="1236.5" y="134.8169">2021-04-01</text><text fill="#000000" font-family="sans-serif" font-size="13" lengthAdjust="spacing" textLength="0" x="1160.5" y="149.9497"/><!--MD5=[89377a23e58e421605dadf5f90cf6954]
link GMN9 to rd1322_rxd_rd1322--><path d="M1150.43,153.0331 C1144.57,154.7431 1138.74,156.3931 1133,157.9531 C990.75,196.5531 821.07,226.3431 724.79,241.7731 " fill="none" id="GMN9-rd1322_rxd_rd1322" style="stroke:#A80036;stroke-width:1.0;stroke-dasharray:7.0,7.0;"/><!--MD5=[d963ba0a63f8549d34b4804afff2ebeb]
reverse link c_sdnc to rd1322_rxd_rd1322--><path codeLine="29" d="M224.06,131.4031 C232.42,141.8631 242.85,151.9731 255,157.9531 C274.25,167.4331 427.09,161.1231 448,165.9531 C513.92,181.1731 585.15,217.7131 622.23,238.4331 " fill="none" id="c_sdnc-backto-rd1322_rxd_rd1322" style="stroke:#A80036;stroke-width:1.0;"/><ellipse cx="219.8959" cy="125.6672" fill="#FFFFFF" rx="8" ry="8" style="stroke:#A80036;stroke-width:1.0;"/><line style="stroke:#A80036;stroke-width:1.0;" x1="224.5817" x2="215.21" y1="132.1512" y2="119.1831"/><line style="stroke:#A80036;stroke-width:1.0;" x1="213.4118" x2="226.3799" y1="130.353" y2="120.9813"/><!--MD5=[6c69f3b670916dbd3f18f459971ee476]
reverse link ct_sdnc_types to rd1322_rxd_rd1322--><path codeLine="30" d="M376.28,128.9331 C389.46,139.4431 404.71,150.1931 420,157.9531 C431.54,163.8131 435.82,161.5731 448,165.9531 C509.16,187.9531 578.13,219.7531 617,238.3431 " fill="none" id="ct_sdnc_types-backto-rd1322_rxd_rd1322" style="stroke:#A80036;stroke-width:1.0;"/><ellipse cx="370.5113" cy="124.1558" fill="#FFFFFF" rx="8" ry="8" style="stroke:#A80036;stroke-width:1.0;"/><line style="stroke:#A80036;stroke-width:1.0;" x1="376.6727" x2="364.35" y1="129.2586" y2="119.0531"/><line style="stroke:#A80036;stroke-width:1.0;" x1="365.4086" x2="375.6141" y1="130.3172" y2="117.9945"/><!--MD5=[0c8fd98cd2b5457a5448e19ec51ac325]
reverse link cs_sdnc_sku to rd1322_rxd_rd1322--><path codeLine="31" d="M530.08,130.1431 C562.84,164.3931 610.11,213.8331 633.61,238.4031 " fill="none" id="cs_sdnc_sku-backto-rd1322_rxd_rd1322" style="stroke:#A80036;stroke-width:1.0;"/><ellipse cx="525.1098" cy="124.9443" fill="#FFFFFF" rx="8" ry="8" style="stroke:#A80036;stroke-width:1.0;"/><line style="stroke:#A80036;stroke-width:1.0;" x1="530.6396" x2="519.58" y1="130.7254" y2="119.1631"/><line style="stroke:#A80036;stroke-width:1.0;" x1="519.3286" x2="530.8909" y1="130.474" y2="119.4145"/><!--MD5=[eff45cddbd5b8496e05a122765d3eb05]
reverse link cnf_sdnc_xnf to rd1322_rxd_rd1322--><path codeLine="32" d="M648,134.2231 C648,168.2331 648,214.7931 648,238.4031 " fill="none" id="cnf_sdnc_xnf-backto-rd1322_rxd_rd1322" style="stroke:#A80036;stroke-width:1.0;"/><ellipse cx="648" cy="127.1631" fill="#FFFFFF" rx="8" ry="8" style="stroke:#A80036;stroke-width:1.0;"/><line style="stroke:#A80036;stroke-width:1.0;" x1="648" x2="648" y1="135.1631" y2="119.1631"/><line style="stroke:#A80036;stroke-width:1.0;" x1="640" x2="656" y1="127.1631" y2="127.1631"/><!--MD5=[19315350c4786318c3450b85b8f4de15]
reverse link cg_sdnc_groupings to rd1322_rxd_rd1322--><path codeLine="33" d="M787.73,129.2531 C749.16,163.5331 692.82,213.6131 664.93,238.4031 " fill="none" id="cg_sdnc_groupings-backto-rd1322_rxd_rd1322" style="stroke:#A80036;stroke-width:1.0;"/><ellipse cx="793.1016" cy="124.479" fill="#FFFFFF" rx="8" ry="8" style="stroke:#A80036;stroke-width:1.0;"/><line style="stroke:#A80036;stroke-width:1.0;" x1="787.1231" x2="799.08" y1="129.7948" y2="119.1631"/><line style="stroke:#A80036;stroke-width:1.0;" x1="787.7857" x2="798.4174" y1="118.5005" y2="130.4574"/><!--MD5=[5e55e75b5ec4b8622e76067d2c26bb9e]
reverse link inet_ietf_inet_types to rd1322_rxd_rd1322--><path codeLine="34" d="M982.79,127.5931 C966.51,138.2031 947.91,149.3631 930,157.9531 C855.32,193.7931 763.64,222.1831 705.5,238.4031 " fill="none" id="inet_ietf_inet_types-backto-rd1322_rxd_rd1322" style="stroke:#A80036;stroke-width:1.0;"/><ellipse cx="988.6471" cy="123.706" fill="#FFFFFF" rx="8" ry="8" style="stroke:#A80036;stroke-width:1.0;"/><line style="stroke:#A80036;stroke-width:1.0;" x1="981.9942" x2="995.3" y1="128.1489" y2="119.2631"/><line style="stroke:#A80036;stroke-width:1.0;" x1="984.2042" x2="993.09" y1="117.0531" y2="130.3589"/><!--MD5=[cb670228a01c904b3c9749340f79f00b]
reverse link rxd_rd1322 to c_sdnc_cnf_xnf_cnf_nf_cnf_configs--><path codeLine="38" d="M366,297.0831 C366,313.2431 366,330.9131 366,343.7231 " fill="none" id="rxd_rd1322-backto-c_sdnc_cnf_xnf_cnf_nf_cnf_configs" style="stroke:#A80036;stroke-width:1.0;"/><polygon fill="#A80036" points="366,283.9931,362,289.9931,366,295.9931,370,289.9931,366,283.9931" style="stroke:#A80036;stroke-width:1.0;"/><!--MD5=[69abc761f7f556b43ac5ec10af28a102]
reverse link c_sdnc_cnf_xnf_cnf_nf_cnf_configs to sdnc_I_sdnc_I_xnf_I_nf_I_configs_I_config--><path codeLine="49" d="M451.72,385.4031 C503.74,399.3931 571.06,419.2431 629,441.9531 C634.69,444.1831 640.51,446.6531 646.31,449.2431 " fill="none" id="c_sdnc_cnf_xnf_cnf_nf_cnf_configs-backto-sdnc_I_sdnc_I_xnf_I_nf_I_configs_I_config" style="stroke:#A80036;stroke-width:1.0;"/><polygon fill="#A80036" points="438.84,381.9731,443.6091,387.382,450.4361,385.0601,445.6671,379.6513,438.84,381.9731" style="stroke:#A80036;stroke-width:1.0;"/><text fill="#000000" font-family="sans-serif" font-size="13" lengthAdjust="spacing" textLength="8" x="630.6877" y="441.6813">1</text><!--MD5=[8683a310e64d87da16564aa1596a55f9]
link sdnc_I_sdnc_I_xnf_I_nf_I_configs_I_config to GMN33--><path d="M646.19,519.8231 C640.47,522.1331 634.69,524.2231 629,525.9531 C436.85,584.5431 373.79,529.4931 181,585.9531 C161.69,591.6031 141.07,601.5431 126.35,609.3931 " fill="none" id="sdnc_I_sdnc_I_xnf_I_nf_I_configs_I_config-GMN33" style="stroke:#A80036;stroke-width:1.0;stroke-dasharray:7.0,7.0;"/><!--MD5=[13ad391777b78e9f9dedcaba2f64d0b1]
reverse link sdnc_I_sdnc_I_xnf_I_nf_I_configs_I_config to sdnc_I_sdnc_I_xnf_I_nf_I_configs_I_config_I_cli_header--><path codeLine="55" d="M633.78,524.2831 C632.18,524.8631 630.58,525.4231 629,525.9531 C496.01,570.7631 451.75,540.4331 319,585.9531 C306.17,590.3531 292.72,596.7331 281.14,602.8331 " fill="none" id="sdnc_I_sdnc_I_xnf_I_nf_I_configs_I_config-backto-sdnc_I_sdnc_I_xnf_I_nf_I_configs_I_config_I_cli_header" style="stroke:#A80036;stroke-width:1.0;"/><polygon fill="#A80036" points="646.07,519.4631,639.0241,517.9286,634.8976,523.8424,641.9436,525.3769,646.07,519.4631" style="stroke:#A80036;stroke-width:1.0;"/><text fill="#000000" font-family="sans-serif" font-size="13" lengthAdjust="spacing" textLength="8" x="281.4516" y="591.7776">1</text><!--MD5=[b8837e8abc24c0879640b4093285f2ce]
reverse link sdnc_I_sdnc_I_xnf_I_nf_I_configs_I_config to sdnc_I_sdnc_I_xnf_I_nf_I_configs_I_config_I_hardware--><path codeLine="60" d="M634.96,531.9331 C605.99,549.6031 573.57,569.3731 546.66,585.7831 " fill="none" id="sdnc_I_sdnc_I_xnf_I_nf_I_configs_I_config-backto-sdnc_I_sdnc_I_xnf_I_nf_I_configs_I_config_I_hardware" style="stroke:#A80036;stroke-width:1.0;"/><polygon fill="#A80036" points="646.3,525.0231,639.0947,524.7331,636.0557,531.2725,643.261,531.5626,646.3,525.0231" style="stroke:#A80036;stroke-width:1.0;"/><text fill="#000000" font-family="sans-serif" font-size="13" lengthAdjust="spacing" textLength="8" x="548.5536" y="574.8524">1</text><!--MD5=[0bcfe8ec928f1685a5c93d1a7eb4aa47]
reverse link sdnc_I_sdnc_I_xnf_I_nf_I_configs_I_config to sdnc_I_sdnc_I_xnf_I_nf_I_configs_I_config_I_cli_footer--><path codeLine="66" d="M718.38,539.1531 C721.05,561.8431 723.97,586.6731 725.88,602.9531 " fill="none" id="sdnc_I_sdnc_I_xnf_I_nf_I_configs_I_config-backto-sdnc_I_sdnc_I_xnf_I_nf_I_configs_I_config_I_cli_footer" style="stroke:#A80036;stroke-width:1.0;"/><polygon fill="#A80036" points="716.84,526.1231,713.573,532.5517,718.2505,538.0399,721.5175,531.6114,716.84,526.1231" style="stroke:#A80036;stroke-width:1.0;"/><text fill="#000000" font-family="sans-serif" font-size="13" lengthAdjust="spacing" textLength="8" x="716.0058" y="591.9343">1</text><text fill="#888888" font-family="sans-serif" font-size="24" lengthAdjust="spacing" textLength="280" x="599.75" y="795.2305">Cowdrey Consulting UK</text><!--MD5=[3b0ef69aff42e7e16a47be334edcb594]
@startuml img/rxd-rd1322.png 
hide empty fields 
hide empty methods 
hide <<case>> circle
hide <<augment>> circle
hide <<choice>> circle
hide <<leafref>> stereotype
hide <<leafref>> circle
page 1x1 
Title rxd-rd1322 
package "c:sdnc" as c_sdnc { 
} 
package "ct:sdnc-types" as ct_sdnc_types { 
} 
package "cs:sdnc-sku" as cs_sdnc_sku { 
} 
package "cnf:sdnc-xnf" as cnf_sdnc_xnf { 
} 
package "cg:sdnc-groupings" as cg_sdnc_groupings { 
} 
package "inet:ietf-inet-types" as inet_ietf_inet_types { 
} 
note top of rd1322_rxd_rd1322 : <b>Namespace: </b> urn:com:vendor:yang:rxd:rd1322 \n<b>Prefix: </b> rd1322 \n<b>Organization : </b>\nCowdrey Consulting UK \n<b>Contact : </b>\nlee@cowdrey.net \n<b>Revision : </b> 2021-04-01 \n
package "rd1322:rxd-rd1322" as rd1322_rxd_rd1322 { 
c_sdnc +- - rd1322_rxd_rd1322
ct_sdnc_types +- - rd1322_rxd_rd1322
cs_sdnc_sku +- - rd1322_rxd_rd1322
cnf_sdnc_xnf +- - rd1322_rxd_rd1322
cg_sdnc_groupings +- - rd1322_rxd_rd1322
inet_ietf_inet_types +- - rd1322_rxd_rd1322
class "rxd-rd1322" as rxd_rd1322 << (M, #33CCFF) module>> 
rxd_rd1322 : feature : rxd_rd1322 
class "/c:sdnc/cnf:xnf/cnf:nf/cnf:configs" as c_sdnc_cnf_xnf_cnf_nf_cnf_configs << (A,CadetBlue) augment>>
rxd_rd1322 *- -  c_sdnc_cnf_xnf_cnf_nf_cnf_configs 
note bottom of c_sdnc_cnf_xnf_cnf_nf_cnf_configs
<b>if-feature: </b>c:sdnc
end note 
note bottom of c_sdnc_cnf_xnf_cnf_nf_cnf_configs
<b>if-feature: </b>cnf:sdnc-xnf
end note 
note bottom of c_sdnc_cnf_xnf_cnf_nf_cnf_configs
<b>if-feature: </b>cs:sdnc-sku
end note 
class "config" as  sdnc_I_sdnc_I_xnf_I_nf_I_configs_I_config <<container>> 
c_sdnc_cnf_xnf_cnf_nf_cnf_configs *- - "1" sdnc_I_sdnc_I_xnf_I_nf_I_configs_I_config 
note bottom of sdnc_I_sdnc_I_xnf_I_nf_I_configs_I_config
<b>Config = </b>true
end note 
sdnc_I_sdnc_I_xnf_I_nf_I_configs_I_config : raw : string  
class "cli-header" as  sdnc_I_sdnc_I_xnf_I_nf_I_configs_I_config_I_cli_header <<container>> 
sdnc_I_sdnc_I_xnf_I_nf_I_configs_I_config *- - "1" sdnc_I_sdnc_I_xnf_I_nf_I_configs_I_config_I_cli_header 
note bottom of sdnc_I_sdnc_I_xnf_I_nf_I_configs_I_config_I_cli_header
<b>Config = </b>false
end note 
class "hardware" as  sdnc_I_sdnc_I_xnf_I_nf_I_configs_I_config_I_hardware <<container>> 
sdnc_I_sdnc_I_xnf_I_nf_I_configs_I_config *- - "1" sdnc_I_sdnc_I_xnf_I_nf_I_configs_I_config_I_hardware 
sdnc_I_sdnc_I_xnf_I_nf_I_configs_I_config_I_hardware : cg:common-hardware {uses} 
sdnc_I_sdnc_I_xnf_I_nf_I_configs_I_config_I_hardware : operational-mode : ct:rxd-operational-mode   = 1x1 
sdnc_I_sdnc_I_xnf_I_nf_I_configs_I_config : hostname : inet:host  
sdnc_I_sdnc_I_xnf_I_nf_I_configs_I_config : shelfname : string  
class "cli-footer" as  sdnc_I_sdnc_I_xnf_I_nf_I_configs_I_config_I_cli_footer <<container>> 
sdnc_I_sdnc_I_xnf_I_nf_I_configs_I_config *- - "1" sdnc_I_sdnc_I_xnf_I_nf_I_configs_I_config_I_cli_footer 
note bottom of sdnc_I_sdnc_I_xnf_I_nf_I_configs_I_config_I_cli_footer
<b>Config = </b>false
end note 
} 

center footer
 <size:24> Cowdrey Consulting UK </size>
 endfooter 
@enduml

PlantUML version 1.2021.8(Sat Jun 26 09:20:59 BST 2021)
(APACHE source distribution)
Java Runtime: OpenJDK Runtime Environment
JVM: OpenJDK 64-Bit Server VM
Default Encoding: UTF-8
Language: en
Country: GB
--></g></svg>