<?xml version="1.0" encoding="UTF-8" standalone="no"?><svg xmlns="http://www.w3.org/2000/svg" xmlns:xlink="http://www.w3.org/1999/xlink" contentScriptType="application/ecmascript" contentStyleType="text/css" height="548px" preserveAspectRatio="none" style="width:361px;height:548px;background:#FFFFFF;" version="1.1" viewBox="0 0 361 548" width="361px" zoomAndPan="magnify"><defs><filter height="300%" id="f17aw0c90mv00m" width="300%" x="-1" y="-1"><feGaussianBlur result="blurOut" stdDeviation="2.0"/><feColorMatrix in="blurOut" result="blurOut2" type="matrix" values="0 0 0 0 0 0 0 0 0 0 0 0 0 0 0 0 0 0 .4 0"/><feOffset dx="4.0" dy="4.0" in="blurOut2" result="blurOut3"/><feBlend in="SourceGraphic" in2="blurOut3" mode="normal"/></filter></defs><g><text fill="#000000" font-family="sans-serif" font-size="18" lengthAdjust="spacing" textLength="39" x="154.5" y="16.708">sdnc</text><!--MD5=[e2631f6b4e4f7a2ec926a81467e1c1e4]
cluster c_sdnc--><polygon fill="#FFFFFF" filter="url(#f17aw0c90mv00m)" points="146,181.9531,205,181.9531,212,204.25,344,204.25,344,511.9531,146,511.9531,146,181.9531" style="stroke:#000000;stroke-width:1.5;"/><line style="stroke:#000000;stroke-width:1.5;" x1="146" x2="212" y1="204.25" y2="204.25"/><text fill="#000000" font-family="sans-serif" font-size="14" font-weight="bold" lengthAdjust="spacing" textLength="53" x="150" y="196.9482">c:sdnc</text><!--MD5=[f8cf7f7c63dd9f842d1ab927175f2d25]
class sdnc--><rect codeLine="17" fill="#FEFECE" filter="url(#f17aw0c90mv00m)" height="79.5469" id="sdnc" style="stroke:#A80036;stroke-width:1.5;" width="114" x="192" y="224.9531"/><ellipse cx="218.7" cy="243.9219" fill="#33CCFF" rx="11" ry="11" style="stroke:#A80036;stroke-width:1.0;"/><path d="M214.4188,237.5313 L217.3406,237.5313 L218.8094,242.9688 L220.2781,237.5313 L223.2156,237.5313 L223.2156,249.9219 L221.1063,249.9219 L221.1063,240 L219.7938,245.4219 L217.8563,245.4219 L216.5281,240 L216.5281,249.9219 L214.4188,249.9219 L214.4188,237.5313 Z " fill="#000000"/><text fill="#000000" font-family="sans-serif" font-size="12" font-style="italic" lengthAdjust="spacing" textLength="60" x="233.3" y="241.0918">«module»</text><text fill="#000000" font-family="sans-serif" font-size="12" lengthAdjust="spacing" textLength="30" x="248.3" y="255.0605">sdnc</text><line style="stroke:#A80036;stroke-width:1.5;" x1="193" x2="305" y1="262.8906" y2="262.8906"/><text fill="#000000" font-family="sans-serif" font-size="11" lengthAdjust="spacing" textLength="80" x="198" y="277.1011">feature : sdnc</text><line style="stroke:#A80036;stroke-width:1.5;" x1="193" x2="305" y1="283.6953" y2="283.6953"/><text fill="#000000" font-family="sans-serif" font-size="11" lengthAdjust="spacing" textLength="102" x="198" y="297.9058">about( out: about)</text><!--MD5=[e99bf5199021094a74f6075f241602fd]
class sdnc_I_sdnc--><rect codeLine="20" fill="#FEFECE" filter="url(#f17aw0c90mv00m)" height="37.9375" id="sdnc_I_sdnc" style="stroke:#A80036;stroke-width:1.5;" width="102" x="198" y="364.9531"/><ellipse cx="213" cy="383.9219" fill="#ADD1B2" rx="11" ry="11" style="stroke:#A80036;stroke-width:1.0;"/><path d="M215.9688,389.5625 Q215.3906,389.8594 214.75,390 Q214.1094,390.1563 213.4063,390.1563 Q210.9063,390.1563 209.5781,388.5156 Q208.2656,386.8594 208.2656,383.7344 Q208.2656,380.6094 209.5781,378.9531 Q210.9063,377.2969 213.4063,377.2969 Q214.1094,377.2969 214.75,377.4531 Q215.4063,377.6094 215.9688,377.9063 L215.9688,380.625 Q215.3438,380.0469 214.75,379.7813 Q214.1563,379.5 213.5313,379.5 Q212.1875,379.5 211.5,380.5781 Q210.8125,381.6406 210.8125,383.7344 Q210.8125,385.8281 211.5,386.9063 Q212.1875,387.9688 213.5313,387.9688 Q214.1563,387.9688 214.75,387.7031 Q215.3438,387.4219 215.9688,386.8438 L215.9688,389.5625 Z " fill="#000000"/><text fill="#000000" font-family="sans-serif" font-size="12" font-style="italic" lengthAdjust="spacing" textLength="74" x="225" y="381.0918">«container»</text><text fill="#000000" font-family="sans-serif" font-size="12" lengthAdjust="spacing" textLength="30" x="247" y="395.0605">sdnc</text><path d="M178.5,462.9531 L178.5,488.0859 A0,0 0 0 0 178.5,488.0859 L319.5,488.0859 A0,0 0 0 0 319.5,488.0859 L319.5,472.9531 L309.5,462.9531 L253,462.9531 L249,403.0631 L245,462.9531 L178.5,462.9531 A0,0 0 0 0 178.5,462.9531 " fill="#FBFB77" filter="url(#f17aw0c90mv00m)" style="stroke:#A80036;stroke-width:1.0;"/><path d="M309.5,462.9531 L309.5,472.9531 L319.5,472.9531 L309.5,462.9531 " fill="#FBFB77" style="stroke:#A80036;stroke-width:1.0;"/><text fill="#000000" font-family="sans-serif" font-size="13" font-weight="bold" lengthAdjust="spacing" textLength="74" x="184.5" y="480.02">if-feature:</text><text fill="#000000" font-family="sans-serif" font-size="13" lengthAdjust="spacing" textLength="41" x="263.5" y="480.02">c:sdnc</text><path d="M6,26.9531 L6,158.0156 L302,158.0156 L302,36.9531 L292,26.9531 L6,26.9531 " fill="#FBFB77" filter="url(#f17aw0c90mv00m)" style="stroke:#A80036;stroke-width:1.0;"/><path d="M292,26.9531 L292,36.9531 L302,36.9531 L292,26.9531 " fill="#FBFB77" style="stroke:#A80036;stroke-width:1.0;"/><text fill="#000000" font-family="sans-serif" font-size="13" font-weight="bold" lengthAdjust="spacing" textLength="92" x="12" y="44.02">Namespace:</text><text fill="#000000" font-family="sans-serif" font-size="13" lengthAdjust="spacing" textLength="170" x="113" y="44.02">urn:com:vendor:yang:sdnc</text><text fill="#000000" font-family="sans-serif" font-size="13" font-weight="bold" lengthAdjust="spacing" textLength="48" x="12" y="59.1528">Prefix:</text><text fill="#000000" font-family="sans-serif" font-size="13" lengthAdjust="spacing" textLength="7" x="69" y="59.1528">c</text><text fill="#000000" font-family="sans-serif" font-size="13" font-weight="bold" lengthAdjust="spacing" textLength="104" x="12" y="74.2856">Organization :</text><text fill="#000000" font-family="sans-serif" font-size="13" lengthAdjust="spacing" textLength="147" x="12" y="89.4185">Cowdrey Consulting UK</text><text fill="#000000" font-family="sans-serif" font-size="13" font-weight="bold" lengthAdjust="spacing" textLength="67" x="12" y="104.5513">Contact :</text><text fill="#000000" font-family="sans-serif" font-size="13" lengthAdjust="spacing" textLength="109" x="12" y="119.6841">lee@cowdrey.net</text><text fill="#000000" font-family="sans-serif" font-size="13" font-weight="bold" lengthAdjust="spacing" textLength="71" x="12" y="134.8169">Revision :</text><text fill="#000000" font-family="sans-serif" font-size="13" lengthAdjust="spacing" textLength="74" x="92" y="134.8169">2020-12-04</text><text fill="#000000" font-family="sans-serif" font-size="13" lengthAdjust="spacing" textLength="0" x="16" y="149.9497"/><!--MD5=[0070352d58c898df500b0f99030e42fd]
link GMN3 to c_sdnc--><path d="M154,158.4031 C154,164.2369 154,170.2055 154,176.1907 C154,177.687 154,179.1844 154,180.6809 C154,181.055 154,181.4291 154,181.8031 " fill="none" id="GMN3-c_sdnc" style="stroke:#A80036;stroke-width:1.0;stroke-dasharray:7.0,7.0;"/><!--MD5=[b99f7e052fe537caec46a4601982bea2]
reverse link sdnc to sdnc_I_sdnc--><path codeLine="21" d="M249,318.3631 C249,335.0331 249,352.3731 249,364.8931 " fill="none" id="sdnc-backto-sdnc_I_sdnc" style="stroke:#A80036;stroke-width:1.0;"/><polygon fill="#A80036" points="249,305.2331,245,311.2331,249,317.2331,253,311.2331,249,305.2331" style="stroke:#A80036;stroke-width:1.0;"/><text fill="#000000" font-family="sans-serif" font-size="13" lengthAdjust="spacing" textLength="8" x="239.775" y="353.8559">1</text><text fill="#888888" font-family="sans-serif" font-size="24" lengthAdjust="spacing" textLength="280" x="34" y="540.2305">Cowdrey Consulting UK</text><!--MD5=[e64f096de9099c3f6ccab5620c56c9b5]
@startuml img/sdnc.png 
hide empty fields 
hide empty methods 
hide <<case>> circle
hide <<augment>> circle
hide <<choice>> circle
hide <<leafref>> stereotype
hide <<leafref>> circle
page 1x1 
Title sdnc 
note top of c_sdnc : <b>Namespace: </b> urn:com:vendor:yang:sdnc \n<b>Prefix: </b> c \n<b>Organization : </b>\nCowdrey Consulting UK \n<b>Contact : </b>\nlee@cowdrey.net \n<b>Revision : </b> 2020-12-04 \n
package "c:sdnc" as c_sdnc { 
class "sdnc" as sdnc << (M, #33CCFF) module>> 
sdnc : feature : sdnc 
sdnc : about( out: about)
class "sdnc" as  sdnc_I_sdnc <<container>> 
sdnc *- - "1" sdnc_I_sdnc 
note bottom of sdnc_I_sdnc
<b>if-feature: </b>c:sdnc
end note 
} 

center footer
 <size:24> Cowdrey Consulting UK </size>
 endfooter 
@enduml

PlantUML version 1.2021.8(Sat Jun 26 09:20:59 BST 2021)
(APACHE source distribution)
Java Runtime: OpenJDK Runtime Environment
JVM: OpenJDK 64-Bit Server VM
Default Encoding: UTF-8
Language: en
Country: GB
--></g></svg>