<?xml version="1.0" encoding="UTF-8" standalone="no"?><svg xmlns="http://www.w3.org/2000/svg" xmlns:xlink="http://www.w3.org/1999/xlink" contentScriptType="application/ecmascript" contentStyleType="text/css" height="1097px" preserveAspectRatio="none" style="width:1191px;height:1097px;background:#FFFFFF;" version="1.1" viewBox="0 0 1191 1097" width="1191px" zoomAndPan="magnify"><defs><filter height="300%" id="fxoz6ou30nvb4" width="300%" x="-1" y="-1"><feGaussianBlur result="blurOut" stdDeviation="2.0"/><feColorMatrix in="blurOut" result="blurOut2" type="matrix" values="0 0 0 0 0 0 0 0 0 0 0 0 0 0 0 0 0 0 .4 0"/><feOffset dx="4.0" dy="4.0" in="blurOut2" result="blurOut3"/><feBlend in="SourceGraphic" in2="blurOut3" mode="normal"/></filter></defs><g><text fill="#000000" font-family="sans-serif" font-size="18" lengthAdjust="spacing" textLength="132" x="522.25" y="16.708">sdnc-call-home</text><!--MD5=[ede2caf8c932d6b476ffb77b07f8716f]
cluster cch_sdnc_call_home--><polygon fill="#FFFFFF" filter="url(#fxoz6ou30nvb4)" points="16,212.9531,176,212.9531,183,235.25,868,235.25,868,1060.9531,16,1060.9531,16,212.9531" style="stroke:#000000;stroke-width:1.5;"/><line style="stroke:#000000;stroke-width:1.5;" x1="16" x2="183" y1="235.25" y2="235.25"/><text fill="#000000" font-family="sans-serif" font-size="14" font-weight="bold" lengthAdjust="spacing" textLength="154" x="20" y="227.9482">cch:sdnc-call-home</text><polygon fill="#FFFFFF" filter="url(#fxoz6ou30nvb4)" points="547.5,65.9531,606.5,65.9531,613.5,88.25,620.5,88.25,620.5,118.5469,547.5,118.5469,547.5,65.9531" style="stroke:#000000;stroke-width:1.5;"/><line style="stroke:#000000;stroke-width:1.5;" x1="547.5" x2="613.5" y1="88.25" y2="88.25"/><text fill="#000000" font-family="sans-serif" font-size="14" font-weight="bold" lengthAdjust="spacing" textLength="53" x="551.5" y="80.9482">c:sdnc</text><polygon fill="#FFFFFF" filter="url(#fxoz6ou30nvb4)" points="655.5,65.9531,770.5,65.9531,777.5,88.25,784.5,88.25,784.5,118.5469,655.5,118.5469,655.5,65.9531" style="stroke:#000000;stroke-width:1.5;"/><line style="stroke:#000000;stroke-width:1.5;" x1="655.5" x2="777.5" y1="88.25" y2="88.25"/><text fill="#000000" font-family="sans-serif" font-size="14" font-weight="bold" lengthAdjust="spacing" textLength="109" x="659.5" y="80.9482">ct:sdnc-types</text><!--MD5=[4e063684cd841f6ff1c65f74c9e2ff1a]
class cch_sdnc_call_home--><rect fill="#FEFECE" filter="url(#fxoz6ou30nvb4)" height="32" id="cch_sdnc_call_home" style="stroke:#A80036;stroke-width:1.5;" width="158" x="641" y="305.4531"/><ellipse cx="656" cy="321.4531" fill="#ADD1B2" rx="11" ry="11" style="stroke:#A80036;stroke-width:1.0;"/><path d="M658.9688,327.0938 Q658.3906,327.3906 657.75,327.5313 Q657.1094,327.6875 656.4063,327.6875 Q653.9063,327.6875 652.5781,326.0469 Q651.2656,324.3906 651.2656,321.2656 Q651.2656,318.1406 652.5781,316.4844 Q653.9063,314.8281 656.4063,314.8281 Q657.1094,314.8281 657.75,314.9844 Q658.4063,315.1406 658.9688,315.4375 L658.9688,318.1563 Q658.3438,317.5781 657.75,317.3125 Q657.1563,317.0313 656.5313,317.0313 Q655.1875,317.0313 654.5,318.1094 Q653.8125,319.1719 653.8125,321.2656 Q653.8125,323.3594 654.5,324.4375 Q655.1875,325.5 656.5313,325.5 Q657.1563,325.5 657.75,325.2344 Q658.3438,324.9531 658.9688,324.375 L658.9688,327.0938 Z " fill="#000000"/><text fill="#000000" font-family="sans-serif" font-size="12" lengthAdjust="spacing" textLength="126" x="670" y="325.6074">cch_sdnc_call_home</text><!--MD5=[dcf31f4f8b6b7c1f0aafbc885fcaeb88]
class sdnc_call_home--><rect codeLine="23" fill="#FEFECE" filter="url(#fxoz6ou30nvb4)" height="130.7656" id="sdnc_call_home" style="stroke:#A80036;stroke-width:1.5;" width="390" x="133" y="255.9531"/><ellipse cx="276.75" cy="274.9219" fill="#33CCFF" rx="11" ry="11" style="stroke:#A80036;stroke-width:1.0;"/><path d="M272.4688,268.5313 L275.3906,268.5313 L276.8594,273.9688 L278.3281,268.5313 L281.2656,268.5313 L281.2656,280.9219 L279.1563,280.9219 L279.1563,271 L277.8438,276.4219 L275.9063,276.4219 L274.5781,271 L274.5781,280.9219 L272.4688,280.9219 L272.4688,268.5313 Z " fill="#000000"/><text fill="#000000" font-family="sans-serif" font-size="12" font-style="italic" lengthAdjust="spacing" textLength="60" x="314.25" y="272.0918">«module»</text><text fill="#000000" font-family="sans-serif" font-size="12" lengthAdjust="spacing" textLength="94" x="297.25" y="286.0605">sdnc-call-home</text><line style="stroke:#A80036;stroke-width:1.5;" x1="134" x2="522" y1="293.8906" y2="293.8906"/><text fill="#000000" font-family="sans-serif" font-size="11" lengthAdjust="spacing" textLength="143" x="139" y="308.1011">feature : sdnc_call_home</text><line style="stroke:#A80036;stroke-width:1.5;" x1="134" x2="522" y1="314.6953" y2="314.6953"/><text fill="#000000" font-family="sans-serif" font-size="11" lengthAdjust="spacing" textLength="296" x="139" y="328.9058">set-global-credentials( in: username in: passwords)</text><text fill="#000000" font-family="sans-serif" font-size="11" lengthAdjust="spacing" textLength="359" x="139" y="341.7104">add-global-credential-passwords( in: username in: passwords)</text><text fill="#000000" font-family="sans-serif" font-size="11" lengthAdjust="spacing" textLength="186" x="139" y="354.5151">ignore-ssh-host-keys( in: ignore)</text><text fill="#000000" font-family="sans-serif" font-size="11" lengthAdjust="spacing" textLength="263" x="139" y="367.3198">set-tls-passphrase( in: key_id in: passphrase)</text><text fill="#000000" font-family="sans-serif" font-size="11" lengthAdjust="spacing" textLength="378" x="139" y="380.1245">add-tls-certificate( in: id in: category in: certificate in: passphrase)</text><!--MD5=[4809cd8887ed0c9491cd832576b7355c]
class c_sdnc--><rect codeLine="30" fill="#FEFECE" filter="url(#fxoz6ou30nvb4)" height="37.9375" id="c_sdnc" style="stroke:#A80036;stroke-width:1.5;" width="98" x="279" y="447.9531"/><ellipse cx="294" cy="466.9219" fill="#5F9EA0" rx="11" ry="11" style="stroke:#A80036;stroke-width:1.0;"/><path d="M294.1094,462.2656 L292.9531,467.3438 L295.2813,467.3438 L294.1094,462.2656 Z M292.625,460.0313 L295.6094,460.0313 L298.9688,472.4219 L296.5156,472.4219 L295.75,469.3594 L292.4688,469.3594 L291.7188,472.4219 L289.2813,472.4219 L292.625,460.0313 Z " fill="#000000"/><text fill="#000000" font-family="sans-serif" font-size="12" font-style="italic" lengthAdjust="spacing" textLength="70" x="306" y="464.0918">«augment»</text><text fill="#000000" font-family="sans-serif" font-size="12" lengthAdjust="spacing" textLength="45" x="318.5" y="478.0605">/c:sdnc</text><path d="M212.5,553.4531 L212.5,578.5859 A0,0 0 0 0 212.5,578.5859 L353.5,578.5859 A0,0 0 0 0 353.5,578.5859 L353.5,563.4531 L343.5,553.4531 L292.45,553.4531 L319.54,486.1931 L284.45,553.4531 L212.5,553.4531 A0,0 0 0 0 212.5,553.4531 " fill="#FBFB77" filter="url(#fxoz6ou30nvb4)" style="stroke:#A80036;stroke-width:1.0;"/><path d="M343.5,553.4531 L343.5,563.4531 L353.5,563.4531 L343.5,553.4531 " fill="#FBFB77" style="stroke:#A80036;stroke-width:1.0;"/><text fill="#000000" font-family="sans-serif" font-size="13" font-weight="bold" lengthAdjust="spacing" textLength="74" x="218.5" y="570.52">if-feature:</text><text fill="#000000" font-family="sans-serif" font-size="13" lengthAdjust="spacing" textLength="41" x="297.5" y="570.52">c:sdnc</text><!--MD5=[ce832bd3e314d8119b7c3499fceb6bd3]
class sdnc_I_sdnc_I_call_home--><rect codeLine="35" fill="#FEFECE" filter="url(#fxoz6ou30nvb4)" height="37.9375" id="sdnc_I_sdnc_I_call_home" style="stroke:#A80036;stroke-width:1.5;" width="102" x="389" y="546.9531"/><ellipse cx="404" cy="565.9219" fill="#ADD1B2" rx="11" ry="11" style="stroke:#A80036;stroke-width:1.0;"/><path d="M406.9688,571.5625 Q406.3906,571.8594 405.75,572 Q405.1094,572.1563 404.4063,572.1563 Q401.9063,572.1563 400.5781,570.5156 Q399.2656,568.8594 399.2656,565.7344 Q399.2656,562.6094 400.5781,560.9531 Q401.9063,559.2969 404.4063,559.2969 Q405.1094,559.2969 405.75,559.4531 Q406.4063,559.6094 406.9688,559.9063 L406.9688,562.625 Q406.3438,562.0469 405.75,561.7813 Q405.1563,561.5 404.5313,561.5 Q403.1875,561.5 402.5,562.5781 Q401.8125,563.6406 401.8125,565.7344 Q401.8125,567.8281 402.5,568.9063 Q403.1875,569.9688 404.5313,569.9688 Q405.1563,569.9688 405.75,569.7031 Q406.3438,569.4219 406.9688,568.8438 L406.9688,571.5625 Z " fill="#000000"/><text fill="#000000" font-family="sans-serif" font-size="12" font-style="italic" lengthAdjust="spacing" textLength="74" x="416" y="563.0918">«container»</text><text fill="#000000" font-family="sans-serif" font-size="12" lengthAdjust="spacing" textLength="60" x="423" y="577.0605">call-home</text><!--MD5=[5b2c0f5d880aaca2f900b6600643b9c7]
class sdnc_I_sdnc_I_call_home_I_credentials--><rect codeLine="37" fill="#FEFECE" filter="url(#fxoz6ou30nvb4)" height="79.5469" id="sdnc_I_sdnc_I_call_home_I_credentials" style="stroke:#A80036;stroke-width:1.5;" width="224" x="116" y="645.9531"/><ellipse cx="188.75" cy="664.9219" fill="#ADD1B2" rx="11" ry="11" style="stroke:#A80036;stroke-width:1.0;"/><path d="M191.7188,670.5625 Q191.1406,670.8594 190.5,671 Q189.8594,671.1563 189.1563,671.1563 Q186.6563,671.1563 185.3281,669.5156 Q184.0156,667.8594 184.0156,664.7344 Q184.0156,661.6094 185.3281,659.9531 Q186.6563,658.2969 189.1563,658.2969 Q189.8594,658.2969 190.5,658.4531 Q191.1563,658.6094 191.7188,658.9063 L191.7188,661.625 Q191.0938,661.0469 190.5,660.7813 Q189.9063,660.5 189.2813,660.5 Q187.9375,660.5 187.25,661.5781 Q186.5625,662.6406 186.5625,664.7344 Q186.5625,666.8281 187.25,667.9063 Q187.9375,668.9688 189.2813,668.9688 Q189.9063,668.9688 190.5,668.7031 Q191.0938,668.4219 191.7188,667.8438 L191.7188,670.5625 Z " fill="#000000"/><text fill="#000000" font-family="sans-serif" font-size="12" font-style="italic" lengthAdjust="spacing" textLength="74" x="207.25" y="662.0918">«container»</text><text fill="#000000" font-family="sans-serif" font-size="12" lengthAdjust="spacing" textLength="70" x="209.25" y="676.0605">credentials</text><line style="stroke:#A80036;stroke-width:1.5;" x1="117" x2="339" y1="683.8906" y2="683.8906"/><text fill="#000000" font-family="sans-serif" font-size="11" lengthAdjust="spacing" textLength="212" x="122" y="698.1011">username : string {length = 4..max}</text><line style="stroke:#A80036;stroke-width:1.5;" x1="117" x2="339" y1="704.6953" y2="704.6953"/><text fill="#000000" font-family="sans-serif" font-size="11" lengthAdjust="spacing" textLength="51" x="122" y="718.9058">remove()</text><!--MD5=[f53fb4d624e09e9444f6ed09f364b6d8]
class sdnc_I_sdnc_I_call_home_I_credentials_I_passwords--><rect codeLine="41" fill="#FEFECE" filter="url(#fxoz6ou30nvb4)" height="79.5469" id="sdnc_I_sdnc_I_call_home_I_credentials_I_passwords" style="stroke:#A80036;stroke-width:1.5;" width="277" x="48.5" y="821.9531"/><ellipse cx="149.25" cy="840.9219" fill="#FF7700" rx="11" ry="11" style="stroke:#A80036;stroke-width:1.0;"/><path d="M146.125,846.9219 L146.125,834.5313 L148.5625,834.5313 L148.5625,844.7656 L153.7969,844.7656 L153.7969,846.9219 L146.125,846.9219 Z " fill="#000000"/><text fill="#000000" font-family="sans-serif" font-size="12" font-style="italic" lengthAdjust="spacing" textLength="31" x="187.75" y="838.0918">«list»</text><text fill="#000000" font-family="sans-serif" font-size="12" lengthAdjust="spacing" textLength="67" x="169.75" y="852.0605">passwords</text><line style="stroke:#A80036;stroke-width:1.5;" x1="49.5" x2="324.5" y1="859.8906" y2="859.8906"/><ellipse cx="59.5" cy="870.8906" rx="3" ry="3" style="stroke:#038048;stroke-width:1.0;fill:none;"/><text fill="#000000" font-family="sans-serif" font-size="11" lengthAdjust="spacing" textLength="251" x="68.5" y="874.1011">password : string {length = 4..max}  {key}</text><line style="stroke:#A80036;stroke-width:1.5;" x1="49.5" x2="324.5" y1="880.6953" y2="880.6953"/><text fill="#000000" font-family="sans-serif" font-size="11" lengthAdjust="spacing" textLength="43" x="54.5" y="894.9058">delete()</text><!--MD5=[49b333ee5e29496ba8e493d3a852e16b]
class sdnc_I_sdnc_I_call_home_I_ssh--><rect codeLine="45" fill="#FEFECE" filter="url(#fxoz6ou30nvb4)" height="37.9375" id="sdnc_I_sdnc_I_call_home_I_ssh" style="stroke:#A80036;stroke-width:1.5;" width="102" x="389" y="666.9531"/><ellipse cx="404" cy="685.9219" fill="#ADD1B2" rx="11" ry="11" style="stroke:#A80036;stroke-width:1.0;"/><path d="M406.9688,691.5625 Q406.3906,691.8594 405.75,692 Q405.1094,692.1563 404.4063,692.1563 Q401.9063,692.1563 400.5781,690.5156 Q399.2656,688.8594 399.2656,685.7344 Q399.2656,682.6094 400.5781,680.9531 Q401.9063,679.2969 404.4063,679.2969 Q405.1094,679.2969 405.75,679.4531 Q406.4063,679.6094 406.9688,679.9063 L406.9688,682.625 Q406.3438,682.0469 405.75,681.7813 Q405.1563,681.5 404.5313,681.5 Q403.1875,681.5 402.5,682.5781 Q401.8125,683.6406 401.8125,685.7344 Q401.8125,687.8281 402.5,688.9063 Q403.1875,689.9688 404.5313,689.9688 Q405.1563,689.9688 405.75,689.7031 Q406.3438,689.4219 406.9688,688.8438 L406.9688,691.5625 Z " fill="#000000"/><text fill="#000000" font-family="sans-serif" font-size="12" font-style="italic" lengthAdjust="spacing" textLength="74" x="416" y="683.0918">«container»</text><text fill="#000000" font-family="sans-serif" font-size="12" lengthAdjust="spacing" textLength="22" x="442" y="697.0605">ssh</text><!--MD5=[c2f5fdfbec8e76725644ec13005ff58f]
class sdnc_I_sdnc_I_call_home_I_ssh_I_ssh_host_keys--><rect codeLine="47" fill="#FEFECE" filter="url(#fxoz6ou30nvb4)" height="58.7422" id="sdnc_I_sdnc_I_call_home_I_ssh_I_ssh_host_keys" style="stroke:#A80036;stroke-width:1.5;" width="158" x="361" y="832.4531"/><ellipse cx="394" cy="851.4219" fill="#ADD1B2" rx="11" ry="11" style="stroke:#A80036;stroke-width:1.0;"/><path d="M396.9688,857.0625 Q396.3906,857.3594 395.75,857.5 Q395.1094,857.6563 394.4063,857.6563 Q391.9063,857.6563 390.5781,856.0156 Q389.2656,854.3594 389.2656,851.2344 Q389.2656,848.1094 390.5781,846.4531 Q391.9063,844.7969 394.4063,844.7969 Q395.1094,844.7969 395.75,844.9531 Q396.4063,845.1094 396.9688,845.4063 L396.9688,848.125 Q396.3438,847.5469 395.75,847.2813 Q395.1563,847 394.5313,847 Q393.1875,847 392.5,848.0781 Q391.8125,849.1406 391.8125,851.2344 Q391.8125,853.3281 392.5,854.4063 Q393.1875,855.4688 394.5313,855.4688 Q395.1563,855.4688 395.75,855.2031 Q396.3438,854.9219 396.9688,854.3438 L396.9688,857.0625 Z " fill="#000000"/><text fill="#000000" font-family="sans-serif" font-size="12" font-style="italic" lengthAdjust="spacing" textLength="74" x="418" y="848.5918">«container»</text><text fill="#000000" font-family="sans-serif" font-size="12" lengthAdjust="spacing" textLength="86" x="412" y="862.5605">ssh-host-keys</text><line style="stroke:#A80036;stroke-width:1.5;" x1="362" x2="518" y1="870.3906" y2="870.3906"/><text fill="#000000" font-family="sans-serif" font-size="11" lengthAdjust="spacing" textLength="146" x="367" y="884.6011">ignore : boolean   = false</text><!--MD5=[d5265cf694eb9c84512d72ed873a9a80]
class sdnc_I_sdnc_I_call_home_I_tls--><rect codeLine="50" fill="#FEFECE" filter="url(#fxoz6ou30nvb4)" height="37.9375" id="sdnc_I_sdnc_I_call_home_I_tls" style="stroke:#A80036;stroke-width:1.5;" width="102" x="587" y="666.9531"/><ellipse cx="602" cy="685.9219" fill="#ADD1B2" rx="11" ry="11" style="stroke:#A80036;stroke-width:1.0;"/><path d="M604.9688,691.5625 Q604.3906,691.8594 603.75,692 Q603.1094,692.1563 602.4063,692.1563 Q599.9063,692.1563 598.5781,690.5156 Q597.2656,688.8594 597.2656,685.7344 Q597.2656,682.6094 598.5781,680.9531 Q599.9063,679.2969 602.4063,679.2969 Q603.1094,679.2969 603.75,679.4531 Q604.4063,679.6094 604.9688,679.9063 L604.9688,682.625 Q604.3438,682.0469 603.75,681.7813 Q603.1563,681.5 602.5313,681.5 Q601.1875,681.5 600.5,682.5781 Q599.8125,683.6406 599.8125,685.7344 Q599.8125,687.8281 600.5,688.9063 Q601.1875,689.9688 602.5313,689.9688 Q603.1563,689.9688 603.75,689.7031 Q604.3438,689.4219 604.9688,688.8438 L604.9688,691.5625 Z " fill="#000000"/><text fill="#000000" font-family="sans-serif" font-size="12" font-style="italic" lengthAdjust="spacing" textLength="74" x="614" y="683.0918">«container»</text><text fill="#000000" font-family="sans-serif" font-size="12" lengthAdjust="spacing" textLength="15" x="643.5" y="697.0605">tls</text><!--MD5=[331c2685ba11439938ee5965d02816fd]
class sdnc_I_sdnc_I_call_home_I_tls_I_certificates--><rect codeLine="52" fill="#FEFECE" filter="url(#fxoz6ou30nvb4)" height="117.9609" id="sdnc_I_sdnc_I_call_home_I_tls_I_certificates" style="stroke:#A80036;stroke-width:1.5;" width="290" x="554" y="802.9531"/><ellipse cx="659.75" cy="821.9219" fill="#FF7700" rx="11" ry="11" style="stroke:#A80036;stroke-width:1.0;"/><path d="M656.625,827.9219 L656.625,815.5313 L659.0625,815.5313 L659.0625,825.7656 L664.2969,825.7656 L664.2969,827.9219 L656.625,827.9219 Z " fill="#000000"/><text fill="#000000" font-family="sans-serif" font-size="12" font-style="italic" lengthAdjust="spacing" textLength="31" x="699.75" y="819.0918">«list»</text><text fill="#000000" font-family="sans-serif" font-size="12" lengthAdjust="spacing" textLength="70" x="680.25" y="833.0605">certificates</text><line style="stroke:#A80036;stroke-width:1.5;" x1="555" x2="843" y1="840.8906" y2="840.8906"/><ellipse cx="565" cy="851.8906" rx="3" ry="3" style="stroke:#038048;stroke-width:1.0;fill:none;"/><text fill="#000000" font-family="sans-serif" font-size="11" lengthAdjust="spacing" textLength="179" x="574" y="855.1011">id : string  {key}  {mandatory}</text><text fill="#000000" font-family="sans-serif" font-size="11" lengthAdjust="spacing" textLength="264" x="574" y="867.9058">category : ct:tls-certificate-type   {mandatory}</text><text fill="#000000" font-family="sans-serif" font-size="11" lengthAdjust="spacing" textLength="188" x="574" y="880.7104">certificate : string   {mandatory}</text><text fill="#000000" font-family="sans-serif" font-size="11" lengthAdjust="spacing" textLength="113" x="574" y="893.5151">passphrase : string</text><line style="stroke:#A80036;stroke-width:1.5;" x1="555" x2="843" y1="900.1094" y2="900.1094"/><text fill="#000000" font-family="sans-serif" font-size="11" lengthAdjust="spacing" textLength="46" x="560" y="914.3198">revoke()</text><path d="M610.5,981.9531 L610.5,1037.3516 A0,0 0 0 0 610.5,1037.3516 L787.5,1037.3516 A0,0 0 0 0 787.5,1037.3516 L787.5,991.9531 L777.5,981.9531 L703,981.9531 L699,921.2931 L695,981.9531 L610.5,981.9531 A0,0 0 0 0 610.5,981.9531 " fill="#FBFB77" filter="url(#fxoz6ou30nvb4)" style="stroke:#A80036;stroke-width:1.0;"/><path d="M777.5,981.9531 L777.5,991.9531 L787.5,991.9531 L777.5,981.9531 " fill="#FBFB77" style="stroke:#A80036;stroke-width:1.0;"/><text fill="#000000" font-family="sans-serif" font-size="13" font-weight="bold" lengthAdjust="spacing" textLength="41" x="616.5" y="999.02">When</text><text fill="#000000" font-family="sans-serif" font-size="13" lengthAdjust="spacing" textLength="88" x="661.5" y="999.02">(passphrase):</text><text fill="#000000" font-family="sans-serif" font-size="13" lengthAdjust="spacing" textLength="156" x="616.5" y="1014.1528">../category='private-key'</text><text fill="#000000" font-family="sans-serif" font-size="13" lengthAdjust="spacing" textLength="0" x="620.5" y="1029.2856"/><path d="M819.5,26.9531 L819.5,158.0156 L1182.5,158.0156 L1182.5,36.9531 L1172.5,26.9531 L819.5,26.9531 " fill="#FBFB77" filter="url(#fxoz6ou30nvb4)" style="stroke:#A80036;stroke-width:1.0;"/><path d="M1172.5,26.9531 L1172.5,36.9531 L1182.5,36.9531 L1172.5,26.9531 " fill="#FBFB77" style="stroke:#A80036;stroke-width:1.0;"/><text fill="#000000" font-family="sans-serif" font-size="13" font-weight="bold" lengthAdjust="spacing" textLength="92" x="825.5" y="44.02">Namespace:</text><text fill="#000000" font-family="sans-serif" font-size="13" lengthAdjust="spacing" textLength="237" x="926.5" y="44.02">urn:com:vendor:yang:sdnc:call-home</text><text fill="#000000" font-family="sans-serif" font-size="13" font-weight="bold" lengthAdjust="spacing" textLength="48" x="825.5" y="59.1528">Prefix:</text><text fill="#000000" font-family="sans-serif" font-size="13" lengthAdjust="spacing" textLength="22" x="882.5" y="59.1528">cch</text><text fill="#000000" font-family="sans-serif" font-size="13" font-weight="bold" lengthAdjust="spacing" textLength="104" x="825.5" y="74.2856">Organization :</text><text fill="#000000" font-family="sans-serif" font-size="13" lengthAdjust="spacing" textLength="147" x="825.5" y="89.4185">Cowdrey Consulting UK</text><text fill="#000000" font-family="sans-serif" font-size="13" font-weight="bold" lengthAdjust="spacing" textLength="67" x="825.5" y="104.5513">Contact :</text><text fill="#000000" font-family="sans-serif" font-size="13" lengthAdjust="spacing" textLength="109" x="825.5" y="119.6841">lee@cowdrey.net</text><text fill="#000000" font-family="sans-serif" font-size="13" font-weight="bold" lengthAdjust="spacing" textLength="71" x="825.5" y="134.8169">Revision :</text><text fill="#000000" font-family="sans-serif" font-size="13" lengthAdjust="spacing" textLength="74" x="905.5" y="134.8169">2022-06-23</text><text fill="#000000" font-family="sans-serif" font-size="13" lengthAdjust="spacing" textLength="0" x="829.5" y="149.9497"/><!--MD5=[658a0ef55e6a0b64b766d8669cffe0a2]
link GMN5 to cch_sdnc_call_home--><path d="M920.85,158.2031 C858.07,208.9131 775.45,275.6631 738.84,305.2331 " fill="none" id="GMN5-cch_sdnc_call_home" style="stroke:#A80036;stroke-width:1.0;stroke-dasharray:7.0,7.0;"/><!--MD5=[c05c900625dbf2c4f0c1d277c107163c]
reverse link c_sdnc to cch_sdnc_call_home--><path codeLine="21" d="M607.14,132.0831 C637.67,183.0431 689.98,270.3531 710.93,305.3231 " fill="none" id="c_sdnc-backto-cch_sdnc_call_home" style="stroke:#A80036;stroke-width:1.0;"/><ellipse cx="603.447" cy="125.9184" fill="#FFFFFF" rx="8" ry="8" style="stroke:#A80036;stroke-width:1.0;"/><line style="stroke:#A80036;stroke-width:1.0;" x1="607.554" x2="599.34" y1="132.7838" y2="119.0531"/><line style="stroke:#A80036;stroke-width:1.0;" x1="596.5817" x2="610.3123" y1="130.0254" y2="121.8114"/><!--MD5=[efe2041670783c27f14ab44c407d2307]
reverse link ct_sdnc_types to cch_sdnc_call_home--><path codeLine="22" d="M720,134.0531 C720,185.2631 720,270.7931 720,305.3231 " fill="none" id="ct_sdnc_types-backto-cch_sdnc_call_home" style="stroke:#A80036;stroke-width:1.0;"/><ellipse cx="720" cy="127.0531" fill="#FFFFFF" rx="8" ry="8" style="stroke:#A80036;stroke-width:1.0;"/><line style="stroke:#A80036;stroke-width:1.0;" x1="720" x2="720" y1="135.0531" y2="119.0531"/><line style="stroke:#A80036;stroke-width:1.0;" x1="712" x2="728" y1="127.0531" y2="127.0531"/><!--MD5=[28ec4e4a10845323f3e24f710587dd46]
reverse link sdnc_call_home to c_sdnc--><path codeLine="31" d="M328,400.0931 C328,417.9631 328,435.3331 328,447.7431 " fill="none" id="sdnc_call_home-backto-c_sdnc" style="stroke:#A80036;stroke-width:1.0;"/><polygon fill="#A80036" points="328,387.0631,324,393.0631,328,399.0631,332,393.0631,328,387.0631" style="stroke:#A80036;stroke-width:1.0;"/><!--MD5=[fff83a84a497a85399b1170cfbeee7ab]
reverse link c_sdnc to sdnc_I_sdnc_I_call_home--><path codeLine="36" d="M358.83,494.6631 C377.94,511.2031 401.99,532.0331 418.93,546.7031 " fill="none" id="c_sdnc-backto-sdnc_I_sdnc_I_call_home" style="stroke:#A80036;stroke-width:1.0;"/><polygon fill="#A80036" points="348.8,485.9731,350.716,492.925,357.87,493.8303,355.9541,486.8784,348.8,485.9731" style="stroke:#A80036;stroke-width:1.0;"/><text fill="#000000" font-family="sans-serif" font-size="13" lengthAdjust="spacing" textLength="8" x="403.5657" y="535.9409">1</text><!--MD5=[55498917f86e8346400e5251c3e2f66b]
reverse link sdnc_I_sdnc_I_call_home to sdnc_I_sdnc_I_call_home_I_credentials--><path codeLine="38" d="M395.87,591.5231 C367.72,607.1831 330.62,627.8331 298.45,645.7431 " fill="none" id="sdnc_I_sdnc_I_call_home-backto-sdnc_I_sdnc_I_call_home_I_credentials" style="stroke:#A80036;stroke-width:1.0;"/><polygon fill="#A80036" points="407.34,585.1331,400.1523,584.5527,396.852,590.9642,404.0397,591.5447,407.34,585.1331" style="stroke:#A80036;stroke-width:1.0;"/><text fill="#000000" font-family="sans-serif" font-size="13" lengthAdjust="spacing" textLength="8" x="301.4558" y="634.9566">1</text><!--MD5=[28a6324a12cfacf7f16a7b7665d1e0a4]
reverse link sdnc_I_sdnc_I_call_home_I_credentials to sdnc_I_sdnc_I_call_home_I_credentials_I_passwords--><path codeLine="42" d="M215.75,738.9531 C209.49,765.5031 202.01,797.2731 196.24,821.7331 " fill="none" id="sdnc_I_sdnc_I_call_home_I_credentials-backto-sdnc_I_sdnc_I_call_home_I_credentials_I_passwords" style="stroke:#A80036;stroke-width:1.0;"/><polygon fill="#A80036" points="218.8,726.0031,213.5293,730.9245,216.0449,737.6826,221.3156,732.7612,218.8,726.0031" style="stroke:#A80036;stroke-width:1.0;"/><text fill="#000000" font-family="sans-serif" font-size="13" lengthAdjust="spacing" textLength="110" x="213" y="769.02">ordered-by : user</text><text fill="#000000" font-family="sans-serif" font-size="13" lengthAdjust="spacing" textLength="26" x="169.6173" y="810.9449">0..N</text><!--MD5=[87a193ee921d101b6c877bd9fc31b746]
reverse link sdnc_I_sdnc_I_call_home to sdnc_I_sdnc_I_call_home_I_ssh--><path codeLine="46" d="M440,598.4131 C440,620.3231 440,648.7731 440,666.9431 " fill="none" id="sdnc_I_sdnc_I_call_home-backto-sdnc_I_sdnc_I_call_home_I_ssh" style="stroke:#A80036;stroke-width:1.0;"/><polygon fill="#A80036" points="440,585.1331,436,591.1331,440,597.1331,444,591.1331,440,585.1331" style="stroke:#A80036;stroke-width:1.0;"/><text fill="#000000" font-family="sans-serif" font-size="13" lengthAdjust="spacing" textLength="8" x="430.775" y="655.9212">1</text><!--MD5=[7126e1dcf0e7eaad3209752004261307]
reverse link sdnc_I_sdnc_I_call_home_I_ssh to sdnc_I_sdnc_I_call_home_I_ssh_I_ssh_host_keys--><path codeLine="48" d="M440,718.3531 C440,750.7731 440,800.9231 440,832.2931 " fill="none" id="sdnc_I_sdnc_I_call_home_I_ssh-backto-sdnc_I_sdnc_I_call_home_I_ssh_I_ssh_host_keys" style="stroke:#A80036;stroke-width:1.0;"/><polygon fill="#A80036" points="440,705.2431,436,711.2431,440,717.2431,444,711.2431,440,705.2431" style="stroke:#A80036;stroke-width:1.0;"/><text fill="#000000" font-family="sans-serif" font-size="13" lengthAdjust="spacing" textLength="8" x="431.125" y="821.274">1</text><!--MD5=[ef7891a78a6a8fe0687db9571b44e89a]
reverse link sdnc_I_sdnc_I_call_home to sdnc_I_sdnc_I_call_home_I_tls--><path codeLine="51" d="M482.12,592.0531 C519.84,614.5331 574.23,646.9531 607.79,666.9431 " fill="none" id="sdnc_I_sdnc_I_call_home-backto-sdnc_I_sdnc_I_call_home_I_tls" style="stroke:#A80036;stroke-width:1.0;"/><polygon fill="#A80036" points="470.5,585.1331,473.6029,591.6425,480.805,591.2818,477.7021,584.7725,470.5,585.1331" style="stroke:#A80036;stroke-width:1.0;"/><text fill="#000000" font-family="sans-serif" font-size="13" lengthAdjust="spacing" textLength="8" x="589.3132" y="655.9212">1</text><!--MD5=[431ccb2a2429de0807904a50b81df3aa]
reverse link sdnc_I_sdnc_I_call_home_I_tls to sdnc_I_sdnc_I_call_home_I_tls_I_certificates--><path codeLine="53" d="M648.72,717.5231 C656.94,740.9831 668.55,774.0831 678.53,802.5731 " fill="none" id="sdnc_I_sdnc_I_call_home_I_tls-backto-sdnc_I_sdnc_I_call_home_I_tls_I_certificates" style="stroke:#A80036;stroke-width:1.0;"/><polygon fill="#A80036" points="644.41,705.2431,642.6264,712.2302,648.3901,716.5639,650.1736,709.5768,644.41,705.2431" style="stroke:#A80036;stroke-width:1.0;"/><text fill="#000000" font-family="sans-serif" font-size="13" lengthAdjust="spacing" textLength="110" x="667" y="769.02">ordered-by : user</text><text fill="#000000" font-family="sans-serif" font-size="13" lengthAdjust="spacing" textLength="26" x="648.66" y="791.917">0..N</text><text fill="#888888" font-family="sans-serif" font-size="24" lengthAdjust="spacing" textLength="280" x="448.25" y="1089.2305">Cowdrey Consulting UK</text><!--MD5=[6c47a3c3da56d9bfa4174217463549d0]
@startuml img/sdnc-call-home.png 
hide empty fields 
hide empty methods 
hide <<case>> circle
hide <<augment>> circle
hide <<choice>> circle
hide <<leafref>> stereotype
hide <<leafref>> circle
page 1x1 
Title sdnc-call-home 
package "c:sdnc" as c_sdnc { 
} 
package "ct:sdnc-types" as ct_sdnc_types { 
} 
note top of cch_sdnc_call_home : <b>Namespace: </b> urn:com:vendor:yang:sdnc:call-home \n<b>Prefix: </b> cch \n<b>Organization : </b>\nCowdrey Consulting UK \n<b>Contact : </b>\nlee@cowdrey.net \n<b>Revision : </b> 2022-06-23 \n
package "cch:sdnc-call-home" as cch_sdnc_call_home { 
c_sdnc +- - cch_sdnc_call_home
ct_sdnc_types +- - cch_sdnc_call_home
class "sdnc-call-home" as sdnc_call_home << (M, #33CCFF) module>> 
sdnc_call_home : feature : sdnc_call_home 
sdnc_call_home : set-global-credentials( in: username in: passwords)
sdnc_call_home : add-global-credential-passwords( in: username in: passwords)
sdnc_call_home : ignore-ssh-host-keys( in: ignore)
sdnc_call_home : set-tls-passphrase( in: key_id in: passphrase)
sdnc_call_home : add-tls-certificate( in: id in: category in: certificate in: passphrase)
class "/c:sdnc" as c_sdnc << (A,CadetBlue) augment>>
sdnc_call_home *- -  c_sdnc 
note bottom of c_sdnc
<b>if-feature: </b>c:sdnc
end note 
class "call-home" as  sdnc_I_sdnc_I_call_home <<container>> 
c_sdnc *- - "1" sdnc_I_sdnc_I_call_home 
class "credentials" as  sdnc_I_sdnc_I_call_home_I_credentials <<container>> 
sdnc_I_sdnc_I_call_home *- - "1" sdnc_I_sdnc_I_call_home_I_credentials 
sdnc_I_sdnc_I_call_home_I_credentials : username : string {length = 4..max}  
sdnc_I_sdnc_I_call_home_I_credentials : remove()
class "passwords" as sdnc_I_sdnc_I_call_home_I_credentials_I_passwords << (L, #FF7700) list>> 
sdnc_I_sdnc_I_call_home_I_credentials *- - "0..N" sdnc_I_sdnc_I_call_home_I_credentials_I_passwords : ordered-by : user
sdnc_I_sdnc_I_call_home_I_credentials_I_passwords : +password : string {length = 4..max}  {key} 
sdnc_I_sdnc_I_call_home_I_credentials_I_passwords : delete()
class "ssh" as  sdnc_I_sdnc_I_call_home_I_ssh <<container>> 
sdnc_I_sdnc_I_call_home *- - "1" sdnc_I_sdnc_I_call_home_I_ssh 
class "ssh-host-keys" as  sdnc_I_sdnc_I_call_home_I_ssh_I_ssh_host_keys <<container>> 
sdnc_I_sdnc_I_call_home_I_ssh *- - "1" sdnc_I_sdnc_I_call_home_I_ssh_I_ssh_host_keys 
sdnc_I_sdnc_I_call_home_I_ssh_I_ssh_host_keys : ignore : boolean   = false 
class "tls" as  sdnc_I_sdnc_I_call_home_I_tls <<container>> 
sdnc_I_sdnc_I_call_home *- - "1" sdnc_I_sdnc_I_call_home_I_tls 
class "certificates" as sdnc_I_sdnc_I_call_home_I_tls_I_certificates << (L, #FF7700) list>> 
sdnc_I_sdnc_I_call_home_I_tls *- - "0..N" sdnc_I_sdnc_I_call_home_I_tls_I_certificates : ordered-by : user
sdnc_I_sdnc_I_call_home_I_tls_I_certificates : +id : string  {key}  {mandatory}
sdnc_I_sdnc_I_call_home_I_tls_I_certificates : category : ct:tls-certificate-type   {mandatory}
sdnc_I_sdnc_I_call_home_I_tls_I_certificates : certificate : string   {mandatory}
sdnc_I_sdnc_I_call_home_I_tls_I_certificates : passphrase : string  
note bottom of sdnc_I_sdnc_I_call_home_I_tls_I_certificates
<b>When</b> (passphrase):
../category='private-key'

end note 
sdnc_I_sdnc_I_call_home_I_tls_I_certificates : revoke()
} 

center footer
 <size:24> Cowdrey Consulting UK </size>
 endfooter 
@enduml

PlantUML version 1.2021.8(Sat Jun 26 09:20:59 BST 2021)
(APACHE source distribution)
Java Runtime: OpenJDK Runtime Environment
JVM: OpenJDK 64-Bit Server VM
Default Encoding: UTF-8
Language: en
Country: GB
--></g></svg>