<?xml version="1.0" encoding="UTF-8" standalone="no"?><svg xmlns="http://www.w3.org/2000/svg" xmlns:xlink="http://www.w3.org/1999/xlink" contentScriptType="application/ecmascript" contentStyleType="text/css" height="1442px" preserveAspectRatio="none" style="width:1350px;height:1442px;background:#FFFFFF;" version="1.1" viewBox="0 0 1350 1442" width="1350px" zoomAndPan="magnify"><defs><filter height="300%" id="fv0hkkw76vhc6" width="300%" x="-1" y="-1"><feGaussianBlur result="blurOut" stdDeviation="2.0"/><feColorMatrix in="blurOut" result="blurOut2" type="matrix" values="0 0 0 0 0 0 0 0 0 0 0 0 0 0 0 0 0 0 .4 0"/><feOffset dx="4.0" dy="4.0" in="blurOut2" result="blurOut3"/><feBlend in="SourceGraphic" in2="blurOut3" mode="normal"/></filter></defs><g><text fill="#000000" font-family="sans-serif" font-size="18" lengthAdjust="spacing" textLength="109" x="613.25" y="16.708">sdnc-pubsub</text><!--MD5=[07f0ba4a7c2c7da913f3ab1aafa88771]
cluster cps_sdnc_pubsub--><polygon fill="#FFFFFF" filter="url(#fv0hkkw76vhc6)" points="16,212.9531,159,212.9531,166,235.25,972,235.25,972,1405.9531,16,1405.9531,16,212.9531" style="stroke:#000000;stroke-width:1.5;"/><line style="stroke:#000000;stroke-width:1.5;" x1="16" x2="166" y1="235.25" y2="235.25"/><text fill="#000000" font-family="sans-serif" font-size="14" font-weight="bold" lengthAdjust="spacing" textLength="137" x="20" y="227.9482">cps:sdnc-pubsub</text><polygon fill="#FFFFFF" filter="url(#fv0hkkw76vhc6)" points="683.5,65.9531,742.5,65.9531,749.5,88.25,756.5,88.25,756.5,118.5469,683.5,118.5469,683.5,65.9531" style="stroke:#000000;stroke-width:1.5;"/><line style="stroke:#000000;stroke-width:1.5;" x1="683.5" x2="749.5" y1="88.25" y2="88.25"/><text fill="#000000" font-family="sans-serif" font-size="14" font-weight="bold" lengthAdjust="spacing" textLength="53" x="687.5" y="80.9482">c:sdnc</text><polygon fill="#FFFFFF" filter="url(#fv0hkkw76vhc6)" points="792,65.9531,946,65.9531,953,88.25,960,88.25,960,118.5469,792,118.5469,792,65.9531" style="stroke:#000000;stroke-width:1.5;"/><line style="stroke:#000000;stroke-width:1.5;" x1="792" x2="953" y1="88.25" y2="88.25"/><text fill="#000000" font-family="sans-serif" font-size="14" font-weight="bold" lengthAdjust="spacing" textLength="148" x="796" y="80.9482">inet:ietf-inet-types</text><!--MD5=[ec087a6f354d97f5f362569195e8a2b3]
class cps_sdnc_pubsub--><rect fill="#FEFECE" filter="url(#fv0hkkw76vhc6)" height="32" id="cps_sdnc_pubsub" style="stroke:#A80036;stroke-width:1.5;" width="143" x="804.5" y="298.9531"/><ellipse cx="819.5" cy="314.9531" fill="#ADD1B2" rx="11" ry="11" style="stroke:#A80036;stroke-width:1.0;"/><path d="M822.4688,320.5938 Q821.8906,320.8906 821.25,321.0313 Q820.6094,321.1875 819.9063,321.1875 Q817.4063,321.1875 816.0781,319.5469 Q814.7656,317.8906 814.7656,314.7656 Q814.7656,311.6406 816.0781,309.9844 Q817.4063,308.3281 819.9063,308.3281 Q820.6094,308.3281 821.25,308.4844 Q821.9063,308.6406 822.4688,308.9375 L822.4688,311.6563 Q821.8438,311.0781 821.25,310.8125 Q820.6563,310.5313 820.0313,310.5313 Q818.6875,310.5313 818,311.6094 Q817.3125,312.6719 817.3125,314.7656 Q817.3125,316.8594 818,317.9375 Q818.6875,319 820.0313,319 Q820.6563,319 821.25,318.7344 Q821.8438,318.4531 822.4688,317.875 L822.4688,320.5938 Z " fill="#000000"/><text fill="#000000" font-family="sans-serif" font-size="12" lengthAdjust="spacing" textLength="111" x="833.5" y="319.1074">cps_sdnc_pubsub</text><!--MD5=[7d3fc4a6fa7c700637d713b764d3963c]
class sdnc_pubsub--><rect codeLine="23" fill="#FEFECE" filter="url(#fv0hkkw76vhc6)" height="117.9609" id="sdnc_pubsub" style="stroke:#A80036;stroke-width:1.5;" width="710" x="59" y="255.9531"/><ellipse cx="369.25" cy="274.9219" fill="#33CCFF" rx="11" ry="11" style="stroke:#A80036;stroke-width:1.0;"/><path d="M364.9688,268.5313 L367.8906,268.5313 L369.3594,273.9688 L370.8281,268.5313 L373.7656,268.5313 L373.7656,280.9219 L371.6563,280.9219 L371.6563,271 L370.3438,276.4219 L368.4063,276.4219 L367.0781,271 L367.0781,280.9219 L364.9688,280.9219 L364.9688,268.5313 Z " fill="#000000"/><text fill="#000000" font-family="sans-serif" font-size="12" font-style="italic" lengthAdjust="spacing" textLength="60" x="400.25" y="272.0918">«module»</text><text fill="#000000" font-family="sans-serif" font-size="12" lengthAdjust="spacing" textLength="81" x="389.75" y="286.0605">sdnc-pubsub</text><line style="stroke:#A80036;stroke-width:1.5;" x1="60" x2="768" y1="293.8906" y2="293.8906"/><text fill="#000000" font-family="sans-serif" font-size="11" lengthAdjust="spacing" textLength="128" x="65" y="308.1011">feature : sdnc_pubsub</text><line style="stroke:#A80036;stroke-width:1.5;" x1="60" x2="768" y1="314.6953" y2="314.6953"/><text fill="#000000" font-family="sans-serif" font-size="11" lengthAdjust="spacing" textLength="156" x="65" y="328.9058">listen( in: yang_notification)</text><text fill="#000000" font-family="sans-serif" font-size="11" lengthAdjust="spacing" textLength="213" x="65" y="341.7104">publish( in: yang_notification in: data)</text><text fill="#000000" font-family="sans-serif" font-size="11" lengthAdjust="spacing" textLength="698" x="65" y="354.5151">subscribe( in: retries in: retry_delay in: max_life_retries in: username in: password in: security_protocol in: subscriptions)</text><text fill="#000000" font-family="sans-serif" font-size="11" lengthAdjust="spacing" textLength="194" x="65" y="367.3198">kafka-broker-register( in: brokers)</text><!--MD5=[4809cd8887ed0c9491cd832576b7355c]
class c_sdnc--><rect codeLine="29" fill="#FEFECE" filter="url(#fv0hkkw76vhc6)" height="37.9375" id="c_sdnc" style="stroke:#A80036;stroke-width:1.5;" width="98" x="365" y="434.9531"/><ellipse cx="380" cy="453.9219" fill="#5F9EA0" rx="11" ry="11" style="stroke:#A80036;stroke-width:1.0;"/><path d="M380.1094,449.2656 L378.9531,454.3438 L381.2813,454.3438 L380.1094,449.2656 Z M378.625,447.0313 L381.6094,447.0313 L384.9688,459.4219 L382.5156,459.4219 L381.75,456.3594 L378.4688,456.3594 L377.7188,459.4219 L375.2813,459.4219 L378.625,447.0313 Z " fill="#000000"/><text fill="#000000" font-family="sans-serif" font-size="12" font-style="italic" lengthAdjust="spacing" textLength="70" x="392" y="451.0918">«augment»</text><text fill="#000000" font-family="sans-serif" font-size="12" lengthAdjust="spacing" textLength="45" x="404.5" y="465.0605">/c:sdnc</text><path d="M267.5,540.4531 L267.5,565.5859 A0,0 0 0 0 267.5,565.5859 L408.5,565.5859 A0,0 0 0 0 408.5,565.5859 L408.5,550.4531 L398.5,540.4531 L351.21,540.4531 L399.7,473.1931 L343.21,540.4531 L267.5,540.4531 A0,0 0 0 0 267.5,540.4531 " fill="#FBFB77" filter="url(#fv0hkkw76vhc6)" style="stroke:#A80036;stroke-width:1.0;"/><path d="M398.5,540.4531 L398.5,550.4531 L408.5,550.4531 L398.5,540.4531 " fill="#FBFB77" style="stroke:#A80036;stroke-width:1.0;"/><text fill="#000000" font-family="sans-serif" font-size="13" font-weight="bold" lengthAdjust="spacing" textLength="74" x="273.5" y="557.52">if-feature:</text><text fill="#000000" font-family="sans-serif" font-size="13" lengthAdjust="spacing" textLength="41" x="352.5" y="557.52">c:sdnc</text><!--MD5=[d249e1ddcb30aa18171ff1e729eeb568]
class sdnc_I_sdnc_I_pubsub--><rect codeLine="34" fill="#FEFECE" filter="url(#fv0hkkw76vhc6)" height="37.9375" id="sdnc_I_sdnc_I_pubsub" style="stroke:#A80036;stroke-width:1.5;" width="102" x="444" y="533.9531"/><ellipse cx="459" cy="552.9219" fill="#ADD1B2" rx="11" ry="11" style="stroke:#A80036;stroke-width:1.0;"/><path d="M461.9688,558.5625 Q461.3906,558.8594 460.75,559 Q460.1094,559.1563 459.4063,559.1563 Q456.9063,559.1563 455.5781,557.5156 Q454.2656,555.8594 454.2656,552.7344 Q454.2656,549.6094 455.5781,547.9531 Q456.9063,546.2969 459.4063,546.2969 Q460.1094,546.2969 460.75,546.4531 Q461.4063,546.6094 461.9688,546.9063 L461.9688,549.625 Q461.3438,549.0469 460.75,548.7813 Q460.1563,548.5 459.5313,548.5 Q458.1875,548.5 457.5,549.5781 Q456.8125,550.6406 456.8125,552.7344 Q456.8125,554.8281 457.5,555.9063 Q458.1875,556.9688 459.5313,556.9688 Q460.1563,556.9688 460.75,556.7031 Q461.3438,556.4219 461.9688,555.8438 L461.9688,558.5625 Z " fill="#000000"/><text fill="#000000" font-family="sans-serif" font-size="12" font-style="italic" lengthAdjust="spacing" textLength="74" x="471" y="550.0918">«container»</text><text fill="#000000" font-family="sans-serif" font-size="12" lengthAdjust="spacing" textLength="47" x="484.5" y="564.0605">pubsub</text><!--MD5=[950bca759df8e7836f271a136fdd5ea6]
class sdnc_I_sdnc_I_pubsub_I_kafka--><rect codeLine="36" fill="#FEFECE" filter="url(#fv0hkkw76vhc6)" height="37.9375" id="sdnc_I_sdnc_I_pubsub_I_kafka" style="stroke:#A80036;stroke-width:1.5;" width="102" x="319" y="632.9531"/><ellipse cx="334" cy="651.9219" fill="#ADD1B2" rx="11" ry="11" style="stroke:#A80036;stroke-width:1.0;"/><path d="M336.9688,657.5625 Q336.3906,657.8594 335.75,658 Q335.1094,658.1563 334.4063,658.1563 Q331.9063,658.1563 330.5781,656.5156 Q329.2656,654.8594 329.2656,651.7344 Q329.2656,648.6094 330.5781,646.9531 Q331.9063,645.2969 334.4063,645.2969 Q335.1094,645.2969 335.75,645.4531 Q336.4063,645.6094 336.9688,645.9063 L336.9688,648.625 Q336.3438,648.0469 335.75,647.7813 Q335.1563,647.5 334.5313,647.5 Q333.1875,647.5 332.5,648.5781 Q331.8125,649.6406 331.8125,651.7344 Q331.8125,653.8281 332.5,654.9063 Q333.1875,655.9688 334.5313,655.9688 Q335.1563,655.9688 335.75,655.7031 Q336.3438,655.4219 336.9688,654.8438 L336.9688,657.5625 Z " fill="#000000"/><text fill="#000000" font-family="sans-serif" font-size="12" font-style="italic" lengthAdjust="spacing" textLength="74" x="346" y="649.0918">«container»</text><text fill="#000000" font-family="sans-serif" font-size="12" lengthAdjust="spacing" textLength="34" x="366" y="663.0605">kafka</text><!--MD5=[3dd34df69b09a12712b73c5134bdb66b]
class sdnc_I_sdnc_I_pubsub_I_kafka_I_brokers--><rect codeLine="38" fill="#FEFECE" filter="url(#fv0hkkw76vhc6)" height="258.8125" id="sdnc_I_sdnc_I_pubsub_I_kafka_I_brokers" style="stroke:#A80036;stroke-width:1.5;" width="401" x="58.5" y="768.9531"/><ellipse cx="230.75" cy="787.9219" fill="#FF7700" rx="11" ry="11" style="stroke:#A80036;stroke-width:1.0;"/><path d="M227.625,793.9219 L227.625,781.5313 L230.0625,781.5313 L230.0625,791.7656 L235.2969,791.7656 L235.2969,793.9219 L227.625,793.9219 Z " fill="#000000"/><text fill="#000000" font-family="sans-serif" font-size="12" font-style="italic" lengthAdjust="spacing" textLength="31" x="259.75" y="785.0918">«list»</text><text fill="#000000" font-family="sans-serif" font-size="12" lengthAdjust="spacing" textLength="48" x="251.25" y="799.0605">brokers</text><line style="stroke:#A80036;stroke-width:1.5;" x1="59.5" x2="458.5" y1="806.8906" y2="806.8906"/><ellipse cx="69.5" cy="817.8906" rx="3" ry="3" style="stroke:#038048;stroke-width:1.0;fill:none;"/><text fill="#000000" font-family="sans-serif" font-size="11" lengthAdjust="spacing" textLength="128" x="78.5" y="821.1011">host : inet:host  {key}</text><ellipse cx="69.5" cy="830.6953" rx="3" ry="3" style="stroke:#038048;stroke-width:1.0;fill:none;"/><text fill="#000000" font-family="sans-serif" font-size="11" lengthAdjust="spacing" textLength="172" x="78.5" y="833.9058">port : inet:port-number  {key}</text><text fill="#000000" font-family="sans-serif" font-size="11" lengthAdjust="spacing" textLength="141" x="78.5" y="846.7104">client-id : string   = sdnc</text><text fill="#000000" font-family="sans-serif" font-size="11" lengthAdjust="spacing" textLength="199" x="78.5" y="859.5151">retries : uint8 [0..8]   {mandatory}</text><text fill="#000000" font-family="sans-serif" font-size="11" lengthAdjust="spacing" textLength="310" x="78.5" y="872.3198">retry-delay : uint64 [0..max]   = 10000  {Milliseconds}</text><text fill="#000000" font-family="sans-serif" font-size="11" lengthAdjust="spacing" textLength="103" x="78.5" y="885.1245">username : string</text><text fill="#000000" font-family="sans-serif" font-size="11" lengthAdjust="spacing" textLength="101" x="78.5" y="897.9292">password : string</text><text fill="#000000" font-family="sans-serif" font-size="11" lengthAdjust="spacing" textLength="375" x="78.5" y="910.7339">security-protocol : enumeration : {none,basic,digest,...}   = none</text><text fill="#000000" font-family="sans-serif" font-size="11" lengthAdjust="spacing" textLength="207" x="78.5" y="923.5386">acks : enumeration : {all,0,1,}   = 1</text><text fill="#000000" font-family="sans-serif" font-size="11" lengthAdjust="spacing" textLength="253" x="78.5" y="936.3433">linger : uint64 [0..max]   = 0  {Milliseconds}</text><text fill="#000000" font-family="sans-serif" font-size="11" lengthAdjust="spacing" textLength="231" x="78.5" y="949.1479">batch-size : uint64 [0..max]   = 16  {KB}</text><text fill="#000000" font-family="sans-serif" font-size="11" lengthAdjust="spacing" textLength="261" x="78.5" y="961.9526">buffer-memory : uint64 [0..max]   = 32  {MB}</text><text fill="#000000" font-family="sans-serif" font-size="11" lengthAdjust="spacing" textLength="267" x="78.5" y="974.7573">max-request-size : uint64 [0..max]   = 1  {MB}</text><text fill="#000000" font-family="sans-serif" font-size="11" lengthAdjust="spacing" textLength="329" x="78.5" y="987.562">max-inflight-requests-per-connection : uint8 [1..255]   = 5</text><text fill="#000000" font-family="sans-serif" font-size="11" lengthAdjust="spacing" textLength="373" x="78.5" y="1000.3667">compression-method : enumeration : {none,gzip,lz4,...}   = none</text><line style="stroke:#A80036;stroke-width:1.5;" x1="59.5" x2="458.5" y1="1006.9609" y2="1006.9609"/><text fill="#000000" font-family="sans-serif" font-size="11" lengthAdjust="spacing" textLength="67" x="64.5" y="1021.1714">unregister()</text><!--MD5=[92ade1473b2cad917b1267113ce73c75]
class sdnc_I_sdnc_I_pubsub_I_listener--><rect codeLine="56" fill="#FEFECE" filter="url(#fv0hkkw76vhc6)" height="37.9375" id="sdnc_I_sdnc_I_pubsub_I_listener" style="stroke:#A80036;stroke-width:1.5;" width="102" x="444" y="700.9531"/><ellipse cx="459" cy="719.9219" fill="#ADD1B2" rx="11" ry="11" style="stroke:#A80036;stroke-width:1.0;"/><path d="M461.9688,725.5625 Q461.3906,725.8594 460.75,726 Q460.1094,726.1563 459.4063,726.1563 Q456.9063,726.1563 455.5781,724.5156 Q454.2656,722.8594 454.2656,719.7344 Q454.2656,716.6094 455.5781,714.9531 Q456.9063,713.2969 459.4063,713.2969 Q460.1094,713.2969 460.75,713.4531 Q461.4063,713.6094 461.9688,713.9063 L461.9688,716.625 Q461.3438,716.0469 460.75,715.7813 Q460.1563,715.5 459.5313,715.5 Q458.1875,715.5 457.5,716.5781 Q456.8125,717.6406 456.8125,719.7344 Q456.8125,721.8281 457.5,722.9063 Q458.1875,723.9688 459.5313,723.9688 Q460.1563,723.9688 460.75,723.7031 Q461.3438,723.4219 461.9688,722.8438 L461.9688,725.5625 Z " fill="#000000"/><text fill="#000000" font-family="sans-serif" font-size="12" font-style="italic" lengthAdjust="spacing" textLength="74" x="471" y="717.0918">«container»</text><text fill="#000000" font-family="sans-serif" font-size="12" lengthAdjust="spacing" textLength="47" x="484.5" y="731.0605">listener</text><!--MD5=[cc66304f7d7489459593e804a4fdb8d3]
class sdnc_I_sdnc_I_pubsub_I_listener_I_notifications--><rect codeLine="58" fill="#FEFECE" filter="url(#fv0hkkw76vhc6)" height="71.5469" id="sdnc_I_sdnc_I_pubsub_I_listener_I_notifications" style="stroke:#A80036;stroke-width:1.5;" width="483" x="99.5" y="1108.9531"/><ellipse cx="298.25" cy="1127.9219" fill="#FF7700" rx="11" ry="11" style="stroke:#A80036;stroke-width:1.0;"/><path d="M295.125,1133.9219 L295.125,1121.5313 L297.5625,1121.5313 L297.5625,1131.7656 L302.7969,1131.7656 L302.7969,1133.9219 L295.125,1133.9219 Z " fill="#000000"/><text fill="#000000" font-family="sans-serif" font-size="12" font-style="italic" lengthAdjust="spacing" textLength="31" x="341.75" y="1125.0918">«list»</text><text fill="#000000" font-family="sans-serif" font-size="12" lengthAdjust="spacing" textLength="77" x="318.75" y="1139.0605">notifications</text><line style="stroke:#A80036;stroke-width:1.5;" x1="100.5" x2="581.5" y1="1146.8906" y2="1146.8906"/><ellipse cx="110.5" cy="1157.8906" fill="#84BE84" rx="3" ry="3" style="stroke:#038048;stroke-width:1.0;"/><text fill="#000000" font-family="sans-serif" font-size="11" lengthAdjust="spacing" textLength="457" x="119.5" y="1161.1011">yang-notification : string {pattern = (\()?([A-Za-z_][A-Za...}  {key}  {mandatory}</text><text fill="#000000" font-family="sans-serif" font-size="11" lengthAdjust="spacing" textLength="53" x="119.5" y="1173.9058">unlisten()</text><!--MD5=[642670bebf3a8a043ce2131175d287b1]
class sdnc_I_sdnc_I_pubsub_I_subscriptions--><rect codeLine="62" fill="#FEFECE" filter="url(#fv0hkkw76vhc6)" height="37.9375" id="sdnc_I_sdnc_I_pubsub_I_subscriptions" style="stroke:#A80036;stroke-width:1.5;" width="116" x="604" y="632.9531"/><ellipse cx="619" cy="651.9219" fill="#ADD1B2" rx="11" ry="11" style="stroke:#A80036;stroke-width:1.0;"/><path d="M621.9688,657.5625 Q621.3906,657.8594 620.75,658 Q620.1094,658.1563 619.4063,658.1563 Q616.9063,658.1563 615.5781,656.5156 Q614.2656,654.8594 614.2656,651.7344 Q614.2656,648.6094 615.5781,646.9531 Q616.9063,645.2969 619.4063,645.2969 Q620.1094,645.2969 620.75,645.4531 Q621.4063,645.6094 621.9688,645.9063 L621.9688,648.625 Q621.3438,648.0469 620.75,647.7813 Q620.1563,647.5 619.5313,647.5 Q618.1875,647.5 617.5,648.5781 Q616.8125,649.6406 616.8125,651.7344 Q616.8125,653.8281 617.5,654.9063 Q618.1875,655.9688 619.5313,655.9688 Q620.1563,655.9688 620.75,655.7031 Q621.3438,655.4219 621.9688,654.8438 L621.9688,657.5625 Z " fill="#000000"/><text fill="#000000" font-family="sans-serif" font-size="12" font-style="italic" lengthAdjust="spacing" textLength="74" x="638" y="649.0918">«container»</text><text fill="#000000" font-family="sans-serif" font-size="12" lengthAdjust="spacing" textLength="84" x="633" y="663.0605">subscriptions</text><!--MD5=[09b8c0d2c809670cf1769006cb86c0eb]
class sdnc_I_sdnc_I_pubsub_I_subscriptions_I_subscription--><rect codeLine="64" fill="#FEFECE" filter="url(#fv0hkkw76vhc6)" height="58.7422" id="sdnc_I_sdnc_I_pubsub_I_subscriptions_I_subscription" style="stroke:#A80036;stroke-width:1.5;" width="409" x="531.5" y="868.9531"/><ellipse cx="693.25" cy="887.9219" fill="#FF7700" rx="11" ry="11" style="stroke:#A80036;stroke-width:1.0;"/><path d="M690.125,893.9219 L690.125,881.5313 L692.5625,881.5313 L692.5625,891.7656 L697.7969,891.7656 L697.7969,893.9219 L690.125,893.9219 Z " fill="#000000"/><text fill="#000000" font-family="sans-serif" font-size="12" font-style="italic" lengthAdjust="spacing" textLength="31" x="736.75" y="885.0918">«list»</text><text fill="#000000" font-family="sans-serif" font-size="12" lengthAdjust="spacing" textLength="77" x="713.75" y="899.0605">subscription</text><line style="stroke:#A80036;stroke-width:1.5;" x1="532.5" x2="939.5" y1="906.8906" y2="906.8906"/><ellipse cx="542.5" cy="917.8906" rx="3" ry="3" style="stroke:#038048;stroke-width:1.0;fill:none;"/><text fill="#000000" font-family="sans-serif" font-size="11" lengthAdjust="spacing" textLength="383" x="551.5" y="921.1011">yang-notification : leafref : ...yang-notification  {key}  {mandatory}</text><!--MD5=[faefc4090f3fca3fd4c8da35d10b9696]
class sdnc_I_sdnc_I_pubsub_I_subscriptions_I_subscription_I_consumers--><rect codeLine="67" fill="#FEFECE" filter="url(#fv0hkkw76vhc6)" height="79.5469" id="sdnc_I_sdnc_I_pubsub_I_subscriptions_I_subscription_I_consumers" style="stroke:#A80036;stroke-width:1.5;" width="251" x="617.5" y="1104.9531"/><ellipse cx="704.25" cy="1123.9219" fill="#FF7700" rx="11" ry="11" style="stroke:#A80036;stroke-width:1.0;"/><path d="M701.125,1129.9219 L701.125,1117.5313 L703.5625,1117.5313 L703.5625,1127.7656 L708.7969,1127.7656 L708.7969,1129.9219 L701.125,1129.9219 Z " fill="#000000"/><text fill="#000000" font-family="sans-serif" font-size="12" font-style="italic" lengthAdjust="spacing" textLength="31" x="743.75" y="1121.0918">«list»</text><text fill="#000000" font-family="sans-serif" font-size="12" lengthAdjust="spacing" textLength="69" x="724.75" y="1135.0605">consumers</text><line style="stroke:#A80036;stroke-width:1.5;" x1="618.5" x2="867.5" y1="1142.8906" y2="1142.8906"/><ellipse cx="628.5" cy="1153.8906" rx="3" ry="3" style="stroke:#038048;stroke-width:1.0;fill:none;"/><text fill="#000000" font-family="sans-serif" font-size="11" lengthAdjust="spacing" textLength="225" x="637.5" y="1157.1011">endpoint : inet:uri  {key}  {mandatory}</text><line style="stroke:#A80036;stroke-width:1.5;" x1="618.5" x2="867.5" y1="1163.6953" y2="1163.6953"/><text fill="#000000" font-family="sans-serif" font-size="11" lengthAdjust="spacing" textLength="78" x="623.5" y="1177.9058">unsubscribe()</text><path d="M108.5,1286.4531 L108.5,1341.8516 A0,0 0 0 0 108.5,1341.8516 L503.5,1341.8516 A0,0 0 0 0 503.5,1341.8516 L503.5,1296.4531 L493.5,1286.4531 L379.55,1286.4531 L640.82,1185.0031 L371.55,1286.4531 L108.5,1286.4531 A0,0 0 0 0 108.5,1286.4531 " fill="#FBFB77" filter="url(#fv0hkkw76vhc6)" style="stroke:#A80036;stroke-width:1.0;"/><path d="M493.5,1286.4531 L493.5,1296.4531 L503.5,1296.4531 L493.5,1286.4531 " fill="#FBFB77" style="stroke:#A80036;stroke-width:1.0;"/><text fill="#000000" font-family="sans-serif" font-size="13" font-weight="bold" lengthAdjust="spacing" textLength="36" x="114.5" y="1303.52">Must</text><text fill="#000000" font-family="sans-serif" font-size="13" lengthAdjust="spacing" textLength="70" x="154.5" y="1303.52">(endpoint):</text><text fill="#000000" font-family="sans-serif" font-size="13" lengthAdjust="spacing" textLength="374" x="114.5" y="1318.6528">starts-with(current(),'http:') or starts-with(current(),'https:')</text><text fill="#000000" font-family="sans-serif" font-size="13" lengthAdjust="spacing" textLength="0" x="118.5" y="1333.7856"/><!--MD5=[f79ec9da6dced099172237a3523b097f]
class sdnc_I_sdnc_I_pubsub_I_subscriptions_I_subscription_I_consumers_I_options--><rect codeLine="76" fill="#FEFECE" filter="url(#fv0hkkw76vhc6)" height="135.5703" id="sdnc_I_sdnc_I_pubsub_I_subscriptions_I_subscription_I_consumers_I_options" style="stroke:#A80036;stroke-width:1.5;" width="409" x="538.5" y="1245.9531"/><ellipse cx="703.75" cy="1264.9219" fill="#ADD1B2" rx="11" ry="11" style="stroke:#A80036;stroke-width:1.0;"/><path d="M706.7188,1270.5625 Q706.1406,1270.8594 705.5,1271 Q704.8594,1271.1563 704.1563,1271.1563 Q701.6563,1271.1563 700.3281,1269.5156 Q699.0156,1267.8594 699.0156,1264.7344 Q699.0156,1261.6094 700.3281,1259.9531 Q701.6563,1258.2969 704.1563,1258.2969 Q704.8594,1258.2969 705.5,1258.4531 Q706.1563,1258.6094 706.7188,1258.9063 L706.7188,1261.625 Q706.0938,1261.0469 705.5,1260.7813 Q704.9063,1260.5 704.2813,1260.5 Q702.9375,1260.5 702.25,1261.5781 Q701.5625,1262.6406 701.5625,1264.7344 Q701.5625,1266.8281 702.25,1267.9063 Q702.9375,1268.9688 704.2813,1268.9688 Q704.9063,1268.9688 705.5,1268.7031 Q706.0938,1268.4219 706.7188,1267.8438 L706.7188,1270.5625 Z " fill="#000000"/><text fill="#000000" font-family="sans-serif" font-size="12" font-style="italic" lengthAdjust="spacing" textLength="74" x="722.25" y="1262.0918">«container»</text><text fill="#000000" font-family="sans-serif" font-size="12" lengthAdjust="spacing" textLength="47" x="735.75" y="1276.0605">options</text><line style="stroke:#A80036;stroke-width:1.5;" x1="539.5" x2="946.5" y1="1283.8906" y2="1283.8906"/><text fill="#000000" font-family="sans-serif" font-size="11" lengthAdjust="spacing" textLength="199" x="544.5" y="1298.1011">retries : uint8 [1..8]   {mandatory}</text><text fill="#000000" font-family="sans-serif" font-size="11" lengthAdjust="spacing" textLength="333" x="544.5" y="1310.9058">retry-delay : uint64 [0..max]   {mandatory} {Milliseconds}</text><text fill="#000000" font-family="sans-serif" font-size="11" lengthAdjust="spacing" textLength="277" x="544.5" y="1323.7104">life-retries : uint8 [0..255]   = 0  {Config : false}</text><text fill="#000000" font-family="sans-serif" font-size="11" lengthAdjust="spacing" textLength="214" x="544.5" y="1336.5151">max-life-retries : uint8 [0..255]   = 16</text><text fill="#000000" font-family="sans-serif" font-size="11" lengthAdjust="spacing" textLength="103" x="544.5" y="1349.3198">username : string</text><text fill="#000000" font-family="sans-serif" font-size="11" lengthAdjust="spacing" textLength="101" x="544.5" y="1362.1245">password : string</text><text fill="#000000" font-family="sans-serif" font-size="11" lengthAdjust="spacing" textLength="397" x="544.5" y="1374.9292">security-protocol : enumeration : {none,basic,digest,}   {mandatory}</text><path d="M994.5,26.9531 L994.5,158.0156 L1341.5,158.0156 L1341.5,36.9531 L1331.5,26.9531 L994.5,26.9531 " fill="#FBFB77" filter="url(#fv0hkkw76vhc6)" style="stroke:#A80036;stroke-width:1.0;"/><path d="M1331.5,26.9531 L1331.5,36.9531 L1341.5,36.9531 L1331.5,26.9531 " fill="#FBFB77" style="stroke:#A80036;stroke-width:1.0;"/><text fill="#000000" font-family="sans-serif" font-size="13" font-weight="bold" lengthAdjust="spacing" textLength="92" x="1000.5" y="44.02">Namespace:</text><text fill="#000000" font-family="sans-serif" font-size="13" lengthAdjust="spacing" textLength="221" x="1101.5" y="44.02">urn:com:vendor:yang:sdnc:pubsub</text><text fill="#000000" font-family="sans-serif" font-size="13" font-weight="bold" lengthAdjust="spacing" textLength="48" x="1000.5" y="59.1528">Prefix:</text><text fill="#000000" font-family="sans-serif" font-size="13" lengthAdjust="spacing" textLength="22" x="1057.5" y="59.1528">cps</text><text fill="#000000" font-family="sans-serif" font-size="13" font-weight="bold" lengthAdjust="spacing" textLength="104" x="1000.5" y="74.2856">Organization :</text><text fill="#000000" font-family="sans-serif" font-size="13" lengthAdjust="spacing" textLength="147" x="1000.5" y="89.4185">Cowdrey Consulting UK</text><text fill="#000000" font-family="sans-serif" font-size="13" font-weight="bold" lengthAdjust="spacing" textLength="67" x="1000.5" y="104.5513">Contact :</text><text fill="#000000" font-family="sans-serif" font-size="13" lengthAdjust="spacing" textLength="109" x="1000.5" y="119.6841">lee@cowdrey.net</text><text fill="#000000" font-family="sans-serif" font-size="13" font-weight="bold" lengthAdjust="spacing" textLength="71" x="1000.5" y="134.8169">Revision :</text><text fill="#000000" font-family="sans-serif" font-size="13" lengthAdjust="spacing" textLength="74" x="1080.5" y="134.8169">2020-12-04</text><text fill="#000000" font-family="sans-serif" font-size="13" lengthAdjust="spacing" textLength="0" x="1004.5" y="149.9497"/><!--MD5=[775f814850646030e945bd4dcfd21c2a]
link GMN5 to cps_sdnc_pubsub--><path d="M1082.36,158.1231 C1017.74,206.9131 933.97,270.1731 896.13,298.7531 " fill="none" id="GMN5-cps_sdnc_pubsub" style="stroke:#A80036;stroke-width:1.0;stroke-dasharray:7.0,7.0;"/><!--MD5=[fb2109ba314b2bbab376f5b20f5c4279]
reverse link c_sdnc to cps_sdnc_pubsub--><path codeLine="21" d="M746.94,131.5331 C781.87,180.9131 841.18,264.7431 865.31,298.8431 " fill="none" id="c_sdnc-backto-cps_sdnc_pubsub" style="stroke:#A80036;stroke-width:1.0;"/><ellipse cx="742.8189" cy="125.7151" fill="#FFFFFF" rx="8" ry="8" style="stroke:#A80036;stroke-width:1.0;"/><line style="stroke:#A80036;stroke-width:1.0;" x1="747.4377" x2="738.2" y1="132.247" y2="119.1831"/><line style="stroke:#A80036;stroke-width:1.0;" x1="736.2869" x2="749.3508" y1="130.3339" y2="121.0962"/><!--MD5=[48913128291fc9415acfe272ab9eed0d]
reverse link inet_ietf_inet_types to cps_sdnc_pubsub--><path codeLine="22" d="M876,134.4031 C876,184.1031 876,265.3931 876,298.8431 " fill="none" id="inet_ietf_inet_types-backto-cps_sdnc_pubsub" style="stroke:#A80036;stroke-width:1.0;"/><ellipse cx="876" cy="127.1831" fill="#FFFFFF" rx="8" ry="8" style="stroke:#A80036;stroke-width:1.0;"/><line style="stroke:#A80036;stroke-width:1.0;" x1="876" x2="876" y1="135.1831" y2="119.1831"/><line style="stroke:#A80036;stroke-width:1.0;" x1="868" x2="884" y1="127.1831" y2="127.1831"/><!--MD5=[2bfb37bb2d5fd14474ffcd1c98942fd1]
reverse link sdnc_pubsub to c_sdnc--><path codeLine="30" d="M414,387.2331 C414,404.9231 414,422.3631 414,434.8231 " fill="none" id="sdnc_pubsub-backto-c_sdnc" style="stroke:#A80036;stroke-width:1.0;"/><polygon fill="#A80036" points="414,374.0531,410,380.0531,414,386.0531,418,380.0531,414,374.0531" style="stroke:#A80036;stroke-width:1.0;"/><!--MD5=[2927b2fbfc1b7d855a12f3e84ebfa2ad]
reverse link c_sdnc to sdnc_I_sdnc_I_pubsub--><path codeLine="35" d="M437.65,483.2831 C451.27,499.5831 467.97,519.5831 479.83,533.7931 " fill="none" id="c_sdnc-backto-sdnc_I_sdnc_I_pubsub" style="stroke:#A80036;stroke-width:1.0;"/><polygon fill="#A80036" points="429.24,473.1931,430.0163,480.3623,436.9326,482.4031,436.1563,475.2339,429.24,473.1931" style="stroke:#A80036;stroke-width:1.0;"/><text fill="#000000" font-family="sans-serif" font-size="13" lengthAdjust="spacing" textLength="8" x="465.9592" y="522.7253">1</text><!--MD5=[c40fa25b047663df362ce232eceedf36]
reverse link sdnc_I_sdnc_I_pubsub to sdnc_I_sdnc_I_pubsub_I_kafka--><path codeLine="37" d="M461.47,579.9731 C440.01,596.6231 412.69,617.8231 393.52,632.7031 " fill="none" id="sdnc_I_sdnc_I_pubsub-backto-sdnc_I_sdnc_I_pubsub_I_kafka" style="stroke:#A80036;stroke-width:1.0;"/><polygon fill="#A80036" points="471.78,571.9731,464.5876,572.4917,462.3,579.3304,469.4924,578.8118,471.78,571.9731" style="stroke:#A80036;stroke-width:1.0;"/><text fill="#000000" font-family="sans-serif" font-size="13" lengthAdjust="spacing" textLength="8" x="391.254" y="621.9409">1</text><!--MD5=[c6a486225c6c486956dc95c26f30af4c]
reverse link sdnc_I_sdnc_I_pubsub_I_kafka to sdnc_I_sdnc_I_pubsub_I_kafka_I_brokers--><path codeLine="39" d="M356.16,683.4431 C346.16,705.4531 331.93,736.8131 317.43,768.7531 " fill="none" id="sdnc_I_sdnc_I_pubsub_I_kafka-backto-sdnc_I_sdnc_I_pubsub_I_kafka_I_brokers" style="stroke:#A80036;stroke-width:1.0;"/><polygon fill="#A80036" points="361.66,671.3331,355.535,675.139,356.6924,682.2566,362.8174,678.4507,361.66,671.3331" style="stroke:#A80036;stroke-width:1.0;"/><text fill="#000000" font-family="sans-serif" font-size="13" lengthAdjust="spacing" textLength="26" x="294.0564" y="757.8974">0..N</text><!--MD5=[70b7d2e34fb5afd586a86e9605f055f3]
reverse link sdnc_I_sdnc_I_pubsub to sdnc_I_sdnc_I_pubsub_I_listener--><path codeLine="57" d="M495,585.5931 C495,619.7931 495,673.1131 495,700.8331 " fill="none" id="sdnc_I_sdnc_I_pubsub-backto-sdnc_I_sdnc_I_pubsub_I_listener" style="stroke:#A80036;stroke-width:1.0;"/><polygon fill="#A80036" points="495,572.2431,491,578.2431,495,584.2431,499,578.2431,495,572.2431" style="stroke:#A80036;stroke-width:1.0;"/><text fill="#000000" font-family="sans-serif" font-size="13" lengthAdjust="spacing" textLength="8" x="485.775" y="689.7776">1</text><!--MD5=[356437a437b85f0a1bdae3cd45dca25c]
reverse link sdnc_I_sdnc_I_pubsub_I_listener to sdnc_I_sdnc_I_pubsub_I_listener_I_notifications--><path codeLine="59" d="M500.79,751.9931 C509.99,809.7831 522.58,936.3131 477,1027.9531 C460.41,1061.2931 429.5,1088.8631 401.32,1108.7531 " fill="none" id="sdnc_I_sdnc_I_pubsub_I_listener-backto-sdnc_I_sdnc_I_pubsub_I_listener_I_notifications" style="stroke:#A80036;stroke-width:1.0;"/><polygon fill="#A80036" points="498.62,739.1531,495.6774,745.7365,500.6227,750.9848,503.5652,744.4014,498.62,739.1531" style="stroke:#A80036;stroke-width:1.0;"/><text fill="#000000" font-family="sans-serif" font-size="13" lengthAdjust="spacing" textLength="26" x="384.0446" y="1097.8168">0..N</text><!--MD5=[aa7324a183c937bee5abae5f9da2fcc2]
reverse link sdnc_I_sdnc_I_pubsub to sdnc_I_sdnc_I_pubsub_I_subscriptions--><path codeLine="63" d="M537.49,578.6331 C566.6,595.5431 604.55,617.5831 630.86,632.8631 " fill="none" id="sdnc_I_sdnc_I_pubsub-backto-sdnc_I_sdnc_I_pubsub_I_subscriptions" style="stroke:#A80036;stroke-width:1.0;"/><polygon fill="#A80036" points="526.02,571.9731,529.2,578.4452,536.3973,577.9991,533.2173,571.527,526.02,571.9731" style="stroke:#A80036;stroke-width:1.0;"/><text fill="#000000" font-family="sans-serif" font-size="13" lengthAdjust="spacing" textLength="8" x="612.0984" y="621.8167">1</text><!--MD5=[5f45e7c802eae9e462163de2e45823e6]
reverse link sdnc_I_sdnc_I_pubsub_I_subscriptions to sdnc_I_sdnc_I_pubsub_I_subscriptions_I_subscription--><path codeLine="65" d="M671.35,683.8531 C685.8,731.6031 713.36,822.6531 727.37,868.9331 " fill="none" id="sdnc_I_sdnc_I_pubsub_I_subscriptions-backto-sdnc_I_sdnc_I_pubsub_I_subscriptions_I_subscription" style="stroke:#A80036;stroke-width:1.0;"/><polygon fill="#A80036" points="667.56,671.3331,665.4724,678.2354,671.0408,682.8172,673.1284,675.9149,667.56,671.3331" style="stroke:#A80036;stroke-width:1.0;"/><text fill="#000000" font-family="sans-serif" font-size="13" lengthAdjust="spacing" textLength="26" x="696.6384" y="857.9446">0..N</text><!--MD5=[822b1b9f56be38f0233ea3a57e4eca8f]
reverse link sdnc_I_sdnc_I_pubsub_I_subscriptions_I_subscription to sdnc_I_sdnc_I_pubsub_I_subscriptions_I_subscription_I_consumers--><path codeLine="68" d="M737.2,941.2631 C738.51,987.0731 740.6,1059.9831 741.88,1104.7431 " fill="none" id="sdnc_I_sdnc_I_pubsub_I_subscriptions_I_subscription-backto-sdnc_I_sdnc_I_pubsub_I_subscriptions_I_subscription_I_consumers" style="stroke:#A80036;stroke-width:1.0;"/><polygon fill="#A80036" points="736.82,927.9831,732.993,934.0949,737.1627,939.9782,740.9897,933.8664,736.82,927.9831" style="stroke:#A80036;stroke-width:1.0;"/><text fill="#000000" font-family="sans-serif" font-size="13" lengthAdjust="spacing" textLength="26" x="713.5414" y="1093.9566">0..N</text><!--MD5=[7303aeb3096d4152f0ba55325f0dc996]
reverse link sdnc_I_sdnc_I_pubsub_I_subscriptions_I_subscription_I_consumers to sdnc_I_sdnc_I_pubsub_I_subscriptions_I_subscription_I_consumers_I_options--><path codeLine="77" d="M743,1198.4331 C743,1213.4931 743,1230.1231 743,1245.9331 " fill="none" id="sdnc_I_sdnc_I_pubsub_I_subscriptions_I_subscription_I_consumers-backto-sdnc_I_sdnc_I_pubsub_I_subscriptions_I_subscription_I_consumers_I_options" style="stroke:#A80036;stroke-width:1.0;"/><polygon fill="#A80036" points="743,1185.1031,739,1191.1031,743,1197.1031,747,1191.1031,743,1185.1031" style="stroke:#A80036;stroke-width:1.0;"/><text fill="#000000" font-family="sans-serif" font-size="13" lengthAdjust="spacing" textLength="8" x="734.5625" y="1234.7708">1</text><!--MD5=[786760296f27bafbd6901a6260fe1369]
link sdnc_I_sdnc_I_pubsub_I_subscriptions_I_subscription to sdnc_I_sdnc_I_pubsub_I_listener_I_notifications--><path codeLine="87" d="M703.63,928.0831 C660.38,965.3331 580.3,1030.8531 504,1074.9531 C483.76,1086.6531 461.15,1097.4931 439.37,1106.9531 " fill="none" id="sdnc_I_sdnc_I_pubsub_I_subscriptions_I_subscription-to-sdnc_I_sdnc_I_pubsub_I_listener_I_notifications" style="stroke:#A80036;stroke-width:1.0;"/><polygon fill="#A80036" points="434.73,1108.9531,444.5784,1109.0475,439.3183,1106.9663,441.3995,1101.7062,434.73,1108.9531" style="stroke:#A80036;stroke-width:1.0;"/><text fill="#000000" font-family="sans-serif" font-size="13" lengthAdjust="spacing" textLength="106" x="532" y="1071.02">yang-notification</text><text fill="#000000" font-family="sans-serif" font-size="13" lengthAdjust="spacing" textLength="106" x="462.7004" y="1097.7837">yang-notification</text><text fill="#888888" font-family="sans-serif" font-size="24" lengthAdjust="spacing" textLength="280" x="527.75" y="1434.2305">Cowdrey Consulting UK</text><!--MD5=[ea7f254e48627fb67e069ed85f15ef78]
@startuml img/sdnc-pubsub.png 
hide empty fields 
hide empty methods 
hide <<case>> circle
hide <<augment>> circle
hide <<choice>> circle
hide <<leafref>> stereotype
hide <<leafref>> circle
page 1x1 
Title sdnc-pubsub 
package "c:sdnc" as c_sdnc { 
} 
package "inet:ietf-inet-types" as inet_ietf_inet_types { 
} 
note top of cps_sdnc_pubsub : <b>Namespace: </b> urn:com:vendor:yang:sdnc:pubsub \n<b>Prefix: </b> cps \n<b>Organization : </b>\nCowdrey Consulting UK \n<b>Contact : </b>\nlee@cowdrey.net \n<b>Revision : </b> 2020-12-04 \n
package "cps:sdnc-pubsub" as cps_sdnc_pubsub { 
c_sdnc +- - cps_sdnc_pubsub
inet_ietf_inet_types +- - cps_sdnc_pubsub
class "sdnc-pubsub" as sdnc_pubsub << (M, #33CCFF) module>> 
sdnc_pubsub : feature : sdnc_pubsub 
sdnc_pubsub : listen( in: yang_notification)
sdnc_pubsub : publish( in: yang_notification in: data)
sdnc_pubsub : subscribe( in: retries in: retry_delay in: max_life_retries in: username in: password in: security_protocol in: subscriptions)
sdnc_pubsub : kafka-broker-register( in: brokers)
class "/c:sdnc" as c_sdnc << (A,CadetBlue) augment>>
sdnc_pubsub *- -  c_sdnc 
note bottom of c_sdnc
<b>if-feature: </b>c:sdnc
end note 
class "pubsub" as  sdnc_I_sdnc_I_pubsub <<container>> 
c_sdnc *- - "1" sdnc_I_sdnc_I_pubsub 
class "kafka" as  sdnc_I_sdnc_I_pubsub_I_kafka <<container>> 
sdnc_I_sdnc_I_pubsub *- - "1" sdnc_I_sdnc_I_pubsub_I_kafka 
class "brokers" as sdnc_I_sdnc_I_pubsub_I_kafka_I_brokers << (L, #FF7700) list>> 
sdnc_I_sdnc_I_pubsub_I_kafka *- - "0..N" sdnc_I_sdnc_I_pubsub_I_kafka_I_brokers 
sdnc_I_sdnc_I_pubsub_I_kafka_I_brokers : +host : inet:host  {key} 
sdnc_I_sdnc_I_pubsub_I_kafka_I_brokers : +port : inet:port-number  {key} 
sdnc_I_sdnc_I_pubsub_I_kafka_I_brokers : unregister()
sdnc_I_sdnc_I_pubsub_I_kafka_I_brokers : client-id : string   = sdnc 
sdnc_I_sdnc_I_pubsub_I_kafka_I_brokers : retries : uint8 [0..8]   {mandatory}
sdnc_I_sdnc_I_pubsub_I_kafka_I_brokers : retry-delay : uint64 [0..max]   = 10000  {Milliseconds}
sdnc_I_sdnc_I_pubsub_I_kafka_I_brokers : username : string  
sdnc_I_sdnc_I_pubsub_I_kafka_I_brokers : password : string  
sdnc_I_sdnc_I_pubsub_I_kafka_I_brokers : security-protocol : enumeration : {none,basic,digest,...}   = none 
sdnc_I_sdnc_I_pubsub_I_kafka_I_brokers : acks : enumeration : {all,0,1,}   = 1 
sdnc_I_sdnc_I_pubsub_I_kafka_I_brokers : linger : uint64 [0..max]   = 0  {Milliseconds}
sdnc_I_sdnc_I_pubsub_I_kafka_I_brokers : batch-size : uint64 [0..max]   = 16  {KB}
sdnc_I_sdnc_I_pubsub_I_kafka_I_brokers : buffer-memory : uint64 [0..max]   = 32  {MB}
sdnc_I_sdnc_I_pubsub_I_kafka_I_brokers : max-request-size : uint64 [0..max]   = 1  {MB}
sdnc_I_sdnc_I_pubsub_I_kafka_I_brokers : max-inflight-requests-per-connection : uint8 [1..255]   = 5 
sdnc_I_sdnc_I_pubsub_I_kafka_I_brokers : compression-method : enumeration : {none,gzip,lz4,...}   = none 
class "listener" as  sdnc_I_sdnc_I_pubsub_I_listener <<container>> 
sdnc_I_sdnc_I_pubsub *- - "1" sdnc_I_sdnc_I_pubsub_I_listener 
class "notifications" as sdnc_I_sdnc_I_pubsub_I_listener_I_notifications << (L, #FF7700) list>> 
sdnc_I_sdnc_I_pubsub_I_listener *- - "0..N" sdnc_I_sdnc_I_pubsub_I_listener_I_notifications 
sdnc_I_sdnc_I_pubsub_I_listener_I_notifications : +yang-notification : string {pattern = (\()?([A-Za-z_][A-Za...}  {key}  {mandatory}
sdnc_I_sdnc_I_pubsub_I_listener_I_notifications : unlisten()
class "subscriptions" as  sdnc_I_sdnc_I_pubsub_I_subscriptions <<container>> 
sdnc_I_sdnc_I_pubsub *- - "1" sdnc_I_sdnc_I_pubsub_I_subscriptions 
class "subscription" as sdnc_I_sdnc_I_pubsub_I_subscriptions_I_subscription << (L, #FF7700) list>> 
sdnc_I_sdnc_I_pubsub_I_subscriptions *- - "0..N" sdnc_I_sdnc_I_pubsub_I_subscriptions_I_subscription 
sdnc_I_sdnc_I_pubsub_I_subscriptions_I_subscription : +yang-notification : leafref : ...yang-notification  {key}  {mandatory}
class "consumers" as sdnc_I_sdnc_I_pubsub_I_subscriptions_I_subscription_I_consumers << (L, #FF7700) list>> 
sdnc_I_sdnc_I_pubsub_I_subscriptions_I_subscription *- - "0..N" sdnc_I_sdnc_I_pubsub_I_subscriptions_I_subscription_I_consumers 
sdnc_I_sdnc_I_pubsub_I_subscriptions_I_subscription_I_consumers : +endpoint : inet:uri  {key}  {mandatory}
note bottom of sdnc_I_sdnc_I_pubsub_I_subscriptions_I_subscription_I_consumers
<b>Must</b> (endpoint):
starts-with(current(),'http:') or starts-with(current(),'https:')

end note 
sdnc_I_sdnc_I_pubsub_I_subscriptions_I_subscription_I_consumers : unsubscribe()
class "options" as  sdnc_I_sdnc_I_pubsub_I_subscriptions_I_subscription_I_consumers_I_options <<container>> 
sdnc_I_sdnc_I_pubsub_I_subscriptions_I_subscription_I_consumers *- - "1" sdnc_I_sdnc_I_pubsub_I_subscriptions_I_subscription_I_consumers_I_options 
sdnc_I_sdnc_I_pubsub_I_subscriptions_I_subscription_I_consumers_I_options : retries : uint8 [1..8]   {mandatory}
sdnc_I_sdnc_I_pubsub_I_subscriptions_I_subscription_I_consumers_I_options : retry-delay : uint64 [0..max]   {mandatory} {Milliseconds}
sdnc_I_sdnc_I_pubsub_I_subscriptions_I_subscription_I_consumers_I_options : life-retries : uint8 [0..255]   = 0  {Config : false}
sdnc_I_sdnc_I_pubsub_I_subscriptions_I_subscription_I_consumers_I_options : max-life-retries : uint8 [0..255]   = 16 
sdnc_I_sdnc_I_pubsub_I_subscriptions_I_subscription_I_consumers_I_options : username : string  
sdnc_I_sdnc_I_pubsub_I_subscriptions_I_subscription_I_consumers_I_options : password : string  
sdnc_I_sdnc_I_pubsub_I_subscriptions_I_subscription_I_consumers_I_options : security-protocol : enumeration : {none,basic,digest,}   {mandatory}
} 

sdnc_I_sdnc_I_pubsub_I_subscriptions_I_subscription- ->"yang-notification"sdnc_I_sdnc_I_pubsub_I_listener_I_notifications: yang-notification
center footer
 <size:24> Cowdrey Consulting UK </size>
 endfooter 
@enduml

PlantUML version 1.2021.8(Sat Jun 26 09:20:59 BST 2021)
(APACHE source distribution)
Java Runtime: OpenJDK Runtime Environment
JVM: OpenJDK 64-Bit Server VM
Default Encoding: UTF-8
Language: en
Country: GB
--></g></svg>