<?xml version="1.0" encoding="UTF-8" standalone="no"?><svg xmlns="http://www.w3.org/2000/svg" xmlns:xlink="http://www.w3.org/1999/xlink" contentScriptType="application/ecmascript" contentStyleType="text/css" height="548px" preserveAspectRatio="none" style="width:580px;height:548px;background:#FFFFFF;" version="1.1" viewBox="0 0 580 548" width="580px" zoomAndPan="magnify"><defs><filter height="300%" id="f1vdg71n7hcj69" width="300%" x="-1" y="-1"><feGaussianBlur result="blurOut" stdDeviation="2.0"/><feColorMatrix in="blurOut" result="blurOut2" type="matrix" values="0 0 0 0 0 0 0 0 0 0 0 0 0 0 0 0 0 0 .4 0"/><feOffset dx="4.0" dy="4.0" in="blurOut2" result="blurOut3"/><feBlend in="SourceGraphic" in2="blurOut3" mode="normal"/></filter></defs><g><text fill="#000000" font-family="sans-serif" font-size="18" lengthAdjust="spacing" textLength="39" x="267" y="16.708">sdnc</text><!--MD5=[e2631f6b4e4f7a2ec926a81467e1c1e4]
cluster c_sdnc--><polygon fill="#FFFFFF" filter="url(#f1vdg71n7hcj69)" points="258.5,181.9531,317.5,181.9531,324.5,204.25,456.5,204.25,456.5,511.9531,258.5,511.9531,258.5,181.9531" style="stroke:#000000;stroke-width:1.5;"/><line style="stroke:#000000;stroke-width:1.5;" x1="258.5" x2="324.5" y1="204.25" y2="204.25"/><text fill="#000000" font-family="sans-serif" font-size="14" font-weight="bold" lengthAdjust="spacing" textLength="53" x="262.5" y="196.9482">c:sdnc</text><!--MD5=[f8cf7f7c63dd9f842d1ab927175f2d25]
class sdnc--><rect codeLine="17" fill="#FEFECE" filter="url(#f1vdg71n7hcj69)" height="79.5469" id="sdnc" style="stroke:#A80036;stroke-width:1.5;" width="114" x="304.5" y="224.9531"/><ellipse cx="331.2" cy="243.9219" fill="#33CCFF" rx="11" ry="11" style="stroke:#A80036;stroke-width:1.0;"/><path d="M326.9188,237.5313 L329.8406,237.5313 L331.3094,242.9688 L332.7781,237.5313 L335.7156,237.5313 L335.7156,249.9219 L333.6063,249.9219 L333.6063,240 L332.2938,245.4219 L330.3563,245.4219 L329.0281,240 L329.0281,249.9219 L326.9188,249.9219 L326.9188,237.5313 Z " fill="#000000"/><text fill="#000000" font-family="sans-serif" font-size="12" font-style="italic" lengthAdjust="spacing" textLength="60" x="345.8" y="241.0918">«module»</text><text fill="#000000" font-family="sans-serif" font-size="12" lengthAdjust="spacing" textLength="30" x="360.8" y="255.0605">sdnc</text><line style="stroke:#A80036;stroke-width:1.5;" x1="305.5" x2="417.5" y1="262.8906" y2="262.8906"/><text fill="#000000" font-family="sans-serif" font-size="11" lengthAdjust="spacing" textLength="80" x="310.5" y="277.1011">feature : sdnc</text><line style="stroke:#A80036;stroke-width:1.5;" x1="305.5" x2="417.5" y1="283.6953" y2="283.6953"/><text fill="#000000" font-family="sans-serif" font-size="11" lengthAdjust="spacing" textLength="102" x="310.5" y="297.9058">about( out: about)</text><!--MD5=[e99bf5199021094a74f6075f241602fd]
class sdnc_I_sdnc--><rect codeLine="20" fill="#FEFECE" filter="url(#f1vdg71n7hcj69)" height="37.9375" id="sdnc_I_sdnc" style="stroke:#A80036;stroke-width:1.5;" width="102" x="310.5" y="364.9531"/><ellipse cx="325.5" cy="383.9219" fill="#ADD1B2" rx="11" ry="11" style="stroke:#A80036;stroke-width:1.0;"/><path d="M328.4688,389.5625 Q327.8906,389.8594 327.25,390 Q326.6094,390.1563 325.9063,390.1563 Q323.4063,390.1563 322.0781,388.5156 Q320.7656,386.8594 320.7656,383.7344 Q320.7656,380.6094 322.0781,378.9531 Q323.4063,377.2969 325.9063,377.2969 Q326.6094,377.2969 327.25,377.4531 Q327.9063,377.6094 328.4688,377.9063 L328.4688,380.625 Q327.8438,380.0469 327.25,379.7813 Q326.6563,379.5 326.0313,379.5 Q324.6875,379.5 324,380.5781 Q323.3125,381.6406 323.3125,383.7344 Q323.3125,385.8281 324,386.9063 Q324.6875,387.9688 326.0313,387.9688 Q326.6563,387.9688 327.25,387.7031 Q327.8438,387.4219 328.4688,386.8438 L328.4688,389.5625 Z " fill="#000000"/><text fill="#000000" font-family="sans-serif" font-size="12" font-style="italic" lengthAdjust="spacing" textLength="74" x="337.5" y="381.0918">«container»</text><text fill="#000000" font-family="sans-serif" font-size="12" lengthAdjust="spacing" textLength="30" x="359.5" y="395.0605">sdnc</text><path d="M291,462.9531 L291,488.0859 A0,0 0 0 0 291,488.0859 L432,488.0859 A0,0 0 0 0 432,488.0859 L432,472.9531 L422,462.9531 L365.5,462.9531 L361.5,403.0631 L357.5,462.9531 L291,462.9531 A0,0 0 0 0 291,462.9531 " fill="#FBFB77" filter="url(#f1vdg71n7hcj69)" style="stroke:#A80036;stroke-width:1.0;"/><path d="M422,462.9531 L422,472.9531 L432,472.9531 L422,462.9531 " fill="#FBFB77" style="stroke:#A80036;stroke-width:1.0;"/><text fill="#000000" font-family="sans-serif" font-size="13" font-weight="bold" lengthAdjust="spacing" textLength="74" x="297" y="480.02">if-feature:</text><text fill="#000000" font-family="sans-serif" font-size="13" lengthAdjust="spacing" textLength="41" x="376" y="480.02">c:sdnc</text><path d="M118.5,26.9531 L118.5,158.0156 L414.5,158.0156 L414.5,36.9531 L404.5,26.9531 L118.5,26.9531 " fill="#FBFB77" filter="url(#f1vdg71n7hcj69)" style="stroke:#A80036;stroke-width:1.0;"/><path d="M404.5,26.9531 L404.5,36.9531 L414.5,36.9531 L404.5,26.9531 " fill="#FBFB77" style="stroke:#A80036;stroke-width:1.0;"/><text fill="#000000" font-family="sans-serif" font-size="13" font-weight="bold" lengthAdjust="spacing" textLength="92" x="124.5" y="44.02">Namespace:</text><text fill="#000000" font-family="sans-serif" font-size="13" lengthAdjust="spacing" textLength="170" x="225.5" y="44.02">urn:com:vendor:yang:sdnc</text><text fill="#000000" font-family="sans-serif" font-size="13" font-weight="bold" lengthAdjust="spacing" textLength="48" x="124.5" y="59.1528">Prefix:</text><text fill="#000000" font-family="sans-serif" font-size="13" lengthAdjust="spacing" textLength="7" x="181.5" y="59.1528">c</text><text fill="#000000" font-family="sans-serif" font-size="13" font-weight="bold" lengthAdjust="spacing" textLength="104" x="124.5" y="74.2856">Organization :</text><text fill="#000000" font-family="sans-serif" font-size="13" lengthAdjust="spacing" textLength="147" x="124.5" y="89.4185">Cowdrey Consulting UK</text><text fill="#000000" font-family="sans-serif" font-size="13" font-weight="bold" lengthAdjust="spacing" textLength="67" x="124.5" y="104.5513">Contact :</text><text fill="#000000" font-family="sans-serif" font-size="13" lengthAdjust="spacing" textLength="109" x="124.5" y="119.6841">lee@cowdrey.net</text><text fill="#000000" font-family="sans-serif" font-size="13" font-weight="bold" lengthAdjust="spacing" textLength="71" x="124.5" y="134.8169">Revision :</text><text fill="#000000" font-family="sans-serif" font-size="13" lengthAdjust="spacing" textLength="74" x="204.5" y="134.8169">2020-12-04</text><text fill="#000000" font-family="sans-serif" font-size="13" lengthAdjust="spacing" textLength="0" x="128.5" y="149.9497"/><!--MD5=[0070352d58c898df500b0f99030e42fd]
link GMN3 to c_sdnc--><path d="M266.5,158.4031 C266.5,164.2369 266.5,170.2055 266.5,176.1907 C266.5,177.687 266.5,179.1844 266.5,180.6809 C266.5,181.055 266.5,181.4291 266.5,181.8031 " fill="none" id="GMN3-c_sdnc" style="stroke:#A80036;stroke-width:1.0;stroke-dasharray:7.0,7.0;"/><!--MD5=[b99f7e052fe537caec46a4601982bea2]
reverse link sdnc to sdnc_I_sdnc--><path codeLine="21" d="M361.5,318.3631 C361.5,335.0331 361.5,352.3731 361.5,364.8931 " fill="none" id="sdnc-backto-sdnc_I_sdnc" style="stroke:#A80036;stroke-width:1.0;"/><polygon fill="#A80036" points="361.5,305.2331,357.5,311.2331,361.5,317.2331,365.5,311.2331,361.5,305.2331" style="stroke:#A80036;stroke-width:1.0;"/><text fill="#000000" font-family="sans-serif" font-size="13" lengthAdjust="spacing" textLength="8" x="352.275" y="353.8559">1</text><text fill="#888888" font-family="sans-serif" font-size="24" lengthAdjust="spacing" textLength="557" x="8" y="540.2305">CommScope © 2020-2022 All Rights Reserved</text><!--MD5=[3354a3211b23b958d090d942a17bbc95]
@startuml img/sdnc.png 
hide empty fields 
hide empty methods 
hide <<case>> circle
hide <<augment>> circle
hide <<choice>> circle
hide <<leafref>> stereotype
hide <<leafref>> circle
page 1x1 
Title sdnc 
note top of c_sdnc : <b>Namespace: </b> urn:com:vendor:yang:sdnc \n<b>Prefix: </b> c \n<b>Organization : </b>\nCowdrey Consulting UK \n<b>Contact : </b>\nlee@cowdrey.net \n<b>Revision : </b> 2020-12-04 \n
package "c:sdnc" as c_sdnc { 
class "sdnc" as sdnc << (M, #33CCFF) module>> 
sdnc : feature : sdnc 
sdnc : about( out: about)
class "sdnc" as  sdnc_I_sdnc <<container>> 
sdnc *- - "1" sdnc_I_sdnc 
note bottom of sdnc_I_sdnc
<b>if-feature: </b>c:sdnc
end note 
} 

center footer
 <size:24> CommScope © 2020-2022 All Rights Reserved </size>
 endfooter 
@enduml

PlantUML version 1.2021.8(Sat Jun 26 09:20:59 BST 2021)
(APACHE source distribution)
Java Runtime: OpenJDK Runtime Environment
JVM: OpenJDK 64-Bit Server VM
Default Encoding: UTF-8
Language: en
Country: GB
--></g></svg>