<?xml version="1.0" encoding="UTF-8" standalone="no"?><svg xmlns="http://www.w3.org/2000/svg" xmlns:xlink="http://www.w3.org/1999/xlink" contentScriptType="application/ecmascript" contentStyleType="text/css" height="1104px" preserveAspectRatio="none" style="width:1780px;height:1104px;background:#FFFFFF;" version="1.1" viewBox="0 0 1780 1104" width="1780px" zoomAndPan="magnify"><defs><filter height="300%" id="f1llbt2k6rngq4" width="300%" x="-1" y="-1"><feGaussianBlur result="blurOut" stdDeviation="2.0"/><feColorMatrix in="blurOut" result="blurOut2" type="matrix" values="0 0 0 0 0 0 0 0 0 0 0 0 0 0 0 0 0 0 .4 0"/><feOffset dx="4.0" dy="4.0" in="blurOut2" result="blurOut3"/><feBlend in="SourceGraphic" in2="blurOut3" mode="normal"/></filter></defs><g><text fill="#000000" font-family="sans-serif" font-size="18" lengthAdjust="spacing" textLength="124" x="820.75" y="16.708">sdnc-topology</text><!--MD5=[7004cd03263e9c20a8a1a88f82f9cb64]
cluster ctop_sdnc_topology--><polygon fill="#FFFFFF" filter="url(#f1llbt2k6rngq4)" points="16,212.9531,176,212.9531,183,235.25,1216,235.25,1216,1067.9531,16,1067.9531,16,212.9531" style="stroke:#000000;stroke-width:1.5;"/><line style="stroke:#000000;stroke-width:1.5;" x1="16" x2="183" y1="235.25" y2="235.25"/><text fill="#000000" font-family="sans-serif" font-size="14" font-weight="bold" lengthAdjust="spacing" textLength="154" x="20" y="227.9482">ctop:sdnc-topology</text><polygon fill="#FFFFFF" filter="url(#f1llbt2k6rngq4)" points="566.5,65.9531,625.5,65.9531,632.5,88.25,639.5,88.25,639.5,118.5469,566.5,118.5469,566.5,65.9531" style="stroke:#000000;stroke-width:1.5;"/><line style="stroke:#000000;stroke-width:1.5;" x1="566.5" x2="632.5" y1="88.25" y2="88.25"/><text fill="#000000" font-family="sans-serif" font-size="14" font-weight="bold" lengthAdjust="spacing" textLength="53" x="570.5" y="80.9482">c:sdnc</text><polygon fill="#FFFFFF" filter="url(#f1llbt2k6rngq4)" points="674.5,65.9531,789.5,65.9531,796.5,88.25,803.5,88.25,803.5,118.5469,674.5,118.5469,674.5,65.9531" style="stroke:#000000;stroke-width:1.5;"/><line style="stroke:#000000;stroke-width:1.5;" x1="674.5" x2="796.5" y1="88.25" y2="88.25"/><text fill="#000000" font-family="sans-serif" font-size="14" font-weight="bold" lengthAdjust="spacing" textLength="109" x="678.5" y="80.9482">ct:sdnc-types</text><polygon fill="#FFFFFF" filter="url(#f1llbt2k6rngq4)" points="839,65.9531,945,65.9531,952,88.25,959,88.25,959,118.5469,839,118.5469,839,65.9531" style="stroke:#000000;stroke-width:1.5;"/><line style="stroke:#000000;stroke-width:1.5;" x1="839" x2="952" y1="88.25" y2="88.25"/><text fill="#000000" font-family="sans-serif" font-size="14" font-weight="bold" lengthAdjust="spacing" textLength="100" x="843" y="80.9482">cnf:sdnc-xnf</text><polygon fill="#FFFFFF" filter="url(#f1llbt2k6rngq4)" points="994,65.9531,1164,65.9531,1171,88.25,1178,88.25,1178,118.5469,994,118.5469,994,65.9531" style="stroke:#000000;stroke-width:1.5;"/><line style="stroke:#000000;stroke-width:1.5;" x1="994" x2="1171" y1="88.25" y2="88.25"/><text fill="#000000" font-family="sans-serif" font-size="14" font-weight="bold" lengthAdjust="spacing" textLength="164" x="998" y="80.9482">yang:ietf-yang-types</text><polygon fill="#FFFFFF" filter="url(#f1llbt2k6rngq4)" points="1213,65.9531,1367,65.9531,1374,88.25,1381,88.25,1381,118.5469,1213,118.5469,1213,65.9531" style="stroke:#000000;stroke-width:1.5;"/><line style="stroke:#000000;stroke-width:1.5;" x1="1213" x2="1374" y1="88.25" y2="88.25"/><text fill="#000000" font-family="sans-serif" font-size="14" font-weight="bold" lengthAdjust="spacing" textLength="148" x="1217" y="80.9482">inet:ietf-inet-types</text><!--MD5=[2061365c9025b7a09911cf3acba7c03a]
class ctop_sdnc_topology--><rect fill="#FEFECE" filter="url(#f1llbt2k6rngq4)" height="32" id="ctop_sdnc_topology" style="stroke:#A80036;stroke-width:1.5;" width="156" x="914" y="285.9531"/><ellipse cx="929" cy="301.9531" fill="#ADD1B2" rx="11" ry="11" style="stroke:#A80036;stroke-width:1.0;"/><path d="M931.9688,307.5938 Q931.3906,307.8906 930.75,308.0313 Q930.1094,308.1875 929.4063,308.1875 Q926.9063,308.1875 925.5781,306.5469 Q924.2656,304.8906 924.2656,301.7656 Q924.2656,298.6406 925.5781,296.9844 Q926.9063,295.3281 929.4063,295.3281 Q930.1094,295.3281 930.75,295.4844 Q931.4063,295.6406 931.9688,295.9375 L931.9688,298.6563 Q931.3438,298.0781 930.75,297.8125 Q930.1563,297.5313 929.5313,297.5313 Q928.1875,297.5313 927.5,298.6094 Q926.8125,299.6719 926.8125,301.7656 Q926.8125,303.8594 927.5,304.9375 Q928.1875,306 929.5313,306 Q930.1563,306 930.75,305.7344 Q931.3438,305.4531 931.9688,304.875 L931.9688,307.5938 Z " fill="#000000"/><text fill="#000000" font-family="sans-serif" font-size="12" lengthAdjust="spacing" textLength="124" x="943" y="306.1074">ctop_sdnc_topology</text><!--MD5=[1811549d8e88d59a930a97225cf1c59a]
class sdnc_topology--><rect codeLine="32" fill="#FEFECE" filter="url(#f1llbt2k6rngq4)" height="92.3516" id="sdnc_topology" style="stroke:#A80036;stroke-width:1.5;" width="681" x="77.5" y="255.9531"/><ellipse cx="369.75" cy="274.9219" fill="#33CCFF" rx="11" ry="11" style="stroke:#A80036;stroke-width:1.0;"/><path d="M365.4688,268.5313 L368.3906,268.5313 L369.8594,273.9688 L371.3281,268.5313 L374.2656,268.5313 L374.2656,280.9219 L372.1563,280.9219 L372.1563,271 L370.8438,276.4219 L368.9063,276.4219 L367.5781,271 L367.5781,280.9219 L365.4688,280.9219 L365.4688,268.5313 Z " fill="#000000"/><text fill="#000000" font-family="sans-serif" font-size="12" font-style="italic" lengthAdjust="spacing" textLength="60" x="404.25" y="272.0918">«module»</text><text fill="#000000" font-family="sans-serif" font-size="12" lengthAdjust="spacing" textLength="88" x="390.25" y="286.0605">sdnc-topology</text><line style="stroke:#A80036;stroke-width:1.5;" x1="78.5" x2="757.5" y1="293.8906" y2="293.8906"/><text fill="#000000" font-family="sans-serif" font-size="11" lengthAdjust="spacing" textLength="134" x="83.5" y="308.1011">feature : sdnc_topology</text><line style="stroke:#A80036;stroke-width:1.5;" x1="78.5" x2="757.5" y1="314.6953" y2="314.6953"/><text fill="#000000" font-family="sans-serif" font-size="11" lengthAdjust="spacing" textLength="179" x="83.5" y="328.9058">is-known( in: link_id out: exists)</text><text fill="#000000" font-family="sans-serif" font-size="11" lengthAdjust="spacing" textLength="669" x="83.5" y="341.7104">define-link( in: topology_base_class in: leader_link_id in: topology_service_class in: source in: destination out: link_id)</text><!--MD5=[4809cd8887ed0c9491cd832576b7355c]
class c_sdnc--><rect codeLine="36" fill="#FEFECE" filter="url(#f1llbt2k6rngq4)" height="37.9375" id="c_sdnc" style="stroke:#A80036;stroke-width:1.5;" width="98" x="369" y="408.9531"/><ellipse cx="384" cy="427.9219" fill="#5F9EA0" rx="11" ry="11" style="stroke:#A80036;stroke-width:1.0;"/><path d="M384.1094,423.2656 L382.9531,428.3438 L385.2813,428.3438 L384.1094,423.2656 Z M382.625,421.0313 L385.6094,421.0313 L388.9688,433.4219 L386.5156,433.4219 L385.75,430.3594 L382.4688,430.3594 L381.7188,433.4219 L379.2813,433.4219 L382.625,421.0313 Z " fill="#000000"/><text fill="#000000" font-family="sans-serif" font-size="12" font-style="italic" lengthAdjust="spacing" textLength="70" x="396" y="425.0918">«augment»</text><text fill="#000000" font-family="sans-serif" font-size="12" lengthAdjust="spacing" textLength="45" x="408.5" y="439.0605">/c:sdnc</text><path d="M271.5,514.4531 L271.5,539.5859 A0,0 0 0 0 271.5,539.5859 L412.5,539.5859 A0,0 0 0 0 412.5,539.5859 L412.5,524.4531 L402.5,514.4531 L355.21,514.4531 L403.7,447.1931 L347.21,514.4531 L271.5,514.4531 A0,0 0 0 0 271.5,514.4531 " fill="#FBFB77" filter="url(#f1llbt2k6rngq4)" style="stroke:#A80036;stroke-width:1.0;"/><path d="M402.5,514.4531 L402.5,524.4531 L412.5,524.4531 L402.5,514.4531 " fill="#FBFB77" style="stroke:#A80036;stroke-width:1.0;"/><text fill="#000000" font-family="sans-serif" font-size="13" font-weight="bold" lengthAdjust="spacing" textLength="74" x="277.5" y="531.52">if-feature:</text><text fill="#000000" font-family="sans-serif" font-size="13" lengthAdjust="spacing" textLength="41" x="356.5" y="531.52">c:sdnc</text><!--MD5=[dd8990d1df51b48ebc72550cb040146b]
class sdnc_I_sdnc_I_topology--><rect codeLine="41" fill="#FEFECE" filter="url(#f1llbt2k6rngq4)" height="37.9375" id="sdnc_I_sdnc_I_topology" style="stroke:#A80036;stroke-width:1.5;" width="102" x="448" y="507.9531"/><ellipse cx="463" cy="526.9219" fill="#ADD1B2" rx="11" ry="11" style="stroke:#A80036;stroke-width:1.0;"/><path d="M465.9688,532.5625 Q465.3906,532.8594 464.75,533 Q464.1094,533.1563 463.4063,533.1563 Q460.9063,533.1563 459.5781,531.5156 Q458.2656,529.8594 458.2656,526.7344 Q458.2656,523.6094 459.5781,521.9531 Q460.9063,520.2969 463.4063,520.2969 Q464.1094,520.2969 464.75,520.4531 Q465.4063,520.6094 465.9688,520.9063 L465.9688,523.625 Q465.3438,523.0469 464.75,522.7813 Q464.1563,522.5 463.5313,522.5 Q462.1875,522.5 461.5,523.5781 Q460.8125,524.6406 460.8125,526.7344 Q460.8125,528.8281 461.5,529.9063 Q462.1875,530.9688 463.5313,530.9688 Q464.1563,530.9688 464.75,530.7031 Q465.3438,530.4219 465.9688,529.8438 L465.9688,532.5625 Z " fill="#000000"/><text fill="#000000" font-family="sans-serif" font-size="12" font-style="italic" lengthAdjust="spacing" textLength="74" x="475" y="524.0918">«container»</text><text fill="#000000" font-family="sans-serif" font-size="12" lengthAdjust="spacing" textLength="54" x="485" y="538.0605">topology</text><!--MD5=[65bdad0e7b70001b84cdb41702e54723]
class sdnc_I_sdnc_I_topology_I_link--><rect codeLine="43" fill="#FEFECE" filter="url(#f1llbt2k6rngq4)" height="37.9375" id="sdnc_I_sdnc_I_topology_I_link" style="stroke:#A80036;stroke-width:1.5;" width="102" x="448" y="606.9531"/><ellipse cx="463" cy="625.9219" fill="#ADD1B2" rx="11" ry="11" style="stroke:#A80036;stroke-width:1.0;"/><path d="M465.9688,631.5625 Q465.3906,631.8594 464.75,632 Q464.1094,632.1563 463.4063,632.1563 Q460.9063,632.1563 459.5781,630.5156 Q458.2656,628.8594 458.2656,625.7344 Q458.2656,622.6094 459.5781,620.9531 Q460.9063,619.2969 463.4063,619.2969 Q464.1094,619.2969 464.75,619.4531 Q465.4063,619.6094 465.9688,619.9063 L465.9688,622.625 Q465.3438,622.0469 464.75,621.7813 Q464.1563,621.5 463.5313,621.5 Q462.1875,621.5 461.5,622.5781 Q460.8125,623.6406 460.8125,625.7344 Q460.8125,627.8281 461.5,628.9063 Q462.1875,629.9688 463.5313,629.9688 Q464.1563,629.9688 464.75,629.7031 Q465.3438,629.4219 465.9688,628.8438 L465.9688,631.5625 Z " fill="#000000"/><text fill="#000000" font-family="sans-serif" font-size="12" font-style="italic" lengthAdjust="spacing" textLength="74" x="475" y="623.0918">«container»</text><text fill="#000000" font-family="sans-serif" font-size="12" lengthAdjust="spacing" textLength="21" x="501.5" y="637.0605">link</text><!--MD5=[2b82a9d7ce187c5ad2e9c32d467e58a9]
class sdnc_I_sdnc_I_topology_I_link_I_links--><rect codeLine="70" fill="#FEFECE" filter="url(#f1llbt2k6rngq4)" height="103.9922" id="sdnc_I_sdnc_I_topology_I_link_I_links" style="stroke:#A80036;stroke-width:1.5;" width="421" x="288.5" y="705.9531"/><text fill="#000000" font-family="sans-serif" font-size="12" lengthAdjust="spacing" textLength="28" x="485" y="722.0918">links</text><line style="stroke:#A80036;stroke-width:1.5;" x1="289.5" x2="708.5" y1="729.9219" y2="729.9219"/><ellipse cx="299.5" cy="740.9219" rx="3" ry="3" style="stroke:#038048;stroke-width:1.0;fill:none;"/><text fill="#000000" font-family="sans-serif" font-size="11" lengthAdjust="spacing" textLength="141" x="308.5" y="744.1323">link-id : yang:uuid  {key}</text><text fill="#000000" font-family="sans-serif" font-size="11" lengthAdjust="spacing" textLength="369" x="308.5" y="756.937">topology-base-class : ct:topology-base-class-type   {mandatory}</text><text fill="#000000" font-family="sans-serif" font-size="11" lengthAdjust="spacing" textLength="207" x="308.5" y="769.7417">leader-link-id : leafref : ...ctop:link-id</text><text fill="#000000" font-family="sans-serif" font-size="11" lengthAdjust="spacing" textLength="395" x="308.5" y="782.5464">topology-service-class : ct:topology-service-class-type   {mandatory}</text><line style="stroke:#A80036;stroke-width:1.5;" x1="289.5" x2="708.5" y1="789.1406" y2="789.1406"/><text fill="#000000" font-family="sans-serif" font-size="11" lengthAdjust="spacing" textLength="126" x="294.5" y="803.3511">undefine( in: cascade)</text><path d="M47.5,879.4531 L47.5,934.8516 A0,0 0 0 0 47.5,934.8516 L278.5,934.8516 A0,0 0 0 0 278.5,934.8516 L278.5,889.4531 L268.5,879.4531 L227.7,879.4531 L382.43,809.9531 L219.7,879.4531 L47.5,879.4531 A0,0 0 0 0 47.5,879.4531 " fill="#FBFB77" filter="url(#f1llbt2k6rngq4)" style="stroke:#A80036;stroke-width:1.0;"/><path d="M268.5,879.4531 L268.5,889.4531 L278.5,889.4531 L268.5,879.4531 " fill="#FBFB77" style="stroke:#A80036;stroke-width:1.0;"/><text fill="#000000" font-family="sans-serif" font-size="13" font-weight="bold" lengthAdjust="spacing" textLength="41" x="53.5" y="896.52">When</text><text fill="#000000" font-family="sans-serif" font-size="13" lengthAdjust="spacing" textLength="96" x="98.5" y="896.52">(leader-link-id):</text><text fill="#000000" font-family="sans-serif" font-size="13" lengthAdjust="spacing" textLength="210" x="53.5" y="911.6528">../topology-base-class = 'service'</text><text fill="#000000" font-family="sans-serif" font-size="13" lengthAdjust="spacing" textLength="0" x="57.5" y="926.7856"/><path d="M313.5,879.4531 L313.5,934.8516 A0,0 0 0 0 313.5,934.8516 L544.5,934.8516 A0,0 0 0 0 544.5,934.8516 L544.5,889.4531 L534.5,879.4531 L445.65,879.4531 L474.71,809.9531 L437.65,879.4531 L313.5,879.4531 A0,0 0 0 0 313.5,879.4531 " fill="#FBFB77" filter="url(#f1llbt2k6rngq4)" style="stroke:#A80036;stroke-width:1.0;"/><path d="M534.5,879.4531 L534.5,889.4531 L544.5,889.4531 L534.5,879.4531 " fill="#FBFB77" style="stroke:#A80036;stroke-width:1.0;"/><text fill="#000000" font-family="sans-serif" font-size="13" font-weight="bold" lengthAdjust="spacing" textLength="41" x="319.5" y="896.52">When</text><text fill="#000000" font-family="sans-serif" font-size="13" lengthAdjust="spacing" textLength="156" x="364.5" y="896.52">(topology-service-class):</text><text fill="#000000" font-family="sans-serif" font-size="13" lengthAdjust="spacing" textLength="210" x="319.5" y="911.6528">../topology-base-class = 'service'</text><text fill="#000000" font-family="sans-serif" font-size="13" lengthAdjust="spacing" textLength="0" x="323.5" y="926.7856"/><!--MD5=[e7b2544f473336f2c974305fbc413a2e]
class sdnc_I_sdnc_I_topology_I_link_I_links_I_source--><rect codeLine="62" fill="#FEFECE" filter="url(#f1llbt2k6rngq4)" height="71.5469" id="sdnc_I_sdnc_I_topology_I_link_I_links_I_source" style="stroke:#A80036;stroke-width:1.5;" width="289" x="579.5" y="870.9531"/><ellipse cx="684.75" cy="889.9219" fill="#ADD1B2" rx="11" ry="11" style="stroke:#A80036;stroke-width:1.0;"/><path d="M687.7188,895.5625 Q687.1406,895.8594 686.5,896 Q685.8594,896.1563 685.1563,896.1563 Q682.6563,896.1563 681.3281,894.5156 Q680.0156,892.8594 680.0156,889.7344 Q680.0156,886.6094 681.3281,884.9531 Q682.6563,883.2969 685.1563,883.2969 Q685.8594,883.2969 686.5,883.4531 Q687.1563,883.6094 687.7188,883.9063 L687.7188,886.625 Q687.0938,886.0469 686.5,885.7813 Q685.9063,885.5 685.2813,885.5 Q683.9375,885.5 683.25,886.5781 Q682.5625,887.6406 682.5625,889.7344 Q682.5625,891.8281 683.25,892.9063 Q683.9375,893.9688 685.2813,893.9688 Q685.9063,893.9688 686.5,893.7031 Q687.0938,893.4219 687.7188,892.8438 L687.7188,895.5625 Z " fill="#000000"/><text fill="#000000" font-family="sans-serif" font-size="12" font-style="italic" lengthAdjust="spacing" textLength="74" x="703.25" y="887.0918">«container»</text><text fill="#000000" font-family="sans-serif" font-size="12" lengthAdjust="spacing" textLength="43" x="718.75" y="901.0605">source</text><line style="stroke:#A80036;stroke-width:1.5;" x1="580.5" x2="867.5" y1="908.8906" y2="908.8906"/><text fill="#000000" font-family="sans-serif" font-size="11" lengthAdjust="spacing" textLength="277" x="585.5" y="923.1011">instance : leafref : ...cnf:instance   {mandatory}</text><text fill="#000000" font-family="sans-serif" font-size="11" lengthAdjust="spacing" textLength="149" x="585.5" y="935.9058">termination-point : inet:uri</text><!--MD5=[e182a2ffb6afac2c74b57928bfd9a878]
class sdnc_I_sdnc_I_topology_I_link_I_links_I_destination--><rect codeLine="66" fill="#FEFECE" filter="url(#f1llbt2k6rngq4)" height="71.5469" id="sdnc_I_sdnc_I_topology_I_link_I_links_I_destination" style="stroke:#A80036;stroke-width:1.5;" width="289" x="903.5" y="870.9531"/><ellipse cx="1008.25" cy="889.9219" fill="#ADD1B2" rx="11" ry="11" style="stroke:#A80036;stroke-width:1.0;"/><path d="M1011.2188,895.5625 Q1010.6406,895.8594 1010,896 Q1009.3594,896.1563 1008.6563,896.1563 Q1006.1563,896.1563 1004.8281,894.5156 Q1003.5156,892.8594 1003.5156,889.7344 Q1003.5156,886.6094 1004.8281,884.9531 Q1006.1563,883.2969 1008.6563,883.2969 Q1009.3594,883.2969 1010,883.4531 Q1010.6563,883.6094 1011.2188,883.9063 L1011.2188,886.625 Q1010.5938,886.0469 1010,885.7813 Q1009.4063,885.5 1008.7813,885.5 Q1007.4375,885.5 1006.75,886.5781 Q1006.0625,887.6406 1006.0625,889.7344 Q1006.0625,891.8281 1006.75,892.9063 Q1007.4375,893.9688 1008.7813,893.9688 Q1009.4063,893.9688 1010,893.7031 Q1010.5938,893.4219 1011.2188,892.8438 L1011.2188,895.5625 Z " fill="#000000"/><text fill="#000000" font-family="sans-serif" font-size="12" font-style="italic" lengthAdjust="spacing" textLength="74" x="1027.25" y="887.0918">«container»</text><text fill="#000000" font-family="sans-serif" font-size="12" lengthAdjust="spacing" textLength="71" x="1028.75" y="901.0605">destination</text><line style="stroke:#A80036;stroke-width:1.5;" x1="904.5" x2="1191.5" y1="908.8906" y2="908.8906"/><text fill="#000000" font-family="sans-serif" font-size="11" lengthAdjust="spacing" textLength="277" x="909.5" y="923.1011">instance : leafref : ...cnf:instance   {mandatory}</text><text fill="#000000" font-family="sans-serif" font-size="11" lengthAdjust="spacing" textLength="149" x="909.5" y="935.9058">termination-point : inet:uri</text><!--MD5=[5690eb8f8006092f274ad99df40c4886]
class sdnc_I_sdnc_I_xnf_I_nf--><rect codeLine="72" fill="#FEFECE" filter="url(#f1llbt2k6rngq4)" height="23.9688" id="sdnc_I_sdnc_I_xnf_I_nf" style="stroke:#A80036;stroke-width:1.5;" width="135" x="761.5" y="1019.9531"/><text fill="#000000" font-family="sans-serif" font-size="12" lengthAdjust="spacing" textLength="129" x="764.5" y="1036.0918">/c:sdnc/cnf:xnf/cnf:nf</text><path d="M1416.5,26.9531 L1416.5,158.0156 L1771.5,158.0156 L1771.5,36.9531 L1761.5,26.9531 L1416.5,26.9531 " fill="#FBFB77" filter="url(#f1llbt2k6rngq4)" style="stroke:#A80036;stroke-width:1.0;"/><path d="M1761.5,26.9531 L1761.5,36.9531 L1771.5,36.9531 L1761.5,26.9531 " fill="#FBFB77" style="stroke:#A80036;stroke-width:1.0;"/><text fill="#000000" font-family="sans-serif" font-size="13" font-weight="bold" lengthAdjust="spacing" textLength="92" x="1422.5" y="44.02">Namespace:</text><text fill="#000000" font-family="sans-serif" font-size="13" lengthAdjust="spacing" textLength="229" x="1523.5" y="44.02">urn:com:vendor:yang:sdnc:topology</text><text fill="#000000" font-family="sans-serif" font-size="13" font-weight="bold" lengthAdjust="spacing" textLength="48" x="1422.5" y="59.1528">Prefix:</text><text fill="#000000" font-family="sans-serif" font-size="13" lengthAdjust="spacing" textLength="28" x="1479.5" y="59.1528">ctop</text><text fill="#000000" font-family="sans-serif" font-size="13" font-weight="bold" lengthAdjust="spacing" textLength="104" x="1422.5" y="74.2856">Organization :</text><text fill="#000000" font-family="sans-serif" font-size="13" lengthAdjust="spacing" textLength="147" x="1422.5" y="89.4185">Cowdrey Consulting UK</text><text fill="#000000" font-family="sans-serif" font-size="13" font-weight="bold" lengthAdjust="spacing" textLength="67" x="1422.5" y="104.5513">Contact :</text><text fill="#000000" font-family="sans-serif" font-size="13" lengthAdjust="spacing" textLength="109" x="1422.5" y="119.6841">lee@cowdrey.net</text><text fill="#000000" font-family="sans-serif" font-size="13" font-weight="bold" lengthAdjust="spacing" textLength="71" x="1422.5" y="134.8169">Revision :</text><text fill="#000000" font-family="sans-serif" font-size="13" lengthAdjust="spacing" textLength="74" x="1502.5" y="134.8169">2020-12-04</text><text fill="#000000" font-family="sans-serif" font-size="13" lengthAdjust="spacing" textLength="0" x="1426.5" y="149.9497"/><!--MD5=[c17bb588a48c196c3cd55e61e2bced19]
link GMN8 to ctop_sdnc_topology--><path d="M1416.23,154.7231 C1284.46,200.1431 1114.6,258.6931 1035.78,285.8631 " fill="none" id="GMN8-ctop_sdnc_topology" style="stroke:#A80036;stroke-width:1.0;stroke-dasharray:7.0,7.0;"/><!--MD5=[df485322832af37ff1d338f7d736b0e7]
reverse link c_sdnc to ctop_sdnc_topology--><path codeLine="27" d="M628.72,131.2931 C636.83,141.0531 646.46,150.8131 657,157.9531 C703.08,189.1631 724.37,176.1731 776,196.9531 C845.11,224.7731 923.18,264.5331 963.89,285.9331 " fill="none" id="c_sdnc-backto-ctop_sdnc_topology" style="stroke:#A80036;stroke-width:1.0;"/><ellipse cx="624.2046" cy="125.4411" fill="#FFFFFF" rx="8" ry="8" style="stroke:#A80036;stroke-width:1.0;"/><line style="stroke:#A80036;stroke-width:1.0;" x1="629.0992" x2="619.31" y1="131.769" y2="119.1131"/><line style="stroke:#A80036;stroke-width:1.0;" x1="617.8767" x2="630.5325" y1="130.3357" y2="120.5464"/><!--MD5=[aeb2d2329aad57570f4d4cba55307ae6]
reverse link ct_sdnc_types to ctop_sdnc_topology--><path codeLine="28" d="M781.95,128.6731 C838.04,174.6831 933.79,253.2131 973.7,285.9431 " fill="none" id="ct_sdnc_types-backto-ctop_sdnc_topology" style="stroke:#A80036;stroke-width:1.0;"/><ellipse cx="776.4693" cy="124.1719" fill="#FFFFFF" rx="8" ry="8" style="stroke:#A80036;stroke-width:1.0;"/><line style="stroke:#A80036;stroke-width:1.0;" x1="782.6586" x2="770.28" y1="129.2407" y2="119.1031"/><line style="stroke:#A80036;stroke-width:1.0;" x1="771.4005" x2="781.5381" y1="130.3612" y2="117.9827"/><!--MD5=[43bb2698fd0870cfa59999b5ce49a365]
reverse link cnf_sdnc_xnf to ctop_sdnc_topology--><path codeLine="29" d="M916.86,133.3031 C937.64,179.6631 970.92,253.9331 985.17,285.7131 " fill="none" id="cnf_sdnc_xnf-backto-ctop_sdnc_topology" style="stroke:#A80036;stroke-width:1.0;"/><ellipse cx="913.8631" cy="126.6129" fill="#FFFFFF" rx="8" ry="8" style="stroke:#A80036;stroke-width:1.0;"/><line style="stroke:#A80036;stroke-width:1.0;" x1="917.1362" x2="910.59" y1="133.9127" y2="119.3131"/><line style="stroke:#A80036;stroke-width:1.0;" x1="906.5633" x2="921.1629" y1="129.886" y2="123.3398"/><!--MD5=[14abf65c8d829439415a08aacc708c47]
reverse link yang_ietf_yang_types to ctop_sdnc_topology--><path codeLine="30" d="M1068.09,133.0031 C1047.09,179.3431 1013.33,253.8631 998.9,285.7131 " fill="none" id="yang_ietf_yang_types-backto-ctop_sdnc_topology" style="stroke:#A80036;stroke-width:1.0;"/><ellipse cx="1070.9822" cy="126.6018" fill="#FFFFFF" rx="8" ry="8" style="stroke:#A80036;stroke-width:1.0;"/><line style="stroke:#A80036;stroke-width:1.0;" x1="1067.6844" x2="1074.28" y1="133.8904" y2="119.3131"/><line style="stroke:#A80036;stroke-width:1.0;" x1="1063.6935" x2="1078.2709" y1="123.304" y2="129.8996"/><!--MD5=[58bfc9bd6a66046db75e52e3c28b066f]
reverse link inet_ietf_inet_types to ctop_sdnc_topology--><path codeLine="31" d="M1246.5,127.8131 C1179.06,173.6931 1062.48,253.0031 1014.07,285.9431 " fill="none" id="inet_ietf_inet_types-backto-ctop_sdnc_topology" style="stroke:#A80036;stroke-width:1.0;"/><ellipse cx="1252.6873" cy="123.6056" fill="#FFFFFF" rx="8" ry="8" style="stroke:#A80036;stroke-width:1.0;"/><line style="stroke:#A80036;stroke-width:1.0;" x1="1246.0746" x2="1259.3" y1="128.108" y2="119.1031"/><line style="stroke:#A80036;stroke-width:1.0;" x1="1248.1848" x2="1257.1897" y1="116.9928" y2="130.2183"/><!--MD5=[0a2d542f2bd9e8bede36c93c2b5603ce]
reverse link sdnc_topology to c_sdnc--><path codeLine="37" d="M418,361.1531 C418,378.4831 418,396.2131 418,408.8931 " fill="none" id="sdnc_topology-backto-c_sdnc" style="stroke:#A80036;stroke-width:1.0;"/><polygon fill="#A80036" points="418,348.0731,414,354.0731,418,360.0731,422,354.0731,418,348.0731" style="stroke:#A80036;stroke-width:1.0;"/><!--MD5=[c2ac38092b110c3179c329bbe9b604fd]
reverse link c_sdnc to sdnc_I_sdnc_I_topology--><path codeLine="42" d="M441.65,457.2831 C455.27,473.5831 471.97,493.5831 483.83,507.7931 " fill="none" id="c_sdnc-backto-sdnc_I_sdnc_I_topology" style="stroke:#A80036;stroke-width:1.0;"/><polygon fill="#A80036" points="433.24,447.1931,434.0163,454.3623,440.9326,456.4031,440.1563,449.2339,433.24,447.1931" style="stroke:#A80036;stroke-width:1.0;"/><text fill="#000000" font-family="sans-serif" font-size="13" lengthAdjust="spacing" textLength="8" x="469.9592" y="496.7253">1</text><!--MD5=[5be79b33523c735a64cdff3b489b3ae9]
reverse link sdnc_I_sdnc_I_topology to sdnc_I_sdnc_I_topology_I_link--><path codeLine="44" d="M499,559.5831 C499,575.2231 499,593.5331 499,606.7931 " fill="none" id="sdnc_I_sdnc_I_topology-backto-sdnc_I_sdnc_I_topology_I_link" style="stroke:#A80036;stroke-width:1.0;"/><polygon fill="#A80036" points="499,546.1931,495,552.1931,499,558.1931,503,552.1931,499,546.1931" style="stroke:#A80036;stroke-width:1.0;"/><text fill="#000000" font-family="sans-serif" font-size="13" lengthAdjust="spacing" textLength="8" x="489.775" y="595.7253">1</text><!--MD5=[2dff3e6d335648ce83eeaf792a26cb9a]
reverse link sdnc_I_sdnc_I_topology_I_link to sdnc_I_sdnc_I_topology_I_link_I_links--><path codeLine="46" d="M499,658.1131 C499,672.3531 499,689.6031 499,705.6731 " fill="none" id="sdnc_I_sdnc_I_topology_I_link-backto-sdnc_I_sdnc_I_topology_I_link_I_links" style="stroke:#A80036;stroke-width:1.0;"/><polygon fill="#A80036" points="499,645.0331,495,651.0331,499,657.0331,503,651.0331,499,645.0331" style="stroke:#A80036;stroke-width:1.0;"/><text fill="#000000" font-family="sans-serif" font-size="13" lengthAdjust="spacing" textLength="26" x="471.2531" y="694.7165">0..N</text><!--MD5=[fc299144ef63b33558341f9abb35f2d6]
reverse link sdnc_I_sdnc_I_topology_I_link_I_links to sdnc_I_sdnc_I_topology_I_link_I_links_I_source--><path codeLine="63" d="M588,817.1031 C615.77,835.2431 645.55,854.6931 670.14,870.7631 " fill="none" id="sdnc_I_sdnc_I_topology_I_link_I_links-backto-sdnc_I_sdnc_I_topology_I_link_I_links_I_source" style="stroke:#A80036;stroke-width:1.0;"/><polygon fill="#A80036" points="577.06,809.9531,579.9003,816.5813,587.1111,816.5087,584.2707,809.8806,577.06,809.9531" style="stroke:#A80036;stroke-width:1.0;"/><text fill="#000000" font-family="sans-serif" font-size="13" lengthAdjust="spacing" textLength="8" x="651.4721" y="859.8287">1</text><!--MD5=[d0614c9c2ece3223ed20c60e41d0b414]
reverse link sdnc_I_sdnc_I_topology_I_link_I_links to sdnc_I_sdnc_I_topology_I_link_I_links_I_destination--><path codeLine="67" d="M702.32,813.3931 C774.08,832.6131 852.82,853.6931 916.99,870.8731 " fill="none" id="sdnc_I_sdnc_I_topology_I_link_I_links-backto-sdnc_I_sdnc_I_topology_I_link_I_links_I_destination" style="stroke:#A80036;stroke-width:1.0;"/><polygon fill="#A80036" points="689.47,809.9531,694.2276,815.3721,701.0596,813.0648,696.302,807.6458,689.47,809.9531" style="stroke:#A80036;stroke-width:1.0;"/><text fill="#000000" font-family="sans-serif" font-size="13" lengthAdjust="spacing" textLength="8" x="887.4728" y="861.0411">1</text><!--MD5=[9984637fff52bdfc50928e2140250f11]
link sdnc_I_sdnc_I_topology_I_link_I_links to sdnc_I_sdnc_I_topology_I_link_I_links--><path codeLine="75" d="M709.84,745.3631 C731.01,747.8731 744.5,752.0631 744.5,757.9531 C744.5,763.3331 733.23,767.3031 715.12,769.8531 " fill="none" id="sdnc_I_sdnc_I_topology_I_link_I_links-to-sdnc_I_sdnc_I_topology_I_link_I_links" style="stroke:#A80036;stroke-width:1.0;"/><polygon fill="#A80036" points="709.84,770.5431,719.2797,773.3525,714.7985,769.9001,718.2508,765.4189,709.84,770.5431" style="stroke:#A80036;stroke-width:1.0;"/><text fill="#000000" font-family="sans-serif" font-size="13" lengthAdjust="spacing" textLength="82" x="750.5" y="762.52">leader-link-id</text><text fill="#000000" font-family="sans-serif" font-size="13" lengthAdjust="spacing" textLength="69" x="717.1235" y="783.2085">ctop:link-id</text><!--MD5=[28292f9c619e1aa13f13efa4e3820ed3]
link sdnc_I_sdnc_I_topology_I_link_I_links_I_source to sdnc_I_sdnc_I_xnf_I_nf--><path codeLine="76" d="M754.09,943.2031 C774.6,967.2231 800.72,997.8231 816.08,1015.8131 " fill="none" id="sdnc_I_sdnc_I_topology_I_link_I_links_I_source-to-sdnc_I_sdnc_I_xnf_I_nf" style="stroke:#A80036;stroke-width:1.0;"/><polygon fill="#A80036" points="819.37,1019.6731,816.5704,1010.2305,816.1243,1015.8698,810.4851,1015.4237,819.37,1019.6731" style="stroke:#A80036;stroke-width:1.0;"/><text fill="#000000" font-family="sans-serif" font-size="13" lengthAdjust="spacing" textLength="54" x="794" y="986.02">instance</text><text fill="#000000" font-family="sans-serif" font-size="13" lengthAdjust="spacing" textLength="77" x="723.4188" y="1008.9839">cnf:instance</text><!--MD5=[fe2a67a5b3643f9a75a0fa07b7269eda]
link sdnc_I_sdnc_I_topology_I_link_I_links_I_destination to sdnc_I_sdnc_I_xnf_I_nf--><path codeLine="77" d="M985.54,943.0331 C941.43,967.8031 884.76,999.6331 853.12,1017.4031 " fill="none" id="sdnc_I_sdnc_I_topology_I_link_I_links_I_destination-to-sdnc_I_sdnc_I_xnf_I_nf" style="stroke:#A80036;stroke-width:1.0;"/><polygon fill="#A80036" points="848.64,1019.9231,858.4442,1018.9864,852.9952,1017.4671,854.5145,1012.0181,848.64,1019.9231" style="stroke:#A80036;stroke-width:1.0;"/><text fill="#000000" font-family="sans-serif" font-size="13" lengthAdjust="spacing" textLength="54" x="933" y="986.02">instance</text><text fill="#000000" font-family="sans-serif" font-size="13" lengthAdjust="spacing" textLength="77" x="872.6228" y="1008.9677">cnf:instance</text><text fill="#888888" font-family="sans-serif" font-size="24" lengthAdjust="spacing" textLength="218" x="773.75" y="1096.2305">subject to revision</text><!--MD5=[3960d5eccfe685c53221a5555c1e6c05]
@startuml img/sdnc-topology.png 
hide empty fields 
hide empty methods 
hide <<case>> circle
hide <<augment>> circle
hide <<choice>> circle
hide <<leafref>> stereotype
hide <<leafref>> circle
page 1x1 
Title sdnc-topology 
package "c:sdnc" as c_sdnc { 
} 
package "ct:sdnc-types" as ct_sdnc_types { 
} 
package "cnf:sdnc-xnf" as cnf_sdnc_xnf { 
} 
package "yang:ietf-yang-types" as yang_ietf_yang_types { 
} 
package "inet:ietf-inet-types" as inet_ietf_inet_types { 
} 
note top of ctop_sdnc_topology : <b>Namespace: </b> urn:com:vendor:yang:sdnc:topology \n<b>Prefix: </b> ctop \n<b>Organization : </b>\nCowdrey Consulting UK \n<b>Contact : </b>\nlee@cowdrey.net \n<b>Revision : </b> 2020-12-04 \n
package "ctop:sdnc-topology" as ctop_sdnc_topology { 
c_sdnc +- - ctop_sdnc_topology
ct_sdnc_types +- - ctop_sdnc_topology
cnf_sdnc_xnf +- - ctop_sdnc_topology
yang_ietf_yang_types +- - ctop_sdnc_topology
inet_ietf_inet_types +- - ctop_sdnc_topology
class "sdnc-topology" as sdnc_topology << (M, #33CCFF) module>> 
sdnc_topology : feature : sdnc_topology 
sdnc_topology : is-known( in: link_id out: exists)
sdnc_topology : define-link( in: topology_base_class in: leader_link_id in: topology_service_class in: source in: destination out: link_id)
class "/c:sdnc" as c_sdnc << (A,CadetBlue) augment>>
sdnc_topology *- -  c_sdnc 
note bottom of c_sdnc
<b>if-feature: </b>c:sdnc
end note 
class "topology" as  sdnc_I_sdnc_I_topology <<container>> 
c_sdnc *- - "1" sdnc_I_sdnc_I_topology 
class "link" as  sdnc_I_sdnc_I_topology_I_link <<container>> 
sdnc_I_sdnc_I_topology *- - "1" sdnc_I_sdnc_I_topology_I_link 
class "links" as sdnc_I_sdnc_I_topology_I_link_I_links << (L, #FF7700) list>> 
sdnc_I_sdnc_I_topology_I_link *- - "0..N" sdnc_I_sdnc_I_topology_I_link_I_links 
sdnc_I_sdnc_I_topology_I_link_I_links : +link-id : yang:uuid  {key} 
sdnc_I_sdnc_I_topology_I_link_I_links : undefine( in: cascade)
sdnc_I_sdnc_I_topology_I_link_I_links : topology-base-class : ct:topology-base-class-type   {mandatory}
sdnc_I_sdnc_I_topology_I_link_I_links : leader-link-id : leafref : ...ctop:link-id  
note bottom of sdnc_I_sdnc_I_topology_I_link_I_links
<b>When</b> (leader-link-id):
../topology-base-class = 'service'

end note 
sdnc_I_sdnc_I_topology_I_link_I_links : topology-service-class : ct:topology-service-class-type   {mandatory}
note bottom of sdnc_I_sdnc_I_topology_I_link_I_links
<b>When</b> (topology-service-class):
../topology-base-class = 'service'

end note 
class "source" as  sdnc_I_sdnc_I_topology_I_link_I_links_I_source <<container>> 
sdnc_I_sdnc_I_topology_I_link_I_links *- - "1" sdnc_I_sdnc_I_topology_I_link_I_links_I_source 
sdnc_I_sdnc_I_topology_I_link_I_links_I_source : instance : leafref : ...cnf:instance   {mandatory}
sdnc_I_sdnc_I_topology_I_link_I_links_I_source : termination-point : inet:uri  
class "destination" as  sdnc_I_sdnc_I_topology_I_link_I_links_I_destination <<container>> 
sdnc_I_sdnc_I_topology_I_link_I_links *- - "1" sdnc_I_sdnc_I_topology_I_link_I_links_I_destination 
sdnc_I_sdnc_I_topology_I_link_I_links_I_destination : instance : leafref : ...cnf:instance   {mandatory}
sdnc_I_sdnc_I_topology_I_link_I_links_I_destination : termination-point : inet:uri  
class "/c:sdnc/ctop:topology/ctop:link/ctop:links" as sdnc_I_sdnc_I_topology_I_link_I_links <<leafref>> 
class "/c:sdnc/cnf:xnf/cnf:nf" as sdnc_I_sdnc_I_xnf_I_nf <<leafref>> 
class "/c:sdnc/cnf:xnf/cnf:nf" as sdnc_I_sdnc_I_xnf_I_nf <<leafref>> 
} 

sdnc_I_sdnc_I_topology_I_link_I_links- ->"ctop:link-id"sdnc_I_sdnc_I_topology_I_link_I_links: leader-link-id
sdnc_I_sdnc_I_topology_I_link_I_links_I_source- ->"cnf:instance"sdnc_I_sdnc_I_xnf_I_nf: instance
sdnc_I_sdnc_I_topology_I_link_I_links_I_destination- ->"cnf:instance"sdnc_I_sdnc_I_xnf_I_nf: instance
center footer
 <size:24> subject to revision </size>
 endfooter 
@enduml

PlantUML version 1.2021.8(Sat Jun 26 09:20:59 BST 2021)
(APACHE source distribution)
Java Runtime: OpenJDK Runtime Environment
JVM: OpenJDK 64-Bit Server VM
Default Encoding: UTF-8
Language: en
Country: GB
--></g></svg>