<?xml version="1.0" encoding="UTF-8" standalone="no"?><svg xmlns="http://www.w3.org/2000/svg" xmlns:xlink="http://www.w3.org/1999/xlink" contentScriptType="application/ecmascript" contentStyleType="text/css" height="488px" preserveAspectRatio="none" style="width:917px;height:488px;background:#FFFFFF;" version="1.1" viewBox="0 0 917 488" width="917px" zoomAndPan="magnify"><defs><filter height="300%" id="f10v0dgaqjrpe1" width="300%" x="-1" y="-1"><feGaussianBlur result="blurOut" stdDeviation="2.0"/><feColorMatrix in="blurOut" result="blurOut2" type="matrix" values="0 0 0 0 0 0 0 0 0 0 0 0 0 0 0 0 0 0 .4 0"/><feOffset dx="4.0" dy="4.0" in="blurOut2" result="blurOut3"/><feBlend in="SourceGraphic" in2="blurOut3" mode="normal"/></filter></defs><g><text fill="#000000" font-family="sans-serif" font-size="18" lengthAdjust="spacing" textLength="133" x="385.75" y="16.708">sdnc-groupings</text><!--MD5=[eefabeb9492d3e9dd1ffea7e9346b1c9]
cluster cg_sdnc_groupings--><polygon fill="#FFFFFF" filter="url(#f10v0dgaqjrpe1)" points="153.5,181.9531,308.5,181.9531,315.5,204.25,900.5,204.25,900.5,451.9531,153.5,451.9531,153.5,181.9531" style="stroke:#000000;stroke-width:1.5;"/><line style="stroke:#000000;stroke-width:1.5;" x1="153.5" x2="315.5" y1="204.25" y2="204.25"/><text fill="#000000" font-family="sans-serif" font-size="14" font-weight="bold" lengthAdjust="spacing" textLength="149" x="157.5" y="196.9482">cg:sdnc-groupings</text><polygon fill="#FFFFFF" filter="url(#f10v0dgaqjrpe1)" points="16,65.9531,131,65.9531,138,88.25,145,88.25,145,118.5469,16,118.5469,16,65.9531" style="stroke:#000000;stroke-width:1.5;"/><line style="stroke:#000000;stroke-width:1.5;" x1="16" x2="138" y1="88.25" y2="88.25"/><text fill="#000000" font-family="sans-serif" font-size="14" font-weight="bold" lengthAdjust="spacing" textLength="109" x="20" y="80.9482">ct:sdnc-types</text><polygon fill="#FFFFFF" filter="url(#f10v0dgaqjrpe1)" points="180.5,65.9531,350.5,65.9531,357.5,88.25,364.5,88.25,364.5,118.5469,180.5,118.5469,180.5,65.9531" style="stroke:#000000;stroke-width:1.5;"/><line style="stroke:#000000;stroke-width:1.5;" x1="180.5" x2="357.5" y1="88.25" y2="88.25"/><text fill="#000000" font-family="sans-serif" font-size="14" font-weight="bold" lengthAdjust="spacing" textLength="164" x="184.5" y="80.9482">yang:ietf-yang-types</text><!--MD5=[a7da7cdd676b17b525f843fc7ac4bce0]
class cg_sdnc_groupings--><rect fill="#FEFECE" filter="url(#f10v0dgaqjrpe1)" height="32" id="cg_sdnc_groupings" style="stroke:#A80036;stroke-width:1.5;" width="152" x="196.5" y="261.4531"/><ellipse cx="211.5" cy="277.4531" fill="#ADD1B2" rx="11" ry="11" style="stroke:#A80036;stroke-width:1.0;"/><path d="M214.4688,283.0938 Q213.8906,283.3906 213.25,283.5313 Q212.6094,283.6875 211.9063,283.6875 Q209.4063,283.6875 208.0781,282.0469 Q206.7656,280.3906 206.7656,277.2656 Q206.7656,274.1406 208.0781,272.4844 Q209.4063,270.8281 211.9063,270.8281 Q212.6094,270.8281 213.25,270.9844 Q213.9063,271.1406 214.4688,271.4375 L214.4688,274.1563 Q213.8438,273.5781 213.25,273.3125 Q212.6563,273.0313 212.0313,273.0313 Q210.6875,273.0313 210,274.1094 Q209.3125,275.1719 209.3125,277.2656 Q209.3125,279.3594 210,280.4375 Q210.6875,281.5 212.0313,281.5 Q212.6563,281.5 213.25,281.2344 Q213.8438,280.9531 214.4688,280.375 L214.4688,283.0938 Z " fill="#000000"/><text fill="#000000" font-family="sans-serif" font-size="12" lengthAdjust="spacing" textLength="120" x="225.5" y="281.6074">cg_sdnc_groupings</text><!--MD5=[b59925e9156a675f9734ef0240e38b06]
class sdnc_groupings--><rect codeLine="23" fill="#FEFECE" filter="url(#f10v0dgaqjrpe1)" height="37.9375" id="sdnc_groupings" style="stroke:#A80036;stroke-width:1.5;" width="129" x="384" y="258.4531"/><ellipse cx="399" cy="277.4219" fill="#33CCFF" rx="11" ry="11" style="stroke:#A80036;stroke-width:1.0;"/><path d="M394.7188,271.0313 L397.6406,271.0313 L399.1094,276.4688 L400.5781,271.0313 L403.5156,271.0313 L403.5156,283.4219 L401.4063,283.4219 L401.4063,273.5 L400.0938,278.9219 L398.1563,278.9219 L396.8281,273.5 L396.8281,283.4219 L394.7188,283.4219 L394.7188,271.0313 Z " fill="#000000"/><text fill="#000000" font-family="sans-serif" font-size="12" font-style="italic" lengthAdjust="spacing" textLength="60" x="431.5" y="274.5918">«module»</text><text fill="#000000" font-family="sans-serif" font-size="12" lengthAdjust="spacing" textLength="97" x="413" y="288.5605">sdnc-groupings</text><!--MD5=[418a763b795616407e8882f5dfc764ab]
class sdnc_groupings_I_common_hardware_grouping--><rect codeLine="24" fill="#FEFECE" filter="url(#f10v0dgaqjrpe1)" height="105.1563" id="sdnc_groupings_I_common_hardware_grouping" style="stroke:#A80036;stroke-width:1.5;" width="328" x="548.5" y="224.9531"/><ellipse cx="650.25" cy="243.9219" fill="#00FF00" rx="11" ry="11" style="stroke:#A80036;stroke-width:1.0;"/><path d="M651.4844,247.6875 L651.4844,245.3125 L649.8125,245.3125 L649.8125,243.25 L653.625,243.25 L653.625,248.9375 Q652.9219,249.5469 652.0625,249.8594 Q651.2188,250.1563 650.25,250.1563 Q647.8438,250.1563 646.5313,248.4844 Q645.2188,246.8125 645.2188,243.7344 Q645.2188,240.6094 646.5469,238.9531 Q647.875,237.2969 650.375,237.2969 Q651.1094,237.2969 651.8281,237.5156 Q652.5625,237.7344 653.1875,238.125 L653.1875,240.8438 Q652.6719,240.1719 652,239.8438 Q651.3438,239.5 650.5469,239.5 Q649.1406,239.5 648.4531,240.5625 Q647.7656,241.6094 647.7656,243.7344 Q647.7656,245.7969 648.4219,246.8906 Q649.0938,247.9688 650.375,247.9688 Q650.75,247.9688 651.0313,247.9063 Q651.3125,247.8281 651.4844,247.6875 Z " fill="#000000"/><text fill="#000000" font-family="sans-serif" font-size="12" font-style="italic" lengthAdjust="spacing" textLength="70" x="693.75" y="241.0918">«grouping»</text><text fill="#000000" font-family="sans-serif" font-size="12" lengthAdjust="spacing" textLength="116" x="670.75" y="255.0605">common-hardware</text><line style="stroke:#A80036;stroke-width:1.5;" x1="549.5" x2="875.5" y1="262.8906" y2="262.8906"/><text fill="#000000" font-family="sans-serif" font-size="11" lengthAdjust="spacing" textLength="115" x="554.5" y="277.1011">unit-name : ct:name</text><text fill="#000000" font-family="sans-serif" font-size="11" lengthAdjust="spacing" textLength="208" x="554.5" y="289.9058">unit-timestamp : yang:date-and-time</text><text fill="#000000" font-family="sans-serif" font-size="11" lengthAdjust="spacing" textLength="125" x="554.5" y="302.7104">serial-number : string</text><line style="stroke:#A80036;stroke-width:1.5;" x1="549.5" x2="875.5" y1="309.3047" y2="309.3047"/><text fill="#000000" font-family="sans-serif" font-size="11" lengthAdjust="spacing" textLength="316" x="554.5" y="323.5151">unit-version : string {pattern = \d{1,2}.\d{1,2}(.\d{...}</text><!--MD5=[dbd1533837b81d5c4fb23734f39cbad7]
class sdnc_groupings_I_common_notification_event_grouping--><rect codeLine="29" fill="#FEFECE" filter="url(#f10v0dgaqjrpe1)" height="37.9375" id="sdnc_groupings_I_common_notification_event_grouping" style="stroke:#A80036;stroke-width:1.5;" width="198" x="349.5" y="389.9531"/><ellipse cx="364.5" cy="408.9219" fill="#00FF00" rx="11" ry="11" style="stroke:#A80036;stroke-width:1.0;"/><path d="M365.7344,412.6875 L365.7344,410.3125 L364.0625,410.3125 L364.0625,408.25 L367.875,408.25 L367.875,413.9375 Q367.1719,414.5469 366.3125,414.8594 Q365.4688,415.1563 364.5,415.1563 Q362.0938,415.1563 360.7813,413.4844 Q359.4688,411.8125 359.4688,408.7344 Q359.4688,405.6094 360.7969,403.9531 Q362.125,402.2969 364.625,402.2969 Q365.3594,402.2969 366.0781,402.5156 Q366.8125,402.7344 367.4375,403.125 L367.4375,405.8438 Q366.9219,405.1719 366.25,404.8438 Q365.5938,404.5 364.7969,404.5 Q363.3906,404.5 362.7031,405.5625 Q362.0156,406.6094 362.0156,408.7344 Q362.0156,410.7969 362.6719,411.8906 Q363.3438,412.9688 364.625,412.9688 Q365,412.9688 365.2813,412.9063 Q365.5625,412.8281 365.7344,412.6875 Z " fill="#000000"/><text fill="#000000" font-family="sans-serif" font-size="12" font-style="italic" lengthAdjust="spacing" textLength="70" x="426.5" y="406.0918">«grouping»</text><text fill="#000000" font-family="sans-serif" font-size="12" lengthAdjust="spacing" textLength="166" x="378.5" y="420.0605">common-notification-event</text><path d="M400,26.9531 L400,158.0156 L763,158.0156 L763,36.9531 L753,26.9531 L400,26.9531 " fill="#FBFB77" filter="url(#f10v0dgaqjrpe1)" style="stroke:#A80036;stroke-width:1.0;"/><path d="M753,26.9531 L753,36.9531 L763,36.9531 L753,26.9531 " fill="#FBFB77" style="stroke:#A80036;stroke-width:1.0;"/><text fill="#000000" font-family="sans-serif" font-size="13" font-weight="bold" lengthAdjust="spacing" textLength="92" x="406" y="44.02">Namespace:</text><text fill="#000000" font-family="sans-serif" font-size="13" lengthAdjust="spacing" textLength="237" x="507" y="44.02">urn:com:vendor:yang:sdnc:groupings</text><text fill="#000000" font-family="sans-serif" font-size="13" font-weight="bold" lengthAdjust="spacing" textLength="48" x="406" y="59.1528">Prefix:</text><text fill="#000000" font-family="sans-serif" font-size="13" lengthAdjust="spacing" textLength="15" x="463" y="59.1528">cg</text><text fill="#000000" font-family="sans-serif" font-size="13" font-weight="bold" lengthAdjust="spacing" textLength="104" x="406" y="74.2856">Organization :</text><text fill="#000000" font-family="sans-serif" font-size="13" lengthAdjust="spacing" textLength="147" x="406" y="89.4185">Cowdrey Consulting UK</text><text fill="#000000" font-family="sans-serif" font-size="13" font-weight="bold" lengthAdjust="spacing" textLength="67" x="406" y="104.5513">Contact :</text><text fill="#000000" font-family="sans-serif" font-size="13" lengthAdjust="spacing" textLength="109" x="406" y="119.6841">lee@cowdrey.net</text><text fill="#000000" font-family="sans-serif" font-size="13" font-weight="bold" lengthAdjust="spacing" textLength="71" x="406" y="134.8169">Revision :</text><text fill="#000000" font-family="sans-serif" font-size="13" lengthAdjust="spacing" textLength="74" x="486" y="134.8169">2020-12-04</text><text fill="#000000" font-family="sans-serif" font-size="13" lengthAdjust="spacing" textLength="0" x="410" y="149.9497"/><!--MD5=[bcb314f8d2cd0ec857efdab9921a94dd]
link GMN5 to cg_sdnc_groupings--><path d="M399.84,151.9031 C383.24,157.9231 370.94,162.9431 366.5,165.9531 C328.14,191.9531 296.36,237.6631 281.52,261.3131 " fill="none" id="GMN5-cg_sdnc_groupings" style="stroke:#A80036;stroke-width:1.0;stroke-dasharray:7.0,7.0;"/><!--MD5=[574ee11948c6f8806c80feac8cca0bda]
reverse link ct_sdnc_types to cg_sdnc_groupings--><path codeLine="21" d="M119.17,129.1131 C132.18,139.6331 147.28,150.3431 162.5,157.9531 C174.84,164.1231 181.13,158.1331 192.5,165.9531 C228.6,190.7831 254.3,237.4331 265.78,261.3931 " fill="none" id="ct_sdnc_types-backto-cg_sdnc_groupings" style="stroke:#A80036;stroke-width:1.0;"/><ellipse cx="113.5201" cy="124.3553" fill="#FFFFFF" rx="8" ry="8" style="stroke:#A80036;stroke-width:1.0;"/><line style="stroke:#A80036;stroke-width:1.0;" x1="119.6402" x2="107.4" y1="129.5074" y2="119.2031"/><line style="stroke:#A80036;stroke-width:1.0;" x1="108.3679" x2="118.6722" y1="130.4754" y2="118.2352"/><!--MD5=[1e6d652260c8f109ced69a6daacc93dd]
reverse link yang_ietf_yang_types to cg_sdnc_groupings--><path codeLine="22" d="M272.5,134.4531 C272.5,174.7131 272.5,233.9631 272.5,261.4431 " fill="none" id="yang_ietf_yang_types-backto-cg_sdnc_groupings" style="stroke:#A80036;stroke-width:1.0;"/><ellipse cx="272.5" cy="127.2831" fill="#FFFFFF" rx="8" ry="8" style="stroke:#A80036;stroke-width:1.0;"/><line style="stroke:#A80036;stroke-width:1.0;" x1="272.5" x2="272.5" y1="135.2831" y2="119.2831"/><line style="stroke:#A80036;stroke-width:1.0;" x1="264.5" x2="280.5" y1="127.2831" y2="127.2831"/><!--MD5=[55f3ee86188c35bf9af09574d77e6d19]
link sdnc_groupings to sdnc_groupings_I_common_hardware_grouping--><!--MD5=[265701060873678ebe8fba32e36ac51c]
link sdnc_groupings to sdnc_groupings_I_common_notification_event_grouping--><text fill="#888888" font-family="sans-serif" font-size="24" lengthAdjust="spacing" textLength="557" x="173.75" y="480.2305">CommScope © 2020-2022 All Rights Reserved</text><!--MD5=[a017cae479157acd6d269327f52e7ca0]
@startuml img/sdnc-groupings.png 
hide empty fields 
hide empty methods 
hide <<case>> circle
hide <<augment>> circle
hide <<choice>> circle
hide <<leafref>> stereotype
hide <<leafref>> circle
page 1x1 
Title sdnc-groupings 
package "ct:sdnc-types" as ct_sdnc_types { 
} 
package "yang:ietf-yang-types" as yang_ietf_yang_types { 
} 
note top of cg_sdnc_groupings : <b>Namespace: </b> urn:com:vendor:yang:sdnc:groupings \n<b>Prefix: </b> cg \n<b>Organization : </b>\nCowdrey Consulting UK \n<b>Contact : </b>\nlee@cowdrey.net \n<b>Revision : </b> 2020-12-04 \n
package "cg:sdnc-groupings" as cg_sdnc_groupings { 
ct_sdnc_types +- - cg_sdnc_groupings
yang_ietf_yang_types +- - cg_sdnc_groupings
class "sdnc-groupings" as sdnc_groupings << (M, #33CCFF) module>> 
class "common-hardware" as sdnc_groupings_I_common_hardware_grouping <<(G,Lime) grouping>> 
sdnc_groupings_I_common_hardware_grouping : unit-name : ct:name  
sdnc_groupings_I_common_hardware_grouping : unit-version : string {pattern = \d{1,2}.\d{1,2}(.\d{...}  
sdnc_groupings_I_common_hardware_grouping : unit-timestamp : yang:date-and-time  
sdnc_groupings_I_common_hardware_grouping : serial-number : string  
class "common-notification-event" as sdnc_groupings_I_common_notification_event_grouping <<(G,Lime) grouping>> 
} 

center footer
 <size:24> CommScope © 2020-2022 All Rights Reserved </size>
 endfooter 
@enduml

PlantUML version 1.2021.8(Sat Jun 26 09:20:59 BST 2021)
(APACHE source distribution)
Java Runtime: OpenJDK Runtime Environment
JVM: OpenJDK 64-Bit Server VM
Default Encoding: UTF-8
Language: en
Country: GB
--></g></svg>