<?xml version="1.0" encoding="UTF-8" standalone="no"?><svg xmlns="http://www.w3.org/2000/svg" xmlns:xlink="http://www.w3.org/1999/xlink" contentScriptType="application/ecmascript" contentStyleType="text/css" height="344px" preserveAspectRatio="none" style="width:932px;height:344px;background:#FFFFFF;" version="1.1" viewBox="0 0 932 344" width="932px" zoomAndPan="magnify"><defs><filter height="300%" id="f1xvnxo98kgzx9" width="300%" x="-1" y="-1"><feGaussianBlur result="blurOut" stdDeviation="2.0"/><feColorMatrix in="blurOut" result="blurOut2" type="matrix" values="0 0 0 0 0 0 0 0 0 0 0 0 0 0 0 0 0 0 .4 0"/><feOffset dx="4.0" dy="4.0" in="blurOut2" result="blurOut3"/><feBlend in="SourceGraphic" in2="blurOut3" mode="normal"/></filter></defs><g><text fill="#000000" font-family="sans-serif" font-size="18" lengthAdjust="spacing" textLength="152" x="382.75" y="16.708">sdnc-notifications</text><!--MD5=[f19fa368e1987828ebf4c9e6208e5f4a]
cluster cn_sdnc_notifications--><polygon fill="#FFFFFF" filter="url(#f1xvnxo98kgzx9)" points="16,181.9531,188,181.9531,195,204.25,688,204.25,688,307.9531,16,307.9531,16,181.9531" style="stroke:#000000;stroke-width:1.5;"/><line style="stroke:#000000;stroke-width:1.5;" x1="16" x2="195" y1="204.25" y2="204.25"/><text fill="#000000" font-family="sans-serif" font-size="14" font-weight="bold" lengthAdjust="spacing" textLength="166" x="20" y="196.9482">cn:sdnc-notifications</text><polygon fill="#FFFFFF" filter="url(#f1xvnxo98kgzx9)" points="342.5,65.9531,497.5,65.9531,504.5,88.25,511.5,88.25,511.5,118.5469,342.5,118.5469,342.5,65.9531" style="stroke:#000000;stroke-width:1.5;"/><line style="stroke:#000000;stroke-width:1.5;" x1="342.5" x2="504.5" y1="88.25" y2="88.25"/><text fill="#000000" font-family="sans-serif" font-size="14" font-weight="bold" lengthAdjust="spacing" textLength="149" x="346.5" y="80.9482">cg:sdnc-groupings</text><!--MD5=[55b509b952e53ea9b97073aa474cacbc]
class cn_sdnc_notifications--><rect fill="#FEFECE" filter="url(#f1xvnxo98kgzx9)" height="32" id="cn_sdnc_notifications" style="stroke:#A80036;stroke-width:1.5;" width="166" x="498" y="238.4531"/><ellipse cx="513" cy="254.4531" fill="#ADD1B2" rx="11" ry="11" style="stroke:#A80036;stroke-width:1.0;"/><path d="M515.9688,260.0938 Q515.3906,260.3906 514.75,260.5313 Q514.1094,260.6875 513.4063,260.6875 Q510.9063,260.6875 509.5781,259.0469 Q508.2656,257.3906 508.2656,254.2656 Q508.2656,251.1406 509.5781,249.4844 Q510.9063,247.8281 513.4063,247.8281 Q514.1094,247.8281 514.75,247.9844 Q515.4063,248.1406 515.9688,248.4375 L515.9688,251.1563 Q515.3438,250.5781 514.75,250.3125 Q514.1563,250.0313 513.5313,250.0313 Q512.1875,250.0313 511.5,251.1094 Q510.8125,252.1719 510.8125,254.2656 Q510.8125,256.3594 511.5,257.4375 Q512.1875,258.5 513.5313,258.5 Q514.1563,258.5 514.75,258.2344 Q515.3438,257.9531 515.9688,257.375 L515.9688,260.0938 Z " fill="#000000"/><text fill="#000000" font-family="sans-serif" font-size="12" lengthAdjust="spacing" textLength="134" x="527" y="258.6074">cn_sdnc_notifications</text><!--MD5=[cf666177591758a634720c6de00844fd]
class sdnc_notifications--><rect codeLine="20" fill="#FEFECE" filter="url(#f1xvnxo98kgzx9)" height="37.9375" id="sdnc_notifications" style="stroke:#A80036;stroke-width:1.5;" width="143" x="319.5" y="235.4531"/><ellipse cx="334.5" cy="254.4219" fill="#33CCFF" rx="11" ry="11" style="stroke:#A80036;stroke-width:1.0;"/><path d="M330.2188,248.0313 L333.1406,248.0313 L334.6094,253.4688 L336.0781,248.0313 L339.0156,248.0313 L339.0156,260.4219 L336.9063,260.4219 L336.9063,250.5 L335.5938,255.9219 L333.6563,255.9219 L332.3281,250.5 L332.3281,260.4219 L330.2188,260.4219 L330.2188,248.0313 Z " fill="#000000"/><text fill="#000000" font-family="sans-serif" font-size="12" font-style="italic" lengthAdjust="spacing" textLength="60" x="374" y="251.5918">«module»</text><text fill="#000000" font-family="sans-serif" font-size="12" lengthAdjust="spacing" textLength="111" x="348.5" y="265.5605">sdnc-notifications</text><!--MD5=[63902beda03d297b71c78ac5ee68f312]
class sdnc_notifications_I_notification_event_grouping--><rect codeLine="21" fill="#FEFECE" filter="url(#f1xvnxo98kgzx9)" height="58.7422" id="sdnc_notifications_I_notification_event_grouping" style="stroke:#A80036;stroke-width:1.5;" width="225" x="59.5" y="224.9531"/><ellipse cx="113.25" cy="243.9219" fill="#00FF00" rx="11" ry="11" style="stroke:#A80036;stroke-width:1.0;"/><path d="M114.4844,247.6875 L114.4844,245.3125 L112.8125,245.3125 L112.8125,243.25 L116.625,243.25 L116.625,248.9375 Q115.9219,249.5469 115.0625,249.8594 Q114.2188,250.1563 113.25,250.1563 Q110.8438,250.1563 109.5313,248.4844 Q108.2188,246.8125 108.2188,243.7344 Q108.2188,240.6094 109.5469,238.9531 Q110.875,237.2969 113.375,237.2969 Q114.1094,237.2969 114.8281,237.5156 Q115.5625,237.7344 116.1875,238.125 L116.1875,240.8438 Q115.6719,240.1719 115,239.8438 Q114.3438,239.5 113.5469,239.5 Q112.1406,239.5 111.4531,240.5625 Q110.7656,241.6094 110.7656,243.7344 Q110.7656,245.7969 111.4219,246.8906 Q112.0938,247.9688 113.375,247.9688 Q113.75,247.9688 114.0313,247.9063 Q114.3125,247.8281 114.4844,247.6875 Z " fill="#000000"/><text fill="#000000" font-family="sans-serif" font-size="12" font-style="italic" lengthAdjust="spacing" textLength="70" x="153.25" y="241.0918">«grouping»</text><text fill="#000000" font-family="sans-serif" font-size="12" lengthAdjust="spacing" textLength="109" x="133.75" y="255.0605">notification-event</text><line style="stroke:#A80036;stroke-width:1.5;" x1="60.5" x2="283.5" y1="262.8906" y2="262.8906"/><text fill="#000000" font-family="sans-serif" font-size="11" lengthAdjust="spacing" textLength="213" x="65.5" y="277.1011">cg:common-notification-event {uses}</text><path d="M546.5,26.9531 L546.5,158.0156 L923.5,158.0156 L923.5,36.9531 L913.5,26.9531 L546.5,26.9531 " fill="#FBFB77" filter="url(#f1xvnxo98kgzx9)" style="stroke:#A80036;stroke-width:1.0;"/><path d="M913.5,26.9531 L913.5,36.9531 L923.5,36.9531 L913.5,26.9531 " fill="#FBFB77" style="stroke:#A80036;stroke-width:1.0;"/><text fill="#000000" font-family="sans-serif" font-size="13" font-weight="bold" lengthAdjust="spacing" textLength="92" x="552.5" y="44.02">Namespace:</text><text fill="#000000" font-family="sans-serif" font-size="13" lengthAdjust="spacing" textLength="251" x="653.5" y="44.02">urn:com:vendor:yang:sdnc:notifications</text><text fill="#000000" font-family="sans-serif" font-size="13" font-weight="bold" lengthAdjust="spacing" textLength="48" x="552.5" y="59.1528">Prefix:</text><text fill="#000000" font-family="sans-serif" font-size="13" lengthAdjust="spacing" textLength="15" x="609.5" y="59.1528">cn</text><text fill="#000000" font-family="sans-serif" font-size="13" font-weight="bold" lengthAdjust="spacing" textLength="104" x="552.5" y="74.2856">Organization :</text><text fill="#000000" font-family="sans-serif" font-size="13" lengthAdjust="spacing" textLength="147" x="552.5" y="89.4185">Cowdrey Consulting UK</text><text fill="#000000" font-family="sans-serif" font-size="13" font-weight="bold" lengthAdjust="spacing" textLength="67" x="552.5" y="104.5513">Contact :</text><text fill="#000000" font-family="sans-serif" font-size="13" lengthAdjust="spacing" textLength="109" x="552.5" y="119.6841">lee@cowdrey.net</text><text fill="#000000" font-family="sans-serif" font-size="13" font-weight="bold" lengthAdjust="spacing" textLength="71" x="552.5" y="134.8169">Revision :</text><text fill="#000000" font-family="sans-serif" font-size="13" lengthAdjust="spacing" textLength="74" x="632.5" y="134.8169">2020-12-04</text><text fill="#000000" font-family="sans-serif" font-size="13" lengthAdjust="spacing" textLength="0" x="556.5" y="149.9497"/><!--MD5=[c461552bab6875b7f7f3fa7369b9e93a]
link GMN4 to cn_sdnc_notifications--><path d="M672.81,158.0731 C644.42,187.5631 613.25,219.9431 595.51,238.3731 " fill="none" id="GMN4-cn_sdnc_notifications" style="stroke:#A80036;stroke-width:1.0;stroke-dasharray:7.0,7.0;"/><!--MD5=[37dc015deafe9b1c0149b42cb65d4367]
reverse link cg_sdnc_groupings to cn_sdnc_notifications--><path codeLine="19" d="M462.31,130.1431 C495.28,164.3931 542.86,213.8331 566.51,238.4031 " fill="none" id="cg_sdnc_groupings-backto-cn_sdnc_notifications" style="stroke:#A80036;stroke-width:1.0;"/><ellipse cx="457.2853" cy="124.9294" fill="#FFFFFF" rx="8" ry="8" style="stroke:#A80036;stroke-width:1.0;"/><line style="stroke:#A80036;stroke-width:1.0;" x1="462.8307" x2="451.74" y1="130.6956" y2="119.1631"/><line style="stroke:#A80036;stroke-width:1.0;" x1="451.5191" x2="463.0516" y1="130.4747" y2="119.384"/><text fill="#888888" font-family="sans-serif" font-size="24" lengthAdjust="spacing" textLength="280" x="318.75" y="336.2305">Cowdrey Consulting UK</text><!--MD5=[414399adc2e3d619aba6467d45205377]
@startuml img/sdnc-notifications.png 
hide empty fields 
hide empty methods 
hide <<case>> circle
hide <<augment>> circle
hide <<choice>> circle
hide <<leafref>> stereotype
hide <<leafref>> circle
page 1x1 
Title sdnc-notifications 
package "cg:sdnc-groupings" as cg_sdnc_groupings { 
} 
note top of cn_sdnc_notifications : <b>Namespace: </b> urn:com:vendor:yang:sdnc:notifications \n<b>Prefix: </b> cn \n<b>Organization : </b>\nCowdrey Consulting UK \n<b>Contact : </b>\nlee@cowdrey.net \n<b>Revision : </b> 2020-12-04 \n
package "cn:sdnc-notifications" as cn_sdnc_notifications { 
cg_sdnc_groupings +- - cn_sdnc_notifications
class "sdnc-notifications" as sdnc_notifications << (M, #33CCFF) module>> 
class "notification-event" as sdnc_notifications_I_notification_event_grouping <<(G,Lime) grouping>> 
sdnc_notifications_I_notification_event_grouping : cg:common-notification-event {uses} 
} 

center footer
 <size:24> Cowdrey Consulting UK </size>
 endfooter 
@enduml

PlantUML version 1.2021.8(Sat Jun 26 09:20:59 BST 2021)
(APACHE source distribution)
Java Runtime: OpenJDK Runtime Environment
JVM: OpenJDK 64-Bit Server VM
Default Encoding: UTF-8
Language: en
Country: GB
--></g></svg>