<?xml version="1.0" encoding="UTF-8" standalone="no"?><svg xmlns="http://www.w3.org/2000/svg" xmlns:xlink="http://www.w3.org/1999/xlink" contentScriptType="application/ecmascript" contentStyleType="text/css" height="1270px" preserveAspectRatio="none" style="width:1196px;height:1270px;background:#FFFFFF;" version="1.1" viewBox="0 0 1196 1270" width="1196px" zoomAndPan="magnify"><defs><filter height="300%" id="fdwov3axa2fc9" width="300%" x="-1" y="-1"><feGaussianBlur result="blurOut" stdDeviation="2.0"/><feColorMatrix in="blurOut" result="blurOut2" type="matrix" values="0 0 0 0 0 0 0 0 0 0 0 0 0 0 0 0 0 0 .4 0"/><feOffset dx="4.0" dy="4.0" in="blurOut2" result="blurOut3"/><feBlend in="SourceGraphic" in2="blurOut3" mode="normal"/></filter></defs><g><text fill="#000000" font-family="sans-serif" font-size="18" lengthAdjust="spacing" textLength="132" x="524.75" y="16.708">sdnc-clinf-tasks</text><!--MD5=[27d689716fe8260215365408715bd279]
cluster cct_sdnc_clinf_tasks--><polygon fill="#FFFFFF" filter="url(#fdwov3axa2fc9)" points="16,212.9531,177,212.9531,184,235.25,706,235.25,706,1233.9531,16,1233.9531,16,212.9531" style="stroke:#000000;stroke-width:1.5;"/><line style="stroke:#000000;stroke-width:1.5;" x1="16" x2="184" y1="235.25" y2="235.25"/><text fill="#000000" font-family="sans-serif" font-size="14" font-weight="bold" lengthAdjust="spacing" textLength="155" x="20" y="227.9482">cct:sdnc-clinf-tasks</text><polygon fill="#FFFFFF" filter="url(#fdwov3axa2fc9)" points="341.5,65.9531,400.5,65.9531,407.5,88.25,414.5,88.25,414.5,118.5469,341.5,118.5469,341.5,65.9531" style="stroke:#000000;stroke-width:1.5;"/><line style="stroke:#000000;stroke-width:1.5;" x1="341.5" x2="407.5" y1="88.25" y2="88.25"/><text fill="#000000" font-family="sans-serif" font-size="14" font-weight="bold" lengthAdjust="spacing" textLength="53" x="345.5" y="80.9482">c:sdnc</text><polygon fill="#FFFFFF" filter="url(#fdwov3axa2fc9)" points="450,65.9531,556,65.9531,563,88.25,570,88.25,570,118.5469,450,118.5469,450,65.9531" style="stroke:#000000;stroke-width:1.5;"/><line style="stroke:#000000;stroke-width:1.5;" x1="450" x2="563" y1="88.25" y2="88.25"/><text fill="#000000" font-family="sans-serif" font-size="14" font-weight="bold" lengthAdjust="spacing" textLength="100" x="454" y="80.9482">cnf:sdnc-xnf</text><polygon fill="#FFFFFF" filter="url(#fdwov3axa2fc9)" points="605,65.9531,775,65.9531,782,88.25,789,88.25,789,118.5469,605,118.5469,605,65.9531" style="stroke:#000000;stroke-width:1.5;"/><line style="stroke:#000000;stroke-width:1.5;" x1="605" x2="782" y1="88.25" y2="88.25"/><text fill="#000000" font-family="sans-serif" font-size="14" font-weight="bold" lengthAdjust="spacing" textLength="164" x="609" y="80.9482">yang:ietf-yang-types</text><!--MD5=[a16e96ea67e442d9c22a3a084999c699]
class cct_sdnc_clinf_tasks--><rect fill="#FEFECE" filter="url(#fdwov3axa2fc9)" height="32" id="cct_sdnc_clinf_tasks" style="stroke:#A80036;stroke-width:1.5;" width="158" x="524" y="292.4531"/><ellipse cx="539" cy="308.4531" fill="#ADD1B2" rx="11" ry="11" style="stroke:#A80036;stroke-width:1.0;"/><path d="M541.9688,314.0938 Q541.3906,314.3906 540.75,314.5313 Q540.1094,314.6875 539.4063,314.6875 Q536.9063,314.6875 535.5781,313.0469 Q534.2656,311.3906 534.2656,308.2656 Q534.2656,305.1406 535.5781,303.4844 Q536.9063,301.8281 539.4063,301.8281 Q540.1094,301.8281 540.75,301.9844 Q541.4063,302.1406 541.9688,302.4375 L541.9688,305.1563 Q541.3438,304.5781 540.75,304.3125 Q540.1563,304.0313 539.5313,304.0313 Q538.1875,304.0313 537.5,305.1094 Q536.8125,306.1719 536.8125,308.2656 Q536.8125,310.3594 537.5,311.4375 Q538.1875,312.5 539.5313,312.5 Q540.1563,312.5 540.75,312.2344 Q541.3438,311.9531 541.9688,311.375 L541.9688,314.0938 Z " fill="#000000"/><text fill="#000000" font-family="sans-serif" font-size="12" lengthAdjust="spacing" textLength="126" x="553" y="312.6074">cct_sdnc_clinf_tasks</text><!--MD5=[8e29a8babd6ff60774b9441e221cde8a]
class sdnc_clinf_tasks--><rect codeLine="26" fill="#FEFECE" filter="url(#fdwov3axa2fc9)" height="105.1563" id="sdnc_clinf_tasks" style="stroke:#A80036;stroke-width:1.5;" width="429" x="59.5" y="255.9531"/><ellipse cx="221.25" cy="274.9219" fill="#33CCFF" rx="11" ry="11" style="stroke:#A80036;stroke-width:1.0;"/><path d="M216.9688,268.5313 L219.8906,268.5313 L221.3594,273.9688 L222.8281,268.5313 L225.7656,268.5313 L225.7656,280.9219 L223.6563,280.9219 L223.6563,271 L222.3438,276.4219 L220.4063,276.4219 L219.0781,271 L219.0781,280.9219 L216.9688,280.9219 L216.9688,268.5313 Z " fill="#000000"/><text fill="#000000" font-family="sans-serif" font-size="12" font-style="italic" lengthAdjust="spacing" textLength="60" x="260.25" y="272.0918">«module»</text><text fill="#000000" font-family="sans-serif" font-size="12" lengthAdjust="spacing" textLength="97" x="241.75" y="286.0605">sdnc-clinf-tasks</text><line style="stroke:#A80036;stroke-width:1.5;" x1="60.5" x2="487.5" y1="293.8906" y2="293.8906"/><text fill="#000000" font-family="sans-serif" font-size="11" lengthAdjust="spacing" textLength="146" x="65.5" y="308.1011">feature : sdnc_clinf_tasks</text><line style="stroke:#A80036;stroke-width:1.5;" x1="60.5" x2="487.5" y1="314.6953" y2="314.6953"/><text fill="#000000" font-family="sans-serif" font-size="11" lengthAdjust="spacing" textLength="255" x="65.5" y="328.9058">add( in: instance in: instance_slice out: task)</text><text fill="#000000" font-family="sans-serif" font-size="11" lengthAdjust="spacing" textLength="118" x="65.5" y="341.7104">list-nf( out: instance)</text><text fill="#000000" font-family="sans-serif" font-size="11" lengthAdjust="spacing" textLength="417" x="65.5" y="354.5151">list-tasks-by-nf( in: instance out: task out: instance_slice out: timestamp)</text><!--MD5=[4809cd8887ed0c9491cd832576b7355c]
class c_sdnc--><rect codeLine="31" fill="#FEFECE" filter="url(#fdwov3axa2fc9)" height="37.9375" id="c_sdnc" style="stroke:#A80036;stroke-width:1.5;" width="98" x="225" y="421.9531"/><ellipse cx="240" cy="440.9219" fill="#5F9EA0" rx="11" ry="11" style="stroke:#A80036;stroke-width:1.0;"/><path d="M240.1094,436.2656 L238.9531,441.3438 L241.2813,441.3438 L240.1094,436.2656 Z M238.625,434.0313 L241.6094,434.0313 L244.9688,446.4219 L242.5156,446.4219 L241.75,443.3594 L238.4688,443.3594 L237.7188,446.4219 L235.2813,446.4219 L238.625,434.0313 Z " fill="#000000"/><text fill="#000000" font-family="sans-serif" font-size="12" font-style="italic" lengthAdjust="spacing" textLength="70" x="252" y="438.0918">«augment»</text><text fill="#000000" font-family="sans-serif" font-size="12" lengthAdjust="spacing" textLength="45" x="264.5" y="452.0605">/c:sdnc</text><path d="M127.5,527.4531 L127.5,552.5859 A0,0 0 0 0 127.5,552.5859 L268.5,552.5859 A0,0 0 0 0 268.5,552.5859 L268.5,537.4531 L258.5,527.4531 L211.21,527.4531 L259.7,460.1931 L203.21,527.4531 L127.5,527.4531 A0,0 0 0 0 127.5,527.4531 " fill="#FBFB77" filter="url(#fdwov3axa2fc9)" style="stroke:#A80036;stroke-width:1.0;"/><path d="M258.5,527.4531 L258.5,537.4531 L268.5,537.4531 L258.5,527.4531 " fill="#FBFB77" style="stroke:#A80036;stroke-width:1.0;"/><text fill="#000000" font-family="sans-serif" font-size="13" font-weight="bold" lengthAdjust="spacing" textLength="74" x="133.5" y="544.52">if-feature:</text><text fill="#000000" font-family="sans-serif" font-size="13" lengthAdjust="spacing" textLength="41" x="212.5" y="544.52">c:sdnc</text><!--MD5=[725cb34d741ac2ec3c1d5c0cc3eee82e]
class sdnc_I_sdnc_I_clinf--><rect codeLine="36" fill="#FEFECE" filter="url(#fdwov3axa2fc9)" height="37.9375" id="sdnc_I_sdnc_I_clinf" style="stroke:#A80036;stroke-width:1.5;" width="102" x="304" y="520.9531"/><ellipse cx="319" cy="539.9219" fill="#ADD1B2" rx="11" ry="11" style="stroke:#A80036;stroke-width:1.0;"/><path d="M321.9688,545.5625 Q321.3906,545.8594 320.75,546 Q320.1094,546.1563 319.4063,546.1563 Q316.9063,546.1563 315.5781,544.5156 Q314.2656,542.8594 314.2656,539.7344 Q314.2656,536.6094 315.5781,534.9531 Q316.9063,533.2969 319.4063,533.2969 Q320.1094,533.2969 320.75,533.4531 Q321.4063,533.6094 321.9688,533.9063 L321.9688,536.625 Q321.3438,536.0469 320.75,535.7813 Q320.1563,535.5 319.5313,535.5 Q318.1875,535.5 317.5,536.5781 Q316.8125,537.6406 316.8125,539.7344 Q316.8125,541.8281 317.5,542.9063 Q318.1875,543.9688 319.5313,543.9688 Q320.1563,543.9688 320.75,543.7031 Q321.3438,543.4219 321.9688,542.8438 L321.9688,545.5625 Z " fill="#000000"/><text fill="#000000" font-family="sans-serif" font-size="12" font-style="italic" lengthAdjust="spacing" textLength="74" x="331" y="537.0918">«container»</text><text fill="#000000" font-family="sans-serif" font-size="12" lengthAdjust="spacing" textLength="25" x="355.5" y="551.0605">clinf</text><!--MD5=[0a6aeaf84d243b3448c3489da5c9eb11]
class sdnc_I_sdnc_I_clinf_I_tasks--><rect codeLine="38" fill="#FEFECE" filter="url(#fdwov3axa2fc9)" height="79.5469" id="sdnc_I_sdnc_I_clinf_I_tasks" style="stroke:#A80036;stroke-width:1.5;" width="241" x="234.5" y="619.9531"/><ellipse cx="333.75" cy="638.9219" fill="#FF7700" rx="11" ry="11" style="stroke:#A80036;stroke-width:1.0;"/><path d="M330.625,644.9219 L330.625,632.5313 L333.0625,632.5313 L333.0625,642.7656 L338.2969,642.7656 L338.2969,644.9219 L330.625,644.9219 Z " fill="#000000"/><text fill="#000000" font-family="sans-serif" font-size="12" font-style="italic" lengthAdjust="spacing" textLength="31" x="355.75" y="636.0918">«list»</text><text fill="#000000" font-family="sans-serif" font-size="12" lengthAdjust="spacing" textLength="34" x="354.25" y="650.0605">tasks</text><line style="stroke:#A80036;stroke-width:1.5;" x1="235.5" x2="474.5" y1="657.8906" y2="657.8906"/><ellipse cx="245.5" cy="668.8906" rx="3" ry="3" style="stroke:#038048;stroke-width:1.0;fill:none;"/><text fill="#000000" font-family="sans-serif" font-size="11" lengthAdjust="spacing" textLength="215" x="254.5" y="672.1011">task : yang:uuid  {key}  {mandatory}</text><line style="stroke:#A80036;stroke-width:1.5;" x1="235.5" x2="474.5" y1="678.6953" y2="678.6953"/><text fill="#000000" font-family="sans-serif" font-size="11" lengthAdjust="spacing" textLength="43" x="240.5" y="692.9058">empty()</text><!--MD5=[d0aee344b44c70d14cd4847a101116a3]
class sdnc_I_sdnc_I_clinf_I_tasks_I_xnf--><rect codeLine="42" fill="#FEFECE" filter="url(#fdwov3axa2fc9)" height="79.5469" id="sdnc_I_sdnc_I_clinf_I_tasks_I_xnf" style="stroke:#A80036;stroke-width:1.5;" width="340" x="185" y="760.9531"/><ellipse cx="337.25" cy="779.9219" fill="#FF7700" rx="11" ry="11" style="stroke:#A80036;stroke-width:1.0;"/><path d="M334.125,785.9219 L334.125,773.5313 L336.5625,773.5313 L336.5625,783.7656 L341.7969,783.7656 L341.7969,785.9219 L334.125,785.9219 Z " fill="#000000"/><text fill="#000000" font-family="sans-serif" font-size="12" font-style="italic" lengthAdjust="spacing" textLength="31" x="355.75" y="777.0918">«list»</text><text fill="#000000" font-family="sans-serif" font-size="12" lengthAdjust="spacing" textLength="18" x="362.25" y="791.0605">xnf</text><line style="stroke:#A80036;stroke-width:1.5;" x1="186" x2="524" y1="798.8906" y2="798.8906"/><ellipse cx="196" cy="809.8906" rx="3" ry="3" style="stroke:#038048;stroke-width:1.0;fill:none;"/><text fill="#000000" font-family="sans-serif" font-size="11" lengthAdjust="spacing" textLength="314" x="205" y="813.1011">instance : leafref : ...cnf:instance  {key}  {mandatory}</text><line style="stroke:#A80036;stroke-width:1.5;" x1="186" x2="524" y1="819.6953" y2="819.6953"/><text fill="#000000" font-family="sans-serif" font-size="11" lengthAdjust="spacing" textLength="41" x="191" y="833.9058">purge()</text><!--MD5=[e0dae2a4111df9e915bb31ff81194580]
class sdnc_I_sdnc_I_clinf_I_tasks_I_xnf_I_slices--><rect codeLine="46" fill="#FEFECE" filter="url(#fdwov3axa2fc9)" height="37.9375" id="sdnc_I_sdnc_I_clinf_I_tasks_I_xnf_I_slices" style="stroke:#A80036;stroke-width:1.5;" width="102" x="241" y="917.9531"/><ellipse cx="256" cy="936.9219" fill="#ADD1B2" rx="11" ry="11" style="stroke:#A80036;stroke-width:1.0;"/><path d="M258.9688,942.5625 Q258.3906,942.8594 257.75,943 Q257.1094,943.1563 256.4063,943.1563 Q253.9063,943.1563 252.5781,941.5156 Q251.2656,939.8594 251.2656,936.7344 Q251.2656,933.6094 252.5781,931.9531 Q253.9063,930.2969 256.4063,930.2969 Q257.1094,930.2969 257.75,930.4531 Q258.4063,930.6094 258.9688,930.9063 L258.9688,933.625 Q258.3438,933.0469 257.75,932.7813 Q257.1563,932.5 256.5313,932.5 Q255.1875,932.5 254.5,933.5781 Q253.8125,934.6406 253.8125,936.7344 Q253.8125,938.8281 254.5,939.9063 Q255.1875,940.9688 256.5313,940.9688 Q257.1563,940.9688 257.75,940.7031 Q258.3438,940.4219 258.9688,939.8438 L258.9688,942.5625 Z " fill="#000000"/><text fill="#000000" font-family="sans-serif" font-size="12" font-style="italic" lengthAdjust="spacing" textLength="74" x="268" y="934.0918">«container»</text><text fill="#000000" font-family="sans-serif" font-size="12" lengthAdjust="spacing" textLength="35" x="287.5" y="948.0605">slices</text><!--MD5=[5190141b188235c139d5e69288d9cfab]
class sdnc_I_sdnc_I_clinf_I_tasks_I_xnf_I_slices_I_slices--><rect codeLine="48" fill="#FEFECE" filter="url(#fdwov3axa2fc9)" height="92.3516" id="sdnc_I_sdnc_I_clinf_I_tasks_I_xnf_I_slices_I_slices" style="stroke:#A80036;stroke-width:1.5;" width="400" x="92" y="1016.9531"/><ellipse cx="270.25" cy="1035.9219" fill="#FF7700" rx="11" ry="11" style="stroke:#A80036;stroke-width:1.0;"/><path d="M267.125,1041.9219 L267.125,1029.5313 L269.5625,1029.5313 L269.5625,1039.7656 L274.7969,1039.7656 L274.7969,1041.9219 L267.125,1041.9219 Z " fill="#000000"/><text fill="#000000" font-family="sans-serif" font-size="12" font-style="italic" lengthAdjust="spacing" textLength="31" x="292.75" y="1033.0918">«list»</text><text fill="#000000" font-family="sans-serif" font-size="12" lengthAdjust="spacing" textLength="35" x="290.75" y="1047.0605">slices</text><line style="stroke:#A80036;stroke-width:1.5;" x1="93" x2="491" y1="1054.8906" y2="1054.8906"/><ellipse cx="103" cy="1065.8906" rx="3" ry="3" style="stroke:#038048;stroke-width:1.0;fill:none;"/><text fill="#000000" font-family="sans-serif" font-size="11" lengthAdjust="spacing" textLength="374" x="112" y="1069.1011">instance-slice : leafref : ...cnf:instance-slice  {key}  {mandatory}</text><text fill="#000000" font-family="sans-serif" font-size="11" lengthAdjust="spacing" textLength="270" x="112" y="1081.9058">timestamp : yang:date-and-time   {mandatory}</text><line style="stroke:#A80036;stroke-width:1.5;" x1="93" x2="491" y1="1088.5" y2="1088.5"/><text fill="#000000" font-family="sans-serif" font-size="11" lengthAdjust="spacing" textLength="43" x="98" y="1102.7104">delete()</text><!--MD5=[5690eb8f8006092f274ad99df40c4886]
class sdnc_I_sdnc_I_xnf_I_nf--><rect codeLine="53" fill="#FEFECE" filter="url(#fdwov3axa2fc9)" height="23.9688" id="sdnc_I_sdnc_I_xnf_I_nf" style="stroke:#A80036;stroke-width:1.5;" width="135" x="378.5" y="924.9531"/><text fill="#000000" font-family="sans-serif" font-size="12" lengthAdjust="spacing" textLength="129" x="381.5" y="941.0918">/c:sdnc/cnf:xnf/cnf:nf</text><!--MD5=[da9d0697910f9303b9510d5a73b0d6f8]
class sdnc_I_sdnc_I_xnf_I_nf_I_configs_I_config_slices--><rect codeLine="54" fill="#FEFECE" filter="url(#fdwov3axa2fc9)" height="23.9688" id="sdnc_I_sdnc_I_xnf_I_nf_I_configs_I_config_slices" style="stroke:#A80036;stroke-width:1.5;" width="311" x="136.5" y="1185.9531"/><text fill="#000000" font-family="sans-serif" font-size="12" lengthAdjust="spacing" textLength="305" x="139.5" y="1202.0918">/c:sdnc/cnf:xnf/cnf:nf/cnf:configs/cnf:config-slices</text><path d="M824.5,26.9531 L824.5,158.0156 L1187.5,158.0156 L1187.5,36.9531 L1177.5,26.9531 L824.5,26.9531 " fill="#FBFB77" filter="url(#fdwov3axa2fc9)" style="stroke:#A80036;stroke-width:1.0;"/><path d="M1177.5,26.9531 L1177.5,36.9531 L1187.5,36.9531 L1177.5,26.9531 " fill="#FBFB77" style="stroke:#A80036;stroke-width:1.0;"/><text fill="#000000" font-family="sans-serif" font-size="13" font-weight="bold" lengthAdjust="spacing" textLength="92" x="830.5" y="44.02">Namespace:</text><text fill="#000000" font-family="sans-serif" font-size="13" lengthAdjust="spacing" textLength="237" x="931.5" y="44.02">urn:com:vendor:yang:sdnc:clinf:tasks</text><text fill="#000000" font-family="sans-serif" font-size="13" font-weight="bold" lengthAdjust="spacing" textLength="48" x="830.5" y="59.1528">Prefix:</text><text fill="#000000" font-family="sans-serif" font-size="13" lengthAdjust="spacing" textLength="19" x="887.5" y="59.1528">cct</text><text fill="#000000" font-family="sans-serif" font-size="13" font-weight="bold" lengthAdjust="spacing" textLength="104" x="830.5" y="74.2856">Organization :</text><text fill="#000000" font-family="sans-serif" font-size="13" lengthAdjust="spacing" textLength="147" x="830.5" y="89.4185">Cowdrey Consulting UK</text><text fill="#000000" font-family="sans-serif" font-size="13" font-weight="bold" lengthAdjust="spacing" textLength="67" x="830.5" y="104.5513">Contact :</text><text fill="#000000" font-family="sans-serif" font-size="13" lengthAdjust="spacing" textLength="109" x="830.5" y="119.6841">lee@cowdrey.net</text><text fill="#000000" font-family="sans-serif" font-size="13" font-weight="bold" lengthAdjust="spacing" textLength="71" x="830.5" y="134.8169">Revision :</text><text fill="#000000" font-family="sans-serif" font-size="13" lengthAdjust="spacing" textLength="74" x="910.5" y="134.8169">2020-12-04</text><text fill="#000000" font-family="sans-serif" font-size="13" lengthAdjust="spacing" textLength="0" x="834.5" y="149.9497"/><!--MD5=[2878ddd63c683f2ceae482505e72fcb3]
link GMN6 to cct_sdnc_clinf_tasks--><path d="M884.27,158.0931 C795.98,204.9731 683.34,264.7931 631.48,292.3331 " fill="none" id="GMN6-cct_sdnc_clinf_tasks" style="stroke:#A80036;stroke-width:1.0;stroke-dasharray:7.0,7.0;"/><!--MD5=[287a77534948991762a80760dc8e4ec3]
reverse link c_sdnc to cct_sdnc_clinf_tasks--><path codeLine="23" d="M405.15,130.8731 C413.13,140.4031 422.33,150.1431 432,157.9531 C460.92,181.3131 476.81,173.9331 506,196.9531 C542.48,225.7231 576.12,269.4331 592.52,292.3031 " fill="none" id="c_sdnc-backto-cct_sdnc_clinf_tasks" style="stroke:#A80036;stroke-width:1.0;"/><ellipse cx="400.7245" cy="125.3405" fill="#FFFFFF" rx="8" ry="8" style="stroke:#A80036;stroke-width:1.0;"/><line style="stroke:#A80036;stroke-width:1.0;" x1="405.7091" x2="395.74" y1="131.5978" y2="119.0831"/><line style="stroke:#A80036;stroke-width:1.0;" x1="394.4672" x2="406.9819" y1="130.325" y2="120.3559"/><!--MD5=[ba3501f1622f010c133f7f075fbc57d5]
reverse link cnf_sdnc_xnf to cct_sdnc_clinf_tasks--><path codeLine="24" d="M527.23,133.1131 C548.11,181.1431 582.24,259.6731 596.46,292.4031 " fill="none" id="cnf_sdnc_xnf-backto-cct_sdnc_clinf_tasks" style="stroke:#A80036;stroke-width:1.0;"/><ellipse cx="524.4053" cy="126.6016" fill="#FFFFFF" rx="8" ry="8" style="stroke:#A80036;stroke-width:1.0;"/><line style="stroke:#A80036;stroke-width:1.0;" x1="527.5907" x2="521.22" y1="133.9401" y2="119.2631"/><line style="stroke:#A80036;stroke-width:1.0;" x1="517.0669" x2="531.7438" y1="129.787" y2="123.4163"/><!--MD5=[78227498f349234d34c4183052da6551]
reverse link yang_ietf_yang_types to cct_sdnc_clinf_tasks--><path codeLine="25" d="M679.58,133.1131 C658.48,181.1431 623.99,259.6731 609.61,292.4031 " fill="none" id="yang_ietf_yang_types-backto-cct_sdnc_clinf_tasks" style="stroke:#A80036;stroke-width:1.0;"/><ellipse cx="682.4463" cy="126.5892" fill="#FFFFFF" rx="8" ry="8" style="stroke:#A80036;stroke-width:1.0;"/><line style="stroke:#A80036;stroke-width:1.0;" x1="679.2325" x2="685.66" y1="133.9153" y2="119.2631"/><line style="stroke:#A80036;stroke-width:1.0;" x1="675.1202" x2="689.7724" y1="123.3755" y2="129.803"/><!--MD5=[d3294390f765593d1ff22324dc92ef74]
reverse link sdnc_clinf_tasks to c_sdnc--><path codeLine="32" d="M274,374.0531 C274,391.6331 274,409.2731 274,421.8731 " fill="none" id="sdnc_clinf_tasks-backto-c_sdnc" style="stroke:#A80036;stroke-width:1.0;"/><polygon fill="#A80036" points="274,361.0331,270,367.0331,274,373.0331,278,367.0331,274,361.0331" style="stroke:#A80036;stroke-width:1.0;"/><!--MD5=[1ec1a578da5bc3f79113a98ce55b82ff]
reverse link c_sdnc to sdnc_I_sdnc_I_clinf--><path codeLine="37" d="M297.65,470.2831 C311.27,486.5831 327.97,506.5831 339.83,520.7931 " fill="none" id="c_sdnc-backto-sdnc_I_sdnc_I_clinf" style="stroke:#A80036;stroke-width:1.0;"/><polygon fill="#A80036" points="289.24,460.1931,290.0163,467.3623,296.9326,469.4031,296.1563,462.2339,289.24,460.1931" style="stroke:#A80036;stroke-width:1.0;"/><text fill="#000000" font-family="sans-serif" font-size="13" lengthAdjust="spacing" textLength="8" x="325.9592" y="509.7253">1</text><!--MD5=[e7b5f9d8195c935cf4f02919d2f441d3]
reverse link sdnc_I_sdnc_I_clinf to sdnc_I_sdnc_I_clinf_I_tasks--><path codeLine="39" d="M355,572.4531 C355,586.9031 355,604.1831 355,619.4931 " fill="none" id="sdnc_I_sdnc_I_clinf-backto-sdnc_I_sdnc_I_clinf_I_tasks" style="stroke:#A80036;stroke-width:1.0;"/><polygon fill="#A80036" points="355,559.1331,351,565.1331,355,571.1331,359,565.1331,355,559.1331" style="stroke:#A80036;stroke-width:1.0;"/><text fill="#000000" font-family="sans-serif" font-size="13" lengthAdjust="spacing" textLength="26" x="326.9281" y="608.9631">0..N</text><!--MD5=[8f66ee0fdef20ca32c543c7f5684923b]
reverse link sdnc_I_sdnc_I_clinf_I_tasks to sdnc_I_sdnc_I_clinf_I_tasks_I_xnf--><path codeLine="43" d="M355,713.4131 C355,729.0931 355,746.0031 355,760.6731 " fill="none" id="sdnc_I_sdnc_I_clinf_I_tasks-backto-sdnc_I_sdnc_I_clinf_I_tasks_I_xnf" style="stroke:#A80036;stroke-width:1.0;"/><polygon fill="#A80036" points="355,700.0431,351,706.0431,355,712.0431,359,706.0431,355,700.0431" style="stroke:#A80036;stroke-width:1.0;"/><text fill="#000000" font-family="sans-serif" font-size="13" lengthAdjust="spacing" textLength="26" x="326.8469" y="749.875">0..N</text><!--MD5=[4bcb4defc1a1c94c72aecc4a5255746d]
reverse link sdnc_I_sdnc_I_clinf_I_tasks_I_xnf to sdnc_I_sdnc_I_clinf_I_tasks_I_xnf_I_slices--><path codeLine="47" d="M330.98,853.0331 C320.27,875.8231 308.34,901.2031 300.53,917.8131 " fill="none" id="sdnc_I_sdnc_I_clinf_I_tasks_I_xnf-backto-sdnc_I_sdnc_I_clinf_I_tasks_I_xnf_I_slices" style="stroke:#A80036;stroke-width:1.0;"/><polygon fill="#A80036" points="336.61,841.0731,330.437,844.8007,331.5036,851.9324,337.6766,848.2049,336.61,841.0731" style="stroke:#A80036;stroke-width:1.0;"/><text fill="#000000" font-family="sans-serif" font-size="13" lengthAdjust="spacing" textLength="8" x="293.9173" y="906.7514">1</text><!--MD5=[7c8ce96b96ee3b199ee6ffe17d37e9e1]
reverse link sdnc_I_sdnc_I_clinf_I_tasks_I_xnf_I_slices to sdnc_I_sdnc_I_clinf_I_tasks_I_xnf_I_slices_I_slices--><path codeLine="49" d="M292,969.2531 C292,983.6731 292,1001.0531 292,1016.8631 " fill="none" id="sdnc_I_sdnc_I_clinf_I_tasks_I_xnf_I_slices-backto-sdnc_I_sdnc_I_clinf_I_tasks_I_xnf_I_slices_I_slices" style="stroke:#A80036;stroke-width:1.0;"/><polygon fill="#A80036" points="292,955.9831,288,961.9831,292,967.9831,296,961.9831,292,955.9831" style="stroke:#A80036;stroke-width:1.0;"/><text fill="#000000" font-family="sans-serif" font-size="13" lengthAdjust="spacing" textLength="26" x="264.0906" y="1006.0429">0..N</text><!--MD5=[7a8dd28b710fbf8ab012bdde66ca15e8]
link sdnc_I_sdnc_I_clinf_I_tasks_I_xnf to sdnc_I_sdnc_I_xnf_I_nf--><path codeLine="57" d="M381.57,841.0731 C399.46,867.4231 422.11,900.7731 435.24,920.1031 " fill="none" id="sdnc_I_sdnc_I_clinf_I_tasks_I_xnf-to-sdnc_I_sdnc_I_xnf_I_nf" style="stroke:#A80036;stroke-width:1.0;"/><polygon fill="#A80036" points="438.36,924.7031,436.6115,915.0107,435.5504,920.5672,429.994,919.5061,438.36,924.7031" style="stroke:#A80036;stroke-width:1.0;"/><text fill="#000000" font-family="sans-serif" font-size="13" lengthAdjust="spacing" textLength="54" x="413" y="884.02">instance</text><text fill="#000000" font-family="sans-serif" font-size="13" lengthAdjust="spacing" textLength="77" x="342.3273" y="913.657">cnf:instance</text><!--MD5=[d97d254f9c420f934a03be07b1b3e18b]
link sdnc_I_sdnc_I_clinf_I_tasks_I_xnf_I_slices_I_slices to sdnc_I_sdnc_I_xnf_I_nf_I_configs_I_config_slices--><path codeLine="58" d="M292,1108.9831 C292,1133.7031 292,1162.8631 292,1180.6231 " fill="none" id="sdnc_I_sdnc_I_clinf_I_tasks_I_xnf_I_slices_I_slices-to-sdnc_I_sdnc_I_xnf_I_nf_I_configs_I_config_slices" style="stroke:#A80036;stroke-width:1.0;"/><polygon fill="#A80036" points="292,1185.7531,296,1176.7531,292,1180.7531,288,1176.7531,292,1185.7531" style="stroke:#A80036;stroke-width:1.0;"/><text fill="#000000" font-family="sans-serif" font-size="13" lengthAdjust="spacing" textLength="87" x="293" y="1152.02">instance-slice</text><text fill="#000000" font-family="sans-serif" font-size="13" lengthAdjust="spacing" textLength="110" x="159.3125" y="1174.7276">cnf:instance-slice</text><text fill="#888888" font-family="sans-serif" font-size="24" lengthAdjust="spacing" textLength="280" x="450.75" y="1262.2305">Cowdrey Consulting UK</text><!--MD5=[6456a8f589b878d489091841efdd13ae]
@startuml img/sdnc-clinf-tasks.png 
hide empty fields 
hide empty methods 
hide <<case>> circle
hide <<augment>> circle
hide <<choice>> circle
hide <<leafref>> stereotype
hide <<leafref>> circle
page 1x1 
Title sdnc-clinf-tasks 
package "c:sdnc" as c_sdnc { 
} 
package "cnf:sdnc-xnf" as cnf_sdnc_xnf { 
} 
package "yang:ietf-yang-types" as yang_ietf_yang_types { 
} 
note top of cct_sdnc_clinf_tasks : <b>Namespace: </b> urn:com:vendor:yang:sdnc:clinf:tasks \n<b>Prefix: </b> cct \n<b>Organization : </b>\nCowdrey Consulting UK \n<b>Contact : </b>\nlee@cowdrey.net \n<b>Revision : </b> 2020-12-04 \n
package "cct:sdnc-clinf-tasks" as cct_sdnc_clinf_tasks { 
c_sdnc +- - cct_sdnc_clinf_tasks
cnf_sdnc_xnf +- - cct_sdnc_clinf_tasks
yang_ietf_yang_types +- - cct_sdnc_clinf_tasks
class "sdnc-clinf-tasks" as sdnc_clinf_tasks << (M, #33CCFF) module>> 
sdnc_clinf_tasks : feature : sdnc_clinf_tasks 
sdnc_clinf_tasks : add( in: instance in: instance_slice out: task)
sdnc_clinf_tasks : list-nf( out: instance)
sdnc_clinf_tasks : list-tasks-by-nf( in: instance out: task out: instance_slice out: timestamp)
class "/c:sdnc" as c_sdnc << (A,CadetBlue) augment>>
sdnc_clinf_tasks *- -  c_sdnc 
note bottom of c_sdnc
<b>if-feature: </b>c:sdnc
end note 
class "clinf" as  sdnc_I_sdnc_I_clinf <<container>> 
c_sdnc *- - "1" sdnc_I_sdnc_I_clinf 
class "tasks" as sdnc_I_sdnc_I_clinf_I_tasks << (L, #FF7700) list>> 
sdnc_I_sdnc_I_clinf *- - "0..N" sdnc_I_sdnc_I_clinf_I_tasks 
sdnc_I_sdnc_I_clinf_I_tasks : +task : yang:uuid  {key}  {mandatory}
sdnc_I_sdnc_I_clinf_I_tasks : empty()
class "xnf" as sdnc_I_sdnc_I_clinf_I_tasks_I_xnf << (L, #FF7700) list>> 
sdnc_I_sdnc_I_clinf_I_tasks *- - "0..N" sdnc_I_sdnc_I_clinf_I_tasks_I_xnf 
sdnc_I_sdnc_I_clinf_I_tasks_I_xnf : +instance : leafref : ...cnf:instance  {key}  {mandatory}
sdnc_I_sdnc_I_clinf_I_tasks_I_xnf : purge()
class "slices" as  sdnc_I_sdnc_I_clinf_I_tasks_I_xnf_I_slices <<container>> 
sdnc_I_sdnc_I_clinf_I_tasks_I_xnf *- - "1" sdnc_I_sdnc_I_clinf_I_tasks_I_xnf_I_slices 
class "slices" as sdnc_I_sdnc_I_clinf_I_tasks_I_xnf_I_slices_I_slices << (L, #FF7700) list>> 
sdnc_I_sdnc_I_clinf_I_tasks_I_xnf_I_slices *- - "0..N" sdnc_I_sdnc_I_clinf_I_tasks_I_xnf_I_slices_I_slices 
sdnc_I_sdnc_I_clinf_I_tasks_I_xnf_I_slices_I_slices : +instance-slice : leafref : ...cnf:instance-slice  {key}  {mandatory}
sdnc_I_sdnc_I_clinf_I_tasks_I_xnf_I_slices_I_slices : timestamp : yang:date-and-time   {mandatory}
sdnc_I_sdnc_I_clinf_I_tasks_I_xnf_I_slices_I_slices : delete()
class "/c:sdnc/cnf:xnf/cnf:nf" as sdnc_I_sdnc_I_xnf_I_nf <<leafref>> 
class "/c:sdnc/cnf:xnf/cnf:nf/cnf:configs/cnf:config-slices" as sdnc_I_sdnc_I_xnf_I_nf_I_configs_I_config_slices <<leafref>> 
} 

sdnc_I_sdnc_I_clinf_I_tasks_I_xnf- ->"cnf:instance"sdnc_I_sdnc_I_xnf_I_nf: instance
sdnc_I_sdnc_I_clinf_I_tasks_I_xnf_I_slices_I_slices- ->"cnf:instance-slice"sdnc_I_sdnc_I_xnf_I_nf_I_configs_I_config_slices: instance-slice
center footer
 <size:24> Cowdrey Consulting UK </size>
 endfooter 
@enduml

PlantUML version 1.2021.8(Sat Jun 26 09:20:59 BST 2021)
(APACHE source distribution)
Java Runtime: OpenJDK Runtime Environment
JVM: OpenJDK 64-Bit Server VM
Default Encoding: UTF-8
Language: en
Country: GB
--></g></svg>